<svg class="headline" viewBox="0 0 310 107" fill="none" xmlns="http://www.w3.org/2000/svg">
<path d="M41.7159 2.5C42.5559 2.42 42.9759 2.68 42.9759 3.28C42.9759 3.56 42.8759 3.78 42.6759 3.94C42.4759 4.06 42.1959 4.2 41.8359 4.36C40.9159 4.68 40.2759 5.32 39.9159 6.28C39.5559 7.24 39.3759 8.66 39.3759 10.54V44.92C39.3759 45.24 39.2559 45.5 39.0159 45.7C38.8159 45.9 38.5559 46 38.2359 46H34.4559C33.8959 46 33.4559 45.84 33.1359 45.52C32.8159 45.16 32.4159 44.7 31.9359 44.14L7.39586 13.78V37.96C7.39586 39.4 7.53586 40.52 7.81586 41.32C8.09586 42.08 8.43586 42.66 8.83586 43.06C9.27586 43.42 9.75586 43.68 10.2759 43.84C10.7959 43.96 11.3159 44.08 11.8359 44.2C12.5959 44.44 12.9759 44.78 12.9759 45.22C12.9759 45.82 12.5559 46.08 11.7159 46C11.1159 45.96 10.2359 45.92 9.07586 45.88C7.91586 45.84 6.91586 45.82 6.07586 45.82C5.23586 45.82 4.45586 45.84 3.73586 45.88C3.05586 45.92 2.43586 45.96 1.87586 46C1.07586 46.04 0.675859 45.78 0.675859 45.22C0.675859 44.94 0.775859 44.74 0.975859 44.62C1.17586 44.46 1.43586 44.3 1.75586 44.14C2.67586 43.82 3.31586 43.18 3.67586 42.22C4.07586 41.26 4.27586 39.84 4.27586 37.96V8.14C4.27586 7.02 4.19586 6.16 4.03586 5.56C3.87586 4.92 3.45586 4.5 2.77586 4.3C2.45586 4.18 2.19586 4.06 1.99586 3.94C1.79586 3.78 1.69586 3.56 1.69586 3.28C1.69586 2.76 2.09586 2.5 2.89586 2.5H14.0559C14.3759 2.5 14.6359 2.56 14.8359 2.68C15.0359 2.8 15.2359 2.96 15.4359 3.16L36.1959 29.5V10.54C36.1959 9.1 36.0559 8 35.7759 7.24C35.5359 6.44 35.1959 5.86 34.7559 5.5C34.3559 5.1 33.8759 4.84 33.3159 4.72C32.7959 4.56 32.2759 4.42 31.7559 4.3C31.4359 4.18 31.1759 4.06 30.9759 3.94C30.7759 3.78 30.6759 3.56 30.6759 3.28C30.6759 2.72 31.0759 2.46 31.8759 2.5C32.1959 2.5 32.5959 2.52 33.0759 2.56C33.5559 2.56 34.0559 2.58 34.5759 2.62C35.0959 2.62 35.6159 2.64 36.1359 2.68C36.6959 2.68 37.1759 2.68 37.5759 2.68C38.3759 2.68 39.1359 2.66 39.8559 2.62C40.5759 2.58 41.1959 2.54 41.7159 2.5ZM78.0079 34.54C78.6479 34.54 78.9079 34.94 78.7879 35.74C78.5879 37.38 78.4079 38.96 78.2479 40.48C78.1279 42 78.0079 43.58 77.8879 45.22C77.8079 45.98 77.3479 46.32 76.5079 46.24C75.8679 46.16 74.9479 46.1 73.7479 46.06C72.5479 46.02 70.8879 46 68.7679 46H45.4879C44.7279 46 44.3479 45.74 44.3479 45.22C44.3479 44.94 44.4479 44.74 44.6479 44.62C44.8879 44.46 45.1679 44.32 45.4879 44.2C46.1679 44 46.5679 43.56 46.6879 42.88C46.8479 42.2 46.9279 41.28 46.9279 40.12V8.38C46.9279 7.18 46.8479 6.26 46.6879 5.62C46.5679 4.94 46.1679 4.5 45.4879 4.3C45.1679 4.18 44.8879 4.06 44.6479 3.94C44.4479 3.78 44.3479 3.58 44.3479 3.34C44.3479 2.78 44.7079 2.5 45.4279 2.5H68.2279C70.3079 2.5 71.9479 2.48 73.1479 2.44C74.3879 2.4 75.3279 2.34 75.9679 2.26C76.7679 2.18 77.2079 2.52 77.2879 3.28C77.3679 4.08 77.4079 4.82 77.4079 5.5C77.4479 6.14 77.4879 6.78 77.5279 7.42C77.5679 8.02 77.6079 8.64 77.6479 9.28C77.7279 9.92 77.8079 10.64 77.8879 11.44C78.0079 12.28 77.7479 12.7 77.1079 12.7C76.4679 12.7 76.0279 12.38 75.7879 11.74C75.3879 10.54 74.9879 9.54 74.5879 8.74C74.1879 7.9 73.7079 7.24 73.1479 6.76C72.5879 6.24 71.9079 5.88 71.1079 5.68C70.3479 5.44 69.3879 5.32 68.2279 5.32H59.2279V21.46H63.3679C65.8879 21.46 67.6479 21 68.6479 20.08C69.6879 19.16 70.2479 17.9 70.3279 16.3C70.3679 15.54 70.7479 15.16 71.4679 15.16C72.1479 15.16 72.4279 15.58 72.3079 16.42C72.2679 16.98 72.2279 17.78 72.1879 18.82C72.1479 19.86 72.1279 21.22 72.1279 22.9C72.1279 24.58 72.1479 25.92 72.1879 26.92C72.2279 27.92 72.2679 28.7 72.3079 29.26C72.4279 30.1 72.1479 30.52 71.4679 30.52C70.7479 30.52 70.3679 30.14 70.3279 29.38C70.2079 27.7 69.6479 26.44 68.6479 25.6C67.6479 24.72 65.8879 24.28 63.3679 24.28H59.2279V40.9C59.2279 42.42 59.9279 43.18 61.3279 43.18H68.7679C69.9279 43.18 70.9079 43 71.7079 42.64C72.5479 42.24 73.2679 41.7 73.8679 41.02C74.4679 40.3 74.9879 39.48 75.4279 38.56C75.8679 37.6 76.2879 36.56 76.6879 35.44C76.9279 34.76 77.3679 34.46 78.0079 34.54ZM142.262 0.639997C143.742 0.879997 144.862 1.46 145.622 2.38C146.382 3.26 146.822 4.36 146.942 5.68C147.102 6.96 147.002 8.38 146.642 9.94C146.282 11.5 145.702 13.06 144.902 14.62L132.602 44.5C132.482 44.74 132.342 44.94 132.182 45.1C132.022 45.26 131.782 45.38 131.462 45.46L131.102 45.58L126.782 46.9C126.422 47.02 126.122 47 125.882 46.84C125.642 46.72 125.462 46.5 125.342 46.18L116.522 24.16L108.182 44.32C107.982 44.84 107.622 45.18 107.102 45.34L106.742 45.46L104.222 46.18L103.262 46.48L102.422 46.72C102.102 46.84 101.802 46.82 101.522 46.66C101.282 46.54 101.102 46.32 100.982 46L85.8623 8.14C85.3023 6.78 84.7623 5.84 84.2423 5.32C83.7623 4.76 83.2223 4.42 82.6223 4.3C81.8623 4.1 81.4823 3.76 81.4823 3.28C81.4823 2.72 81.8823 2.46 82.6823 2.5C83.3623 2.58 84.3423 2.64 85.6223 2.68C86.9023 2.72 88.4423 2.74 90.2423 2.74C92.1223 2.74 93.6823 2.72 94.9223 2.68C96.1623 2.64 97.1223 2.58 97.8023 2.5C98.6023 2.46 99.0023 2.72 99.0023 3.28C99.0023 3.6 98.9023 3.82 98.7023 3.94C98.5023 4.06 98.2423 4.2 97.9223 4.36C97.4823 4.6 97.3023 5 97.3823 5.56C97.5023 6.12 97.7623 6.98 98.1623 8.14L108.122 36.04L114.662 19.42L110.222 8.32C109.702 6.96 109.182 6.02 108.662 5.5C108.142 4.94 107.582 4.6 106.982 4.48C106.222 4.28 105.842 3.94 105.842 3.46C105.842 2.9 106.242 2.64 107.042 2.68C107.722 2.76 108.702 2.82 109.982 2.86C111.262 2.9 112.802 2.92 114.602 2.92C116.482 2.92 118.042 2.9 119.282 2.86C120.522 2.82 121.482 2.76 122.162 2.68C123.002 2.6 123.422 2.86 123.422 3.46C123.422 3.78 123.322 4 123.122 4.12C122.922 4.24 122.662 4.38 122.342 4.54C121.902 4.78 121.722 5.18 121.802 5.74C121.882 6.3 122.122 7.16 122.522 8.32L132.542 36.16L140.042 16.9C140.522 15.62 140.602 14.56 140.282 13.72C139.962 12.88 139.482 12.08 138.842 11.32C138.242 10.52 137.602 9.7 136.922 8.86C136.282 8.02 135.902 6.98 135.782 5.74C135.702 5.02 135.762 4.32 135.962 3.64C136.202 2.92 136.582 2.32 137.102 1.84C137.662 1.32 138.362 0.939998 139.202 0.699997C140.082 0.459997 141.102 0.439998 142.262 0.639997ZM201.641 44.2C201.961 44.32 202.221 44.46 202.421 44.62C202.661 44.74 202.781 44.94 202.781 45.22C202.781 45.82 202.381 46.08 201.581 46C200.861 45.96 199.801 45.92 198.401 45.88C197.041 45.8 195.401 45.76 193.481 45.76C191.601 45.76 190.041 45.78 188.801 45.82C187.561 45.86 186.601 45.92 185.921 46C185.121 46.08 184.721 45.82 184.721 45.22C184.721 44.94 184.801 44.76 184.961 44.68C185.161 44.56 185.401 44.38 185.681 44.14C186.001 43.82 186.061 43.32 185.861 42.64C185.661 41.92 185.361 41.16 184.961 40.36L177.401 25.66L175.361 28.36V40.36C175.361 41.48 175.441 42.36 175.601 43C175.761 43.6 176.161 44 176.801 44.2C177.561 44.44 177.941 44.78 177.941 45.22C177.941 45.78 177.541 46.04 176.741 46C176.061 45.92 175.101 45.86 173.861 45.82C172.621 45.78 171.061 45.76 169.181 45.76C167.301 45.76 165.741 45.78 164.501 45.82C163.301 45.86 162.361 45.92 161.681 46C160.881 46.04 160.481 45.78 160.481 45.22C160.481 44.78 160.861 44.44 161.621 44.2C162.261 44 162.661 43.6 162.821 43C162.981 42.36 163.061 41.48 163.061 40.36V8.14C163.061 7.02 162.981 6.16 162.821 5.56C162.661 4.92 162.261 4.5 161.621 4.3C160.861 4.06 160.481 3.72 160.481 3.28C160.481 2.72 160.881 2.46 161.681 2.5C162.361 2.58 163.301 2.64 164.501 2.68C165.741 2.72 167.301 2.74 169.181 2.74C171.061 2.74 172.621 2.72 173.861 2.68C175.101 2.64 176.061 2.58 176.741 2.5C177.541 2.46 177.941 2.72 177.941 3.28C177.941 3.72 177.561 4.06 176.801 4.3C176.161 4.5 175.761 4.92 175.601 5.56C175.441 6.16 175.361 7.02 175.361 8.14V24.1L187.781 6.58C188.821 5.1 190.021 3.94 191.381 3.1C192.781 2.26 194.181 1.84 195.581 1.84C196.341 1.84 197.001 1.94 197.561 2.14C198.961 2.7 199.921 3.5 200.441 4.54C201.001 5.54 201.181 6.56 200.981 7.6C200.821 8.64 200.321 9.56 199.481 10.36C198.681 11.16 197.581 11.62 196.181 11.74C195.661 11.78 195.161 11.74 194.681 11.62C194.201 11.5 193.721 11.36 193.241 11.2C192.801 11 192.361 10.82 191.921 10.66C191.521 10.5 191.081 10.42 190.601 10.42C189.921 10.42 189.201 10.68 188.441 11.2C187.721 11.68 186.881 12.66 185.921 14.14L184.481 16.06L197.801 40.36C198.401 41.48 198.981 42.36 199.541 43C200.141 43.6 200.841 44 201.641 44.2ZM221.34 44.2C222.06 44.44 222.42 44.78 222.42 45.22C222.42 45.78 222.02 46.04 221.22 46C220.54 45.92 219.58 45.86 218.34 45.82C217.1 45.78 215.56 45.76 213.72 45.76C211.84 45.76 210.28 45.78 209.04 45.82C207.84 45.86 206.9 45.92 206.22 46C205.42 46.04 205.02 45.78 205.02 45.22C205.02 44.78 205.38 44.44 206.1 44.2C206.78 44 207.2 43.6 207.36 43C207.52 42.36 207.6 41.48 207.6 40.36V8.14C207.6 7.02 207.52 6.16 207.36 5.56C207.2 4.92 206.78 4.5 206.1 4.3C205.38 4.06 205.02 3.72 205.02 3.28C205.02 2.72 205.42 2.46 206.22 2.5C206.9 2.58 207.84 2.64 209.04 2.68C210.28 2.72 211.84 2.74 213.72 2.74C215.56 2.74 217.1 2.72 218.34 2.68C219.58 2.64 220.54 2.58 221.22 2.5C222.02 2.46 222.42 2.72 222.42 3.28C222.42 3.72 222.06 4.06 221.34 4.3C220.66 4.5 220.24 4.92 220.08 5.56C219.92 6.16 219.84 7.02 219.84 8.14V40.36C219.84 41.48 219.92 42.36 220.08 43C220.24 43.6 220.66 44 221.34 44.2ZM265.485 2.5C266.325 2.42 266.745 2.68 266.745 3.28C266.745 3.56 266.645 3.78 266.445 3.94C266.245 4.06 265.965 4.2 265.605 4.36C264.685 4.68 264.045 5.32 263.685 6.28C263.325 7.24 263.145 8.66 263.145 10.54V44.92C263.145 45.24 263.025 45.5 262.785 45.7C262.585 45.9 262.325 46 262.005 46H258.225C257.665 46 257.225 45.84 256.905 45.52C256.585 45.16 256.185 44.7 255.705 44.14L231.165 13.78V37.96C231.165 39.4 231.305 40.52 231.585 41.32C231.865 42.08 232.205 42.66 232.605 43.06C233.045 43.42 233.525 43.68 234.045 43.84C234.565 43.96 235.085 44.08 235.605 44.2C236.365 44.44 236.745 44.78 236.745 45.22C236.745 45.82 236.325 46.08 235.485 46C234.885 45.96 234.005 45.92 232.845 45.88C231.685 45.84 230.685 45.82 229.845 45.82C229.005 45.82 228.225 45.84 227.505 45.88C226.825 45.92 226.205 45.96 225.645 46C224.845 46.04 224.445 45.78 224.445 45.22C224.445 44.94 224.545 44.74 224.745 44.62C224.945 44.46 225.205 44.3 225.525 44.14C226.445 43.82 227.085 43.18 227.445 42.22C227.845 41.26 228.045 39.84 228.045 37.96V8.14C228.045 7.02 227.965 6.16 227.805 5.56C227.645 4.92 227.225 4.5 226.545 4.3C226.225 4.18 225.965 4.06 225.765 3.94C225.565 3.78 225.465 3.56 225.465 3.28C225.465 2.76 225.865 2.5 226.665 2.5H237.825C238.145 2.5 238.405 2.56 238.605 2.68C238.805 2.8 239.005 2.96 239.205 3.16L259.965 29.5V10.54C259.965 9.1 259.825 8 259.545 7.24C259.305 6.44 258.965 5.86 258.525 5.5C258.125 5.1 257.645 4.84 257.085 4.72C256.565 4.56 256.045 4.42 255.525 4.3C255.205 4.18 254.945 4.06 254.745 3.94C254.545 3.78 254.445 3.56 254.445 3.28C254.445 2.72 254.845 2.46 255.645 2.5C255.965 2.5 256.365 2.52 256.845 2.56C257.325 2.56 257.825 2.58 258.345 2.62C258.865 2.62 259.385 2.64 259.905 2.68C260.465 2.68 260.945 2.68 261.345 2.68C262.145 2.68 262.905 2.66 263.625 2.62C264.345 2.58 264.965 2.54 265.485 2.5ZM285.997 2.5C289.197 2.5 292.217 2.9 295.057 3.7C297.937 4.46 300.457 5.72 302.617 7.48C304.777 9.2 306.477 11.42 307.717 14.14C308.997 16.86 309.637 20.18 309.637 24.1C309.637 27.14 309.317 29.8 308.677 32.08C308.037 34.36 307.157 36.32 306.037 37.96C304.917 39.56 303.597 40.88 302.077 41.92C300.557 42.96 298.917 43.78 297.157 44.38C295.397 44.98 293.557 45.4 291.637 45.64C289.757 45.88 287.877 46 285.997 46H269.257C268.497 46 268.117 45.74 268.117 45.22C268.117 44.94 268.217 44.74 268.417 44.62C268.657 44.46 268.937 44.32 269.257 44.2C269.937 44 270.337 43.56 270.457 42.88C270.617 42.2 270.697 41.28 270.697 40.12V8.38C270.697 7.18 270.617 6.26 270.457 5.62C270.337 4.94 269.937 4.5 269.257 4.3C268.937 4.18 268.657 4.06 268.417 3.94C268.217 3.78 268.117 3.58 268.117 3.34C268.117 2.78 268.497 2.5 269.257 2.5H285.997ZM285.997 43.18C287.757 43.18 289.317 42.82 290.677 42.1C292.037 41.38 293.177 40.26 294.097 38.74C295.057 37.18 295.777 35.2 296.257 32.8C296.777 30.4 297.037 27.5 297.037 24.1C297.037 20.42 296.777 17.38 296.257 14.98C295.777 12.58 295.057 10.66 294.097 9.22C293.177 7.78 292.037 6.78 290.677 6.22C289.317 5.62 287.757 5.32 285.997 5.32H282.997V41.2C282.997 42 283.117 42.54 283.357 42.82C283.637 43.06 284.157 43.18 284.917 43.18H285.997ZM51.4935 61.72C54.7735 61.72 57.7935 62.32 60.5535 63.52C63.3135 64.68 65.6935 66.28 67.6935 68.32C69.6935 70.36 71.2535 72.74 72.3735 75.46C73.4935 78.18 74.0535 81.1 74.0535 84.22C74.0535 87.34 73.4935 90.28 72.3735 93.04C71.2535 95.76 69.6935 98.14 67.6935 100.18C65.6935 102.22 63.3135 103.84 60.5535 105.04C57.7935 106.2 54.7735 106.78 51.4935 106.78C48.2535 106.78 45.2535 106.2 42.4935 105.04C39.7335 103.84 37.3535 102.22 35.3535 100.18C33.3535 98.14 31.7935 95.76 30.6735 93.04C29.5535 90.28 28.9935 87.34 28.9935 84.22C28.9935 81.1 29.5535 78.18 30.6735 75.46C31.7935 72.74 33.3535 70.36 35.3535 68.32C37.3535 66.28 39.7335 64.68 42.4935 63.52C45.2535 62.32 48.2535 61.72 51.4935 61.72ZM56.7735 103.78C58.4135 103.42 59.6535 102.6 60.4935 101.32C61.3335 100.04 61.8735 98.44 62.1135 96.52C62.3535 94.6 62.3135 92.44 61.9935 90.04C61.6735 87.6 61.1535 85.04 60.4335 82.36C59.7135 79.64 58.8735 77.12 57.9135 74.8C56.9935 72.48 55.9335 70.52 54.7335 68.92C53.5735 67.28 52.2935 66.08 50.8935 65.32C49.4935 64.56 47.9735 64.36 46.3335 64.72C44.6935 65.12 43.4335 65.96 42.5535 67.24C41.7135 68.52 41.1735 70.12 40.9335 72.04C40.6935 73.96 40.7135 76.14 40.9935 78.58C41.3135 80.98 41.8335 83.52 42.5535 86.2C43.2735 88.88 44.0935 91.38 45.0135 93.7C45.9735 96.02 47.0335 98 48.1935 99.64C49.3935 101.24 50.6935 102.42 52.0935 103.18C53.5335 103.94 55.0935 104.14 56.7735 103.78ZM108.679 71.44C108.799 72.28 108.539 72.7 107.899 72.7C107.259 72.7 106.819 72.38 106.579 71.74C106.179 70.54 105.779 69.54 105.379 68.74C104.979 67.9 104.499 67.24 103.939 66.76C103.379 66.24 102.699 65.88 101.899 65.68C101.139 65.44 100.179 65.32 99.0187 65.32H91.2787V83.32H93.7987C96.3187 83.32 98.0787 82.86 99.0787 81.94C100.119 80.98 100.699 79.7 100.819 78.1C100.899 77.34 101.279 76.96 101.959 76.96C102.639 76.96 102.919 77.38 102.799 78.22C102.759 78.78 102.719 79.58 102.679 80.62C102.639 81.66 102.619 83.02 102.619 84.7C102.619 86.38 102.639 87.74 102.679 88.78C102.719 89.78 102.759 90.56 102.799 91.12C102.919 91.96 102.639 92.38 101.959 92.38C101.279 92.38 100.899 91.98 100.819 91.18C100.659 89.54 100.079 88.28 99.0787 87.4C98.0787 86.52 96.3187 86.08 93.7987 86.08H91.2787V100.36C91.2787 101.48 91.3987 102.36 91.6387 103C91.8787 103.6 92.4187 104 93.2587 104.2C94.0187 104.4 94.3987 104.74 94.3987 105.22C94.3987 105.82 93.9987 106.08 93.1987 106C92.3187 105.92 91.2187 105.86 89.8987 105.82C88.6187 105.78 87.0387 105.76 85.1587 105.76C83.2787 105.76 81.7187 105.78 80.4787 105.82C79.2387 105.86 78.2787 105.92 77.5987 106C77.2787 106.04 76.9587 105.98 76.6387 105.82C76.4787 105.66 76.3987 105.46 76.3987 105.22C76.3987 104.78 76.7787 104.44 77.5387 104.2C78.2187 104 78.6187 103.56 78.7387 102.88C78.8987 102.2 78.9787 101.28 78.9787 100.12V68.38C78.9787 67.18 78.8987 66.26 78.7387 65.62C78.6187 64.94 78.2187 64.5 77.5387 64.3C77.2187 64.18 76.9387 64.06 76.6987 63.94C76.4987 63.78 76.3987 63.58 76.3987 63.34C76.3987 62.78 76.7587 62.5 77.4787 62.5H99.0187C101.099 62.5 102.739 62.48 103.939 62.44C105.179 62.4 106.119 62.34 106.759 62.26C107.559 62.18 107.999 62.52 108.079 63.28C108.159 64.08 108.199 64.82 108.199 65.5C108.239 66.14 108.279 66.78 108.319 67.42C108.359 68.02 108.399 68.64 108.439 69.28C108.519 69.92 108.599 70.64 108.679 71.44ZM168.797 104.2C169.117 104.32 169.377 104.46 169.577 104.62C169.777 104.74 169.877 104.94 169.877 105.22C169.877 105.78 169.477 106.04 168.677 106C167.997 105.92 167.037 105.86 165.797 105.82C164.557 105.78 162.997 105.76 161.117 105.76C159.237 105.76 157.677 105.78 156.437 105.82C155.237 105.86 154.297 105.92 153.617 106C152.817 106.08 152.417 105.82 152.417 105.22C152.417 104.78 152.797 104.44 153.557 104.2C154.197 104 154.597 103.6 154.757 103C154.917 102.36 154.997 101.48 154.997 100.36V88H138.857V100.36C138.857 101.48 138.937 102.36 139.097 103C139.257 103.6 139.657 104 140.297 104.2C141.057 104.44 141.437 104.78 141.437 105.22C141.437 105.78 141.037 106.04 140.237 106C139.557 105.92 138.597 105.86 137.357 105.82C136.117 105.78 134.557 105.76 132.677 105.76C130.797 105.76 129.237 105.78 127.997 105.82C126.797 105.86 125.857 105.92 125.177 106C124.377 106.04 123.977 105.78 123.977 105.22C123.977 104.78 124.357 104.44 125.117 104.2C125.757 104 126.157 103.6 126.317 103C126.477 102.36 126.557 101.48 126.557 100.36V68.14C126.557 67.02 126.477 66.16 126.317 65.56C126.157 64.92 125.757 64.5 125.117 64.3C124.357 64.06 123.977 63.72 123.977 63.28C123.977 62.72 124.377 62.46 125.177 62.5C125.857 62.58 126.797 62.64 127.997 62.68C129.237 62.72 130.797 62.74 132.677 62.74C134.557 62.74 136.117 62.72 137.357 62.68C138.597 62.64 139.557 62.58 140.237 62.5C141.037 62.46 141.437 62.72 141.437 63.28C141.437 63.72 141.057 64.06 140.297 64.3C139.657 64.5 139.257 64.92 139.097 65.56C138.937 66.16 138.857 67.02 138.857 68.14V85.18H154.997V68.14C154.997 67.02 154.917 66.16 154.757 65.56C154.597 64.92 154.197 64.5 153.557 64.3C152.797 64.06 152.417 63.72 152.417 63.28C152.417 62.68 152.817 62.42 153.617 62.5C154.297 62.58 155.237 62.64 156.437 62.68C157.677 62.72 159.237 62.74 161.117 62.74C162.997 62.74 164.557 62.72 165.797 62.68C167.037 62.64 167.997 62.58 168.677 62.5C169.477 62.46 169.877 62.72 169.877 63.28C169.877 63.56 169.777 63.78 169.577 63.94C169.377 64.06 169.117 64.18 168.797 64.3C168.117 64.5 167.697 64.92 167.537 65.56C167.377 66.16 167.297 67.02 167.297 68.14V100.36C167.297 101.48 167.377 102.36 167.537 103C167.697 103.6 168.117 104 168.797 104.2ZM189.055 104.2C189.775 104.44 190.135 104.78 190.135 105.22C190.135 105.78 189.735 106.04 188.935 106C188.255 105.92 187.295 105.86 186.055 105.82C184.815 105.78 183.275 105.76 181.435 105.76C179.555 105.76 177.995 105.78 176.755 105.82C175.555 105.86 174.615 105.92 173.935 106C173.135 106.04 172.735 105.78 172.735 105.22C172.735 104.78 173.095 104.44 173.815 104.2C174.495 104 174.915 103.6 175.075 103C175.235 102.36 175.315 101.48 175.315 100.36V68.14C175.315 67.02 175.235 66.16 175.075 65.56C174.915 64.92 174.495 64.5 173.815 64.3C173.095 64.06 172.735 63.72 172.735 63.28C172.735 62.72 173.135 62.46 173.935 62.5C174.615 62.58 175.555 62.64 176.755 62.68C177.995 62.72 179.555 62.74 181.435 62.74C183.275 62.74 184.815 62.72 186.055 62.68C187.295 62.64 188.255 62.58 188.935 62.5C189.735 62.46 190.135 62.72 190.135 63.28C190.135 63.72 189.775 64.06 189.055 64.3C188.375 64.5 187.955 64.92 187.795 65.56C187.635 66.16 187.555 67.02 187.555 68.14V100.36C187.555 101.48 187.635 102.36 187.795 103C187.955 103.6 188.375 104 189.055 104.2ZM231.64 82.6C231.88 82.48 232.1 82.42 232.3 82.42C232.78 82.42 233.02 82.72 233.02 83.32V96.88C233.02 97.36 232.88 97.82 232.6 98.26C232.2 98.82 231.56 99.58 230.68 100.54C229.8 101.5 228.66 102.44 227.26 103.36C225.86 104.28 224.16 105.08 222.16 105.76C220.2 106.44 217.94 106.78 215.38 106.78C212.3 106.78 209.44 106.26 206.8 105.22C204.16 104.18 201.84 102.72 199.84 100.84C197.88 98.92 196.3 96.66 195.1 94.06C193.9 91.46 193.18 88.6 192.94 85.48C192.7 82.6 193.02 79.74 193.9 76.9C194.82 74.06 196.22 71.52 198.1 69.28C199.98 67.04 202.32 65.22 205.12 63.82C207.92 62.42 211.14 61.72 214.78 61.72C217.9 61.72 220.58 62.1 222.82 62.86C225.06 63.58 226.9 64.5 228.34 65.62C229.78 66.74 230.82 67.96 231.46 69.28C232.14 70.6 232.44 71.84 232.36 73C232.32 74.16 231.9 75.14 231.1 75.94C230.34 76.74 229.26 77.2 227.86 77.32C226.14 77.48 224.86 77.24 224.02 76.6C223.22 75.96 222.62 75.14 222.22 74.14C221.86 73.1 221.6 71.96 221.44 70.72C221.28 69.48 221 68.32 220.6 67.24C220.24 66.16 219.62 65.26 218.74 64.54C217.9 63.82 216.58 63.46 214.78 63.46C212.9 63.46 211.26 64.1 209.86 65.38C208.5 66.62 207.4 68.24 206.56 70.24C205.76 72.24 205.22 74.5 204.94 77.02C204.66 79.5 204.66 81.98 204.94 84.46C205.18 86.74 205.66 88.92 206.38 91C207.14 93.08 208.1 94.92 209.26 96.52C210.46 98.08 211.86 99.32 213.46 100.24C215.1 101.16 216.94 101.62 218.98 101.62C219.86 101.62 220.7 101.54 221.5 101.38V92.2C221.5 91.08 221.42 90.22 221.26 89.62C221.14 88.98 220.74 88.56 220.06 88.36C219.3 88.16 218.92 87.8 218.92 87.28C218.92 86.72 219.28 86.38 220 86.26C220.52 86.18 221.2 86.06 222.04 85.9C222.92 85.7 223.88 85.46 224.92 85.18C225.96 84.86 227.06 84.5 228.22 84.1C229.38 83.66 230.52 83.16 231.64 82.6ZM280.828 104.2C281.148 104.32 281.408 104.46 281.608 104.62C281.808 104.74 281.908 104.94 281.908 105.22C281.908 105.78 281.508 106.04 280.708 106C280.028 105.92 279.068 105.86 277.828 105.82C276.588 105.78 275.028 105.76 273.148 105.76C271.268 105.76 269.708 105.78 268.468 105.82C267.268 105.86 266.328 105.92 265.648 106C264.848 106.08 264.448 105.82 264.448 105.22C264.448 104.78 264.828 104.44 265.588 104.2C266.228 104 266.628 103.6 266.788 103C266.948 102.36 267.028 101.48 267.028 100.36V88H250.888V100.36C250.888 101.48 250.968 102.36 251.128 103C251.288 103.6 251.688 104 252.328 104.2C253.088 104.44 253.468 104.78 253.468 105.22C253.468 105.78 253.068 106.04 252.268 106C251.588 105.92 250.628 105.86 249.388 105.82C248.148 105.78 246.588 105.76 244.708 105.76C242.828 105.76 241.268 105.78 240.028 105.82C238.828 105.86 237.888 105.92 237.208 106C236.408 106.04 236.008 105.78 236.008 105.22C236.008 104.78 236.388 104.44 237.148 104.2C237.788 104 238.188 103.6 238.348 103C238.508 102.36 238.588 101.48 238.588 100.36V68.14C238.588 67.02 238.508 66.16 238.348 65.56C238.188 64.92 237.788 64.5 237.148 64.3C236.388 64.06 236.008 63.72 236.008 63.28C236.008 62.72 236.408 62.46 237.208 62.5C237.888 62.58 238.828 62.64 240.028 62.68C241.268 62.72 242.828 62.74 244.708 62.74C246.588 62.74 248.148 62.72 249.388 62.68C250.628 62.64 251.588 62.58 252.268 62.5C253.068 62.46 253.468 62.72 253.468 63.28C253.468 63.72 253.088 64.06 252.328 64.3C251.688 64.5 251.288 64.92 251.128 65.56C250.968 66.16 250.888 67.02 250.888 68.14V85.18H267.028V68.14C267.028 67.02 266.948 66.16 266.788 65.56C266.628 64.92 266.228 64.5 265.588 64.3C264.828 64.06 264.448 63.72 264.448 63.28C264.448 62.68 264.848 62.42 265.648 62.5C266.328 62.58 267.268 62.64 268.468 62.68C269.708 62.72 271.268 62.74 273.148 62.74C275.028 62.74 276.588 62.72 277.828 62.68C279.068 62.64 280.028 62.58 280.708 62.5C281.508 62.46 281.908 62.72 281.908 63.28C281.908 63.56 281.808 63.78 281.608 63.94C281.408 64.06 281.148 64.18 280.828 64.3C280.148 64.5 279.728 64.92 279.568 65.56C279.408 66.16 279.328 67.02 279.328 68.14V100.36C279.328 101.48 279.408 102.36 279.568 103C279.728 103.6 280.148 104 280.828 104.2Z" fill="#F4F1EB"/>
</svg>
