<svg width="429" height="414" viewBox="0 0 429 414" fill="none" xmlns="http://www.w3.org/2000/svg">
<path d="M258.003 397.498C245.603 397.498 236.803 392.398 233.603 382.798L250.203 376.398C251.403 380.298 254.203 382.498 258.703 382.498C261.103 382.498 262.103 381.698 262.103 380.498C262.103 374.298 236.003 377.498 236.003 359.398C236.003 348.698 244.803 342.098 258.803 342.098C270.203 342.098 278.403 346.698 280.503 354.298L263.903 360.698C263.003 357.998 261.203 356.598 258.503 356.598C256.403 356.598 255.503 357.298 255.503 358.498C255.503 363.898 281.603 359.798 281.603 379.198C281.603 390.498 272.503 397.498 258.003 397.498Z" fill="black"/>
<path d="M214.148 343.398H235.348L212.048 413.998H191.848L198.548 396.098H191.248L176.348 343.398H197.548L204.748 379.298L214.148 343.398Z" fill="black"/>
<path d="M153.786 343.398H172.786V396.098H153.786V393.198C150.486 395.998 146.186 397.498 140.786 397.498C125.386 397.498 114.386 385.598 114.386 369.798C114.386 353.998 125.386 343.398 140.786 343.398C146.186 343.398 150.486 344.798 153.786 347.298V343.398ZM143.886 379.398C149.486 379.398 153.086 375.498 153.086 369.798C153.086 364.098 149.486 360.198 143.886 360.198C138.586 360.198 134.886 364.198 134.886 369.798C134.886 375.398 138.586 379.398 143.886 379.398Z" fill="black"/>
<path d="M88.1231 322.998H108.723V396.098H89.7231V393.398C86.3231 395.998 81.9231 397.498 76.7231 397.498C61.3231 397.498 50.3231 385.598 50.3231 369.798C50.3231 353.998 60.8231 342.098 76.2231 342.098C80.8231 342.098 84.8231 343.198 88.1231 345.298V322.998ZM79.8231 379.398C85.4231 379.398 89.0231 375.498 89.0231 369.798C89.0231 364.098 85.4231 360.198 79.8231 360.198C74.5231 360.198 70.8231 364.198 70.8231 369.798C70.8231 375.398 74.5231 379.398 79.8231 379.398Z" fill="black"/>
<path d="M342.784 272.598C344.384 276.398 347.684 278.198 352.284 278.198C356.884 278.198 358.784 276.798 360.784 274.498L375.584 284.598C371.284 289.198 365.084 294.498 351.684 294.498C333.784 294.498 322.684 282.498 322.684 266.798C322.684 251.598 335.084 239.098 350.484 239.098C368.384 239.098 378.484 253.198 378.484 265.698C378.484 268.898 378.284 270.998 378.084 272.598H342.784ZM342.184 260.798H359.784C358.584 256.598 355.684 253.998 350.984 253.998C346.084 253.998 343.284 256.198 342.184 260.798Z" fill="black"/>
<path d="M297.528 238.998C309.428 238.998 317.528 247.398 317.528 258.998V293.098H296.928V263.098C296.928 259.398 293.928 257.298 290.928 257.298C287.928 257.298 284.928 259.398 284.928 263.098V293.098H264.328V219.998H284.928V242.498C288.328 240.298 292.528 238.998 297.528 238.998Z" fill="black"/>
<path d="M248.671 293.098C233.871 293.098 226.571 284.398 226.571 271.498V257.898H218.171V240.398H221.771C225.671 240.398 227.771 238.198 227.771 233.998V226.198H247.871V240.398H258.171V257.898H247.171V268.998C247.171 273.198 249.271 275.198 253.071 275.198H258.171V293.098H248.671Z" fill="black"/>
<path d="M144.113 293.098V219.998H164.713V293.098H144.113Z" fill="black"/>
<path d="M116.086 293.098V219.998H136.686V293.098H116.086Z" fill="black"/>
<path d="M89.7231 240.398H108.723V293.098H89.7231V290.198C86.4231 292.998 82.1231 294.498 76.7231 294.498C61.3231 294.498 50.3231 282.598 50.3231 266.798C50.3231 250.998 61.3231 240.398 76.7231 240.398C82.1231 240.398 86.4231 241.798 89.7231 244.298V240.398ZM79.8231 276.398C85.4231 276.398 89.0231 272.498 89.0231 266.798C89.0231 261.098 85.4231 257.198 79.8231 257.198C74.5231 257.198 70.8231 261.198 70.8231 266.798C70.8231 272.398 74.5231 276.398 79.8231 276.398Z" fill="black"/>
<path d="M213.4 131.498C206.5 131.498 201.1 126.598 201.1 119.598C201.1 112.598 206.5 107.498 213.4 107.498C220.3 107.498 225.7 112.598 225.7 119.598C225.7 126.598 220.3 131.498 213.4 131.498ZM203 190.098V137.398H223.6V190.098H203Z" fill="black"/>
<path d="M174.972 190.098V116.998H195.572V190.098H174.972Z" fill="black"/>
<path d="M139.779 191.498C122.579 191.498 110.379 179.498 110.379 163.798C110.379 147.998 122.579 136.098 139.779 136.098C157.079 136.098 169.379 147.998 169.379 163.798C169.379 179.498 157.079 191.498 139.779 191.498ZM139.979 173.198C145.179 173.198 148.679 169.398 148.679 163.698C148.679 158.198 145.379 154.398 139.979 154.398C134.479 154.398 131.079 158.198 131.079 163.798C131.079 169.298 134.479 173.198 139.979 173.198Z" fill="black"/>
<path d="M85.2231 135.998C97.1231 135.998 105.223 144.398 105.223 155.998V190.098H84.6231V160.098C84.6231 156.398 81.6231 154.298 78.6231 154.298C75.6231 154.298 72.6231 156.398 72.6231 160.098V190.098H52.0231V116.998H72.6231V139.498C76.0231 137.298 80.2231 135.998 85.2231 135.998Z" fill="black"/>
<path d="M336.023 34.3981H357.223L333.923 104.998H313.723L320.423 87.0981H313.123L298.223 34.3981H319.423L326.623 70.2981L336.023 34.3981Z" fill="black"/>
<path d="M272.804 33.0981C288.204 33.0981 298.704 44.9981 298.704 60.7981C298.704 76.5981 287.704 88.4981 272.304 88.4981C267.904 88.4981 264.104 87.4981 260.904 85.4981V104.998H240.304V34.3981H259.304V37.3981C262.904 34.5981 267.404 33.0981 272.804 33.0981ZM269.204 70.3981C274.504 70.3981 278.204 66.3981 278.204 60.7981C278.204 55.1981 274.504 51.1981 269.204 51.1981C263.604 51.1981 260.004 55.0981 260.004 60.7981C260.004 66.4981 263.604 70.3981 269.204 70.3981Z" fill="black"/>
<path d="M208.742 33.0981C224.142 33.0981 234.642 44.9981 234.642 60.7981C234.642 76.5981 223.642 88.4981 208.242 88.4981C203.842 88.4981 200.042 87.4981 196.842 85.4981V104.998H176.242V34.3981H195.242V37.3981C198.842 34.5981 203.342 33.0981 208.742 33.0981ZM205.142 70.3981C210.442 70.3981 214.142 66.3981 214.142 60.7981C214.142 55.1981 210.442 51.1981 205.142 51.1981C199.542 51.1981 195.942 55.0981 195.942 60.7981C195.942 66.4981 199.542 70.3981 205.142 70.3981Z" fill="black"/>
<path d="M149.879 34.3981H168.879V87.0981H149.879V84.1981C146.579 86.9981 142.279 88.4981 136.879 88.4981C121.479 88.4981 110.479 76.5981 110.479 60.7981C110.479 44.9981 121.479 34.3981 136.879 34.3981C142.279 34.3981 146.579 35.7981 149.879 38.2981V34.3981ZM139.979 70.3981C145.579 70.3981 149.179 66.4981 149.179 60.7981C149.179 55.0981 145.579 51.1981 139.979 51.1981C134.679 51.1981 130.979 55.1981 130.979 60.7981C130.979 66.3981 134.679 70.3981 139.979 70.3981Z" fill="black"/>
<path d="M85.2231 32.9981C97.1231 32.9981 105.223 41.3981 105.223 52.9981V87.0981H84.6231V57.0981C84.6231 53.3981 81.6231 51.2981 78.6231 51.2981C75.6231 51.2981 72.6231 53.3981 72.6231 57.0981V87.0981H52.0231V13.9981H72.6231V36.4981C76.0231 34.2981 80.2231 32.9981 85.2231 32.9981Z" fill="black"/>
<path d="M279.023 152.098L239.023 152.098L239.023 172.698L279.023 172.698L279.023 152.098Z" fill="black"/>
<path d="M212.323 251.098L172.323 251.098L172.323 271.698L212.323 271.698L212.323 251.098Z" fill="black"/>
<path d="M428.323 251.098L388.323 251.098L388.323 271.698L428.323 271.698L428.323 251.098Z" fill="black"/>
<path d="M250.003 387.498C237.603 387.498 228.803 382.398 225.603 372.798L242.203 366.398C243.403 370.298 246.203 372.498 250.703 372.498C253.103 372.498 254.103 371.698 254.103 370.498C254.103 364.298 228.003 367.498 228.003 349.398C228.003 338.698 236.803 332.098 250.803 332.098C262.203 332.098 270.403 336.698 272.503 344.298L255.903 350.698C255.003 347.998 253.203 346.598 250.503 346.598C248.403 346.598 247.503 347.298 247.503 348.498C247.503 353.898 273.603 349.798 273.603 369.198C273.603 380.498 264.503 387.498 250.003 387.498Z" fill="#2C8E4F"/>
<path d="M206.148 333.398H227.348L204.048 403.998H183.848L190.548 386.098H183.248L168.348 333.398H189.548L196.748 369.298L206.148 333.398Z" fill="#2C8E4F"/>
<path d="M145.786 333.398H164.786V386.098H145.786V383.198C142.486 385.998 138.186 387.498 132.786 387.498C117.386 387.498 106.386 375.598 106.386 359.798C106.386 343.998 117.386 333.398 132.786 333.398C138.186 333.398 142.486 334.798 145.786 337.298V333.398ZM135.886 369.398C141.486 369.398 145.086 365.498 145.086 359.798C145.086 354.098 141.486 350.198 135.886 350.198C130.586 350.198 126.886 354.198 126.886 359.798C126.886 365.398 130.586 369.398 135.886 369.398Z" fill="#2C8E4F"/>
<path d="M80.1231 312.998H100.723V386.098H81.7231V383.398C78.3231 385.998 73.9231 387.498 68.7231 387.498C53.3231 387.498 42.3231 375.598 42.3231 359.798C42.3231 343.998 52.8231 332.098 68.2231 332.098C72.8231 332.098 76.8231 333.198 80.1231 335.298V312.998ZM71.8231 369.398C77.4231 369.398 81.0231 365.498 81.0231 359.798C81.0231 354.098 77.4231 350.198 71.8231 350.198C66.5231 350.198 62.8231 354.198 62.8231 359.798C62.8231 365.398 66.5231 369.398 71.8231 369.398Z" fill="#2C8E4F"/>
<path d="M334.784 262.598C336.384 266.398 339.684 268.198 344.284 268.198C348.884 268.198 350.784 266.798 352.784 264.498L367.584 274.598C363.284 279.198 357.084 284.498 343.684 284.498C325.784 284.498 314.684 272.498 314.684 256.798C314.684 241.598 327.084 229.098 342.484 229.098C360.384 229.098 370.484 243.198 370.484 255.698C370.484 258.898 370.284 260.998 370.084 262.598H334.784ZM334.184 250.798H351.784C350.584 246.598 347.684 243.998 342.984 243.998C338.084 243.998 335.284 246.198 334.184 250.798Z" fill="#2C8E4F"/>
<path d="M289.528 228.998C301.428 228.998 309.528 237.398 309.528 248.998V283.098H288.928V253.098C288.928 249.398 285.928 247.298 282.928 247.298C279.928 247.298 276.928 249.398 276.928 253.098V283.098H256.328V209.998H276.928V232.498C280.328 230.298 284.528 228.998 289.528 228.998Z" fill="#2C8E4F"/>
<path d="M240.671 283.098C225.871 283.098 218.571 274.398 218.571 261.498V247.898H210.171V230.398H213.771C217.671 230.398 219.771 228.198 219.771 223.998V216.198H239.871V230.398H250.171V247.898H239.171V258.998C239.171 263.198 241.271 265.198 245.071 265.198H250.171V283.098H240.671Z" fill="#2C8E4F"/>
<path d="M136.113 283.098V209.998H156.713V283.098H136.113Z" fill="#2C8E4F"/>
<path d="M108.086 283.098V209.998H128.686V283.098H108.086Z" fill="#2C8E4F"/>
<path d="M81.7231 230.398H100.723V283.098H81.7231V280.198C78.4231 282.998 74.1231 284.498 68.7231 284.498C53.3231 284.498 42.3231 272.598 42.3231 256.798C42.3231 240.998 53.3231 230.398 68.7231 230.398C74.1231 230.398 78.4231 231.798 81.7231 234.298V230.398ZM71.8231 266.398C77.4231 266.398 81.0231 262.498 81.0231 256.798C81.0231 251.098 77.4231 247.198 71.8231 247.198C66.5231 247.198 62.8231 251.198 62.8231 256.798C62.8231 262.398 66.5231 266.398 71.8231 266.398Z" fill="#2C8E4F"/>
<path d="M205.4 121.498C198.5 121.498 193.1 116.598 193.1 109.598C193.1 102.598 198.5 97.4981 205.4 97.4981C212.3 97.4981 217.7 102.598 217.7 109.598C217.7 116.598 212.3 121.498 205.4 121.498ZM195 180.098V127.398H215.6V180.098H195Z" fill="#2C8E4F"/>
<path d="M166.972 180.098V106.998H187.572V180.098H166.972Z" fill="#2C8E4F"/>
<path d="M131.779 181.498C114.579 181.498 102.379 169.498 102.379 153.798C102.379 137.998 114.579 126.098 131.779 126.098C149.079 126.098 161.379 137.998 161.379 153.798C161.379 169.498 149.079 181.498 131.779 181.498ZM131.979 163.198C137.179 163.198 140.679 159.398 140.679 153.698C140.679 148.198 137.379 144.398 131.979 144.398C126.479 144.398 123.079 148.198 123.079 153.798C123.079 159.298 126.479 163.198 131.979 163.198Z" fill="#2C8E4F"/>
<path d="M77.2231 125.998C89.1231 125.998 97.2231 134.398 97.2231 145.998V180.098H76.6231V150.098C76.6231 146.398 73.6231 144.298 70.6231 144.298C67.6231 144.298 64.6231 146.398 64.6231 150.098V180.098H44.0231V106.998H64.6231V129.498C68.0231 127.298 72.2231 125.998 77.2231 125.998Z" fill="#2C8E4F"/>
<path d="M328.023 24.3981H349.223L325.923 94.9981H305.723L312.423 77.0981H305.123L290.223 24.3981H311.423L318.623 60.2981L328.023 24.3981Z" fill="#2C8E4F"/>
<path d="M264.804 23.0981C280.204 23.0981 290.704 34.9981 290.704 50.7981C290.704 66.5981 279.704 78.4981 264.304 78.4981C259.904 78.4981 256.104 77.4981 252.904 75.4981V94.9981H232.304V24.3981H251.304V27.3981C254.904 24.5981 259.404 23.0981 264.804 23.0981ZM261.204 60.3981C266.504 60.3981 270.204 56.3981 270.204 50.7981C270.204 45.1981 266.504 41.1981 261.204 41.1981C255.604 41.1981 252.004 45.0981 252.004 50.7981C252.004 56.4981 255.604 60.3981 261.204 60.3981Z" fill="#2C8E4F"/>
<path d="M200.742 23.0981C216.142 23.0981 226.642 34.9981 226.642 50.7981C226.642 66.5981 215.642 78.4981 200.242 78.4981C195.842 78.4981 192.042 77.4981 188.842 75.4981V94.9981H168.242V24.3981H187.242V27.3981C190.842 24.5981 195.342 23.0981 200.742 23.0981ZM197.142 60.3981C202.442 60.3981 206.142 56.3981 206.142 50.7981C206.142 45.1981 202.442 41.1981 197.142 41.1981C191.542 41.1981 187.942 45.0981 187.942 50.7981C187.942 56.4981 191.542 60.3981 197.142 60.3981Z" fill="#2C8E4F"/>
<path d="M141.879 24.3981H160.879V77.0981H141.879V74.1981C138.579 76.9981 134.279 78.4981 128.879 78.4981C113.479 78.4981 102.479 66.5981 102.479 50.7981C102.479 34.9981 113.479 24.3981 128.879 24.3981C134.279 24.3981 138.579 25.7981 141.879 28.2981V24.3981ZM131.979 60.3981C137.579 60.3981 141.179 56.4981 141.179 50.7981C141.179 45.0981 137.579 41.1981 131.979 41.1981C126.679 41.1981 122.979 45.1981 122.979 50.7981C122.979 56.3981 126.679 60.3981 131.979 60.3981Z" fill="#2C8E4F"/>
<path d="M77.2231 22.9981C89.1231 22.9981 97.2231 31.3981 97.2231 42.9981V77.0981H76.6231V47.0981C76.6231 43.3981 73.6231 41.2981 70.6231 41.2981C67.6231 41.2981 64.6231 43.3981 64.6231 47.0981V77.0981H44.0231V3.99811H64.6231V26.4981C68.0231 24.2981 72.2231 22.9981 77.2231 22.9981Z" fill="#2C8E4F"/>
<path d="M271.023 142.098L231.023 142.098L231.023 162.698L271.023 162.698L271.023 142.098Z" fill="#2C8E4F"/>
<path d="M204.323 241.098L164.323 241.098L164.323 261.698L204.323 261.698L204.323 241.098Z" fill="#2C8E4F"/>
<path d="M420.323 241.098L380.323 241.098L380.323 261.698L420.323 261.698L420.323 241.098Z" fill="#2C8E4F"/>
<path fill-rule="evenodd" clip-rule="evenodd" d="M234.756 337.533C231.062 340.327 229.003 344.354 229.003 349.398C229.003 353.646 230.519 356.58 232.772 358.737C235.062 360.928 238.16 362.361 241.377 363.465C242.98 364.014 244.587 364.474 246.117 364.908C246.192 364.929 246.267 364.95 246.342 364.971C247.779 365.378 249.158 365.769 250.354 366.187C251.6 366.622 252.742 367.118 253.586 367.757C254.452 368.414 255.103 369.307 255.103 370.498C255.103 371.428 254.688 372.252 253.84 372.792C253.058 373.289 251.985 373.498 250.703 373.498C248.287 373.498 246.242 372.906 244.623 371.717C243.27 370.722 242.274 369.355 241.604 367.701L226.873 373.38C230.135 381.873 238.289 386.498 250.003 386.498C257.105 386.498 262.767 384.783 266.628 381.795C270.462 378.829 272.603 374.55 272.603 369.198C272.603 364.602 271.069 361.48 268.82 359.249C266.538 356.984 263.452 355.569 260.25 354.551C258.655 354.044 257.052 353.641 255.529 353.278C255.175 353.194 254.824 353.111 254.478 353.03C253.348 352.764 252.268 352.511 251.314 352.246C250.079 351.904 248.941 351.515 248.097 350.992C247.24 350.46 246.503 349.665 246.503 348.498C246.503 347.607 246.861 346.799 247.661 346.266C248.389 345.781 249.373 345.598 250.503 345.598C252.033 345.598 253.381 345.998 254.485 346.841C255.332 347.488 255.986 348.359 256.469 349.408L271.267 343.703C268.971 337.232 261.537 333.098 250.803 333.098C243.946 333.098 238.481 334.716 234.756 337.533ZM233.55 335.938C237.725 332.78 243.66 331.098 250.803 331.098C262.4 331.098 271.191 335.795 273.467 344.032L273.708 344.905L256.636 351.487C257.987 351.816 259.419 352.188 260.856 352.645C264.179 353.702 267.617 355.237 270.229 357.829C272.874 360.453 274.603 364.094 274.603 369.198C274.603 375.146 272.194 380.017 267.852 383.376C263.539 386.714 257.401 388.498 250.003 388.498C237.323 388.498 228.033 383.25 224.654 373.114L224.352 372.209L241.476 365.607C241.227 365.525 240.978 365.442 240.728 365.357C237.421 364.222 233.994 362.674 231.389 360.181C228.749 357.654 227.003 354.2 227.003 349.398C227.003 343.742 229.344 339.119 233.55 335.938ZM243.168 366.136C243.72 367.909 244.609 369.224 245.807 370.105C247.013 370.991 248.618 371.498 250.703 371.498C251.82 371.498 252.448 371.307 252.766 371.104C253.017 370.945 253.103 370.769 253.103 370.498C253.103 370.14 252.938 369.776 252.377 369.351C251.793 368.908 250.896 368.494 249.695 368.075C248.558 367.678 247.232 367.302 245.771 366.888C245.705 366.87 245.639 366.851 245.572 366.832C244.798 366.613 243.992 366.383 243.168 366.136ZM254.981 351.094L254.954 351.014C254.55 349.803 253.974 348.967 253.271 348.43C252.574 347.898 251.673 347.598 250.503 347.598C249.532 347.598 249.017 347.766 248.77 347.93C248.595 348.047 248.503 348.189 248.503 348.498C248.503 348.681 248.582 348.939 249.151 349.292C249.735 349.655 250.636 349.983 251.848 350.319C252.761 350.572 253.786 350.813 254.906 351.076C254.931 351.082 254.956 351.088 254.981 351.094Z" fill="black"/>
<path fill-rule="evenodd" clip-rule="evenodd" d="M167.026 332.398H190.368L196.877 364.857L205.376 332.398H228.731L204.771 404.998H182.406L189.106 387.098H182.492L167.026 332.398ZM169.67 334.398L184.005 385.098H191.99L185.29 402.998H203.325L225.965 334.398H206.92L197.716 369.551L195.768 369.495L188.729 334.398H169.67Z" fill="black"/>
<path fill-rule="evenodd" clip-rule="evenodd" d="M114.514 341.384C110.048 345.803 107.386 352.137 107.386 359.798C107.386 375.1 117.991 386.498 132.786 386.498C137.99 386.498 142.049 385.057 145.139 382.436L146.786 381.038V385.098H163.786V334.398H146.786V339.31L145.182 338.095C142.084 335.749 138.007 334.398 132.786 334.398C125.32 334.398 118.982 336.964 114.514 341.384ZM113.107 339.962C117.989 335.132 124.852 332.398 132.786 332.398C137.548 332.398 141.54 333.454 144.786 335.414V332.398H165.786V387.098H144.786V385.203C141.538 387.371 137.543 388.498 132.786 388.498C116.78 388.498 105.386 376.096 105.386 359.798C105.386 351.659 108.224 344.794 113.107 339.962ZM128.667 352.216C130.453 350.303 132.972 349.198 135.886 349.198C138.927 349.198 141.501 350.263 143.311 352.173C145.116 354.076 146.086 356.737 146.086 359.798C146.086 362.859 145.116 365.52 143.311 367.424C141.501 369.333 138.927 370.398 135.886 370.398C132.972 370.398 130.453 369.293 128.667 367.381C126.886 365.473 125.886 362.82 125.886 359.798C125.886 356.776 126.886 354.123 128.667 352.216ZM130.129 353.581C128.735 355.073 127.886 357.22 127.886 359.798C127.886 362.376 128.735 364.523 130.129 366.016C131.518 367.503 133.499 368.398 135.886 368.398C138.444 368.398 140.47 367.513 141.86 366.048C143.255 364.576 144.086 362.437 144.086 359.798C144.086 357.159 143.255 355.02 141.86 353.549C140.47 352.083 138.444 351.198 135.886 351.198C133.499 351.198 131.518 352.093 130.129 353.581Z" fill="black"/>
<path fill-rule="evenodd" clip-rule="evenodd" d="M79.1231 311.998H101.723V387.098H80.7231V385.299C77.3991 387.354 73.347 388.498 68.7231 388.498C52.7178 388.498 41.3231 376.096 41.3231 359.798C41.3231 343.527 52.1932 331.098 68.2231 331.098C72.3047 331.098 75.9673 331.936 79.1231 333.57V311.998ZM81.1231 313.998V337.12L79.5862 336.142C76.4685 334.158 72.6605 333.098 68.2231 333.098C53.4531 333.098 43.3231 344.469 43.3231 359.798C43.3231 375.1 53.9285 386.498 68.7231 386.498C73.7252 386.498 77.9065 385.058 81.1157 382.604L82.7231 381.375V385.098H99.7231V313.998H81.1231ZM64.6047 352.216C66.3904 350.303 68.9096 349.198 71.8231 349.198C74.865 349.198 77.4386 350.263 79.2488 352.173C81.0536 354.076 82.0231 356.737 82.0231 359.798C82.0231 362.859 81.0536 365.52 79.2488 367.424C77.4386 369.333 74.865 370.398 71.8231 370.398C68.9096 370.398 66.3904 369.293 64.6047 367.381C62.8238 365.473 61.8231 362.82 61.8231 359.798C61.8231 356.776 62.8238 354.123 64.6047 352.216ZM66.0665 353.581C64.6724 355.073 63.8231 357.22 63.8231 359.798C63.8231 362.376 64.6724 364.523 66.0665 366.016C67.4558 367.503 69.4366 368.398 71.8231 368.398C74.3813 368.398 76.4076 367.513 77.7975 366.048C79.1926 364.576 80.0231 362.437 80.0231 359.798C80.0231 357.159 79.1926 355.02 77.7975 353.549C76.4076 352.083 74.3813 351.198 71.8231 351.198C69.4366 351.198 67.4558 352.093 66.0665 353.581Z" fill="black"/>
<path fill-rule="evenodd" clip-rule="evenodd" d="M342.484 230.098C327.636 230.098 315.684 242.15 315.684 256.798C315.684 264.408 318.37 271.068 323.175 275.825C327.978 280.58 334.964 283.498 343.684 283.498C350.246 283.498 354.988 282.202 358.596 280.38C361.76 278.783 364.095 276.758 366.047 274.76L352.941 265.816C352.079 266.729 351.144 267.522 349.949 268.108C348.472 268.833 346.685 269.198 344.284 269.198C341.858 269.198 339.698 268.724 337.909 267.689C336.107 266.647 334.741 265.072 333.862 262.986L333.278 261.598H369.194C369.351 260.15 369.484 258.296 369.484 255.698C369.484 243.687 359.771 230.098 342.484 230.098ZM313.684 256.798C313.684 241.046 326.532 228.098 342.484 228.098C360.998 228.098 371.484 242.709 371.484 255.698C371.484 258.945 371.281 261.087 371.076 262.722L370.967 263.598H353.239L369.111 274.429L368.315 275.281C366.129 277.619 363.411 280.19 359.497 282.166C355.58 284.144 350.522 285.498 343.684 285.498C334.504 285.498 326.99 282.416 321.768 277.246C316.548 272.078 313.684 264.888 313.684 256.798ZM352.241 263.598H336.436C337.093 264.609 337.923 265.387 338.91 265.957C340.32 266.773 342.11 267.198 344.284 267.198C346.483 267.198 347.946 266.863 349.069 266.313C350.193 265.761 351.064 264.952 352.029 263.842L352.241 263.598ZM336.546 244.883C338.223 243.582 340.388 242.998 342.984 242.998C345.527 242.998 347.657 243.705 349.323 245.044C350.982 246.376 352.103 248.273 352.746 250.523L353.11 251.798H332.917L333.212 250.566C333.798 248.115 334.866 246.186 336.546 244.883ZM335.517 249.798H350.379C349.82 248.457 349.045 247.386 348.07 246.603C346.811 245.591 345.141 244.998 342.984 244.998C340.68 244.998 338.995 245.515 337.772 246.463C336.801 247.217 336.044 248.303 335.517 249.798Z" fill="black"/>
<path fill-rule="evenodd" clip-rule="evenodd" d="M255.328 208.998H277.928V230.748C281.197 228.997 285.07 227.998 289.528 227.998C295.721 227.998 300.984 230.188 304.701 233.945C308.416 237.7 310.528 242.96 310.528 248.998V284.098H287.928V253.098C287.928 250.069 285.502 248.298 282.928 248.298C280.354 248.298 277.928 250.069 277.928 253.098V284.098H255.328V208.998ZM257.328 210.998V282.098H275.928V253.098C275.928 248.727 279.502 246.298 282.928 246.298C286.354 246.298 289.928 248.727 289.928 253.098V282.098H308.528V248.998C308.528 243.436 306.589 238.697 303.279 235.351C299.971 232.008 295.235 229.998 289.528 229.998C284.708 229.998 280.699 231.249 277.471 233.338L275.928 234.336V210.998H257.328Z" fill="black"/>
<path fill-rule="evenodd" clip-rule="evenodd" d="M218.771 215.198H240.871V229.398H251.171V248.898H240.171V258.998C240.171 260.944 240.657 262.201 241.412 262.975C242.162 263.744 243.338 264.198 245.071 264.198H251.171V284.098H240.671C233.073 284.098 227.262 281.86 223.353 277.832C219.45 273.809 217.571 268.132 217.571 261.498V248.898H209.171V229.398H213.771C215.535 229.398 216.736 228.905 217.505 228.087C218.285 227.26 218.771 225.944 218.771 223.998V215.198ZM220.771 217.198V223.998C220.771 226.252 220.207 228.136 218.961 229.459C217.706 230.791 215.907 231.398 213.771 231.398H211.171V246.898H219.571V261.498C219.571 267.765 221.342 272.887 224.788 276.439C228.23 279.986 233.468 282.098 240.671 282.098H249.171V266.198H245.071C243.004 266.198 241.229 265.652 239.98 264.371C238.735 263.095 238.171 261.252 238.171 258.998V246.898H249.171V231.398H238.871V217.198H220.771Z" fill="black"/>
<path fill-rule="evenodd" clip-rule="evenodd" d="M135.113 208.998H157.713V284.098H135.113V208.998ZM137.113 210.998V282.098H155.713V210.998H137.113Z" fill="black"/>
<path fill-rule="evenodd" clip-rule="evenodd" d="M107.086 208.998H129.686V284.098H107.086V208.998ZM109.086 210.998V282.098H127.686V210.998H109.086Z" fill="black"/>
<path fill-rule="evenodd" clip-rule="evenodd" d="M50.4514 238.384C45.9851 242.803 43.3231 249.137 43.3231 256.798C43.3231 272.1 53.9285 283.498 68.7231 283.498C73.9279 283.498 77.9863 282.057 81.0761 279.436L82.7231 278.038V282.098H99.7231V231.398H82.7231V236.31L81.1193 235.095C78.022 232.749 73.9444 231.398 68.7231 231.398C61.2572 231.398 54.9194 233.964 50.4514 238.384ZM49.0448 236.962C53.9269 232.132 60.789 229.398 68.7231 229.398C73.4852 229.398 77.4776 230.454 80.7231 232.414V229.398H101.723V284.098H80.7231V282.203C77.4756 284.371 73.4802 285.498 68.7231 285.498C52.7178 285.498 41.3231 273.096 41.3231 256.798C41.3231 248.659 44.1611 241.794 49.0448 236.962ZM64.6047 249.216C66.3904 247.303 68.9096 246.198 71.8231 246.198C74.865 246.198 77.4386 247.263 79.2488 249.173C81.0536 251.076 82.0231 253.737 82.0231 256.798C82.0231 259.859 81.0536 262.52 79.2488 264.424C77.4386 266.333 74.865 267.398 71.8231 267.398C68.9096 267.398 66.3904 266.293 64.6047 264.381C62.8238 262.473 61.8231 259.82 61.8231 256.798C61.8231 253.776 62.8238 251.123 64.6047 249.216ZM66.0665 250.581C64.6724 252.073 63.8231 254.22 63.8231 256.798C63.8231 259.376 64.6724 261.523 66.0665 263.016C67.4558 264.503 69.4366 265.398 71.8231 265.398C74.3813 265.398 76.4076 264.513 77.7975 263.048C79.1926 261.576 80.0231 259.437 80.0231 256.798C80.0231 254.159 79.1926 252.02 77.7975 250.549C76.4076 249.083 74.3813 248.198 71.8231 248.198C69.4366 248.198 67.4558 249.093 66.0665 250.581Z" fill="black"/>
<path fill-rule="evenodd" clip-rule="evenodd" d="M205.4 98.4981C199.025 98.4981 194.1 103.177 194.1 109.598C194.1 115.997 199.002 120.498 205.4 120.498C211.797 120.498 216.7 115.997 216.7 109.598C216.7 103.177 211.775 98.4981 205.4 98.4981ZM192.1 109.598C192.1 102.019 197.975 96.4981 205.4 96.4981C212.825 96.4981 218.7 102.019 218.7 109.598C218.7 117.199 212.802 122.498 205.4 122.498C197.997 122.498 192.1 117.199 192.1 109.598ZM194 126.398H216.6V181.098H194V126.398ZM196 128.398V179.098H214.6V128.398H196Z" fill="black"/>
<path fill-rule="evenodd" clip-rule="evenodd" d="M165.972 105.998H188.572V181.098H165.972V105.998ZM167.972 107.998V179.098H186.572V107.998H167.972Z" fill="black"/>
<path fill-rule="evenodd" clip-rule="evenodd" d="M131.779 127.098C115.085 127.098 103.379 138.596 103.379 153.798C103.379 168.902 115.087 180.498 131.779 180.498C148.579 180.498 160.379 168.896 160.379 153.798C160.379 138.603 148.581 127.098 131.779 127.098ZM101.379 153.798C101.379 137.4 114.074 125.098 131.779 125.098C149.578 125.098 162.379 137.393 162.379 153.798C162.379 170.101 149.58 182.498 131.779 182.498C114.072 182.498 101.379 170.094 101.379 153.798ZM124.735 146.316C126.485 144.438 128.988 143.398 131.979 143.398C134.927 143.398 137.381 144.442 139.092 146.31C140.793 148.168 141.679 150.751 141.679 153.698C141.679 156.752 140.74 159.383 139.016 161.262C137.286 163.148 134.835 164.198 131.979 164.198C128.981 164.198 126.479 163.128 124.733 161.24C122.995 159.36 122.079 156.752 122.079 153.798C122.079 150.797 122.993 148.186 124.735 146.316ZM126.198 147.68C124.866 149.11 124.079 151.199 124.079 153.798C124.079 156.344 124.864 158.436 126.201 159.882C127.53 161.318 129.478 162.198 131.979 162.198C134.323 162.198 136.223 161.348 137.542 159.91C138.869 158.463 139.679 156.344 139.679 153.698C139.679 151.145 138.915 149.079 137.617 147.661C136.328 146.254 134.432 145.398 131.979 145.398C129.47 145.398 127.523 146.258 126.198 147.68Z" fill="black"/>
<path fill-rule="evenodd" clip-rule="evenodd" d="M43.0231 105.998H65.6231V127.748C68.8928 125.997 72.7657 124.998 77.2231 124.998C83.416 124.998 88.6798 127.188 92.3964 130.945C96.1115 134.7 98.2231 139.96 98.2231 145.998V181.098H75.6231V150.098C75.6231 147.069 73.1972 145.298 70.6231 145.298C68.0489 145.298 65.6231 147.069 65.6231 150.098V181.098H43.0231V105.998ZM45.0231 107.998V179.098H63.6231V150.098C63.6231 145.727 67.1972 143.298 70.6231 143.298C74.0489 143.298 77.6231 145.727 77.6231 150.098V179.098H96.2231V145.998C96.2231 140.436 94.2846 135.697 90.9747 132.351C87.6664 129.008 82.9302 126.998 77.2231 126.998C72.4033 126.998 68.3943 128.249 65.1663 130.338L63.6231 131.336V107.998H45.0231Z" fill="black"/>
<path fill-rule="evenodd" clip-rule="evenodd" d="M288.901 23.3981H312.243L318.752 55.8569L327.251 23.3981H350.606L326.646 95.9981H304.281L310.981 78.0981H304.367L288.901 23.3981ZM291.545 25.3981L305.88 76.0981H313.865L307.165 93.9981H325.2L347.84 25.3981H328.795L319.591 60.5514L317.643 60.4948L310.604 25.3981H291.545Z" fill="black"/>
<path fill-rule="evenodd" clip-rule="evenodd" d="M264.804 24.0981C259.599 24.0981 255.322 25.5398 251.918 28.1874L250.304 29.4427V25.3981H233.304V93.9981H251.904V73.6938L253.434 74.6501C256.451 76.5352 260.06 77.4981 264.304 77.4981C279.099 77.4981 289.704 66.1004 289.704 50.7981C289.704 35.4694 279.574 24.0981 264.804 24.0981ZM252.304 25.4731C255.798 23.2583 259.977 22.0981 264.804 22.0981C280.834 22.0981 291.704 34.5268 291.704 50.7981C291.704 67.0957 280.31 79.4981 264.304 79.4981C260.418 79.4981 256.942 78.7432 253.904 77.2083V95.9981H231.304V23.3981H252.304V25.4731ZM253.779 43.1725C255.589 41.2634 258.162 40.1981 261.204 40.1981C264.118 40.1981 266.637 41.3033 268.423 43.2156C270.204 45.1227 271.204 47.7764 271.204 50.7981C271.204 53.8197 270.204 56.4734 268.423 58.3806C266.637 60.2928 264.118 61.3981 261.204 61.3981C258.162 61.3981 255.589 60.3328 253.779 58.4236C251.974 56.5201 251.004 53.8591 251.004 50.7981C251.004 47.737 251.974 45.0761 253.779 43.1725ZM255.23 44.5486C253.835 46.0201 253.004 48.1591 253.004 50.7981C253.004 53.437 253.835 55.5761 255.23 57.0475C256.62 58.5134 258.646 59.3981 261.204 59.3981C263.591 59.3981 265.572 58.5033 266.961 57.0156C268.355 55.5227 269.204 53.3764 269.204 50.7981C269.204 48.2197 268.355 46.0734 266.961 44.5806C265.572 43.0928 263.591 42.1981 261.204 42.1981C258.646 42.1981 256.62 43.0828 255.23 44.5486Z" fill="black"/>
<path fill-rule="evenodd" clip-rule="evenodd" d="M200.742 24.0981C195.537 24.0981 191.26 25.5398 187.856 28.1874L186.242 29.4427V25.3981H169.242V93.9981H187.842V73.6938L189.372 74.6501C192.388 76.5352 195.998 77.4981 200.242 77.4981C215.036 77.4981 225.642 66.1004 225.642 50.7981C225.642 35.4694 215.512 24.0981 200.742 24.0981ZM188.242 25.4731C191.736 23.2583 195.914 22.0981 200.742 22.0981C216.772 22.0981 227.642 34.5268 227.642 50.7981C227.642 67.0957 216.247 79.4981 200.242 79.4981C196.355 79.4981 192.88 78.7432 189.842 77.2083V95.9981H167.242V23.3981H188.242V25.4731ZM189.716 43.1725C191.526 41.2634 194.1 40.1981 197.142 40.1981C200.055 40.1981 202.575 41.3033 204.36 43.2156C206.141 45.1227 207.142 47.7764 207.142 50.7981C207.142 53.8197 206.141 56.4734 204.36 58.3806C202.575 60.2928 200.055 61.3981 197.142 61.3981C194.1 61.3981 191.526 60.3328 189.716 58.4236C187.911 56.5201 186.942 53.8591 186.942 50.7981C186.942 47.737 187.911 45.0761 189.716 43.1725ZM191.167 44.5486C189.772 46.0201 188.942 48.1591 188.942 50.7981C188.942 53.437 189.772 55.5761 191.167 57.0475C192.557 58.5134 194.584 59.3981 197.142 59.3981C199.528 59.3981 201.509 58.5033 202.898 57.0156C204.293 55.5227 205.142 53.3764 205.142 50.7981C205.142 48.2197 204.293 46.0734 202.898 44.5806C201.509 43.0928 199.528 42.1981 197.142 42.1981C194.584 42.1981 192.557 43.0828 191.167 44.5486Z" fill="black"/>
<path fill-rule="evenodd" clip-rule="evenodd" d="M110.608 32.384C106.141 36.8026 103.479 43.1375 103.479 50.7981C103.479 66.1005 114.085 77.4981 128.879 77.4981C134.084 77.4981 138.143 76.0573 141.232 73.4356L142.879 72.0382V76.0981H159.879V25.3981H142.879V30.3103L141.276 29.0952C138.178 26.7488 134.101 25.3981 128.879 25.3981C121.413 25.3981 115.076 27.9639 110.608 32.384ZM109.201 30.9622C114.083 26.1324 120.945 23.3981 128.879 23.3981C133.641 23.3981 137.634 24.4542 140.879 26.4139V23.3981H161.879V78.0981H140.879V76.2031C137.632 78.3711 133.636 79.4981 128.879 79.4981C112.874 79.4981 101.479 67.0958 101.479 50.7981C101.479 42.6587 104.317 35.7937 109.201 30.9622ZM124.761 43.2156C126.547 41.3034 129.066 40.1981 131.979 40.1981C135.021 40.1981 137.595 41.2634 139.405 43.1726C141.21 45.0761 142.179 47.7371 142.179 50.7981C142.179 53.8592 141.21 56.5201 139.405 58.4237C137.595 60.3328 135.021 61.3981 131.979 61.3981C129.066 61.3981 126.547 60.2929 124.761 58.3806C122.98 56.4735 121.979 53.8198 121.979 50.7981C121.979 47.7765 122.98 45.1228 124.761 43.2156ZM126.223 44.5806C124.829 46.0735 123.979 48.2198 123.979 50.7981C123.979 53.3765 124.829 55.5228 126.223 57.0156C127.612 58.5034 129.593 59.3981 131.979 59.3981C134.538 59.3981 136.564 58.5134 137.954 57.0476C139.349 55.5761 140.179 53.4371 140.179 50.7981C140.179 48.1592 139.349 46.0201 137.954 44.5487C136.564 43.0828 134.538 42.1981 131.979 42.1981C129.593 42.1981 127.612 43.0929 126.223 44.5806Z" fill="black"/>
<path fill-rule="evenodd" clip-rule="evenodd" d="M43.0231 2.99811H65.6231V24.7481C68.8928 22.997 72.7657 21.9981 77.2231 21.9981C83.416 21.9981 88.6798 24.1884 92.3964 27.9448C96.1115 31.6995 98.2231 36.9604 98.2231 42.9981V78.0981H75.6231V47.0981C75.6231 44.0689 73.1972 42.2981 70.6231 42.2981C68.0489 42.2981 65.6231 44.0689 65.6231 47.0981V78.0981H43.0231V2.99811ZM45.0231 4.99811V76.0981H63.6231V47.0981C63.6231 42.7273 67.1972 40.2981 70.6231 40.2981C74.0489 40.2981 77.6231 42.7273 77.6231 47.0981V76.0981H96.2231V42.9981C96.2231 37.4358 94.2846 32.6967 90.9747 29.3514C87.6664 26.0078 82.9302 23.9981 77.2231 23.9981C72.4033 23.9981 68.3943 25.249 65.1663 27.3377L63.6231 28.3362V4.99811H45.0231Z" fill="black"/>
<path fill-rule="evenodd" clip-rule="evenodd" d="M272.023 141.098L272.023 163.698L230.023 163.698L230.023 141.098L272.023 141.098ZM270.023 143.098L232.023 143.098L232.023 161.698L270.023 161.698L270.023 143.098Z" fill="black"/>
<path fill-rule="evenodd" clip-rule="evenodd" d="M205.323 240.098L205.323 262.698L163.323 262.698L163.323 240.098L205.323 240.098ZM203.323 242.098L165.323 242.098L165.323 260.698L203.323 260.698L203.323 242.098Z" fill="black"/>
<path fill-rule="evenodd" clip-rule="evenodd" d="M421.323 240.098L421.323 262.698L379.323 262.698L379.323 240.098L421.323 240.098ZM419.323 242.098L381.323 242.098L381.323 260.698L419.323 260.698L419.323 242.098Z" fill="black"/>
<path fill-rule="evenodd" clip-rule="evenodd" d="M312.698 351.808C312.624 352.095 312.525 352.401 312.39 352.713C312.059 353.477 311.504 354.299 310.596 354.938C309.683 355.58 308.539 355.947 307.179 355.996C306.448 356.022 305.378 355.802 304.379 355.251C303.775 354.918 303.153 354.439 302.637 353.779C302.039 353.906 301.312 354 300.53 353.961C299.433 353.907 298.157 353.586 297.024 352.665C296.281 352.06 295.681 351.264 295.237 350.279C294.387 350.326 293.273 350.304 292.115 350.034C290.823 349.733 289.381 349.101 288.241 347.822C287.083 346.525 286.407 344.752 286.326 342.494C286.291 341.523 286.543 339.804 287.653 338.283C288.579 337.017 289.999 336.03 291.979 335.668C292.112 334.713 292.406 333.432 293.089 332.24C293.839 330.929 295.086 329.69 297.034 329.207C298.736 328.785 300.731 329 303.044 329.87C303.307 329.785 303.624 329.691 303.984 329.603C304.993 329.356 306.431 329.13 307.971 329.321C309.541 329.516 311.263 330.156 312.665 331.671C313.802 332.9 314.608 334.573 315.031 336.737C315.589 336.895 316.246 337.147 316.909 337.551C318.825 338.719 320.439 340.956 320.316 344.728C320.284 345.732 319.93 347.51 318.48 349.084C317.242 350.427 315.373 351.44 312.698 351.808Z" fill="black"/>
<path fill-rule="evenodd" clip-rule="evenodd" d="M288.325 342.423C288.595 349.967 296.61 348.092 296.61 348.092C297.99 354.037 303.614 351.377 303.614 351.377C304.256 353.52 306.426 354.022 307.107 353.997C311.247 353.847 310.898 349.951 310.898 349.951C317.346 349.754 318.275 345.983 318.318 344.663C318.518 338.528 313.268 338.454 313.268 338.454C312.158 327.982 303.014 332.012 303.014 332.012C293.369 327.924 293.87 337.52 293.87 337.52C289.039 337.431 288.28 341.157 288.325 342.423Z" fill="#DCCAAE"/>
<path d="M342.47 373.332C342.901 373.191 343.363 373.063 343.845 372.962C345.158 372.686 346.743 372.58 348.321 373.059C349.956 373.556 351.434 374.638 352.511 376.46C352.939 377.183 353.513 378.901 353.261 380.875C353.025 382.725 352.075 384.695 349.9 386.236C349.919 386.878 349.906 387.718 349.787 388.637C349.536 390.585 348.75 393.35 346.271 394.997C345.611 395.435 344.089 396.155 342.075 396.166C340.778 396.172 339.337 395.884 337.855 395.112C337.661 395.738 337.404 396.412 337.065 397.094C335.668 399.905 332.858 402.804 327.642 402.987L327.637 402.987L327.613 402.988L327.613 402.988C327.136 403.008 324.72 403.108 322.081 401.894C320.194 401.027 318.282 399.528 316.875 397.053C316.743 397.198 316.604 397.344 316.458 397.489C314.33 399.605 310.823 401.484 305.328 401.291C303.653 401.232 297.597 400.291 294.9 394.313C294.187 394.311 293.286 394.238 292.329 393.98C291.186 393.674 289.924 393.093 288.827 392.026C287.72 390.948 286.88 389.469 286.456 387.53C286.369 387.132 285.977 384.934 287.145 382.768C288.285 380.657 290.578 379.133 294.417 378.866C294.461 378.697 294.511 378.518 294.566 378.332C294.94 377.077 295.598 375.391 296.738 373.837C297.891 372.266 299.575 370.786 301.964 370.097C303.68 369.603 305.636 369.552 307.85 370.042C307.885 369.753 307.932 369.452 307.995 369.142C308.425 367.019 309.652 364.332 312.814 362.899C314.111 362.311 316.128 361.878 318.14 362.204C319.359 362.401 320.602 362.888 321.65 363.785C322.937 362.518 325.034 361.455 327.852 362.298C328.576 362.514 329.919 362.993 331.034 364.176C331.604 364.781 332.065 365.518 332.372 366.397C332.603 366.306 332.845 366.221 333.096 366.144C334.136 365.826 335.421 365.626 336.782 365.89C338.182 366.162 339.531 366.899 340.67 368.234C341.573 369.293 342.357 370.963 342.47 373.332Z" fill="black"/>
<path d="M345.165 393.331C348.668 391.004 347.817 385.177 347.817 385.177C352.653 382.57 351.219 378.204 350.79 377.478C347.48 371.88 340.206 376.559 340.206 376.559C340.977 372.686 339.992 370.521 339.149 369.533C335.739 365.537 330.773 369.577 330.773 369.577C331.031 365.619 328.494 364.577 327.279 364.214C323.249 363.008 321.714 367.249 321.714 367.249C320.116 363.33 315.622 363.822 313.64 364.721C308.87 366.883 309.848 372.737 309.848 372.737C297.583 368.039 296.053 380.828 296.053 380.828C287.287 380.638 288.308 386.633 288.411 387.103C289.807 393.485 296.238 392.208 296.238 392.208C298.137 398.296 303.871 399.239 305.399 399.292C315.304 399.64 317.269 392.589 317.269 392.589C319.413 401.326 326.766 401.021 327.531 400.99L327.568 400.988C336.244 400.687 336.475 391.646 336.475 391.646C340.575 395.6 344.384 393.85 345.165 393.331Z" fill="#DCCAAE"/>
<path d="M32.7245 378.224C32.8758 378.236 33.0215 378.249 33.161 378.263C33.8236 376.467 34.7786 375.098 35.9677 374.116C37.5195 372.834 39.2837 372.364 40.8516 372.277C42.3187 372.195 43.6921 372.443 44.7325 372.727C45.5124 371.482 46.562 370.62 47.5886 370.051C49.013 369.261 50.5113 368.967 51.4493 369.001C53.4324 369.073 55.0302 369.606 56.2735 370.486C57.511 371.361 58.2712 372.489 58.7301 373.553C59.0482 374.292 59.2275 375.012 59.3281 375.628C63.8501 376.086 66.8207 377.688 68.695 379.733C70.7699 381.996 71.2674 384.548 71.3129 385.95C71.4957 391.584 69.1284 394.766 66.4394 396.415C65.1899 397.181 63.9462 397.572 63.0144 397.775C62.4132 401.466 61.1482 404.177 59.3927 406.084C57.3834 408.267 54.9127 409.2 52.613 409.487C50.3443 409.771 48.1978 409.437 46.6632 409.059C45.9229 408.877 45.3029 408.679 44.8515 408.52C41.1158 409.995 38.0509 410.322 35.5473 409.698C32.8111 409.015 31.0599 407.277 29.9873 405.392C28.9408 403.553 28.5107 401.538 28.3283 400.06C28.3005 399.836 28.2782 399.621 28.2602 399.417C24.8985 399.035 22.6297 397.499 21.2177 395.556C19.6362 393.379 19.2789 390.903 19.3271 389.548C19.4483 386.145 20.4542 383.584 22.0831 381.747C23.696 379.929 25.7546 379.007 27.6599 378.561C29.5569 378.117 31.3944 378.122 32.7245 378.224Z" fill="black"/>
<path d="M34.5814 380.5C34.5814 380.5 21.7583 377.483 21.3262 389.619C21.2537 391.656 22.4677 397.649 30.1976 397.506C30.1976 397.506 29.3963 412.943 44.8278 406.368C44.8278 406.368 59.4587 412.85 61.234 396.003C61.234 396.003 69.6346 395.885 69.3144 386.015C69.2456 383.892 67.7587 377.825 57.4424 377.509C57.4424 377.509 58.0014 371.241 51.3767 371C50.2866 370.96 46.8152 371.768 45.7881 375.215L45.787 375.214L45.7869 375.214C45.6689 375.159 36.7756 370.999 34.5814 380.5Z" fill="#DCCAAE"/>
<path d="M339.275 81.2754C335.961 80.9286 333.699 79.5362 332.267 77.7248C330.653 75.6839 330.277 73.3429 330.327 72.0321C330.451 68.8319 331.485 66.4212 333.14 64.7063C334.765 63.0234 336.818 62.1857 338.695 61.7821C340.572 61.3785 342.392 61.3821 343.712 61.4756C343.883 61.4877 344.046 61.5014 344.201 61.516C344.884 59.8373 345.862 58.5663 347.062 57.6639C348.625 56.4897 350.381 56.0778 351.921 56.0074C353.411 55.9392 354.782 56.1848 355.772 56.4396C356.572 55.2647 357.639 54.4682 358.65 53.9526C360.066 53.2316 361.54 52.9701 362.443 53.0005C364.395 53.0659 365.972 53.547 367.209 54.3506C368.448 55.1558 369.227 56.2076 369.704 57.2244C370.013 57.883 370.196 58.5269 370.303 59.0892C374.792 59.5049 377.752 60.9648 379.637 62.854C381.741 64.9633 382.265 67.3682 382.313 68.7271C382.404 71.3133 381.875 73.4024 380.918 75.0582C379.965 76.7092 378.657 77.8083 377.376 78.5301C376.137 79.2282 374.908 79.5836 373.99 79.7672C373.372 83.154 372.094 85.6532 370.334 87.4103C368.314 89.4271 365.854 90.2701 363.593 90.53C361.351 90.7877 359.226 90.4845 357.7 90.1394C356.936 89.9666 356.301 89.7783 355.849 89.63C352.102 90.9972 349.056 91.2927 346.584 90.7261C343.892 90.1089 342.126 88.5251 341.025 86.7473C339.956 85.0209 339.517 83.1288 339.331 81.7451C339.309 81.5831 339.291 81.4262 339.275 81.2754Z" fill="black"/>
<path d="M345.582 63.7296C345.582 63.7296 332.759 60.9572 332.326 72.1096C332.254 73.9812 333.468 79.4882 341.198 79.3568C341.198 79.3568 340.396 93.5424 355.828 87.4999C355.828 87.4999 370.459 93.4565 372.234 77.9759C372.234 77.9759 380.635 77.8669 380.315 68.7977C380.246 66.8462 378.759 61.2715 368.443 60.9813C368.443 60.9813 369.002 55.2214 362.377 54.9994C361.287 54.9628 357.815 55.7056 356.788 58.8729C356.788 58.8729 347.79 54.9405 345.582 63.7296Z" fill="#DCCAAE"/>
<path d="M41.0097 48.5522C41.7008 48.363 42.5532 48.2536 43.4676 48.4315C44.5103 48.6344 45.4969 49.1859 46.3105 50.1432C46.8538 50.7826 47.3048 51.6771 47.5035 52.8367L47.5348 52.8301C48.4239 52.6421 49.5458 52.5587 50.6881 52.9071C51.8877 53.273 52.9552 54.0703 53.716 55.3624C54.0609 55.948 54.4569 57.1823 54.2788 58.5839C54.1191 59.8406 53.507 61.147 52.2083 62.1928C52.2059 62.5503 52.1852 62.9655 52.1282 63.4098C51.9634 64.6939 51.4307 66.6883 49.6202 67.8959C49.109 68.2368 48.0228 68.7435 46.6017 68.751C45.9126 68.7546 45.1775 68.6401 44.426 68.3628C44.3524 68.5413 44.2708 68.7227 44.1805 68.9051C43.2207 70.8442 41.2601 72.8641 37.6922 72.9906L37.6867 72.9908L37.677 72.9912L37.6737 72.9913C37.3347 73.0054 35.6954 73.0705 33.8997 72.2416C32.8173 71.7419 31.7399 70.9451 30.8627 69.7391C29.3748 71.0298 27.1103 72.0524 23.8231 71.9366C22.723 71.8978 18.8323 71.3041 16.9053 67.5816C16.513 67.5545 16.0689 67.4918 15.6031 67.3662C14.799 67.1494 13.8922 66.734 13.1008 65.9606C12.2984 65.1765 11.7133 64.1201 11.4228 62.7861C11.3556 62.4777 11.0709 60.8932 11.9217 59.3098C12.7213 57.8218 14.2361 56.818 16.5048 56.5373C16.7583 55.7254 17.1893 54.6638 17.9158 53.6698C18.703 52.5929 19.875 51.5488 21.5542 51.0629C22.5422 50.777 23.6216 50.7086 24.7909 50.8735C25.1188 49.4337 26.0004 47.6128 28.1667 46.6267C29.0873 46.2077 30.4888 45.9056 31.9045 46.1359C32.5849 46.2466 33.283 46.487 33.919 46.8959C34.8807 46.1743 36.2716 45.6934 38.0136 46.2166C38.5079 46.3651 39.4935 46.7111 40.3206 47.593C40.5875 47.8777 40.8191 48.1976 41.0097 48.5522Z" fill="black"/>
<path d="M48.5108 66.232C50.6792 64.7857 50.1526 61.1632 50.1526 61.1632C53.1463 59.5427 52.2588 56.8286 51.993 56.3772C49.9443 52.8979 45.4413 55.806 45.4413 55.806C45.9184 53.3985 45.3088 52.0527 44.7868 51.4384C42.6758 48.9543 39.6013 51.4661 39.6013 51.4661C39.7615 49.0057 38.1904 48.3579 37.4387 48.1322C34.9438 47.3827 33.9934 50.0191 33.9934 50.0191C33.0044 47.5824 30.2222 47.8887 28.9955 48.4471C26.0425 49.7912 26.648 53.43 26.648 53.43C19.0554 50.5101 18.108 58.46 18.108 58.46C12.6814 58.3418 13.3137 62.0687 13.3772 62.3605C14.2413 66.3277 18.2228 65.5342 18.2228 65.5342C19.3981 69.3183 22.9482 69.9045 23.8939 69.9378C30.0257 70.1539 31.2421 65.7705 31.2421 65.7705C32.569 71.2015 37.1207 71.0126 37.5944 70.9929L37.6173 70.992C42.9884 70.8046 43.1313 65.1843 43.1313 65.1843C45.6697 67.6426 48.0273 66.5545 48.5108 66.232Z" fill="#DCCAAE"/>
<path d="M26.375 22.8098C26.3014 23.0974 26.2017 23.4032 26.0666 23.7149C25.7357 24.4787 25.1809 25.3011 24.2728 25.9398C23.3595 26.582 22.2158 26.9488 20.8559 26.9981C20.1245 27.0247 19.0555 26.8044 18.0562 26.2534C17.4523 25.9203 16.8303 25.4409 16.3138 24.7808C15.7163 24.9084 14.9892 25.0022 14.2072 24.9634C13.1102 24.9091 11.8337 24.588 10.7011 23.6669C9.95795 23.0624 9.35825 22.2659 8.914 21.2808C8.06397 21.3283 6.95001 21.3059 5.79196 21.0363C4.49979 20.7356 3.05765 20.103 1.91751 18.8246C0.760408 17.5271 0.0838953 15.7545 0.00305421 13.4965C-0.0317358 12.5249 0.219606 10.8062 1.33045 9.28568C2.25568 8.01926 3.67557 7.03201 5.6564 6.67026C5.78873 5.71502 6.08319 4.43463 6.76563 3.24197C7.51593 1.93072 8.76322 0.692167 10.7111 0.208951C12.4128 -0.213198 14.4078 0.00250006 16.7214 0.872526C16.9838 0.787046 17.301 0.693326 17.6607 0.605253C18.67 0.358152 20.1085 0.131895 21.648 0.323423C23.2177 0.518674 24.9395 1.15841 26.3417 2.67343C27.4785 3.90182 28.2845 5.57538 28.7084 7.73874C29.2664 7.89691 29.9232 8.14878 30.5857 8.5528C32.5018 9.72147 34.1163 11.9584 33.9933 15.7304C33.9606 16.7338 33.6074 18.5121 32.1567 20.0859C30.919 21.4288 29.0503 22.4418 26.375 22.8098Z" fill="black"/>
<path d="M2.44594 13.4236C2.71602 20.9679 10.7305 19.0924 10.7305 19.0924C12.111 25.0379 17.7346 22.3778 17.7346 22.3778C18.3765 24.5204 20.5461 25.0229 21.2275 24.9981C25.3678 24.8479 25.0185 20.9515 25.0185 20.9515C31.4662 20.7552 32.3955 16.9841 32.4385 15.664C32.6387 9.52896 27.3883 9.45523 27.3883 9.45523C26.2787 -1.017 17.1344 3.01254 17.1344 3.01254C7.48967 -1.07508 7.99056 8.52108 7.99056 8.52108C3.15935 8.43216 2.40059 12.1575 2.44594 13.4236Z" fill="#DCCAAE"/>
</svg>
