<svg viewBox="0 0 900 124" fill="none" xmlns="http://www.w3.org/2000/svg">
  <path d="M879.113 72.0922H900V100.08C900 105.975 898.724 110.663 896.171 114.144C893.664 117.579 890.067 120.015 885.379 121.454C880.692 122.893 874.843 123.613 867.835 123.613C860.826 123.613 854.978 122.893 850.29 121.454C845.602 120.015 841.982 117.579 839.429 114.144C836.922 110.663 835.669 105.975 835.669 100.08V72.0922H856.556V100.011C856.556 103.074 857.484 105.232 859.341 106.486C861.244 107.692 864.075 108.296 867.835 108.296C871.594 108.296 874.402 107.692 876.259 106.486C878.162 105.232 879.113 103.074 879.113 100.011V72.0922Z" fill="#A4E6E4"/>
  <path d="M795.233 70.213C807.579 70.213 816.746 72.3945 822.734 76.7575C828.721 81.1204 831.715 87.8506 831.715 96.9479C831.715 106.045 828.721 112.775 822.734 117.138C816.746 121.501 807.579 123.683 795.233 123.683C782.887 123.683 773.72 121.501 767.732 117.138C761.745 112.775 758.751 106.045 758.751 96.9479C758.751 87.8506 761.745 81.1204 767.732 76.7575C773.72 72.3945 782.887 70.213 795.233 70.213ZM795.233 108.366C804.33 108.366 808.879 104.56 808.879 96.9479C808.879 89.3359 804.33 85.5298 795.233 85.5298C786.136 85.5298 781.587 89.3359 781.587 96.9479C781.587 104.56 786.136 108.366 795.233 108.366Z" fill="#A4E6E4"/>
  <path d="M740.592 72.0922H764.543L739.896 106.068V121.802H719.01V106.068L694.363 72.0922H718.383L729.453 89.5674L740.592 72.0922Z" fill="#A4E6E4"/>
  <path d="M649.617 98.1309V72.0922H669.251V121.802H645.509L624.553 95.4853H624.135V121.802H604.502V72.0922H628.522L649.199 98.1309H649.617Z" fill="#A4E6E4"/>
  <path d="M603.06 121.802H580.711L577.857 115.536H552.932L550.078 121.802H527.729L551.679 72.0922H579.11L603.06 121.802ZM565.186 88.2446L558.711 102.587H572.078L565.603 88.2446H565.186Z" fill="#A4E6E4"/>
  <path d="M505.38 89.4281V72.0922H526.267V121.802H505.38V103.91H482.405V121.802H461.518V72.0922H482.405V89.4281H505.38Z" fill="#A4E6E4"/>
  <path d="M398.256 72.0922H457.992V86.9914H438.568V121.802H417.681V86.9914H398.256V72.0922Z" fill="#A4E6E4"/>
  <path d="M361.771 103.561L373.049 121.802H350.005L341.928 107.739H327.795V121.802H306.908V72.0922H349.796C357.872 72.0922 363.581 73.5311 366.923 76.4088C370.265 79.2401 371.936 83.5103 371.936 89.2193C371.936 93.1645 371.077 96.2047 369.359 98.3398C367.642 100.475 365.113 101.983 361.771 102.865V103.561ZM343.39 95.5549C345.293 95.5549 346.639 95.23 347.429 94.5802C348.264 93.8839 348.682 92.8164 348.682 91.3776C348.682 89.8923 348.287 88.8015 347.498 88.1053C346.709 87.4091 345.34 87.061 343.39 87.061H327.795V95.5549H343.39Z" fill="#A4E6E4"/>
  <path d="M302.313 84.7635H266.876V91.0294H300.503V102.517H266.876V109.34H302.731V121.802H245.989V72.0922H302.313V84.7635Z" fill="#A4E6E4"/>
  <path d="M208.187 105.163V93.8845H241.466V121.803H226.846V117.417C222.065 121.594 215.196 123.683 206.237 123.683C193.752 123.683 184.515 121.501 178.528 117.138C172.54 112.729 169.547 105.976 169.547 96.8782C169.547 87.8274 172.517 81.1204 178.458 76.7575C184.446 72.3945 193.566 70.213 205.82 70.213C217.795 70.213 226.614 71.9535 232.276 75.4346C237.985 78.8693 240.979 83.6965 241.257 89.916H217.238C215.985 86.9919 212.225 85.5298 205.959 85.5298C196.908 85.5298 192.383 89.3359 192.383 96.9479C192.383 101.218 193.497 104.374 195.725 106.416C197.952 108.459 201.503 109.48 206.377 109.48C209.069 109.48 211.366 109.201 213.269 108.644C215.172 108.087 216.588 107.461 217.516 106.765C218.491 106.068 218.978 105.535 218.978 105.163H208.187Z" fill="#A4E6E4"/>
  <path d="M132.65 105.163V93.8845H165.929V121.803H151.308V117.417C146.528 121.594 139.658 123.683 130.7 123.683C118.215 123.683 108.978 121.501 102.991 117.138C97.003 112.729 94.0093 105.976 94.0093 96.8782C94.0093 87.8274 96.9798 81.1204 102.921 76.7575C108.908 72.3945 118.029 70.213 130.282 70.213C142.257 70.213 151.076 71.9535 156.739 75.4346C162.448 78.8693 165.442 83.6965 165.72 89.916H141.7C140.447 86.9919 136.688 85.5298 130.422 85.5298C121.371 85.5298 116.845 89.3359 116.845 96.9479C116.845 101.218 117.959 104.374 120.187 106.416C122.415 108.459 125.966 109.48 130.839 109.48C133.531 109.48 135.829 109.201 137.732 108.644C139.635 108.087 141.051 107.461 141.979 106.765C142.954 106.068 143.441 105.535 143.441 105.163H132.65Z" fill="#A4E6E4"/>
  <path d="M90.0329 72.0922V121.802H69.1462V72.0922H90.0329Z" fill="#A4E6E4"/>
  <path d="M55.0711 95.2068C58.2273 95.8102 60.6873 96.9937 62.451 98.7575C64.2612 100.521 65.1663 103.26 65.1663 106.973C65.1663 110.408 64.5629 113.216 63.3561 115.397C62.1493 117.532 60.1767 119.134 57.4382 120.201C54.6998 121.269 50.9866 121.802 46.2987 121.802H0V72.0922H44.9063C57.1597 72.0922 63.2865 76.3856 63.2865 84.9723C63.2865 87.618 62.5903 89.7298 61.1978 91.3079C59.8518 92.8396 57.8096 93.9536 55.0711 94.6498V95.2068ZM36.7605 91.4472C38.3386 91.4472 39.4525 91.1687 40.1023 90.6117C40.7985 90.0547 41.1467 89.1961 41.1467 88.0357C41.1467 86.7825 40.8218 85.8774 40.172 85.3204C39.5221 84.7635 38.385 84.485 36.7605 84.485H20.8866V91.4472H36.7605ZM37.2478 109.758C39.1044 109.758 40.404 109.456 41.1467 108.853C41.9357 108.203 42.3302 107.182 42.3302 105.789C42.3302 104.35 41.9589 103.306 41.2163 102.656C40.4736 102.007 39.1508 101.682 37.2478 101.682H20.8866V109.758H37.2478Z" fill="#A4E6E4"/>
  <path d="M879.306 13.6261C879.193 12.533 878.515 11.6849 877.271 11.0818C876.065 10.4787 874.274 10.1772 871.9 10.1772C869.336 10.1772 867.565 10.3845 866.585 10.7991C865.642 11.1761 865.171 11.7415 865.171 12.4953C865.171 13.2492 865.511 13.8146 866.189 14.1915C866.868 14.5308 868.168 14.7758 870.09 14.9265L884.112 16.2269C889.201 16.717 893.121 17.9985 895.872 20.0717C898.624 22.1071 900 25.1602 900 29.2311C900 33.1135 898.982 36.0913 896.947 38.1644C894.911 40.1999 891.934 41.5757 888.013 42.2918C884.131 43.0457 878.967 43.4226 872.521 43.4226C866.264 43.4226 861.195 43.008 857.312 42.1788C853.43 41.3495 850.433 39.8606 848.322 37.7121C846.249 35.5636 845.137 32.5293 844.987 28.6092H864.21C864.361 30.3054 865.096 31.455 866.415 32.0581C867.772 32.6235 869.883 32.9062 872.748 32.9062C875.575 32.9062 877.516 32.7177 878.571 32.3408C879.627 31.9639 880.154 31.3796 880.154 30.5881C880.154 29.7588 879.796 29.1369 879.08 28.7223C878.364 28.2699 877.007 27.9307 875.009 27.7045L861.892 26.2345C856.841 25.6691 852.921 24.4818 850.132 22.6725C847.38 20.8255 846.004 17.8101 846.004 13.6261C846.004 8.53752 848.247 4.99436 852.733 2.99662C857.256 0.998872 863.72 0 872.126 0C880.418 0 886.77 0.998872 891.18 2.99662C895.627 4.95666 897.964 8.49983 898.191 13.6261H879.306Z" fill="#A4E6E4"/>
  <path d="M842.777 10.5725C842.777 14.2665 842.25 17.2254 841.194 19.4493C840.176 21.6732 838.537 23.294 836.275 24.3117C834.051 25.3294 831.092 25.8383 827.398 25.8383V20.8628C829.472 20.8628 830.979 20.2974 831.922 19.1666C832.864 17.9981 833.335 16.3207 833.335 14.1345H827.398V1.52613H842.777V10.5725Z" fill="#A4E6E4"/>
  <path d="M797.323 1.52613H823.783V41.8956H806.821V16.4527H806.482L797.323 41.8956H784.827L775.555 16.283H775.215V41.8956H759.271V1.52613H784.771L790.877 21.5978H791.216L797.323 1.52613Z" fill="#A4E6E4"/>
  <path d="M755.54 11.8164H726.761V16.905H754.07V26.2341H726.761V31.775H755.879V41.8956H709.799V1.52613H755.54V11.8164Z" fill="#A4E6E4"/>
  <path d="M706.769 30.0222V41.8956H661.707V1.52613H678.669V30.0222H706.769Z" fill="#A4E6E4"/>
  <path d="M650.276 20.2974C652.84 20.7874 654.837 21.7486 656.27 23.1809C657.74 24.6133 658.475 26.8372 658.475 29.8526C658.475 32.6419 657.985 34.9224 657.005 36.6939C656.025 38.4278 654.423 39.7283 652.199 40.5952C649.975 41.4621 646.96 41.8956 643.152 41.8956H605.553V1.52613H642.022C651.973 1.52613 656.948 5.01276 656.948 11.986C656.948 14.1345 656.383 15.8496 655.252 17.1311C654.159 18.375 652.5 19.2797 650.276 19.8451V20.2974ZM635.407 17.2442C636.688 17.2442 637.593 17.0181 638.12 16.5657C638.686 16.1134 638.969 15.4161 638.969 14.4738C638.969 13.4561 638.705 12.721 638.177 12.2687C637.649 11.8164 636.726 11.5902 635.407 11.5902H622.515V17.2442H635.407ZM635.802 32.1142C637.31 32.1142 638.365 31.8692 638.969 31.3792C639.609 30.8515 639.93 30.0222 639.93 28.8914C639.93 27.7229 639.628 26.8749 639.025 26.3471C638.422 25.8194 637.348 25.5556 635.802 25.5556H622.515V32.1142H635.802Z" fill="#A4E6E4"/>
  <path d="M572.715 0C582.742 0 590.186 1.77158 595.049 5.31475C599.911 8.85792 602.342 14.3234 602.342 21.7113C602.342 29.0992 599.911 34.5647 595.049 38.1079C590.186 41.6511 582.742 43.4226 572.715 43.4226C562.689 43.4226 555.244 41.6511 550.382 38.1079C545.52 34.5647 543.088 29.0992 543.088 21.7113C543.088 14.3234 545.52 8.85792 550.382 5.31475C555.244 1.77158 562.689 0 572.715 0ZM572.715 30.9839C580.103 30.9839 583.797 27.893 583.797 21.7113C583.797 15.5296 580.103 12.4388 572.715 12.4388C565.327 12.4388 561.633 15.5296 561.633 21.7113C561.633 27.893 565.327 30.9839 572.715 30.9839Z" fill="#A4E6E4"/>
  <path d="M532.665 27.0822L541.825 41.8956H523.11L516.551 30.4746H505.074V41.8956H488.112V1.52613H522.94C529.499 1.52613 534.135 2.69463 536.849 5.03161C539.563 7.3309 540.92 10.7987 540.92 15.4349C540.92 18.6389 540.223 21.1078 538.828 22.8417C537.434 24.5756 535.379 25.8006 532.665 26.5168V27.0822ZM517.739 20.5801C519.284 20.5801 520.377 20.3162 521.018 19.7885C521.697 19.2231 522.036 18.3562 522.036 17.1877C522.036 15.9815 521.715 15.0957 521.075 14.5303C520.434 13.9649 519.322 13.6822 517.739 13.6822H505.074V20.5801H517.739Z" fill="#A4E6E4"/>
  <path d="M467.434 1.52613C471.919 1.52613 475.462 2.05384 478.063 3.10925C480.702 4.16466 482.586 5.76663 483.717 7.91514C484.848 10.026 485.413 12.7964 485.413 16.2265C485.413 19.5435 484.829 22.2386 483.661 24.3117C482.53 26.3848 480.645 27.9303 478.007 28.948C475.406 29.9657 471.882 30.4746 467.434 30.4746H450.246V41.8956H433.284V1.52613H467.434ZM462.232 19.9581C463.928 19.9581 465.116 19.6754 465.794 19.11C466.51 18.5069 466.868 17.5646 466.868 16.283C466.868 14.9638 466.51 14.0026 465.794 13.3995C465.116 12.7964 463.928 12.4949 462.232 12.4949H450.246V19.9581H462.232Z" fill="#A4E6E4"/>
  <path d="M410.006 11.8164H381.227V16.905H408.536V26.2341H381.227V31.775H410.345V41.8956H364.265V1.52613H410.006V11.8164Z" fill="#A4E6E4"/>
  <path d="M343.345 15.6046V1.52613H360.307V41.8956H343.345V27.3649H324.687V41.8956H307.725V1.52613H324.687V15.6046H343.345Z" fill="#A4E6E4"/>
  <path d="M256.351 1.52613H304.862V13.6257H289.087V41.8956H272.125V13.6257H256.351V1.52613Z" fill="#A4E6E4"/>
  <path d="M217.977 22.6721V1.52613H233.921V41.8956H214.641L197.622 20.5235H197.283V41.8956H181.339V1.52613H200.845L217.637 22.6721H217.977Z" fill="#A4E6E4"/>
  <path d="M177.607 11.8164H148.828V16.905H176.137V26.2341H148.828V31.775H177.946V41.8956H131.866V1.52613H177.607V11.8164Z" fill="#A4E6E4"/>
  <path d="M110.947 15.6046V1.52613H127.909V41.8956H110.947V27.3649H92.2886V41.8956H75.3267V1.52613H92.2886V15.6046H110.947Z" fill="#A4E6E4"/>
  <path d="M74.2934 1.52613L63.0985 41.8956H42.9138L37.3163 17.6965H36.9771L31.3796 41.8956H10.8557L0 1.52613H17.1316L22.2767 26.0079H22.616L28.2699 1.52613H46.0235L51.734 26.0079H52.0732L57.2749 1.52613H74.2934Z" fill="#A4E6E4"/>
</svg>
