<svg viewBox="0 0 600 374" fill="none" xmlns="http://www.w3.org/2000/svg">
  <path d="M575.023 312.27H600V345.739C600 352.788 598.474 358.394 595.421 362.557C592.424 366.664 588.122 369.578 582.516 371.299C576.91 373.02 569.917 373.88 561.536 373.88C553.154 373.88 546.161 373.02 540.555 371.299C534.949 369.578 530.62 366.664 527.567 362.557C524.57 358.394 523.071 352.788 523.071 345.739V312.27H548.048V345.656C548.048 349.319 549.158 351.9 551.378 353.399C553.654 354.842 557.04 355.564 561.536 355.564C566.031 355.564 569.389 354.842 571.61 353.399C573.885 351.9 575.023 349.319 575.023 345.656V312.27Z" fill="#A4E6E4"/>
  <path d="M474.716 310.023C489.48 310.023 500.442 312.632 507.602 317.849C514.763 323.067 518.343 331.115 518.343 341.994C518.343 352.872 514.763 360.92 507.602 366.138C500.442 371.355 489.48 373.964 474.716 373.964C459.952 373.964 448.99 371.355 441.83 366.138C434.67 360.92 431.09 352.872 431.09 341.994C431.09 331.115 434.67 323.067 441.83 317.849C448.99 312.632 459.952 310.023 474.716 310.023ZM474.716 355.648C485.595 355.648 491.035 351.096 491.035 341.994C491.035 332.891 485.595 328.34 474.716 328.34C463.838 328.34 458.398 332.891 458.398 341.994C458.398 351.096 463.838 355.648 474.716 355.648Z" fill="#A4E6E4"/>
  <path d="M409.376 312.27H438.016L408.543 352.899V371.715H383.566V352.899L354.094 312.27H382.817L396.055 333.168L409.376 312.27Z" fill="#A4E6E4"/>
  <path d="M300.584 343.408V312.27H324.062V371.715H295.672L270.612 340.244H270.112V371.715H246.634V312.27H275.357L300.084 343.408H300.584Z" fill="#A4E6E4"/>
  <path d="M244.911 371.715H218.185L214.772 364.222H184.966L181.553 371.715H154.827L183.468 312.27H216.27L244.911 371.715ZM199.619 331.586L191.876 348.737H207.862L200.119 331.586H199.619Z" fill="#A4E6E4"/>
  <path d="M128.102 333.001V312.27H153.079V371.715H128.102V350.318H100.627V371.715H75.6504V312.27H100.627V333.001H128.102Z" fill="#A4E6E4"/>
  <path d="M0 312.27H71.4338V330.087H48.2053V371.715H23.2285V330.087H0V312.27Z" fill="#A4E6E4"/>
  <path d="M581.859 250.994L599.999 280.332H562.935L549.945 257.713H527.214V280.332H493.62V200.38H562.599C575.588 200.38 584.77 202.694 590.145 207.323C595.52 211.877 598.208 218.744 598.208 227.927C598.208 234.272 596.827 239.162 594.065 242.596C591.302 246.03 587.234 248.456 581.859 249.874V250.994ZM552.297 238.117C555.358 238.117 557.522 237.594 558.792 236.549C560.135 235.429 560.807 233.712 560.807 231.398C560.807 229.009 560.173 227.255 558.903 226.135C557.634 225.015 555.432 224.455 552.297 224.455H527.214V238.117H552.297Z" fill="#A4E6E4"/>
  <path d="M486.23 220.76H429.233V230.838H483.319V249.314H429.233V260.288H486.902V280.332H395.64V200.38H486.23V220.76Z" fill="#A4E6E4"/>
  <path d="M334.841 253.57V235.43H388.366V280.333H364.851V273.279C357.161 279.997 346.113 283.357 331.705 283.357C311.624 283.357 296.768 279.848 287.138 272.831C277.508 265.739 272.693 254.877 272.693 240.245C272.693 225.688 277.471 214.901 287.026 207.884C296.656 200.866 311.325 197.358 331.033 197.358C350.293 197.358 364.477 200.157 373.585 205.756C382.767 211.28 387.582 219.044 388.03 229.047H349.398C347.382 224.344 341.335 221.993 331.257 221.993C316.7 221.993 309.422 228.114 309.422 240.357C309.422 247.225 311.213 252.301 314.797 255.586C318.38 258.871 324.091 260.513 331.929 260.513C336.259 260.513 339.954 260.065 343.015 259.169C346.076 258.274 348.353 257.266 349.846 256.146C351.413 255.026 352.197 254.168 352.197 253.57H334.841Z" fill="#A4E6E4"/>
  <path d="M213.349 253.57V235.43H266.874V280.333H243.359V273.279C235.67 279.997 224.621 283.357 210.213 283.357C190.132 283.357 175.276 279.848 165.646 272.831C156.016 265.739 151.201 254.877 151.201 240.245C151.201 225.688 155.979 214.901 165.534 207.884C175.164 200.866 189.833 197.358 209.542 197.358C228.802 197.358 242.986 200.157 252.093 205.756C261.275 211.28 266.09 219.044 266.538 229.047H227.906C225.89 224.344 219.844 221.993 209.766 221.993C195.208 221.993 187.93 228.114 187.93 240.357C187.93 247.225 189.722 252.301 193.305 255.586C196.888 258.871 202.599 260.513 210.437 260.513C214.767 260.513 218.462 260.065 221.523 259.169C224.584 258.274 226.861 257.266 228.354 256.146C229.922 255.026 230.705 254.168 230.705 253.57H213.349Z" fill="#A4E6E4"/>
  <path d="M144.805 200.38V280.332H111.212V200.38H144.805Z" fill="#A4E6E4"/>
  <path d="M88.5744 237.557C93.6507 238.527 97.6073 240.431 100.444 243.268C103.355 246.104 104.811 250.509 104.811 256.481C104.811 262.005 103.841 266.522 101.9 270.03C99.9588 273.464 96.7861 276.04 92.3816 277.757C87.9772 279.474 82.005 280.332 74.4652 280.332H0V200.38H72.2256C91.9337 200.38 101.788 207.285 101.788 221.096C101.788 225.351 100.668 228.748 98.4284 231.286C96.2635 233.75 92.9789 235.541 88.5744 236.661V237.557ZM59.1243 231.51C61.6624 231.51 63.4541 231.062 64.4992 230.166C65.619 229.27 66.1789 227.889 66.1789 226.023C66.1789 224.007 65.6563 222.552 64.6112 221.656C63.566 220.76 61.7371 220.312 59.1243 220.312H33.5933V231.51H59.1243ZM59.9081 260.96C62.8942 260.96 64.9844 260.475 66.1789 259.504C67.4479 258.459 68.0825 256.817 68.0825 254.577C68.0825 252.263 67.4853 250.583 66.2908 249.538C65.0964 248.493 62.9688 247.971 59.9081 247.971H33.5933V260.96H59.9081Z" fill="#A4E6E4"/>
  <path d="M580.709 142.915C580.604 141.896 579.971 141.106 578.812 140.543C577.688 139.981 576.019 139.7 573.805 139.7C571.416 139.7 569.764 139.893 568.851 140.28C567.972 140.631 567.533 141.158 567.533 141.861C567.533 142.564 567.849 143.091 568.482 143.442C569.114 143.758 570.326 143.987 572.118 144.127L585.189 145.34C589.933 145.796 593.587 146.991 596.152 148.924C598.717 150.821 600 153.667 600 157.462C600 161.081 599.051 163.857 597.153 165.789C595.256 167.687 592.48 168.969 588.826 169.637C585.207 170.34 580.393 170.691 574.385 170.691C568.552 170.691 563.826 170.304 560.207 169.531C556.588 168.758 553.794 167.371 551.827 165.368C549.894 163.365 548.858 160.536 548.717 156.882H566.637C566.777 158.463 567.463 159.535 568.692 160.097C569.957 160.624 571.925 160.888 574.595 160.888C577.231 160.888 579.04 160.712 580.024 160.361C581.008 160.009 581.5 159.465 581.5 158.727C581.5 157.954 581.166 157.374 580.499 156.988C579.831 156.566 578.566 156.25 576.704 156.039L564.476 154.668C559.768 154.141 556.113 153.035 553.513 151.348C550.948 149.626 549.666 146.815 549.666 142.915C549.666 138.172 551.756 134.869 555.938 133.006C560.154 131.144 566.18 130.213 574.016 130.213C581.746 130.213 587.666 131.144 591.777 133.006C595.924 134.834 598.102 138.136 598.313 142.915H580.709Z" fill="#A4E6E4"/>
  <path d="M546.658 140.069C546.658 143.512 546.166 146.27 545.182 148.343C544.233 150.416 542.705 151.927 540.596 152.876C538.523 153.825 535.765 154.299 532.322 154.299V149.661C534.254 149.661 535.66 149.134 536.538 148.08C537.417 146.991 537.856 145.427 537.856 143.389H532.322V131.636H546.658V140.069Z" fill="#A4E6E4"/>
  <path d="M504.286 131.636H528.952V169.268H513.14V145.55H512.824L504.286 169.268H492.638L483.994 145.392H483.678V169.268H468.815V131.636H492.585L498.277 150.346H498.593L504.286 131.636Z" fill="#A4E6E4"/>
  <path d="M465.336 141.228H438.509V145.972H463.966V154.668H438.509V159.833H465.652V169.268H422.697V131.636H465.336V141.228Z" fill="#A4E6E4"/>
  <path d="M419.873 158.199V169.268H377.866V131.636H393.678V158.199H419.873Z" fill="#A4E6E4"/>
  <path d="M367.211 149.134C369.6 149.591 371.463 150.487 372.798 151.822C374.168 153.157 374.853 155.23 374.853 158.041C374.853 160.641 374.397 162.767 373.483 164.419C372.57 166.035 371.076 167.247 369.003 168.055C366.93 168.863 364.119 169.268 360.57 169.268H325.521V131.636H359.516C368.792 131.636 373.43 134.886 373.43 141.386C373.43 143.389 372.903 144.988 371.849 146.182C370.83 147.342 369.284 148.185 367.211 148.712V149.134ZM353.35 146.288C354.544 146.288 355.387 146.077 355.879 145.655C356.406 145.234 356.67 144.584 356.67 143.705C356.67 142.757 356.424 142.071 355.932 141.65C355.44 141.228 354.579 141.017 353.35 141.017H341.333V146.288H353.35ZM353.718 160.149C355.124 160.149 356.108 159.921 356.67 159.464C357.267 158.972 357.566 158.199 357.566 157.145C357.566 156.056 357.285 155.265 356.723 154.773C356.16 154.282 355.159 154.036 353.718 154.036H341.333V160.149H353.718Z" fill="#A4E6E4"/>
  <path d="M294.91 130.213C304.256 130.213 311.196 131.865 315.729 135.167C320.261 138.47 322.528 143.565 322.528 150.452C322.528 157.339 320.261 162.434 315.729 165.737C311.196 169.04 304.256 170.691 294.91 170.691C285.563 170.691 278.624 169.04 274.091 165.737C269.559 162.434 267.292 157.339 267.292 150.452C267.292 143.565 269.559 138.47 274.091 135.167C278.624 131.865 285.563 130.213 294.91 130.213ZM294.91 159.096C301.797 159.096 305.24 156.214 305.24 150.452C305.24 144.69 301.797 141.808 294.91 141.808C288.023 141.808 284.58 144.69 284.58 150.452C284.58 156.214 288.023 159.096 294.91 159.096Z" fill="#A4E6E4"/>
  <path d="M257.576 155.459L266.114 169.268H248.669L242.555 158.621H231.856V169.268H216.044V131.636H248.511C254.624 131.636 258.946 132.725 261.476 134.903C264.006 137.047 265.271 140.279 265.271 144.601C265.271 147.588 264.621 149.889 263.321 151.506C262.021 153.122 260.106 154.264 257.576 154.932V155.459ZM243.662 149.397C245.102 149.397 246.121 149.152 246.719 148.66C247.351 148.133 247.667 147.324 247.667 146.235C247.667 145.111 247.369 144.285 246.771 143.758C246.174 143.231 245.137 142.967 243.662 142.967H231.856V149.397H243.662Z" fill="#A4E6E4"/>
  <path d="M196.768 131.636C200.95 131.636 204.252 132.128 206.677 133.111C209.136 134.095 210.893 135.589 211.947 137.591C213.002 139.559 213.529 142.142 213.529 145.339C213.529 148.431 212.984 150.944 211.895 152.876C210.841 154.809 209.084 156.249 206.624 157.198C204.2 158.147 200.914 158.621 196.768 158.621H180.746V169.268H164.934V131.636H196.768ZM191.919 148.818C193.501 148.818 194.607 148.554 195.24 148.027C195.907 147.465 196.241 146.587 196.241 145.392C196.241 144.162 195.907 143.266 195.24 142.704C194.607 142.142 193.501 141.861 191.919 141.861H180.746V148.818H191.919Z" fill="#A4E6E4"/>
  <path d="M143.236 141.228H116.408V145.972H141.865V154.668H116.408V159.833H143.552V169.268H100.597V131.636H143.236V141.228Z" fill="#A4E6E4"/>
  <path d="M81.0954 144.759V131.636H96.9071V169.268H81.0954V155.722H63.7025V169.268H47.8909V131.636H63.7025V144.759H81.0954Z" fill="#A4E6E4"/>
  <path d="M0 131.636H45.2214V142.915H30.5165V169.268H14.7049V142.915H0V131.636Z" fill="#A4E6E4"/>
  <path d="M559.104 54.2386V0H600V103.546H550.547L506.895 48.7277H506.025V103.546H465.129V0H515.162L558.233 54.2386H559.104Z" fill="#A4E6E4"/>
  <path d="M455.556 26.3942H381.74V39.4462H451.786V63.375H381.74V77.5873H456.427V103.546H338.233V0H455.556V26.3942Z" fill="#A4E6E4"/>
  <path d="M284.575 36.1107V0H328.082V103.546H284.575V66.2755H236.717V103.546H193.21V0H236.717V36.1107H284.575Z" fill="#A4E6E4"/>
  <path d="M190.56 0L161.846 103.546H110.072L95.7151 41.4766H94.845L80.4877 103.546H27.8444L0 0H43.942L57.139 62.7949H58.0092L72.5115 0H118.049L132.696 62.7949H133.566L146.908 0H190.56Z" fill="#A4E6E4"/>
</svg>
