<svg viewBox="0 0 600 207" fill="none" xmlns="http://www.w3.org/2000/svg">
  <path d="M600 59.8838V76.4284H558.147V85.6017H597.707V101.327H558.147V118.363H533.576V59.8838H600Z" fill="#A4E6E4"/>
  <path d="M486.007 57.6722C500.531 57.6722 511.315 60.2386 518.359 65.3712C525.403 70.5039 528.924 78.4213 528.924 89.1234C528.924 99.8255 525.403 107.743 518.359 112.876C511.315 118.008 500.531 120.575 486.007 120.575C471.482 120.575 460.698 118.008 453.655 112.876C446.611 107.743 443.089 99.8255 443.089 89.1234C443.089 78.4213 446.611 70.5039 453.655 65.3712C460.698 60.2386 471.482 57.6722 486.007 57.6722ZM486.007 102.556C496.709 102.556 502.06 98.0782 502.06 89.1234C502.06 80.1686 496.709 75.6911 486.007 75.6911C475.305 75.6911 469.953 80.1686 469.953 89.1234C469.953 98.0782 475.305 102.556 486.007 102.556Z" fill="#A4E6E4"/>
  <path d="M376.925 59.8838C384.952 59.8838 391.45 60.8393 396.419 62.7504C401.442 64.6615 405.155 67.7739 407.558 72.0875C409.96 76.3465 411.161 82.0252 411.161 89.1235C411.161 96.2219 409.96 101.928 407.558 106.241C405.155 110.5 401.442 113.586 396.419 115.497C391.45 117.408 384.952 118.363 376.925 118.363H334.335V59.8838H376.925ZM358.907 77.0836V101.163H370.209C375.124 101.163 378.7 100.235 380.939 98.3787C383.177 96.5222 384.297 93.4371 384.297 89.1235C384.297 84.8099 383.177 81.7249 380.939 79.8684C378.7 78.0119 375.124 77.0836 370.209 77.0836H358.907Z" fill="#A4E6E4"/>
  <path d="M305.505 90.5159V59.8838H328.601V118.363H300.672L276.019 87.4036H275.528V118.363H252.431V59.8838H280.688L305.013 90.5159H305.505Z" fill="#A4E6E4"/>
  <path d="M246.688 59.8838V118.363H222.117V59.8838H246.688Z" fill="#A4E6E4"/>
  <path d="M216.372 59.8838L192.128 80.7693L220.385 118.363H190.9L174.847 95.7578L165.264 103.948V118.363H140.693V59.8838H165.264V80.6055L188.443 59.8838H216.372Z" fill="#A4E6E4"/>
  <path d="M77.9823 77.4111C77.8184 75.8276 76.8356 74.5991 75.0337 73.7254C73.2864 72.8518 70.6928 72.415 67.2528 72.415C63.5399 72.415 60.9735 72.7153 59.5538 73.3159C58.1888 73.8619 57.5062 74.681 57.5062 75.773C57.5062 76.8651 57.9977 77.6841 58.9806 78.2302C59.9634 78.7216 61.8472 79.0765 64.632 79.2949L84.9441 81.1787C92.3155 81.8885 97.9942 83.745 101.98 86.7482C105.966 89.6967 107.959 94.1195 107.959 100.017C107.959 105.641 106.485 109.954 103.536 112.957C100.588 115.906 96.2742 117.899 90.5955 118.936C84.9714 120.029 77.4908 120.575 68.1538 120.575C59.0897 120.575 51.7457 119.974 46.1217 118.773C40.4976 117.571 36.1566 115.415 33.0989 112.302C30.0958 109.19 28.485 104.794 28.2665 99.1157H56.1139C56.3323 101.573 57.3971 103.238 59.3082 104.112C61.2739 104.931 64.3316 105.34 68.4814 105.34C72.5766 105.34 75.3887 105.067 76.9176 104.521C78.4464 103.975 79.2108 103.129 79.2108 101.982C79.2108 100.781 78.6922 99.8801 77.6547 99.2795C76.6173 98.6243 74.6515 98.1328 71.7576 97.8052L52.7559 95.6757C45.4391 94.8567 39.7604 93.1367 35.7198 90.5158C31.7338 87.8402 29.7409 83.472 29.7409 77.4111C29.7409 70.0398 32.9896 64.9071 39.4874 62.0132C46.0397 59.1192 55.4041 57.6722 67.5805 57.6722C79.5931 57.6722 88.7936 59.1192 95.1821 62.0132C101.625 64.8525 105.011 69.9852 105.338 77.4111H77.9823Z" fill="#A4E6E4"/>
  <path d="M24.5712 59.8838V118.363H0V59.8838H24.5712Z" fill="#A4E6E4"/>
  <path d="M599.758 8.43787H579.209V12.0713H598.708V18.7327H579.209V22.6891H600V29.9156H567.097V1.09021H599.758V8.43787Z" fill="#A4E6E4"/>
  <path d="M550.734 12.7171C550.464 10.1602 548.271 8.88179 544.153 8.88179C541.623 8.88179 539.726 9.44699 538.461 10.5774C537.222 11.7078 536.603 13.3496 536.603 15.5028C536.603 17.6559 537.222 19.2977 538.461 20.4281C539.726 21.5585 541.623 22.1237 544.153 22.1237C546.521 22.1237 548.19 21.7335 549.159 20.9529C550.128 20.1455 550.68 19.0286 550.814 17.6021H564.783C564.675 22.0699 562.939 25.4208 559.575 27.6547C556.211 29.8886 551.07 31.0055 544.153 31.0055C537.155 31.0055 531.934 29.7405 528.489 27.2106C525.071 24.6537 523.362 20.7511 523.362 15.5028C523.362 10.2544 525.071 6.36528 528.489 3.83532C531.934 1.27844 537.155 0 544.153 0C557.637 0 564.487 4.23904 564.702 12.7171H550.734Z" fill="#A4E6E4"/>
  <path d="M509.676 16.1892V1.09021H521.061V29.9156H507.294L495.142 14.6551H494.9V29.9156H483.515V1.09021H497.443L509.433 16.1892H509.676Z" fill="#A4E6E4"/>
  <path d="M482.679 29.9156H469.719L468.064 26.2822H453.611L451.956 29.9156H438.996L452.884 1.09021H468.791L482.679 29.9156ZM460.716 10.4565L456.962 18.773H464.713L460.959 10.4565H460.716Z" fill="#A4E6E4"/>
  <path d="M426.764 16.1892V1.09021H438.149V29.9156H424.382L412.23 14.6551H411.988V29.9156H400.603V1.09021H414.531L426.522 16.1892H426.764Z" fill="#A4E6E4"/>
  <path d="M397.938 8.43787H377.389V12.0713H396.889V18.7327H377.389V22.6891H398.18V29.9156H365.277V1.09021H397.938V8.43787Z" fill="#A4E6E4"/>
  <path d="M328.594 1.09021H363.233V9.72977H351.969V29.9156H339.858V9.72977H328.594V1.09021Z" fill="#A4E6E4"/>
  <path d="M315.15 16.1892V1.09021H326.535V29.9156H312.768L300.616 14.6551H300.374V29.9156H288.989V1.09021H302.917L314.908 16.1892H315.15Z" fill="#A4E6E4"/>
  <path d="M286.158 1.09021V29.9156H274.047V1.09021H286.158Z" fill="#A4E6E4"/>
  <path d="M273.211 29.9156H260.252L258.596 26.2822H244.143L242.488 29.9156H229.529L243.417 1.09021H259.323L273.211 29.9156ZM251.249 10.4565L247.494 18.773H255.245L251.491 10.4565H251.249Z" fill="#A4E6E4"/>
  <path d="M209.789 1.09021H228.683V29.9156H216.572V11.7484H216.33L209.789 29.9156H200.867L194.246 11.6272H194.004V29.9156H182.619V1.09021H200.827L205.187 15.4222H205.429L209.789 1.09021Z" fill="#A4E6E4"/>
  <path d="M165.998 8.43787H145.449V12.0713H164.948V18.7327H145.449V22.6891H166.24V29.9156H133.337V1.09021H165.998V8.43787Z" fill="#A4E6E4"/>
  <path d="M111.62 1.09021H130.514V29.9156H118.402V11.7484H118.16L111.62 29.9156H102.698L96.0767 11.6272H95.8345V29.9156H84.4496V1.09021H102.657L107.017 15.4222H107.26L111.62 1.09021Z" fill="#A4E6E4"/>
  <path d="M61.0017 0C68.161 0 73.4766 1.26498 76.9486 3.79495C80.4205 6.32491 82.1565 10.2275 82.1565 15.5028C82.1565 20.778 80.4205 24.6806 76.9486 27.2106C73.4766 29.7405 68.161 31.0055 61.0017 31.0055C53.8425 31.0055 48.5269 29.7405 45.0549 27.2106C41.5829 24.6806 39.8469 20.778 39.8469 15.5028C39.8469 10.2275 41.5829 6.32491 45.0549 3.79495C48.5269 1.26498 53.8425 0 61.0017 0ZM61.0017 22.1237C66.277 22.1237 68.9146 19.9167 68.9146 15.5028C68.9146 11.0888 66.277 8.88179 61.0017 8.88179C55.7265 8.88179 53.0889 11.0888 53.0889 15.5028C53.0889 19.9167 55.7265 22.1237 61.0017 22.1237Z" fill="#A4E6E4"/>
  <path d="M25.4342 11.1428V1.09021H37.5457V29.9156H25.4342V19.5401H12.1115V29.9156H0V1.09021H12.1115V11.1428H25.4342Z" fill="#A4E6E4"/>
  <path d="M562.8 186.309V173.701H600V204.908H583.657V200.006C578.313 204.675 570.634 207.01 560.621 207.01C546.665 207.01 536.34 204.571 529.647 199.694C522.955 194.765 519.608 187.217 519.608 177.048C519.608 166.931 522.929 159.434 529.57 154.557C536.262 149.68 546.457 147.241 560.154 147.241C573.54 147.241 583.397 149.187 589.727 153.078C596.109 156.917 599.455 162.313 599.766 169.265H572.917C571.516 165.997 567.314 164.362 560.31 164.362C550.193 164.362 545.134 168.617 545.134 177.125C545.134 181.899 546.379 185.427 548.87 187.709C551.36 189.992 555.329 191.134 560.777 191.134C563.786 191.134 566.354 190.822 568.481 190.2C570.609 189.577 572.191 188.877 573.229 188.099C574.318 187.32 574.863 186.724 574.863 186.309H562.8Z" fill="#A4E6E4"/>
  <path d="M493.226 178.449V149.343H515.172V204.909H488.635L465.21 175.491H464.743V204.909H442.797V149.343H469.646L492.759 178.449H493.226Z" fill="#A4E6E4"/>
  <path d="M437.34 149.343V204.909H413.993V149.343H437.34Z" fill="#A4E6E4"/>
  <path d="M385.198 168.721V149.343H408.545V204.909H385.198V184.908H359.516V204.909H336.169V149.343H359.516V168.721H385.198Z" fill="#A4E6E4"/>
  <path d="M265.455 149.343H332.228V165.997H310.515V204.909H287.168V165.997H265.455V149.343Z" fill="#A4E6E4"/>
  <path d="M224.672 184.519L237.279 204.909H211.519L202.492 189.188H186.694V204.909H163.347V149.343H211.286C220.313 149.343 226.695 150.951 230.431 154.168C234.166 157.333 236.034 162.106 236.034 168.487C236.034 172.897 235.074 176.296 233.154 178.682C231.235 181.069 228.407 182.755 224.672 183.741V184.519ZM204.126 175.569C206.253 175.569 207.758 175.206 208.64 174.48C209.574 173.701 210.041 172.508 210.041 170.9C210.041 169.24 209.6 168.02 208.718 167.242C207.836 166.464 206.305 166.075 204.126 166.075H186.694V175.569H204.126Z" fill="#A4E6E4"/>
  <path d="M134.541 149.343H157.888V180.628C157.888 187.217 156.461 192.457 153.608 196.348C150.806 200.187 146.785 202.911 141.545 204.519C136.305 206.128 129.768 206.932 121.934 206.932C114.099 206.932 107.562 206.128 102.322 204.519C97.0821 202.911 93.0352 200.187 90.1817 196.348C87.3801 192.457 85.9792 187.217 85.9792 180.628V149.343H109.326V180.55C109.326 183.974 110.364 186.387 112.439 187.787C114.566 189.136 117.731 189.811 121.934 189.811C126.136 189.811 129.275 189.136 131.35 187.787C133.478 186.387 134.541 183.974 134.541 180.55V149.343Z" fill="#A4E6E4"/>
  <path d="M40.7795 147.241C54.5802 147.241 64.827 149.68 71.5198 154.557C78.2126 159.434 81.559 166.956 81.559 177.125C81.559 187.294 78.2126 194.817 71.5198 199.694C64.827 204.571 54.5802 207.01 40.7795 207.01C26.9788 207.01 16.732 204.571 10.0392 199.694C3.34641 194.817 0 187.294 0 177.125C0 166.956 3.34641 159.434 10.0392 154.557C16.732 149.68 26.9788 147.241 40.7795 147.241ZM40.7795 189.888C50.9484 189.888 56.0329 185.634 56.0329 177.125C56.0329 168.617 50.9484 164.362 40.7795 164.362C30.6106 164.362 25.5261 168.617 25.5261 177.125C25.5261 185.634 30.6106 189.888 40.7795 189.888Z" fill="#A4E6E4"/>
</svg>
