<svg viewBox="0 0 600 237" fill="none" xmlns="http://www.w3.org/2000/svg">
  <path d="M576.731 80.4197H600L576.054 113.43V128.717H555.761V113.43L531.815 80.4197H555.152L565.908 97.3983L576.731 80.4197Z" fill="#A4E6E4"/>
  <path d="M512.148 99.9007C511.697 95.6166 508.022 93.4746 501.122 93.4746C496.883 93.4746 493.704 94.4216 491.584 96.3156C489.51 98.2097 488.473 100.96 488.473 104.568C488.473 108.176 489.51 110.927 491.584 112.821C493.704 114.715 496.883 115.662 501.122 115.662C505.09 115.662 507.886 115.008 509.51 113.7C511.133 112.347 512.058 110.476 512.283 108.086H535.688C535.508 115.572 532.599 121.186 526.962 124.929C521.325 128.672 512.712 130.543 501.122 130.543C489.397 130.543 480.649 128.424 474.876 124.185C469.149 119.901 466.286 113.362 466.286 104.568C466.286 95.7745 469.149 89.2581 474.876 85.0191C480.649 80.735 489.397 78.593 501.122 78.593C523.715 78.593 535.192 85.6956 535.553 99.9007H512.148Z" fill="#A4E6E4"/>
  <path d="M443.355 105.718V80.4197H462.43V128.717H439.364L419.003 103.148H418.597V128.717H399.521V80.4197H422.858L442.949 105.718H443.355Z" fill="#A4E6E4"/>
  <path d="M395.057 92.7309H360.626V98.8188H393.298V109.98H360.626V116.609H395.463V128.717H340.333V80.4197H395.057V92.7309Z" fill="#A4E6E4"/>
  <path d="M303.605 112.55V101.592H335.939V128.717H321.733V124.455C317.089 128.514 310.414 130.543 301.711 130.543C289.58 130.543 280.606 128.424 274.789 124.185C268.971 119.901 266.063 113.339 266.063 104.501C266.063 95.7068 268.949 89.1905 274.721 84.9515C280.538 80.7125 289.4 78.593 301.305 78.593C312.94 78.593 321.508 80.2841 327.01 83.6662C332.556 87.0033 335.465 91.6933 335.736 97.7361H312.399C311.181 94.8951 307.528 93.4746 301.44 93.4746C292.647 93.4746 288.25 97.1724 288.25 104.568C288.25 108.717 289.332 111.783 291.497 113.768C293.661 115.752 297.111 116.744 301.846 116.744C304.462 116.744 306.694 116.473 308.543 115.932C310.392 115.391 311.767 114.782 312.669 114.106C313.616 113.429 314.09 112.911 314.09 112.55H303.605Z" fill="#A4E6E4"/>
  <path d="M253.593 110.995L264.551 128.717H242.161L234.314 115.053H220.583V128.717H200.289V80.4197H241.958C249.805 80.4197 255.351 81.8177 258.598 84.6136C261.845 87.3645 263.469 91.5133 263.469 97.0601C263.469 100.893 262.634 103.847 260.966 105.921C259.297 107.996 256.84 109.461 253.593 110.318V110.995ZM235.735 103.216C237.584 103.216 238.891 102.9 239.658 102.269C240.47 101.592 240.876 100.555 240.876 99.157C240.876 97.714 240.492 96.6542 239.726 95.9778C238.959 95.3013 237.629 94.9631 235.735 94.9631H220.583V103.216H235.735Z" fill="#A4E6E4"/>
  <path d="M195.825 92.7309H161.394V98.8188H194.066V109.98H161.394V116.609H196.23V128.717H141.101V80.4197H195.825V92.7309Z" fill="#A4E6E4"/>
  <path d="M104.713 80.4197H136.37V128.717H116.077V98.2777H115.671L104.713 128.717H89.7638L78.6702 98.0747H78.2643V128.717H59.1888V80.4197H89.6961L97.0017 104.433H97.4075L104.713 80.4197Z" fill="#A4E6E4"/>
  <path d="M54.724 92.7309H20.2933V98.8188H52.9652V109.98H20.2933V116.609H55.1298V128.717H0.000183105V80.4197H54.724V92.7309Z" fill="#A4E6E4"/>
  <path d="M599.575 14.8011H563.529V21.1747H597.734V32.8595H563.529V39.7995H600V52.4758H542.284V1.91245H599.575V14.8011Z" fill="#A4E6E4"/>
  <path d="M504.189 1.91245H537.331V52.4758H516.086V20.6081H515.661L504.189 52.4758H488.538L476.924 20.3957H476.499V52.4758H456.529V1.91245H488.468L496.116 27.0525H496.541L504.189 1.91245Z" fill="#A4E6E4"/>
  <path d="M415.399 0C427.957 0 437.281 2.21893 443.372 6.6568C449.462 11.0947 452.507 17.9403 452.507 27.1937C452.507 36.4472 449.462 43.2928 443.372 47.7307C437.281 52.1685 427.957 54.3875 415.399 54.3875C402.841 54.3875 393.517 52.1685 387.426 47.7307C381.336 43.2928 378.291 36.4472 378.291 27.1937C378.291 17.9403 381.336 11.0947 387.426 6.6568C393.517 2.21893 402.841 0 415.399 0ZM415.399 38.8077C424.652 38.8077 429.279 34.9364 429.279 27.1937C429.279 19.4511 424.652 15.5797 415.399 15.5797C406.146 15.5797 401.519 19.4511 401.519 27.1937C401.519 34.9364 406.146 38.8077 415.399 38.8077Z" fill="#A4E6E4"/>
  <path d="M353.009 19.5459V1.91245H374.254V52.4758H353.009V34.2758H329.639V52.4758H308.394V1.91245H329.639V19.5459H353.009Z" fill="#A4E6E4"/>
  <path d="M269.937 33.9217L281.409 52.4758H257.969L249.754 38.1708H235.378V52.4758H214.133V1.91245H257.756C265.971 1.91245 271.778 3.376 275.177 6.3031C278.577 9.18299 280.276 13.5264 280.276 19.3334C280.276 23.3464 279.403 26.4387 277.656 28.6105C275.909 30.7822 273.336 32.3165 269.937 33.2136V33.9217ZM251.241 25.7778C253.177 25.7778 254.546 25.4473 255.349 24.7863C256.198 24.0782 256.623 22.9923 256.623 21.5288C256.623 20.018 256.222 18.9085 255.419 18.2004C254.617 17.4922 253.224 17.1381 251.241 17.1381H235.378V25.7778H251.241Z" fill="#A4E6E4"/>
  <path d="M187.921 1.91245H209.166V30.3809C209.166 36.3767 207.867 41.1451 205.271 44.6859C202.721 48.1796 199.063 50.6582 194.294 52.1217C189.526 53.5853 183.577 54.317 176.448 54.317C169.319 54.317 163.371 53.5853 158.602 52.1217C153.834 50.6582 150.152 48.1796 147.555 44.6859C145.006 41.1451 143.731 36.3767 143.731 30.3809V1.91245H164.976V30.3101C164.976 33.426 165.92 35.6213 167.809 36.8961C169.744 38.1235 172.624 38.7373 176.448 38.7373C180.272 38.7373 183.129 38.1235 185.017 36.8961C186.953 35.6213 187.921 33.426 187.921 30.3101V1.91245Z" fill="#A4E6E4"/>
  <path d="M102.601 0C115.159 0 124.483 2.21893 130.574 6.6568C136.664 11.0947 139.709 17.9403 139.709 27.1937C139.709 36.4472 136.664 43.2928 130.574 47.7307C124.483 52.1685 115.159 54.3875 102.601 54.3875C90.0427 54.3875 80.7185 52.1685 74.6282 47.7307C68.5379 43.2928 65.4928 36.4472 65.4928 27.1937C65.4928 17.9403 68.5379 11.0947 74.6282 6.6568C80.7185 2.21893 90.0427 0 102.601 0ZM102.601 38.8077C111.854 38.8077 116.481 34.9364 116.481 27.1937C116.481 19.4511 111.854 15.5797 102.601 15.5797C93.3475 15.5797 88.7208 19.4511 88.7208 27.1937C88.7208 34.9364 93.3475 38.8077 102.601 38.8077Z" fill="#A4E6E4"/>
  <path d="M47.0225 1.91245H71.3835L46.3143 36.4712V52.4758H25.0692V36.4712L0 1.91245H24.4319L35.6918 19.6875L47.0225 1.91245Z" fill="#A4E6E4"/>
  <path d="M561.975 182.224C561.767 180.216 560.521 178.657 558.235 177.549C556.018 176.441 552.729 175.887 548.365 175.887C543.655 175.887 540.4 176.268 538.599 177.03C536.867 177.722 536.002 178.761 536.002 180.146C536.002 181.532 536.625 182.571 537.872 183.263C539.118 183.887 541.508 184.337 545.04 184.614L570.806 187.003C580.156 187.904 587.36 190.259 592.416 194.068C597.472 197.808 600 203.418 600 210.899C600 218.033 598.13 223.505 594.39 227.314C590.65 231.054 585.178 233.582 577.975 234.898C570.841 236.283 561.352 236.976 549.508 236.976C538.01 236.976 528.695 236.214 521.56 234.69C514.426 233.167 508.92 230.431 505.041 226.483C501.232 222.535 499.189 216.959 498.912 209.756H534.236C534.513 212.873 535.863 214.985 538.287 216.093C540.781 217.132 544.659 217.652 549.923 217.652C555.118 217.652 558.685 217.306 560.624 216.613C562.564 215.92 563.533 214.847 563.533 213.392C563.533 211.868 562.875 210.726 561.559 209.964C560.243 209.133 557.75 208.509 554.079 208.094L529.976 205.392C520.695 204.354 513.491 202.172 508.366 198.847C503.31 195.453 500.782 189.912 500.782 182.224C500.782 172.874 504.903 166.363 513.145 162.692C521.457 159.021 533.335 157.186 548.781 157.186C564.018 157.186 575.689 159.021 583.793 162.692C591.966 166.294 596.26 172.805 596.675 182.224H561.975Z" fill="#A4E6E4"/>
  <path d="M494.652 178.9H441.771V188.25H491.951V205.393H441.771V215.574H495.276V234.171H410.603V159.991H494.652V178.9Z" fill="#A4E6E4"/>
  <path d="M350.261 157.186C368.685 157.186 382.364 160.441 391.299 166.952C400.234 173.463 404.701 183.506 404.701 197.081C404.701 210.656 400.234 220.699 391.299 227.21C382.364 233.721 368.685 236.976 350.261 236.976C331.838 236.976 318.158 233.721 309.223 227.21C300.289 220.699 295.821 210.656 295.821 197.081C295.821 183.506 300.289 173.463 309.223 166.952C318.158 160.441 331.838 157.186 350.261 157.186ZM350.261 214.12C363.837 214.12 370.624 208.44 370.624 197.081C370.624 185.722 363.837 180.042 350.261 180.042C336.686 180.042 329.898 185.722 329.898 197.081C329.898 208.44 336.686 214.12 350.261 214.12Z" fill="#A4E6E4"/>
  <path d="M276.668 206.951L293.499 234.171H259.11L247.059 213.185H225.968V234.171H194.8V159.991H258.799C270.85 159.991 279.369 162.138 284.356 166.433C289.343 170.658 291.837 177.03 291.837 185.549C291.837 191.436 290.555 195.973 287.993 199.159C285.43 202.345 281.655 204.596 276.668 205.912V206.951ZM249.24 195.003C252.08 195.003 254.089 194.519 255.266 193.549C256.513 192.51 257.136 190.917 257.136 188.77C257.136 186.553 256.548 184.926 255.37 183.887C254.193 182.848 252.149 182.328 249.24 182.328H225.968V195.003H249.24Z" fill="#A4E6E4"/>
  <path d="M187.943 178.9H135.062V188.25H185.242V205.393H135.062V215.574H188.567V234.171H103.894V159.991H187.943V178.9Z" fill="#A4E6E4"/>
  <path d="M65.453 185.861V159.991H96.6211V234.171H65.453V207.471H31.1682V234.171H0.000183105V159.991H31.1682V185.861H65.453Z" fill="#A4E6E4"/>
</svg>
