<svg viewBox="0 0 680 111" fill="none" xmlns="http://www.w3.org/2000/svg">
  <path d="M664.365 10.2953C664.279 9.46938 663.767 8.8286 662.827 8.37293C661.916 7.91726 660.563 7.68942 658.769 7.68942C656.832 7.68942 655.493 7.84606 654.753 8.15934C654.041 8.44413 653.685 8.87132 653.685 9.4409C653.685 10.0105 653.941 10.4377 654.454 10.7225C654.967 10.9788 655.949 11.1639 657.402 11.2778L667.996 12.2604C671.841 12.6306 674.802 13.5989 676.881 15.1653C678.96 16.7031 680 19.01 680 22.0857C680 25.0191 679.231 27.269 677.693 28.8353C676.155 30.3732 673.905 31.4127 670.943 31.9538C668.01 32.5234 664.108 32.8082 659.238 32.8082C654.511 32.8082 650.68 32.4949 647.747 31.8684C644.814 31.2418 642.55 30.1169 640.955 28.4936C639.388 26.8703 638.548 24.5777 638.434 21.6158H652.959C653.073 22.8974 653.628 23.766 654.625 24.2217C655.65 24.6489 657.245 24.8625 659.409 24.8625C661.545 24.8625 663.012 24.7201 663.809 24.4353C664.607 24.1505 665.006 23.7091 665.006 23.111C665.006 22.4844 664.735 22.0145 664.194 21.7013C663.653 21.3595 662.628 21.1032 661.118 20.9323L651.207 19.8216C647.391 19.3944 644.429 18.4973 642.322 17.1303C640.243 15.7348 639.203 13.4565 639.203 10.2953C639.203 6.45057 640.898 3.77351 644.287 2.26411C647.704 0.754703 652.589 0 658.939 0C665.205 0 670.004 0.754703 673.336 2.26411C676.696 3.74503 678.462 6.42209 678.633 10.2953H664.365Z"/>
  <path d="M636.765 7.98837C636.765 10.7793 636.366 13.015 635.569 14.6953C634.8 16.3755 633.561 17.6001 631.852 18.3691C630.172 19.138 627.936 19.5225 625.146 19.5225V15.7632C626.712 15.7632 627.851 15.336 628.563 14.4817C629.275 13.5988 629.631 12.3315 629.631 10.6797H625.146V1.15332H636.765V7.98837Z"/>
  <path d="M602.422 1.15332H622.414V31.6547H609.598V12.4311H609.342L602.422 31.6547H592.981L585.975 12.303H585.718V31.6547H573.672V1.15332H592.938L597.552 16.3186H597.808L602.422 1.15332Z"/>
  <path d="M570.852 8.92818H549.108V12.7729H569.741V19.8215H549.108V24.008H571.108V31.6547H536.292V1.15332H570.852V8.92818Z"/>
  <path d="M534.003 22.6837V31.6547H499.956V1.15332H512.772V22.6837H534.003Z"/>
  <path d="M491.32 15.336C493.257 15.7063 494.766 16.4325 495.848 17.5147C496.959 18.5969 497.514 20.2772 497.514 22.5556C497.514 24.663 497.144 26.386 496.404 27.7246C495.663 29.0346 494.453 30.0171 492.772 30.6722C491.092 31.3272 488.814 31.6547 485.937 31.6547H457.529V1.15332H485.083C492.602 1.15332 496.361 3.78766 496.361 9.05634C496.361 10.6797 495.934 11.9755 495.079 12.9438C494.253 13.8836 493 14.5671 491.32 14.9943V15.336ZM480.085 13.0292C481.053 13.0292 481.737 12.8583 482.135 12.5166C482.563 12.1748 482.776 11.648 482.776 10.936C482.776 10.167 482.577 9.61169 482.178 9.26993C481.779 8.92818 481.082 8.75731 480.085 8.75731H470.345V13.0292H480.085ZM480.384 24.2643C481.523 24.2643 482.321 24.0792 482.776 23.709C483.26 23.3103 483.502 22.6837 483.502 21.8293C483.502 20.9465 483.275 20.3057 482.819 19.907C482.363 19.5083 481.552 19.3089 480.384 19.3089H470.345V24.2643H480.384Z"/>
  <path d="M432.718 0C440.294 0 445.918 1.33853 449.592 4.01559C453.266 6.69265 455.103 10.8222 455.103 16.4041C455.103 21.9861 453.266 26.1156 449.592 28.7926C445.918 31.4697 440.294 32.8082 432.718 32.8082C425.143 32.8082 419.518 31.4697 415.844 28.7926C412.17 26.1156 410.333 21.9861 410.333 16.4041C410.333 10.8222 412.17 6.69265 415.844 4.01559C419.518 1.33853 425.143 0 432.718 0ZM432.718 23.41C438.3 23.41 441.091 21.0747 441.091 16.4041C441.091 11.7335 438.3 9.39819 432.718 9.39819C427.136 9.39819 424.345 11.7335 424.345 16.4041C424.345 21.0747 427.136 23.41 432.718 23.41Z"/>
  <path d="M402.458 20.4623L409.379 31.6547H395.239L390.283 23.0255H381.611V31.6547H368.796V1.15332H395.111C400.066 1.15332 403.569 2.03618 405.619 3.8019C407.67 5.53914 408.695 8.15924 408.695 11.6622C408.695 14.0829 408.168 15.9483 407.115 17.2584C406.061 18.5684 404.509 19.494 402.458 20.0351V20.4623ZM391.18 15.5496C392.348 15.5496 393.174 15.3503 393.658 14.9516C394.171 14.5244 394.427 13.8694 394.427 12.9865C394.427 12.0752 394.185 11.4059 393.701 10.9787C393.217 10.5515 392.377 10.3379 391.18 10.3379H381.611V15.5496H391.18Z"/>
  <path d="M353.172 1.15332C356.561 1.15332 359.238 1.55203 361.203 2.34945C363.197 3.14687 364.621 4.35725 365.475 5.98057C366.33 7.57541 366.757 9.66865 366.757 12.2603C366.757 14.7664 366.315 16.8027 365.433 18.3691C364.578 19.9355 363.154 21.1031 361.161 21.872C359.196 22.641 356.533 23.0255 353.172 23.0255H340.186V31.6547H327.37V1.15332H353.172ZM349.242 15.0797C350.524 15.0797 351.421 14.8661 351.933 14.4389C352.474 13.9833 352.745 13.2713 352.745 12.303C352.745 11.3062 352.474 10.58 351.933 10.1243C351.421 9.66865 350.524 9.44081 349.242 9.44081H340.186V15.0797H349.242Z"/>
  <path d="M309.782 8.92818H288.038V12.7729H308.672V19.8215H288.038V24.008H310.039V31.6547H275.223V1.15332H309.782V8.92818Z"/>
  <path d="M259.417 11.7904V1.15332H272.232V31.6547H259.417V20.6759H245.319V31.6547H232.504V1.15332H245.319V11.7904H259.417Z"/>
  <path d="M193.687 1.15332H230.34V10.2952H218.421V31.6547H205.606V10.2952H193.687V1.15332Z"/>
  <path d="M164.694 17.1302V1.15332H176.74V31.6547H162.173L149.315 15.5069H149.058V31.6547H137.012V1.15332H151.75L164.437 17.1302H164.694Z"/>
  <path d="M134.192 8.92818H112.448V12.7729H133.081V19.8215H112.448V24.008H134.448V31.6547H99.6324V1.15332H134.192V8.92818Z"/>
  <path d="M83.8264 11.7904V1.15332H96.6421V31.6547H83.8264V20.6759H69.7292V31.6547H56.9135V1.15332H69.7292V11.7904H83.8264Z"/>
  <path d="M56.1328 1.15332L47.6744 31.6547H32.4237L28.1946 13.371H27.9382L23.7091 31.6547H8.20205L0 1.15332H12.9439L16.8313 19.6507H17.0876L21.3595 1.15332H34.7733L39.0879 19.6507H39.3442L43.2744 1.15332H56.1328Z"/>
  <path d="M680 43V91.1829C680 105.56 675.731 111 664.447 111H647.064C635.781 111 631.511 105.56 631.511 91.1829V43H652.859V93.5143H658.653V43H680Z"/>
  <path d="M593.681 111C582.398 111 578.128 105.56 578.128 91.1829V62.8171C578.128 48.44 582.398 43 593.681 43H611.369C622.653 43 626.922 48.44 626.922 62.8171V91.1829C626.922 105.56 622.653 111 611.369 111H593.681ZM599.476 93.5143H605.575V60.4857H599.476V93.5143Z"/>
  <path d="M525.94 43H548.431L552.7 65.8286H553.31L557.58 43H579.308L563.298 89.6286V111H541.95V89.6286L525.94 43Z"/>
  <path d="M455.057 111V43H475.642L484.334 69.0343H484.791V43H504.614V111H484.029L475.337 84.9657H474.88V111H455.057Z"/>
  <path d="M430.3 111L429.386 101.869H420.542L419.627 111H397.898L409.716 43H440.974L452.791 111H430.3ZM422.219 86.3257H427.708L425.345 63.4H424.582L422.219 86.3257Z"/>
  <path d="M374.249 43H395.596V111H374.249V86.7143H368.15V111H346.803V43H368.15V67.2857H374.249V43Z"/>
  <path d="M343.276 43V66.3143H333.364V111H312.017V66.3143H302.106V43H343.276Z"/>
  <path d="M278.779 66.4114C278.779 73.9886 276.95 78.6514 272.909 80.8857C276.95 83.12 278.779 87.7829 278.779 95.36V111H257.432V89.1429H251.333V111H229.986V43H265.514C274.891 43 278.779 47.9543 278.779 59.9029V66.4114ZM251.333 60.4857V72.6286H257.432V60.4857H251.333Z"/>
  <path d="M225.703 62.4286H207.406V68.0629H224.178V85.5486H207.406V91.5714H225.703V111H186.058V43H225.703V62.4286Z"/>
  <path d="M132.675 91.1829V62.8171C132.675 48.44 136.945 43 148.228 43H165.916C177.2 43 181.469 48.44 181.469 62.8171V67.7714H160.122V60.4857H154.023V94.4857H160.884V86.2286H157.453V73.6H181.469V91.1829C181.469 105.56 177.2 111 165.916 111H148.228C136.945 111 132.675 105.56 132.675 91.1829Z"/>
  <path d="M79.2926 91.1829V62.8171C79.2926 48.44 83.562 43 94.8456 43H112.533C123.817 43 128.086 48.44 128.086 62.8171V67.7714H106.739V60.4857H100.64V94.4857H107.501V86.2286H104.071V73.6H128.086V91.1829C128.086 105.56 123.817 111 112.533 111H94.8456C83.562 111 79.2926 105.56 79.2926 91.1829Z"/>
  <path d="M52.6383 43H74.7479V111H52.6383V43Z"/>
  <path d="M42.9994 76.8057C46.8876 78.7486 48.7936 83.3143 48.7936 90.5029V95.0686C48.7936 106.24 45.0578 111 36.2902 111H0V43H35.5278C44.2954 43 48.0312 47.76 48.0312 58.9314V63.4971C48.0312 70.2 46.4302 74.5714 42.9994 76.8057ZM21.3472 58.5429V70.2H26.684V58.5429H21.3472ZM27.4464 95.4571V83.8H21.3472V95.4571H27.4464Z"/>
</svg>