<svg width="680" height="139" viewBox="0 0 680 139" fill="none" xmlns="http://www.w3.org/2000/svg">
<path d="M658.976 13.8436C658.861 12.7331 658.172 11.8714 656.908 11.2587C655.683 10.646 653.864 10.3396 651.451 10.3396C648.847 10.3396 647.047 10.5503 646.051 10.9715C645.094 11.3544 644.615 11.9289 644.615 12.6948C644.615 13.4607 644.96 14.0351 645.649 14.418C646.339 14.7627 647.66 15.0116 649.613 15.1648L663.859 16.486C669.028 16.9838 673.011 18.2858 675.807 20.392C678.602 22.46 680 25.5619 680 29.6977C680 33.6421 678.966 36.6674 676.898 38.7736C674.83 40.8415 671.805 42.2393 667.822 42.9669C663.878 43.7328 658.631 44.1157 652.083 44.1157C645.726 44.1157 640.575 43.6945 636.631 42.852C632.687 42.0095 629.642 40.4969 627.498 38.3141C625.391 36.1313 624.262 33.0485 624.109 29.0658H643.639C643.792 30.7891 644.539 31.9571 645.879 32.5698C647.258 33.1442 649.402 33.4315 652.313 33.4315C655.185 33.4315 657.157 33.24 658.229 32.857C659.302 32.4741 659.838 31.8805 659.838 31.0763C659.838 30.2338 659.474 29.602 658.746 29.1807C658.019 28.7212 656.64 28.3765 654.61 28.1468L641.284 26.6533C636.152 26.0788 632.17 24.8725 629.336 23.0344C626.54 21.1579 625.143 18.0943 625.143 13.8436C625.143 8.6738 627.421 5.07408 631.978 3.04445C636.573 1.01482 643.141 0 651.681 0C660.106 0 666.558 1.01482 671.039 3.04445C675.558 5.03578 677.932 8.6355 678.162 13.8436H658.976Z" fill="#A4E6E4"/>
<path d="M621.517 1.55127V42.5651H604.284V1.55127H621.517Z" fill="#A4E6E4"/>
<path d="M581.348 30.5022V42.5651H535.567V1.55127H552.799V30.5022H581.348Z" fill="#A4E6E4"/>
<path d="M534.377 42.5651H515.938L513.583 37.3953H493.018L490.663 42.5651H472.224L491.984 1.55127H514.617L534.377 42.5651ZM503.128 14.8779L497.786 26.711H508.815L503.473 14.8779H503.128Z" fill="#A4E6E4"/>
<path d="M471.248 12.0058H442.01V17.1756H469.754V26.6536H442.01V32.2829H471.592V42.5651H424.777V1.55127H471.248V12.0058Z" fill="#A4E6E4"/>
<path d="M403.769 1.55127C408.326 1.55127 411.925 2.0874 414.568 3.15966C417.248 4.23191 419.163 5.85945 420.312 8.04226C421.461 10.1868 422.035 13.0015 422.035 16.4863C422.035 19.8562 421.442 22.5943 420.255 24.7006C419.106 26.8068 417.191 28.3769 414.51 29.4108C411.868 30.4448 408.287 30.9618 403.769 30.9618H386.306V42.5651H369.073V1.55127H403.769ZM398.484 20.2775C400.207 20.2775 401.413 19.9903 402.103 19.4158C402.83 18.8031 403.194 17.8458 403.194 16.5437C403.194 15.2034 402.83 14.2269 402.103 13.6142C401.413 13.0015 400.207 12.6951 398.484 12.6951H386.306V20.2775H398.484Z" fill="#A4E6E4"/>
<path d="M348.065 1.55127C352.622 1.55127 356.222 2.0874 358.864 3.15966C361.545 4.23191 363.46 5.85945 364.609 8.04226C365.757 10.1868 366.332 13.0015 366.332 16.4863C366.332 19.8562 365.738 22.5943 364.551 24.7006C363.402 26.8068 361.488 28.3769 358.807 29.4108C356.165 30.4448 352.584 30.9618 348.065 30.9618H330.603V42.5651H313.37V1.55127H348.065ZM342.78 20.2775C344.504 20.2775 345.71 19.9903 346.399 19.4158C347.127 18.8031 347.491 17.8458 347.491 16.5437C347.491 15.2034 347.127 14.2269 346.399 13.6142C345.71 13.0015 344.504 12.6951 342.78 12.6951H330.603V20.2775H342.78Z" fill="#A4E6E4"/>
<path d="M312.18 42.5651H293.741L291.386 37.3953H270.822L268.467 42.5651H250.028L269.788 1.55127H292.42L312.18 42.5651ZM280.932 14.8779L275.59 26.711H286.618L281.276 14.8779H280.932Z" fill="#A4E6E4"/>
<path d="M221.372 20.6221C223.976 21.12 226.005 22.0965 227.46 23.5517C228.954 25.0069 229.701 27.2663 229.701 30.3299C229.701 33.1637 229.203 35.4806 228.207 37.2804C227.212 39.042 225.584 40.3632 223.325 41.244C221.065 42.1247 218.002 42.5651 214.134 42.5651H175.935V1.55127H212.985C223.095 1.55127 228.15 5.09355 228.15 12.1781C228.15 14.3609 227.575 16.1033 226.426 17.4054C225.316 18.6691 223.631 19.5882 221.372 20.1626V20.6221ZM206.264 17.5203C207.566 17.5203 208.485 17.2905 209.021 16.8309C209.596 16.3714 209.883 15.6629 209.883 14.7056C209.883 13.6716 209.615 12.9249 209.079 12.4653C208.543 12.0058 207.605 11.776 206.264 11.776H193.167V17.5203H206.264ZM206.666 32.6276C208.198 32.6276 209.27 32.3787 209.883 31.8808C210.534 31.3447 210.86 30.5022 210.86 29.3534C210.86 28.1662 210.553 27.3046 209.941 26.7685C209.328 26.2323 208.236 25.9643 206.666 25.9643H193.167V32.6276H206.666Z" fill="#A4E6E4"/>
<path d="M164.598 27.5152L173.904 42.5651H154.891L148.227 30.9618H136.566V42.5651H119.334V1.55127H154.718C161.382 1.55127 166.092 2.73841 168.849 5.1127C171.606 7.44869 172.985 10.9718 172.985 15.6821C172.985 18.9372 172.276 21.4455 170.86 23.207C169.443 24.9686 167.356 26.2132 164.598 26.9408V27.5152ZM149.434 20.9094C151.004 20.9094 152.114 20.6413 152.765 20.1052C153.454 19.5307 153.799 18.65 153.799 17.4628C153.799 16.2374 153.474 15.3374 152.823 14.763C152.172 14.1886 151.042 13.9014 149.434 13.9014H136.566V20.9094H149.434Z" fill="#A4E6E4"/>
<path d="M98.072 1.55127H115.305V24.6431C115.305 29.5066 114.252 33.3743 112.145 36.2465C110.077 39.0803 107.11 41.0908 103.242 42.2779C99.374 43.4651 94.5488 44.0586 88.7663 44.0586C82.9838 44.0586 78.1586 43.4651 74.2908 42.2779C70.423 41.0908 67.436 39.0803 65.3298 36.2465C63.2619 33.3743 62.2279 29.5066 62.2279 24.6431V1.55127H79.4606V24.5857C79.4606 27.1131 80.2265 28.8938 81.7583 29.9278C83.3284 30.9235 85.6644 31.4213 88.7663 31.4213C91.8682 31.4213 94.185 30.9235 95.7168 29.9278C97.2869 28.8938 98.072 27.1131 98.072 24.5857V1.55127Z" fill="#A4E6E4"/>
<path d="M38.9459 18.0943C38.563 14.4563 35.4419 12.6373 29.5828 12.6373C25.9831 12.6373 23.2833 13.4415 21.4834 15.0499C19.7219 16.6583 18.8411 18.9943 18.8411 22.0579C18.8411 25.1215 19.7219 27.4575 21.4834 29.0658C23.2833 30.6742 25.9831 31.4784 29.5828 31.4784C32.9528 31.4784 35.3271 30.9231 36.7057 29.8126C38.0843 28.6637 38.8693 27.0745 39.0608 25.0449H58.9359C58.7827 31.4018 56.3127 36.1695 51.5258 39.348C46.7389 42.5265 39.4246 44.1157 29.5828 44.1157C19.6261 44.1157 12.1969 42.3159 7.29518 38.7162C2.43173 35.0781 0 29.5254 0 22.0579C0 14.5904 2.43173 9.05675 7.29518 5.45703C12.1969 1.81901 19.6261 0 29.5828 0C48.7686 0 58.5146 6.03145 58.821 18.0943H38.9459Z" fill="#A4E6E4"/>
<path d="M680 115.495V135.465H604.21V67.5679H632.738V115.495H680Z" fill="#A4E6E4"/>
<path d="M602.241 135.465H571.716L567.817 126.907H533.773L529.874 135.465H499.349L532.061 67.5679H569.528L602.241 135.465ZM550.51 89.6297L541.666 109.219H559.924L551.08 89.6297H550.51Z" fill="#A4E6E4"/>
<path d="M497.732 84.875H449.329V93.4334H495.26V109.124H449.329V118.443H498.303V135.465H420.801V67.5679H497.732V84.875Z" fill="#A4E6E4"/>
<path d="M375.62 67.5679C384.94 67.5679 392.484 68.6773 398.253 70.8962C404.085 73.115 408.396 76.7286 411.186 81.7369C413.975 86.6818 415.37 93.275 415.37 101.516C415.37 109.758 413.975 116.383 411.186 121.391C408.396 126.336 404.085 129.918 398.253 132.137C392.484 134.356 384.94 135.465 375.62 135.465H326.172V67.5679H375.62ZM354.7 87.5376V115.495H367.823C373.528 115.495 377.681 114.418 380.28 112.262C382.879 110.107 384.179 106.525 384.179 101.516C384.179 96.5082 382.879 92.9263 380.28 90.7708C377.681 88.6153 373.528 87.5376 367.823 87.5376H354.7Z" fill="#A4E6E4"/>
<path d="M274.53 110.55L289.936 135.465H258.459L247.428 116.256H228.124V135.465H199.596V67.5679H258.174C269.205 67.5679 277.003 69.5331 281.567 73.4637C286.132 77.3309 288.414 83.1633 288.414 90.961C288.414 96.3497 287.241 100.502 284.896 103.418C282.55 106.335 279.095 108.395 274.53 109.599V110.55ZM249.425 99.6146C252.025 99.6146 253.863 99.1708 254.941 98.2832C256.082 97.3323 256.653 95.8742 256.653 93.9089C256.653 91.8802 256.114 90.3904 255.036 89.4395C253.958 88.4886 252.088 88.0131 249.425 88.0131H228.124V99.6146H249.425Z" fill="#A4E6E4"/>
<path d="M164.398 67.5679H192.926V105.796C192.926 113.847 191.183 120.25 187.696 125.005C184.273 129.696 179.359 133.024 172.956 134.99C166.554 136.955 158.566 137.937 148.993 137.937C139.42 137.937 131.432 136.955 125.029 134.99C118.626 133.024 113.681 129.696 110.194 125.005C106.771 120.25 105.059 113.847 105.059 105.796V67.5679H133.588V105.701C133.588 109.885 134.856 112.833 137.391 114.544C139.991 116.193 143.858 117.017 148.993 117.017C154.128 117.017 157.963 116.193 160.499 114.544C163.098 112.833 164.398 109.885 164.398 105.701V67.5679Z" fill="#A4E6E4"/>
<path d="M49.8293 65C66.6926 65 79.2133 67.9796 87.3914 73.9388C95.5695 79.8981 99.6585 89.0905 99.6585 101.516C99.6585 113.942 95.5695 123.134 87.3914 129.093C79.2133 135.053 66.6926 138.032 49.8293 138.032C32.9659 138.032 20.4452 135.053 12.2671 129.093C4.08904 123.134 0 113.942 0 101.516C0 89.0905 4.08904 79.8981 12.2671 73.9388C20.4452 67.9796 32.9659 65 49.8293 65ZM49.8293 117.112C62.2549 117.112 68.4677 111.913 68.4677 101.516C68.4677 91.1192 62.2549 85.9207 49.8293 85.9207C37.4036 85.9207 31.1908 91.1192 31.1908 101.516C31.1908 111.913 37.4036 117.112 49.8293 117.112Z" fill="#A4E6E4"/>
</svg>
