<svg width="680" height="94" viewBox="0 0 680 94" fill="none" xmlns="http://www.w3.org/2000/svg">
<path d="M664.219 54.4697H680V75.6163C680 80.07 679.036 83.612 677.107 86.2422C675.213 88.8373 672.495 90.6784 668.953 91.7655C665.411 92.8527 660.993 93.3962 655.697 93.3962C650.402 93.3962 645.983 92.8527 642.441 91.7655C638.899 90.6784 636.164 88.8373 634.235 86.2422C632.341 83.612 631.394 80.07 631.394 75.6163V54.4697H647.175V75.5637C647.175 77.8782 647.877 79.5089 649.28 80.4558C650.717 81.3676 652.857 81.8235 655.697 81.8235C658.538 81.8235 660.66 81.3676 662.062 80.4558C663.5 79.5089 664.219 77.8782 664.219 75.5637V54.4697Z" fill="#A4E6E4"/>
<path d="M600.843 53.0498C610.171 53.0498 617.097 54.698 621.621 57.9945C626.145 61.291 628.407 66.376 628.407 73.2495C628.407 80.123 626.145 85.208 621.621 88.5045C617.097 91.801 610.171 93.4492 600.843 93.4492C591.514 93.4492 584.588 91.801 580.064 88.5045C575.54 85.208 573.278 80.123 573.278 73.2495C573.278 66.376 575.54 61.291 580.064 57.9945C584.588 54.698 591.514 53.0498 600.843 53.0498ZM600.843 81.8764C607.716 81.8764 611.153 79.0008 611.153 73.2495C611.153 67.4982 607.716 64.6225 600.843 64.6225C593.969 64.6225 590.532 67.4982 590.532 73.2495C590.532 79.0008 593.969 81.8764 600.843 81.8764Z" fill="#A4E6E4"/>
<path d="M559.559 54.4697H577.654L559.033 80.1402V92.0285H543.252V80.1402L524.63 54.4697H542.778L551.142 67.6732L559.559 54.4697Z" fill="#A4E6E4"/>
<path d="M490.822 74.1434V54.4697H505.656V92.0285H487.718L471.885 72.1445H471.569V92.0285H456.735V54.4697H474.883L490.506 74.1434H490.822Z" fill="#A4E6E4"/>
<path d="M455.645 92.0285H438.76L436.603 87.2942H417.771L415.614 92.0285H398.729L416.824 54.4697H437.55L455.645 92.0285ZM427.029 66.6737L422.137 77.51H432.237L427.345 66.6737H427.029Z" fill="#A4E6E4"/>
<path d="M381.843 67.568V54.4697H397.624V92.0285H381.843V78.5095H364.484V92.0285H348.703V54.4697H364.484V67.568H381.843Z" fill="#A4E6E4"/>
<path d="M300.905 54.4697H346.038V65.7269H331.362V92.0285H315.581V65.7269H300.905V54.4697Z" fill="#A4E6E4"/>
<path d="M273.338 78.2465L281.86 92.0285H264.448L258.346 81.4027H247.667V92.0285H231.886V54.4697H264.29C270.392 54.4697 274.705 55.5569 277.23 57.7311C279.755 59.8703 281.018 63.0967 281.018 67.4102C281.018 70.391 280.369 72.688 279.072 74.3012C277.774 75.9144 275.863 77.0541 273.338 77.7204V78.2465ZM259.45 72.1971C260.888 72.1971 261.905 71.9516 262.501 71.4606C263.133 70.9346 263.448 70.128 263.448 69.0409C263.448 67.9187 263.15 67.0945 262.554 66.5685C261.958 66.0425 260.923 65.7795 259.45 65.7795H247.667V72.1971H259.45Z" fill="#A4E6E4"/>
<path d="M228.414 64.0435H201.639V68.7778H227.047V77.4574H201.639V82.6125H228.73V92.0285H185.858V54.4697H228.414V64.0435Z" fill="#A4E6E4"/>
<path d="M157.297 79.4567V70.9349H182.441V92.0289H171.395V88.7149C167.782 91.8711 162.592 93.4492 155.824 93.4492C146.39 93.4492 139.412 91.801 134.888 88.5045C130.364 85.1729 128.102 80.0704 128.102 73.1969C128.102 66.3585 130.346 61.291 134.835 57.9945C139.359 54.698 146.25 53.0498 155.508 53.0498C164.556 53.0498 171.219 54.3649 175.498 56.9951C179.811 59.5902 182.073 63.2373 182.283 67.9366H164.135C163.188 65.7272 160.348 64.6225 155.613 64.6225C148.775 64.6225 145.356 67.4982 145.356 73.2495C145.356 76.4758 146.197 78.8605 147.881 80.4036C149.564 81.9466 152.247 82.7181 155.929 82.7181C157.963 82.7181 159.699 82.5077 161.137 82.0869C162.575 81.666 163.644 81.1926 164.346 80.6666C165.082 80.1405 165.45 79.7373 165.45 79.4567H157.297Z" fill="#A4E6E4"/>
<path d="M100.224 79.4567V70.9349H125.369V92.0289H114.322V88.7149C110.71 91.8711 105.52 93.4492 98.7513 93.4492C89.3178 93.4492 82.3391 91.801 77.8152 88.5045C73.2913 85.1729 71.0293 80.0704 71.0293 73.1969C71.0293 66.3585 73.2737 61.291 77.7626 57.9945C82.2865 54.698 89.1775 53.0498 98.4357 53.0498C107.483 53.0498 114.147 54.3649 118.425 56.9951C122.738 59.5902 125 63.2373 125.211 67.9366H107.063C106.116 65.7272 103.275 64.6225 98.5409 64.6225C91.7025 64.6225 88.2832 67.4982 88.2832 73.2495C88.2832 76.4758 89.1249 78.8605 90.8082 80.4036C92.4915 81.9466 95.1743 82.7181 98.8565 82.7181C100.891 82.7181 102.626 82.5077 104.064 82.0869C105.502 81.666 106.572 81.1926 107.273 80.6666C108.01 80.1405 108.378 79.7373 108.378 79.4567H100.224Z" fill="#A4E6E4"/>
<path d="M68.0248 54.4697V92.0285H52.2438V54.4697H68.0248Z" fill="#A4E6E4"/>
<path d="M41.6093 71.934C43.9939 72.3899 45.8526 73.2842 47.1852 74.6168C48.5529 75.9494 49.2368 78.0185 49.2368 80.824C49.2368 83.4191 48.7809 85.5408 47.8691 87.189C46.9573 88.8022 45.4668 90.0121 43.3978 90.8187C41.3287 91.6252 38.5232 92.0285 34.9812 92.0285H0V54.4697H33.9292C43.1874 54.4697 47.8165 57.7136 47.8165 64.2013C47.8165 66.2003 47.2904 67.7959 46.2384 68.9883C45.2214 70.1455 43.6783 70.9872 41.6093 71.5132V71.934ZM27.7746 69.0935C28.9669 69.0935 29.8086 68.8831 30.2995 68.4622C30.8256 68.0414 31.0886 67.3926 31.0886 66.5159C31.0886 65.569 30.8431 64.8852 30.3521 64.4644C29.8612 64.0435 29.002 63.8331 27.7746 63.8331H15.781V69.0935H27.7746ZM28.1428 82.9282C29.5456 82.9282 30.5275 82.7002 31.0886 82.2443C31.6848 81.7533 31.9828 80.9818 31.9828 79.9298C31.9828 78.8426 31.7023 78.0536 31.1412 77.5626C30.5801 77.0716 29.5806 76.8262 28.1428 76.8262H15.781V82.9282H28.1428Z" fill="#A4E6E4"/>
<path d="M664.365 10.2953C664.279 9.46938 663.767 8.8286 662.827 8.37293C661.916 7.91726 660.563 7.68942 658.769 7.68942C656.832 7.68942 655.493 7.84606 654.753 8.15934C654.041 8.44413 653.685 8.87132 653.685 9.4409C653.685 10.0105 653.941 10.4377 654.454 10.7225C654.967 10.9788 655.949 11.1639 657.402 11.2778L667.996 12.2604C671.841 12.6306 674.803 13.5989 676.882 15.1653C678.96 16.7031 680 19.01 680 22.0857C680 25.0191 679.231 27.269 677.693 28.8353C676.155 30.3732 673.905 31.4127 670.944 31.9538C668.01 32.5234 664.108 32.8082 659.239 32.8082C654.511 32.8082 650.681 32.4949 647.747 31.8684C644.814 31.2418 642.55 30.1169 640.955 28.4936C639.388 26.8703 638.548 24.5777 638.434 21.6158H652.959C653.073 22.8974 653.628 23.766 654.625 24.2217C655.65 24.6489 657.245 24.8625 659.409 24.8625C661.545 24.8625 663.012 24.7201 663.809 24.4353C664.607 24.1505 665.006 23.7091 665.006 23.111C665.006 22.4844 664.735 22.0145 664.194 21.7013C663.653 21.3595 662.628 21.1032 661.118 20.9323L651.207 19.8216C647.391 19.3944 644.429 18.4973 642.322 17.1303C640.243 15.7348 639.203 13.4565 639.203 10.2953C639.203 6.45057 640.898 3.77351 644.287 2.26411C647.704 0.754703 652.589 0 658.94 0C665.205 0 670.004 0.754703 673.336 2.26411C676.696 3.74503 678.462 6.42209 678.633 10.2953H664.365Z" fill="#A4E6E4"/>
<path d="M636.765 7.98837C636.765 10.7793 636.366 13.015 635.569 14.6953C634.8 16.3755 633.561 17.6001 631.852 18.3691C630.172 19.138 627.936 19.5225 625.145 19.5225V15.7632C626.712 15.7632 627.851 15.336 628.563 14.4817C629.275 13.5988 629.631 12.3315 629.631 10.6797H625.145V1.15332H636.765V7.98837Z" fill="#A4E6E4"/>
<path d="M602.422 1.15332H622.414V31.6547H609.598V12.4311H609.342L602.422 31.6547H592.981L585.975 12.303H585.718V31.6547H573.672V1.15332H592.938L597.552 16.3186H597.808L602.422 1.15332Z" fill="#A4E6E4"/>
<path d="M570.852 8.92818H549.108V12.7729H569.742V19.8215H549.108V24.008H571.109V31.6547H536.293V1.15332H570.852V8.92818Z" fill="#A4E6E4"/>
<path d="M534.003 22.6837V31.6547H499.956V1.15332H512.772V22.6837H534.003Z" fill="#A4E6E4"/>
<path d="M491.32 15.336C493.257 15.7063 494.766 16.4325 495.848 17.5147C496.959 18.5969 497.514 20.2772 497.514 22.5556C497.514 24.663 497.144 26.386 496.404 27.7246C495.663 29.0346 494.453 30.0171 492.773 30.6722C491.092 31.3272 488.814 31.6547 485.938 31.6547H457.529V1.15332H485.083C492.602 1.15332 496.361 3.78766 496.361 9.05634C496.361 10.6797 495.934 11.9755 495.079 12.9438C494.253 13.8836 493 14.5671 491.32 14.9943V15.336ZM480.085 13.0292C481.053 13.0292 481.737 12.8583 482.135 12.5166C482.563 12.1748 482.776 11.648 482.776 10.936C482.776 10.167 482.577 9.61169 482.178 9.26993C481.779 8.92818 481.082 8.75731 480.085 8.75731H470.345V13.0292H480.085ZM480.384 24.2643C481.523 24.2643 482.321 24.0792 482.776 23.709C483.26 23.3103 483.503 22.6837 483.503 21.8293C483.503 20.9465 483.275 20.3057 482.819 19.907C482.363 19.5083 481.552 19.3089 480.384 19.3089H470.345V24.2643H480.384Z" fill="#A4E6E4"/>
<path d="M432.718 0C440.294 0 445.918 1.33853 449.592 4.01559C453.266 6.69265 455.103 10.8222 455.103 16.4041C455.103 21.9861 453.266 26.1156 449.592 28.7926C445.918 31.4697 440.294 32.8082 432.718 32.8082C425.143 32.8082 419.518 31.4697 415.844 28.7926C412.17 26.1156 410.334 21.9861 410.334 16.4041C410.334 10.8222 412.17 6.69265 415.844 4.01559C419.518 1.33853 425.143 0 432.718 0ZM432.718 23.41C438.3 23.41 441.091 21.0747 441.091 16.4041C441.091 11.7335 438.3 9.39819 432.718 9.39819C427.136 9.39819 424.345 11.7335 424.345 16.4041C424.345 21.0747 427.136 23.41 432.718 23.41Z" fill="#A4E6E4"/>
<path d="M402.458 20.4623L409.379 31.6547H395.239L390.283 23.0255H381.611V31.6547H368.796V1.15332H395.111C400.066 1.15332 403.569 2.03618 405.619 3.8019C407.67 5.53914 408.695 8.15924 408.695 11.6622C408.695 14.0829 408.168 15.9483 407.115 17.2584C406.061 18.5684 404.509 19.494 402.458 20.0351V20.4623ZM391.18 15.5496C392.348 15.5496 393.174 15.3503 393.658 14.9516C394.171 14.5244 394.427 13.8694 394.427 12.9865C394.427 12.0752 394.185 11.4059 393.701 10.9787C393.217 10.5515 392.377 10.3379 391.18 10.3379H381.611V15.5496H391.18Z" fill="#A4E6E4"/>
<path d="M353.172 1.15332C356.561 1.15332 359.238 1.55203 361.203 2.34945C363.197 3.14687 364.621 4.35725 365.475 5.98057C366.33 7.57541 366.757 9.66865 366.757 12.2603C366.757 14.7664 366.315 16.8027 365.432 18.3691C364.578 19.9355 363.154 21.1031 361.161 21.872C359.196 22.641 356.533 23.0255 353.172 23.0255H340.186V31.6547H327.37V1.15332H353.172ZM349.242 15.0797C350.524 15.0797 351.421 14.8661 351.933 14.4389C352.474 13.9833 352.745 13.2713 352.745 12.303C352.745 11.3062 352.474 10.58 351.933 10.1243C351.421 9.66865 350.524 9.44081 349.242 9.44081H340.186V15.0797H349.242Z" fill="#A4E6E4"/>
<path d="M309.782 8.92818H288.038V12.7729H308.672V19.8215H288.038V24.008H310.039V31.6547H275.223V1.15332H309.782V8.92818Z" fill="#A4E6E4"/>
<path d="M259.417 11.7904V1.15332H272.232V31.6547H259.417V20.6759H245.319V31.6547H232.504V1.15332H245.319V11.7904H259.417Z" fill="#A4E6E4"/>
<path d="M193.687 1.15332H230.34V10.2952H218.421V31.6547H205.606V10.2952H193.687V1.15332Z" fill="#A4E6E4"/>
<path d="M164.693 17.1302V1.15332H176.74V31.6547H162.173L149.315 15.5069H149.058V31.6547H137.012V1.15332H151.75L164.437 17.1302H164.693Z" fill="#A4E6E4"/>
<path d="M134.192 8.92818H112.448V12.7729H133.081V19.8215H112.448V24.008H134.448V31.6547H99.6324V1.15332H134.192V8.92818Z" fill="#A4E6E4"/>
<path d="M83.8264 11.7904V1.15332H96.6421V31.6547H83.8264V20.6759H69.7291V31.6547H56.9134V1.15332H69.7291V11.7904H83.8264Z" fill="#A4E6E4"/>
<path d="M56.1328 1.15332L47.6744 31.6547H32.4237L28.1946 13.371H27.9382L23.7091 31.6547H8.20205L0 1.15332H12.9439L16.8313 19.6507H17.0876L21.3595 1.15332H34.7733L39.0879 19.6507H39.3442L43.2744 1.15332H56.1328Z" fill="#A4E6E4"/>
</svg>
