<svg width="681" height="107" viewBox="0 0 681 107" fill="none" xmlns="http://www.w3.org/2000/svg">
<path d="M680.75 1.7627V7.8424H665.37V11.2133H679.907V16.992H665.37V23.2523H656.341V1.7627H680.75Z" fill="#A4E6E4"/>
<path d="M638.86 0.950195C644.198 0.950195 648.161 1.89325 650.749 3.77936C653.337 5.66547 654.631 8.5749 654.631 12.5076C654.631 16.4404 653.337 19.3498 650.749 21.2359C648.161 23.122 644.198 24.0651 638.86 24.0651C633.523 24.0651 629.56 23.122 626.972 21.2359C624.383 19.3498 623.089 16.4404 623.089 12.5076C623.089 8.5749 624.383 5.66547 626.972 3.77936C629.56 1.89325 633.523 0.950195 638.86 0.950195ZM638.86 17.4436C642.793 17.4436 644.759 15.7983 644.759 12.5076C644.759 9.21698 642.793 7.57165 638.86 7.57165C634.928 7.57165 632.961 9.21698 632.961 12.5076C632.961 15.7983 634.928 17.4436 638.86 17.4436Z" fill="#A4E6E4"/>
<path d="M598.776 1.7627C601.725 1.7627 604.113 2.11383 605.939 2.81611C607.785 3.51838 609.15 4.66209 610.032 6.24723C610.915 7.8123 611.357 9.89906 611.357 12.5075C611.357 15.116 610.915 17.2128 610.032 18.7979C609.15 20.363 607.785 21.4966 605.939 22.1989C604.113 22.9012 601.725 23.2523 598.776 23.2523H583.125V1.7627H598.776ZM592.154 8.08318V16.9318H596.308C598.114 16.9318 599.428 16.5907 600.251 15.9085C601.073 15.2263 601.485 14.0926 601.485 12.5075C601.485 10.9224 601.073 9.7887 600.251 9.10649C599.428 8.42428 598.114 8.08318 596.308 8.08318H592.154Z" fill="#A4E6E4"/>
<path d="M572.531 13.0192V1.7627H581.018V23.2523H570.755L561.696 11.8755H561.515V23.2523H553.028V1.7627H563.411L572.35 13.0192H572.531Z" fill="#A4E6E4"/>
<path d="M550.917 1.7627V23.2523H541.888V1.7627H550.917Z" fill="#A4E6E4"/>
<path d="M539.777 1.7627L530.868 9.43756L541.252 23.2523H530.417L524.518 14.9454L520.996 17.9552V23.2523H511.967V1.7627H520.996V9.37737L529.514 1.7627H539.777Z" fill="#A4E6E4"/>
<path d="M488.922 8.2037C488.862 7.62181 488.501 7.17035 487.839 6.84931C487.197 6.52827 486.244 6.36775 484.98 6.36775C483.615 6.36775 482.672 6.47811 482.151 6.69882C481.649 6.89947 481.398 7.20045 481.398 7.60175C481.398 8.00305 481.579 8.30402 481.94 8.50467C482.301 8.68526 482.993 8.81568 484.017 8.89594L491.481 9.58818C494.19 9.84903 496.276 10.5312 497.741 11.6348C499.206 12.7183 499.938 14.3436 499.938 16.5106C499.938 18.5773 499.396 20.1624 498.313 21.266C497.229 22.3495 495.644 23.0819 493.558 23.4631C491.491 23.8644 488.742 24.0651 485.311 24.0651C481.98 24.0651 479.281 23.8444 477.215 23.4029C475.148 22.9615 473.553 22.1689 472.429 21.0252C471.326 19.8815 470.734 18.2663 470.653 16.1795H480.886C480.967 17.0825 481.358 17.6944 482.06 18.0155C482.783 18.3165 483.906 18.4669 485.431 18.4669C486.936 18.4669 487.969 18.3666 488.531 18.166C489.093 17.9653 489.374 17.6543 489.374 17.233C489.374 16.7915 489.183 16.4604 488.802 16.2397C488.421 15.999 487.699 15.8184 486.635 15.698L479.652 14.9154C476.964 14.6145 474.877 13.9824 473.392 13.0193C471.927 12.0361 471.195 10.4309 471.195 8.2037C471.195 5.49492 472.389 3.60881 474.777 2.54536C477.184 1.48192 480.626 0.950195 485.1 0.950195C489.514 0.950195 492.895 1.48192 495.243 2.54536C497.611 3.58874 498.855 5.47486 498.975 8.2037H488.922Z" fill="#A4E6E4"/>
<path d="M469.295 1.7627V23.2523H460.266V1.7627H469.295Z" fill="#A4E6E4"/>
<path d="M447.875 7.24044H432.555V9.94922H447.092V14.9153H432.555V17.8649H448.056V23.2523H423.526V1.7627H447.875V7.24044Z" fill="#A4E6E4"/>
<path d="M411.327 10.4309C411.126 8.52474 409.491 7.57165 406.421 7.57165C404.535 7.57165 403.121 7.99302 402.177 8.83575C401.254 9.67848 400.793 10.9024 400.793 12.5076C400.793 14.1128 401.254 15.3368 402.177 16.1795C403.121 17.0223 404.535 17.4436 406.421 17.4436C408.187 17.4436 409.431 17.1527 410.153 16.5708C410.876 15.9689 411.287 15.1362 411.387 14.0727H421.801C421.721 17.4035 420.427 19.9016 417.918 21.567C415.41 23.2324 411.578 24.0651 406.421 24.0651C401.204 24.0651 397.312 23.122 394.743 21.2359C392.195 19.3297 390.921 16.4203 390.921 12.5076C390.921 8.59496 392.195 5.69557 394.743 3.80946C397.312 1.90328 401.204 0.950195 406.421 0.950195C416.474 0.950195 421.58 4.11044 421.741 10.4309H411.327Z" fill="#A4E6E4"/>
<path d="M380.718 13.0192V1.7627H389.205V23.2523H378.942L369.883 11.8755H369.702V23.2523H361.215V1.7627H371.598L380.537 13.0192H380.718Z" fill="#A4E6E4"/>
<path d="M360.591 23.2523H350.93L349.696 20.5435H338.921L337.687 23.2523H328.026L338.379 1.7627H350.238L360.591 23.2523ZM344.218 8.74532L341.419 14.9454H347.198L344.399 8.74532H344.218Z" fill="#A4E6E4"/>
<path d="M318.906 13.0192V1.7627H327.394V23.2523H317.131L308.071 11.8755H307.891V23.2523H299.403V1.7627H309.787L318.726 13.0192H318.906Z" fill="#A4E6E4"/>
<path d="M297.417 7.24044H282.097V9.94922H296.634V14.9153H282.097V17.8649H297.597V23.2523H273.068V1.7627H297.417V7.24044Z" fill="#A4E6E4"/>
<path d="M245.72 1.7627H271.544V8.20357H263.146V23.2523H254.117V8.20357H245.72V1.7627Z" fill="#A4E6E4"/>
<path d="M235.697 13.0192V1.7627H244.185V23.2523H233.922L224.862 11.8755H224.682V23.2523H216.194V1.7627H226.578L235.517 13.0192H235.697Z" fill="#A4E6E4"/>
<path d="M214.084 1.7627V23.2523H205.055V1.7627H214.084Z" fill="#A4E6E4"/>
<path d="M204.431 23.2523H194.77L193.536 20.5435H182.761L181.527 23.2523H171.866L182.219 1.7627H194.078L204.431 23.2523ZM188.058 8.74532L185.259 14.9454H191.038L188.239 8.74532H188.058Z" fill="#A4E6E4"/>
<path d="M157.15 1.7627H171.235V23.2523H162.206V9.70844H162.026L157.15 23.2523H150.498L145.562 9.61815H145.382V23.2523H136.894V1.7627H150.468L153.719 12.4473H153.899L157.15 1.7627Z" fill="#A4E6E4"/>
<path d="M124.503 7.24044H109.183V9.94922H123.72V14.9153H109.183V17.8649H124.684V23.2523H100.154V1.7627H124.503V7.24044Z" fill="#A4E6E4"/>
<path d="M83.9635 1.7627H98.0492V23.2523H89.0199V9.70844H88.8393L83.9635 23.2523H77.312L72.376 9.61815H72.1954V23.2523H63.7079V1.7627H77.2819L80.5324 12.4473H80.713L83.9635 1.7627Z" fill="#A4E6E4"/>
<path d="M46.2273 0.950195C51.5646 0.950195 55.5275 1.89325 58.1158 3.77936C60.7042 5.66547 61.9984 8.5749 61.9984 12.5076C61.9984 16.4404 60.7042 19.3498 58.1158 21.2359C55.5275 23.122 51.5646 24.0651 46.2273 24.0651C40.89 24.0651 36.9272 23.122 34.3388 21.2359C31.7504 19.3498 30.4562 16.4404 30.4562 12.5076C30.4562 8.5749 31.7504 5.66547 34.3388 3.77936C36.9272 1.89325 40.89 0.950195 46.2273 0.950195ZM46.2273 17.4436C50.1601 17.4436 52.1264 15.7983 52.1264 12.5076C52.1264 9.21698 50.1601 7.57165 46.2273 7.57165C42.2946 7.57165 40.3282 9.21698 40.3282 12.5076C40.3282 15.7983 42.2946 17.4436 46.2273 17.4436Z" fill="#A4E6E4"/>
<path d="M19.7114 9.25698V1.7627H28.7407V23.2523H19.7114V15.5173H9.77925V23.2523H0.75V1.7627H9.77925V9.25698H19.7114Z" fill="#A4E6E4"/>
<path d="M637.94 83.2266V68.9382H680.1V104.306H661.578V98.7497C655.522 104.042 646.819 106.688 635.471 106.688C619.654 106.688 607.952 103.924 600.367 98.3969C592.782 92.811 588.989 84.2556 588.989 72.7308C588.989 61.2648 592.753 52.7682 600.279 47.241C607.864 41.7138 619.418 38.9502 634.942 38.9502C650.112 38.9502 661.284 41.1552 668.458 45.5652C675.69 49.9164 679.483 56.0316 679.835 63.9108H649.406C647.819 60.2064 643.056 58.3542 635.118 58.3542C623.652 58.3542 617.919 63.1758 617.919 72.819C617.919 78.2286 619.33 82.227 622.153 84.8142C624.975 87.4014 629.473 88.695 635.647 88.695C639.058 88.695 641.968 88.3422 644.379 87.6366C646.79 86.931 648.583 86.1372 649.759 85.2552C650.994 84.3732 651.611 83.697 651.611 83.2266H637.94Z" fill="#A4E6E4"/>
<path d="M559.09 74.3183V41.3315H583.962V104.306H553.886L527.338 70.9667H526.809V104.306H501.936V41.3315H532.365L558.561 74.3183H559.09Z" fill="#A4E6E4"/>
<path d="M495.752 41.3315V104.306H469.292V41.3315H495.752Z" fill="#A4E6E4"/>
<path d="M436.658 63.2933V41.3315H463.118V104.306H436.658V81.6389H407.552V104.306H381.092V41.3315H407.552V63.2933H436.658Z" fill="#A4E6E4"/>
<path d="M300.949 41.3315H376.625V60.2063H352.017V104.306H325.557V60.2063H300.949V41.3315Z" fill="#A4E6E4"/>
<path d="M254.728 81.1979L269.016 104.306H239.822L229.591 86.4899H211.686V104.306H185.226V41.3315H239.557C249.788 41.3315 257.021 43.1543 261.254 46.7999C265.488 50.3867 267.605 55.7963 267.605 63.0287C267.605 68.0267 266.517 71.8781 264.341 74.5829C262.166 77.2877 258.961 79.1987 254.728 80.3159V81.1979ZM231.443 71.0549C233.854 71.0549 235.559 70.6433 236.558 69.8201C237.617 68.9381 238.146 67.5857 238.146 65.7629C238.146 63.8813 237.646 62.4995 236.647 61.6175C235.647 60.7355 233.912 60.2945 231.443 60.2945H211.686V71.0549H231.443Z" fill="#A4E6E4"/>
<path d="M152.58 41.3315H179.04V76.7879C179.04 84.2555 177.423 90.1943 174.189 94.6043C171.014 98.9555 166.457 102.042 160.518 103.865C154.579 105.688 147.17 106.599 138.291 106.599C129.413 106.599 122.004 105.688 116.065 103.865C110.126 102.042 105.54 98.9555 102.306 94.6043C99.1306 90.1943 97.543 84.2555 97.543 76.7879V41.3315H124.003V76.6997C124.003 80.5805 125.179 83.3147 127.531 84.9023C129.942 86.4311 133.529 87.1955 138.291 87.1955C143.054 87.1955 146.612 86.4311 148.964 84.9023C151.374 83.3147 152.58 80.5805 152.58 76.6997V41.3315Z" fill="#A4E6E4"/>
<path d="M46.3167 38.9502C61.9575 38.9502 73.5705 41.7138 81.1557 47.241C88.7409 52.7682 92.5335 61.2942 92.5335 72.819C92.5335 84.3438 88.7409 92.8698 81.1557 98.3969C73.5705 103.924 61.9575 106.688 46.3167 106.688C30.6759 106.688 19.063 103.924 11.4778 98.3969C3.89257 92.8698 0.0999756 84.3438 0.0999756 72.819C0.0999756 61.2942 3.89257 52.7682 11.4778 47.241C19.063 41.7138 30.6759 38.9502 46.3167 38.9502ZM46.3167 87.2838C57.8415 87.2838 63.6039 82.4622 63.6039 72.819C63.6039 63.1758 57.8415 58.3542 46.3167 58.3542C34.7919 58.3542 29.0296 63.1758 29.0296 72.819C29.0296 82.4622 34.7919 87.2838 46.3167 87.2838Z" fill="#A4E6E4"/>
</svg>
