<svg width="680" height="131" viewBox="0 0 680 131" fill="none" xmlns="http://www.w3.org/2000/svg">
<path d="M666.82 1.03467H680L666.437 19.7317V28.3906H654.943V19.7317L641.38 1.03467H654.598L660.69 10.6514L666.82 1.03467Z" fill="#A4E6E4"/>
<path d="M630.24 12.0688C629.985 9.64227 627.903 8.42901 623.995 8.42901C621.594 8.42901 619.793 8.9654 618.593 10.0382C617.418 11.111 616.831 12.6691 616.831 14.7124C616.831 16.7558 617.418 18.3139 618.593 19.3867C619.793 20.4595 621.594 20.9959 623.995 20.9959C626.243 20.9959 627.827 20.6255 628.746 19.8848C629.666 19.1185 630.189 18.0585 630.317 16.7048H643.574C643.471 20.9448 641.824 24.1248 638.631 26.2449C635.438 28.3649 630.56 29.4249 623.995 29.4249C617.354 29.4249 612.399 28.2244 609.13 25.8234C605.886 23.3969 604.264 19.6932 604.264 14.7124C604.264 9.73167 605.886 6.04079 609.13 3.6398C612.399 1.21327 617.354 0 623.995 0C636.792 0 643.293 4.02294 643.497 12.0688H630.24Z" fill="#A4E6E4"/>
<path d="M591.275 15.364V1.03467H602.08V28.3906H589.015L577.482 13.9081H577.252V28.3906H566.448V1.03467H579.666L591.045 15.364H591.275Z" fill="#A4E6E4"/>
<path d="M563.919 8.00776H544.418V11.456H562.923V17.7777H544.418V21.5325H564.149V28.3906H532.924V1.03467H563.919V8.00776Z" fill="#A4E6E4"/>
<path d="M512.121 19.2335V13.0266H530.435V28.3904H522.389V25.9767C519.758 28.2755 515.978 29.4249 511.048 29.4249C504.177 29.4249 499.094 28.2244 495.799 25.8234C492.504 23.3969 490.857 19.6805 490.857 14.6741C490.857 9.69336 492.491 6.00248 495.761 3.60149C499.056 1.2005 504.075 0 510.818 0C517.408 0 522.261 0.957842 525.377 2.87353C528.519 4.76367 530.167 7.42008 530.32 10.8428H517.102C516.412 9.2336 514.343 8.42901 510.895 8.42901C505.914 8.42901 503.424 10.5235 503.424 14.7124C503.424 17.0624 504.037 18.7992 505.263 19.9231C506.489 21.047 508.443 21.6089 511.125 21.6089C512.606 21.6089 513.871 21.4557 514.918 21.1491C515.965 20.8426 516.744 20.4978 517.255 20.1147C517.791 19.7315 518.059 19.4378 518.059 19.2335H512.121Z" fill="#A4E6E4"/>
<path d="M483.794 18.3524L490 28.3906H477.319L472.874 20.6513H465.097V28.3906H453.602V1.03467H477.204C481.648 1.03467 484.79 1.82648 486.629 3.41012C488.468 4.96821 489.387 7.31811 489.387 10.4598C489.387 12.6309 488.915 14.304 487.97 15.4789C487.025 16.6539 485.633 17.484 483.794 17.9693V18.3524ZM473.679 13.9464C474.726 13.9464 475.467 13.7676 475.901 13.41C476.361 13.0268 476.591 12.4394 476.591 11.6476C476.591 10.8302 476.374 10.23 475.939 9.84681C475.505 9.46368 474.752 9.27211 473.679 9.27211H465.097V13.9464H473.679Z" fill="#A4E6E4"/>
<path d="M451.074 8.00776H431.572V11.456H450.078V17.7777H431.572V21.5325H451.304V28.3906H420.078V1.03467H451.074V8.00776Z" fill="#A4E6E4"/>
<path d="M399.468 1.03467H417.398V28.3906H405.904V11.1495H405.674L399.468 28.3906H391L384.717 11.0345H384.487V28.3906H373.682V1.03467H390.962L395.1 14.636H395.33L399.468 1.03467Z" fill="#A4E6E4"/>
<path d="M371.154 8.00776H351.652V11.456H370.158V17.7777H351.652V21.5325H371.384V28.3906H340.158V1.03467H371.154V8.00776Z" fill="#A4E6E4"/>
<path d="M324.384 8.00776H304.882V11.456H323.388V17.7777H304.882V21.5325H324.614V28.3906H293.388V1.03467H324.384V8.00776Z" fill="#A4E6E4"/>
<path d="M272.778 1.03467H290.709V28.3906H279.215V11.1495H278.985L272.778 28.3906H264.311L258.027 11.0345H257.797V28.3906H246.993V1.03467H264.272L268.41 14.636H268.64L272.778 1.03467Z" fill="#A4E6E4"/>
<path d="M224.741 0C231.535 0 236.579 1.2005 239.874 3.60149C243.169 6.00248 244.817 9.70613 244.817 14.7124C244.817 19.7188 243.169 23.4224 239.874 25.8234C236.579 28.2244 231.535 29.4249 224.741 29.4249C217.946 29.4249 212.902 28.2244 209.607 25.8234C206.312 23.4224 204.664 19.7188 204.664 14.7124C204.664 9.70613 206.312 6.00248 209.607 3.60149C212.902 1.2005 217.946 0 224.741 0ZM224.741 20.9959C229.747 20.9959 232.25 18.9014 232.25 14.7124C232.25 10.5235 229.747 8.42901 224.741 8.42901C219.734 8.42901 217.231 10.5235 217.231 14.7124C217.231 18.9014 219.734 20.9959 224.741 20.9959Z" fill="#A4E6E4"/>
<path d="M190.986 10.5748V1.03467H202.48V28.3906H190.986V18.544H178.343V28.3906H166.848V1.03467H178.343V10.5748H190.986Z" fill="#A4E6E4"/>
<path d="M146.042 18.3524L152.249 28.3906H139.567L135.123 20.6513H127.345V28.3906H115.851V1.03467H139.452C143.897 1.03467 147.038 1.82648 148.877 3.41012C150.716 4.96821 151.636 7.31811 151.636 10.4598C151.636 12.6309 151.163 14.304 150.218 15.4789C149.273 16.6539 147.881 17.484 146.042 17.9693V18.3524ZM135.927 13.9464C136.975 13.9464 137.715 13.7676 138.15 13.41C138.609 13.0268 138.839 12.4394 138.839 11.6476C138.839 10.8302 138.622 10.23 138.188 9.84681C137.754 9.46368 137 9.27211 135.927 9.27211H127.345V13.9464H135.927Z" fill="#A4E6E4"/>
<path d="M101.669 1.03467H113.164V16.4368C113.164 19.6807 112.461 22.2604 111.056 24.1761C109.677 26.0663 107.697 27.4072 105.118 28.1991C102.538 28.9909 99.3195 29.3868 95.4626 29.3868C91.6057 29.3868 88.3874 28.9909 85.8076 28.1991C83.2278 27.4072 81.2355 26.0663 79.8307 24.1761C78.4514 22.2604 77.7617 19.6807 77.7617 16.4368V1.03467H89.2558V16.3985C89.2558 18.0843 89.7667 19.272 90.7884 19.9616C91.8356 20.6257 93.3937 20.9578 95.4626 20.9578C97.5316 20.9578 99.0769 20.6257 100.099 19.9616C101.146 19.272 101.669 18.0843 101.669 16.3985V1.03467Z" fill="#A4E6E4"/>
<path d="M55.5094 0C62.3036 0 67.3483 1.2005 70.6433 3.60149C73.9382 6.00248 75.5857 9.70613 75.5857 14.7124C75.5857 19.7188 73.9382 23.4224 70.6433 25.8234C67.3483 28.2244 62.3036 29.4249 55.5094 29.4249C48.7151 29.4249 43.6704 28.2244 40.3755 25.8234C37.0805 23.4224 35.433 19.7188 35.433 14.7124C35.433 9.70613 37.0805 6.00248 40.3755 3.60149C43.6704 1.2005 48.7151 0 55.5094 0ZM55.5094 20.9959C60.5157 20.9959 63.0188 18.9014 63.0188 14.7124C63.0188 10.5235 60.5157 8.42901 55.5094 8.42901C50.503 8.42901 47.9999 10.5235 47.9999 14.7124C47.9999 18.9014 50.503 20.9959 55.5094 20.9959Z" fill="#A4E6E4"/>
<path d="M25.4403 1.03467H38.6202L25.0571 19.7317V28.3906H13.563V19.7317L0 1.03467H13.2182L19.3101 10.6514L25.4403 1.03467Z" fill="#A4E6E4"/>
<path d="M636.905 68.49C636.67 66.2136 635.257 64.4474 632.666 63.1915C630.154 61.9355 626.426 61.3075 621.48 61.3075C616.142 61.3075 612.453 61.7393 610.412 62.6028C608.45 63.3877 607.469 64.5652 607.469 66.1351C607.469 67.7051 608.175 68.8825 609.588 69.6675C611.001 70.374 613.709 70.8842 617.712 71.1982L646.913 73.9064C657.511 74.9268 665.674 77.5957 671.405 81.9131C677.135 86.1519 680 92.5102 680 100.988C680 109.073 677.881 115.274 673.642 119.592C669.403 123.831 663.202 126.696 655.038 128.187C646.953 129.757 636.199 130.542 622.776 130.542C609.745 130.542 599.187 129.679 591.102 127.952C583.017 126.225 576.776 123.124 572.38 118.65C568.063 114.175 565.747 107.856 565.433 99.6927H605.467C605.781 103.225 607.312 105.619 610.059 106.875C612.885 108.053 617.281 108.641 623.246 108.641C629.134 108.641 633.176 108.249 635.374 107.464C637.572 106.679 638.671 105.462 638.671 103.814C638.671 102.087 637.925 100.792 636.434 99.9282C634.943 98.9862 632.117 98.2798 627.956 97.8088L600.639 94.7474C590.121 93.5699 581.957 91.0973 576.148 87.3294C570.418 83.483 567.553 77.2032 567.553 68.49C567.553 57.8929 572.223 50.5142 581.564 46.3538C590.984 42.1935 604.446 40.1133 621.951 40.1133C639.221 40.1133 652.448 42.1935 661.632 46.3538C670.894 50.4357 675.761 57.8144 676.232 68.49H636.905Z" fill="#A4E6E4"/>
<path d="M560.606 64.7225H500.673V75.3196H557.544V94.7477H500.673V106.287H561.312V127.363H465.349V43.2927H560.606V64.7225Z" fill="#A4E6E4"/>
<path d="M396.963 40.1133C417.843 40.1133 433.346 43.8027 443.472 51.1814C453.599 58.5601 458.662 69.9422 458.662 85.3277C458.662 100.713 453.599 112.095 443.472 119.474C433.346 126.853 417.843 130.542 396.963 130.542C376.083 130.542 360.579 126.853 350.453 119.474C340.327 112.095 335.264 100.713 335.264 85.3277C335.264 69.9422 340.327 58.5601 350.453 51.1814C360.579 43.8027 376.083 40.1133 396.963 40.1133ZM396.963 104.638C412.348 104.638 420.041 98.2013 420.041 85.3277C420.041 72.4542 412.348 66.0174 396.963 66.0174C381.577 66.0174 373.885 72.4542 373.885 85.3277C373.885 98.2013 381.577 104.638 396.963 104.638Z" fill="#A4E6E4"/>
<path d="M313.557 96.5139L332.632 127.363H293.658L280 103.579H256.097V127.363H220.774V43.2927H293.305C306.964 43.2927 316.619 45.7261 322.271 50.593C327.922 55.3813 330.748 62.6031 330.748 72.2582C330.748 78.9305 329.296 84.0721 326.392 87.6829C323.487 91.2938 319.209 93.845 313.557 95.3364V96.5139ZM282.472 82.9731C285.691 82.9731 287.967 82.4236 289.302 81.3246C290.715 80.1472 291.421 78.3418 291.421 75.9083C291.421 73.3964 290.754 71.5517 289.419 70.3743C288.085 69.1968 285.769 68.6081 282.472 68.6081H256.097V82.9731H282.472Z" fill="#A4E6E4"/>
<path d="M213.002 64.7225H153.07V75.3196H209.941V94.7477H153.07V106.287H213.709V127.363H117.746V43.2927H213.002V64.7225Z" fill="#A4E6E4"/>
<path d="M74.1799 72.6115V43.2927H109.504V127.363H74.1799V97.1026H35.3238V127.363H0V43.2927H35.3238V72.6115H74.1799Z" fill="#A4E6E4"/>
</svg>
