<svg width="361" height="42" viewBox="0 0 361 42" fill="none" xmlns="http://www.w3.org/2000/svg">
<path d="M227.667 2.952C227.667 3.136 227.779 3.288 228.003 3.408C228.227 3.528 228.507 3.644 228.843 3.756C229.187 3.86 229.555 3.972 229.947 4.092C230.339 4.204 230.703 4.352 231.039 4.536C231.383 4.712 231.667 4.932 231.891 5.196C232.115 5.46 232.227 5.788 232.227 6.18C232.227 6.612 232.143 6.984 231.975 7.296C231.815 7.608 231.587 7.864 231.291 8.064C230.995 8.264 230.647 8.412 230.247 8.508C229.847 8.604 229.407 8.652 228.927 8.652C228.455 8.652 228.047 8.6 227.703 8.496C227.367 8.392 227.083 8.26 226.851 8.1C226.619 7.94 226.439 7.764 226.311 7.572C226.183 7.38 226.095 7.196 226.047 7.02C225.999 6.844 225.979 6.692 225.987 6.564C226.003 6.428 226.043 6.336 226.107 6.288C226.147 6.264 226.183 6.252 226.215 6.252C226.303 6.252 226.399 6.312 226.503 6.432C226.615 6.544 226.767 6.668 226.959 6.804C227.159 6.94 227.415 7.068 227.727 7.188C228.039 7.3 228.439 7.356 228.927 7.356C229.151 7.356 229.367 7.344 229.575 7.32C229.783 7.296 229.967 7.248 230.127 7.176C230.295 7.104 230.427 7 230.523 6.864C230.619 6.72 230.667 6.532 230.667 6.3C230.667 6.1 230.555 5.936 230.331 5.808C230.107 5.672 229.827 5.548 229.491 5.436C229.155 5.324 228.787 5.208 228.387 5.088C227.995 4.968 227.631 4.82 227.295 4.644C226.959 4.46 226.679 4.236 226.455 3.972C226.231 3.7 226.119 3.36 226.119 2.952C226.119 2.688 226.183 2.424 226.311 2.16C226.439 1.888 226.631 1.644 226.887 1.428C227.151 1.212 227.475 1.036 227.859 0.899999C228.251 0.763999 228.707 0.695999 229.227 0.695999C229.611 0.695999 229.931 0.731999 230.187 0.803999C230.451 0.867999 230.711 0.967999 230.967 1.104C231.023 1.136 231.067 1.12 231.099 1.056L231.147 0.947999C231.211 0.843999 231.299 0.779999 231.411 0.756C231.475 0.739999 231.531 0.751999 231.579 0.791999C231.627 0.823999 231.659 0.871999 231.675 0.935999L232.119 2.94C232.135 3.004 232.127 3.064 232.095 3.12C232.063 3.168 232.015 3.2 231.951 3.216C231.823 3.248 231.719 3.224 231.639 3.144C231.519 3.024 231.387 2.9 231.243 2.772C231.099 2.636 230.935 2.512 230.751 2.4C230.567 2.28 230.351 2.184 230.103 2.112C229.855 2.032 229.563 1.992 229.227 1.992C228.779 1.992 228.407 2.084 228.111 2.268C227.815 2.444 227.667 2.672 227.667 2.952Z" fill="#3A312D"/>
<path d="M223.851 7.968C223.955 8.064 224.003 8.172 223.995 8.292C223.995 8.356 223.971 8.412 223.923 8.46C223.875 8.508 223.815 8.532 223.743 8.532H221.511C221.447 8.532 221.387 8.508 221.331 8.46C221.283 8.412 221.259 8.356 221.259 8.292C221.259 8.156 221.307 8.048 221.403 7.968L221.583 7.836C221.679 7.764 221.751 7.672 221.799 7.56C221.855 7.448 221.883 7.332 221.883 7.212V2.136C221.883 1.88 221.783 1.672 221.583 1.512L221.403 1.38C221.307 1.308 221.259 1.204 221.259 1.068C221.259 1.004 221.283 0.948003 221.331 0.900003C221.387 0.852003 221.447 0.828003 221.511 0.828003H223.743C223.815 0.828003 223.875 0.852003 223.923 0.900003C223.971 0.948003 223.995 1.004 223.995 1.068C224.011 1.196 223.963 1.3 223.851 1.38L223.683 1.512C223.475 1.68 223.371 1.888 223.371 2.136V7.212C223.371 7.332 223.399 7.448 223.455 7.56C223.511 7.672 223.587 7.764 223.683 7.836L223.851 7.968Z" fill="#3A312D"/>
<path d="M214.514 7.968C214.618 8.064 214.666 8.172 214.658 8.292C214.658 8.356 214.634 8.412 214.586 8.46C214.538 8.508 214.478 8.532 214.406 8.532H212.978C212.866 8.532 212.766 8.48 212.678 8.376C212.598 8.264 212.522 8.128 212.45 7.968C212.386 7.8 212.322 7.612 212.258 7.404C212.202 7.196 212.146 6.996 212.09 6.804C212.034 6.604 211.974 6.42 211.91 6.252C211.846 6.084 211.778 5.952 211.706 5.856C211.61 5.736 211.49 5.652 211.346 5.604C211.202 5.548 211.054 5.536 210.902 5.568C210.574 5.648 210.246 5.692 209.918 5.7C209.806 5.708 209.714 5.752 209.642 5.832C209.57 5.904 209.534 5.992 209.534 6.096V7.212C209.534 7.332 209.562 7.448 209.618 7.56C209.674 7.672 209.75 7.764 209.846 7.836L210.014 7.968C210.118 8.056 210.17 8.164 210.17 8.292C210.162 8.356 210.134 8.412 210.086 8.46C210.038 8.508 209.978 8.532 209.906 8.532H207.674C207.61 8.532 207.55 8.508 207.494 8.46C207.446 8.412 207.422 8.356 207.422 8.292C207.422 8.156 207.47 8.048 207.566 7.968L207.746 7.836C207.842 7.764 207.914 7.672 207.962 7.56C208.018 7.448 208.046 7.332 208.046 7.212V2.136C208.046 1.88 207.946 1.672 207.746 1.512L207.566 1.38C207.47 1.308 207.422 1.204 207.422 1.068C207.422 1.004 207.446 0.948003 207.494 0.900003C207.55 0.852003 207.61 0.828003 207.674 0.828003H211.406C212.142 0.828003 212.738 1.012 213.194 1.38C213.65 1.74 213.886 2.272 213.902 2.976C213.902 3.2 213.87 3.4 213.806 3.576C213.75 3.744 213.666 3.904 213.554 4.056C213.442 4.208 213.306 4.352 213.146 4.488C212.994 4.624 212.826 4.772 212.642 4.932C212.618 4.956 212.622 4.968 212.654 4.968C212.79 5.016 212.91 5.112 213.014 5.256C213.118 5.392 213.214 5.556 213.302 5.748C213.398 5.94 213.482 6.144 213.554 6.36C213.634 6.568 213.71 6.768 213.782 6.96C213.854 7.144 213.922 7.308 213.986 7.452C214.058 7.596 214.13 7.688 214.202 7.728L214.514 7.968ZM209.978 4.608C210.242 4.584 210.522 4.544 210.818 4.488C211.114 4.432 211.386 4.348 211.634 4.236C211.89 4.124 212.098 3.976 212.258 3.792C212.426 3.6 212.51 3.36 212.51 3.072C212.51 2.864 212.47 2.7 212.39 2.58C212.318 2.452 212.218 2.356 212.09 2.292C211.97 2.22 211.83 2.172 211.67 2.148C211.518 2.124 211.362 2.112 211.202 2.112H209.942C209.83 2.112 209.734 2.152 209.654 2.232C209.574 2.312 209.534 2.408 209.534 2.52V4.212C209.534 4.332 209.578 4.432 209.666 4.512C209.754 4.592 209.858 4.624 209.978 4.608Z" fill="#3A312D"/>
<path d="M205.255 6.636C205.319 6.652 205.367 6.692 205.399 6.756C205.439 6.82 205.451 6.884 205.435 6.948L205.111 8.232C205.055 8.432 204.923 8.532 204.715 8.532H199.279C199.215 8.532 199.155 8.508 199.099 8.46C199.051 8.412 199.027 8.356 199.027 8.292C199.027 8.156 199.075 8.048 199.171 7.968L199.351 7.836C199.447 7.764 199.519 7.672 199.567 7.56C199.623 7.448 199.651 7.332 199.651 7.212V2.136C199.651 1.88 199.551 1.672 199.351 1.512L199.171 1.38C199.075 1.308 199.027 1.204 199.027 1.068C199.027 1.004 199.051 0.948003 199.099 0.900003C199.155 0.852003 199.215 0.828003 199.279 0.828003H204.559C204.655 0.828003 204.739 0.856003 204.811 0.912003C204.883 0.968003 204.931 1.044 204.955 1.14L205.231 2.436C205.247 2.5 205.235 2.564 205.195 2.628C205.163 2.684 205.115 2.72 205.051 2.736C204.923 2.76 204.811 2.732 204.715 2.652L204.283 2.304C204.131 2.176 203.963 2.112 203.779 2.112H201.547C201.435 2.112 201.339 2.152 201.259 2.232C201.187 2.304 201.151 2.396 201.151 2.508V4.212C201.151 4.252 201.167 4.284 201.199 4.308C201.239 4.324 201.275 4.316 201.307 4.284C201.587 4.052 201.895 3.86 202.231 3.708C202.575 3.548 202.915 3.468 203.251 3.468C203.459 3.468 203.611 3.512 203.707 3.6C203.811 3.688 203.871 3.8 203.887 3.936C203.903 4.072 203.883 4.216 203.827 4.368C203.779 4.52 203.711 4.664 203.623 4.8C203.543 4.936 203.447 5.048 203.335 5.136C203.231 5.224 203.131 5.268 203.035 5.268C202.979 5.268 202.939 5.248 202.915 5.208C202.891 5.16 202.859 5.108 202.819 5.052C202.787 4.996 202.739 4.948 202.675 4.908C202.611 4.86 202.507 4.836 202.363 4.836C202.259 4.836 202.139 4.868 202.003 4.932C201.867 4.996 201.735 5.08 201.607 5.184C201.479 5.288 201.371 5.404 201.283 5.532C201.195 5.66 201.151 5.784 201.151 5.904V6.84C201.151 6.952 201.187 7.048 201.259 7.128C201.339 7.2 201.435 7.236 201.547 7.236H203.971C204.147 7.236 204.311 7.18 204.463 7.068L204.919 6.708C205.015 6.636 205.127 6.612 205.255 6.636Z" fill="#3A312D"/>
<path d="M196.714 0.828003C196.778 0.828003 196.83 0.852003 196.87 0.900003C196.91 0.948003 196.93 1.004 196.93 1.068C196.93 1.204 196.886 1.308 196.798 1.38L196.51 1.656C196.414 1.752 196.342 1.864 196.294 1.992L194.278 8.28C194.254 8.36 194.21 8.424 194.146 8.472C194.09 8.512 194.03 8.532 193.966 8.532H192.73C192.586 8.532 192.482 8.448 192.418 8.28L191.41 4.44C191.394 4.392 191.362 4.368 191.314 4.368C191.266 4.368 191.234 4.392 191.218 4.44L190.198 8.28C190.15 8.448 190.05 8.532 189.898 8.532H188.662C188.502 8.532 188.398 8.448 188.35 8.28L186.322 1.992C186.29 1.872 186.222 1.76 186.118 1.656L185.818 1.38C185.738 1.3 185.698 1.196 185.698 1.068C185.698 1.004 185.718 0.948003 185.758 0.900003C185.798 0.852003 185.85 0.828003 185.914 0.828003H187.966C188.03 0.828003 188.082 0.852003 188.122 0.900003C188.162 0.948003 188.182 1.004 188.182 1.068C188.182 1.196 188.142 1.3 188.062 1.38L187.954 1.488C187.818 1.608 187.782 1.76 187.846 1.944L189.202 6.324C189.218 6.364 189.242 6.384 189.274 6.384C189.314 6.384 189.342 6.364 189.358 6.324L190.39 2.928C190.446 2.744 190.574 2.652 190.774 2.652H191.854C192.054 2.652 192.182 2.744 192.238 2.928L193.27 6.324C193.286 6.364 193.31 6.384 193.342 6.384C193.382 6.384 193.41 6.364 193.426 6.324L194.782 1.944C194.806 1.856 194.81 1.772 194.794 1.692C194.778 1.612 194.738 1.544 194.674 1.488L194.566 1.38C194.486 1.308 194.446 1.204 194.446 1.068C194.446 1.004 194.466 0.948003 194.506 0.900003C194.546 0.852003 194.594 0.828003 194.65 0.828003H196.714Z" fill="#3A312D"/>
<path d="M180.581 0.695999C181.125 0.695999 181.633 0.799999 182.105 1.008C182.577 1.208 182.989 1.484 183.341 1.836C183.701 2.188 183.981 2.6 184.181 3.072C184.389 3.536 184.493 4.036 184.493 4.572V4.776C184.493 5.312 184.389 5.816 184.181 6.288C183.981 6.752 183.701 7.16 183.341 7.512C182.989 7.864 182.577 8.144 182.105 8.352C181.633 8.552 181.125 8.652 180.581 8.652C180.045 8.652 179.541 8.552 179.069 8.352C178.597 8.144 178.181 7.864 177.821 7.512C177.469 7.16 177.189 6.752 176.981 6.288C176.781 5.816 176.681 5.312 176.681 4.776V4.572C176.681 4.036 176.781 3.536 176.981 3.072C177.189 2.6 177.469 2.188 177.821 1.836C178.181 1.484 178.597 1.208 179.069 1.008C179.541 0.799999 180.045 0.695999 180.581 0.695999ZM182.993 4.572C182.993 4.244 182.933 3.928 182.813 3.624C182.701 3.312 182.537 3.036 182.321 2.796C182.113 2.556 181.861 2.364 181.565 2.22C181.269 2.068 180.941 1.992 180.581 1.992C180.221 1.992 179.893 2.068 179.597 2.22C179.301 2.364 179.045 2.556 178.829 2.796C178.621 3.036 178.457 3.312 178.337 3.624C178.225 3.928 178.169 4.244 178.169 4.572V4.776C178.169 5.104 178.225 5.424 178.337 5.736C178.457 6.048 178.621 6.324 178.829 6.564C179.045 6.804 179.301 6.996 179.597 7.14C179.893 7.284 180.221 7.356 180.581 7.356C180.941 7.356 181.269 7.284 181.565 7.14C181.869 6.996 182.125 6.804 182.333 6.564C182.541 6.324 182.701 6.048 182.813 5.736C182.933 5.424 182.993 5.104 182.993 4.776V4.572Z" fill="#3A312D"/>
<path d="M174.878 6.636C174.942 6.652 174.99 6.692 175.022 6.756C175.062 6.82 175.074 6.884 175.058 6.948L174.734 8.232C174.678 8.432 174.546 8.532 174.338 8.532H168.902C168.838 8.532 168.778 8.508 168.722 8.46C168.674 8.412 168.65 8.356 168.65 8.292C168.65 8.156 168.698 8.048 168.794 7.968L168.974 7.836C169.07 7.764 169.142 7.672 169.19 7.56C169.246 7.448 169.274 7.332 169.274 7.212V2.136C169.274 1.88 169.174 1.672 168.974 1.512L168.794 1.38C168.698 1.308 168.65 1.204 168.65 1.068C168.65 1.004 168.674 0.948003 168.722 0.900003C168.778 0.852003 168.838 0.828003 168.902 0.828003H171.134C171.206 0.828003 171.266 0.852003 171.314 0.900003C171.362 0.948003 171.39 1.004 171.398 1.068C171.398 1.196 171.346 1.3 171.242 1.38L171.074 1.512C170.874 1.672 170.774 1.88 170.774 2.136V6.84C170.774 6.952 170.81 7.048 170.882 7.128C170.962 7.2 171.058 7.236 171.17 7.236H173.594C173.77 7.236 173.934 7.18 174.086 7.068L174.542 6.708C174.638 6.636 174.75 6.612 174.878 6.636Z" fill="#3A312D"/>
<path d="M166.53 1.884C166.546 1.956 166.534 2.028 166.494 2.1C166.454 2.164 166.398 2.204 166.326 2.22C166.182 2.244 166.058 2.212 165.954 2.124L165.486 1.74C165.326 1.604 165.142 1.536 164.934 1.536H162.51C162.39 1.536 162.286 1.58 162.198 1.668C162.11 1.756 162.066 1.86 162.066 1.98V3.828C162.066 3.868 162.086 3.892 162.126 3.9C162.174 3.908 162.214 3.9 162.246 3.876C162.55 3.628 162.886 3.416 163.254 3.24C163.63 3.064 164.002 2.976 164.37 2.976C164.602 2.976 164.77 3.024 164.874 3.12C164.978 3.216 165.038 3.34 165.054 3.492C165.07 3.636 165.05 3.796 164.994 3.972C164.938 4.14 164.862 4.3 164.766 4.452C164.678 4.596 164.574 4.716 164.454 4.812C164.342 4.908 164.234 4.956 164.13 4.956C164.074 4.956 164.03 4.932 163.998 4.884C163.974 4.836 163.942 4.784 163.902 4.728C163.862 4.664 163.806 4.608 163.734 4.56C163.662 4.512 163.55 4.488 163.398 4.488C163.294 4.488 163.166 4.524 163.014 4.596C162.862 4.66 162.714 4.748 162.57 4.86C162.434 4.964 162.314 5.084 162.21 5.22C162.114 5.348 162.066 5.472 162.066 5.592V7.092C162.066 7.228 162.094 7.356 162.15 7.476C162.214 7.588 162.298 7.688 162.402 7.776L162.594 7.92C162.698 8.008 162.75 8.124 162.75 8.268C162.75 8.34 162.722 8.404 162.666 8.46C162.61 8.508 162.546 8.532 162.474 8.532H160.038C159.966 8.532 159.902 8.508 159.846 8.46C159.79 8.404 159.762 8.34 159.762 8.268C159.762 8.124 159.818 8.008 159.93 7.92L160.11 7.776C160.334 7.6 160.446 7.372 160.446 7.092V1.572C160.446 1.292 160.334 1.064 160.11 0.887997L159.93 0.743996C159.818 0.655996 159.762 0.539996 159.762 0.395996C159.762 0.323996 159.79 0.263996 159.846 0.215997C159.902 0.159996 159.966 0.131996 160.038 0.131996H165.798C165.902 0.131996 165.99 0.163996 166.062 0.227996C166.142 0.291996 166.194 0.371996 166.218 0.467996L166.53 1.884Z" fill="#3A312D"/>
<path d="M153.005 7.968C153.109 8.064 153.157 8.172 153.149 8.292C153.149 8.356 153.125 8.412 153.077 8.46C153.029 8.508 152.969 8.532 152.897 8.532H151.469C151.357 8.532 151.257 8.48 151.169 8.376C151.089 8.264 151.013 8.128 150.941 7.968C150.877 7.8 150.813 7.612 150.749 7.404C150.693 7.196 150.637 6.996 150.581 6.804C150.525 6.604 150.465 6.42 150.401 6.252C150.337 6.084 150.269 5.952 150.197 5.856C150.101 5.736 149.981 5.652 149.837 5.604C149.693 5.548 149.545 5.536 149.393 5.568C149.065 5.648 148.737 5.692 148.409 5.7C148.297 5.708 148.205 5.752 148.133 5.832C148.061 5.904 148.025 5.992 148.025 6.096V7.212C148.025 7.332 148.053 7.448 148.109 7.56C148.165 7.672 148.241 7.764 148.337 7.836L148.505 7.968C148.609 8.056 148.661 8.164 148.661 8.292C148.653 8.356 148.625 8.412 148.577 8.46C148.529 8.508 148.469 8.532 148.397 8.532H146.165C146.101 8.532 146.041 8.508 145.985 8.46C145.937 8.412 145.913 8.356 145.913 8.292C145.913 8.156 145.961 8.048 146.057 7.968L146.237 7.836C146.333 7.764 146.405 7.672 146.453 7.56C146.509 7.448 146.537 7.332 146.537 7.212V2.136C146.537 1.88 146.437 1.672 146.237 1.512L146.057 1.38C145.961 1.308 145.913 1.204 145.913 1.068C145.913 1.004 145.937 0.948003 145.985 0.900003C146.041 0.852003 146.101 0.828003 146.165 0.828003H149.897C150.633 0.828003 151.229 1.012 151.685 1.38C152.141 1.74 152.377 2.272 152.393 2.976C152.393 3.2 152.361 3.4 152.297 3.576C152.241 3.744 152.157 3.904 152.045 4.056C151.933 4.208 151.797 4.352 151.637 4.488C151.485 4.624 151.317 4.772 151.133 4.932C151.109 4.956 151.113 4.968 151.145 4.968C151.281 5.016 151.401 5.112 151.505 5.256C151.609 5.392 151.705 5.556 151.793 5.748C151.889 5.94 151.973 6.144 152.045 6.36C152.125 6.568 152.201 6.768 152.273 6.96C152.345 7.144 152.413 7.308 152.477 7.452C152.549 7.596 152.621 7.688 152.693 7.728L153.005 7.968ZM148.469 4.608C148.733 4.584 149.013 4.544 149.309 4.488C149.605 4.432 149.877 4.348 150.125 4.236C150.381 4.124 150.589 3.976 150.749 3.792C150.917 3.6 151.001 3.36 151.001 3.072C151.001 2.864 150.961 2.7 150.881 2.58C150.809 2.452 150.709 2.356 150.581 2.292C150.461 2.22 150.321 2.172 150.161 2.148C150.009 2.124 149.853 2.112 149.693 2.112H148.433C148.321 2.112 148.225 2.152 148.145 2.232C148.065 2.312 148.025 2.408 148.025 2.52V4.212C148.025 4.332 148.069 4.432 148.157 4.512C148.245 4.592 148.349 4.624 148.469 4.608Z" fill="#3A312D"/>
<path d="M143.566 0.828003C143.63 0.828003 143.686 0.852003 143.734 0.900003C143.782 0.948003 143.81 1.004 143.818 1.068C143.818 1.196 143.766 1.3 143.662 1.38L143.494 1.512C143.294 1.672 143.194 1.88 143.194 2.136V5.784C143.194 6.176 143.118 6.548 142.966 6.9C142.814 7.252 142.606 7.556 142.342 7.812C142.086 8.068 141.782 8.272 141.43 8.424C141.086 8.576 140.718 8.652 140.326 8.652H139.498C139.106 8.652 138.734 8.576 138.382 8.424C138.038 8.272 137.734 8.068 137.47 7.812C137.214 7.556 137.01 7.252 136.858 6.9C136.706 6.548 136.63 6.176 136.63 5.784V2.136C136.63 1.88 136.53 1.672 136.33 1.512L136.15 1.38C136.054 1.308 136.006 1.204 136.006 1.068C136.006 1.004 136.03 0.948003 136.078 0.900003C136.134 0.852003 136.194 0.828003 136.258 0.828003H138.49C138.562 0.828003 138.622 0.852003 138.67 0.900003C138.718 0.948003 138.746 1.004 138.754 1.068C138.754 1.196 138.702 1.3 138.598 1.38L138.43 1.512C138.222 1.68 138.118 1.888 138.118 2.136V5.556C138.118 5.804 138.166 6.04 138.262 6.264C138.358 6.48 138.486 6.668 138.646 6.828C138.806 6.988 138.994 7.116 139.21 7.212C139.426 7.308 139.658 7.356 139.906 7.356C140.154 7.356 140.386 7.308 140.602 7.212C140.818 7.116 141.006 6.988 141.166 6.828C141.334 6.668 141.462 6.48 141.55 6.264C141.646 6.04 141.694 5.804 141.694 5.556V2.136C141.694 1.88 141.594 1.672 141.394 1.512L141.226 1.38C141.122 1.3 141.07 1.196 141.07 1.068C141.07 1.004 141.094 0.948003 141.142 0.900003C141.198 0.852003 141.258 0.828003 141.322 0.828003H143.566Z" fill="#3A312D"/>
<path d="M130.136 0C130.72 0 131.268 0.112 131.78 0.336C132.3 0.552 132.752 0.852 133.136 1.236C133.52 1.62 133.824 2.068 134.048 2.58C134.272 3.092 134.384 3.64 134.384 4.224V4.44C134.384 5.024 134.272 5.572 134.048 6.084C133.824 6.596 133.52 7.044 133.136 7.428C132.752 7.812 132.3 8.116 131.78 8.34C131.268 8.556 130.72 8.664 130.136 8.664C129.552 8.664 129 8.556 128.48 8.34C127.96 8.116 127.508 7.812 127.124 7.428C126.74 7.044 126.436 6.596 126.212 6.084C125.988 5.572 125.876 5.024 125.876 4.44V4.224C125.876 3.64 125.988 3.092 126.212 2.58C126.436 2.068 126.74 1.62 127.124 1.236C127.508 0.852 127.96 0.552 128.48 0.336C129 0.112 129.552 0 130.136 0ZM132.752 4.224C132.752 3.864 132.688 3.516 132.56 3.18C132.432 2.836 132.252 2.536 132.02 2.28C131.796 2.016 131.524 1.804 131.204 1.644C130.884 1.484 130.528 1.404 130.136 1.404C129.744 1.404 129.384 1.484 129.056 1.644C128.736 1.804 128.46 2.016 128.228 2.28C128.004 2.536 127.828 2.836 127.7 3.18C127.572 3.516 127.508 3.864 127.508 4.224V4.44C127.508 4.8 127.572 5.148 127.7 5.484C127.828 5.82 128.004 6.12 128.228 6.384C128.46 6.648 128.736 6.86 129.056 7.02C129.384 7.18 129.744 7.26 130.136 7.26C130.528 7.26 130.884 7.18 131.204 7.02C131.532 6.86 131.808 6.648 132.032 6.384C132.264 6.12 132.44 5.82 132.56 5.484C132.688 5.148 132.752 4.8 132.752 4.44V4.224Z" fill="#3A312D"/>
<path d="M350.951 21.272C356.801 21.272 360.131 24.962 360.131 30.902C360.131 36.632 356.831 40.532 350.831 40.532H342.641C342.311 40.532 342.011 40.262 342.011 39.932C342.011 39.602 342.131 39.332 342.371 39.122L342.821 38.792C343.301 38.432 343.571 37.832 343.571 37.232V24.542C343.571 23.942 343.301 23.372 342.821 22.982L342.371 22.652C342.131 22.472 342.011 22.172 342.011 21.872C342.011 21.542 342.311 21.272 342.641 21.272H350.951ZM350.081 37.292C354.191 37.292 356.381 35.222 356.381 30.902C356.381 27.362 354.581 24.482 350.471 24.482H348.311C347.741 24.482 347.321 24.932 347.321 25.502V36.302C347.321 36.842 347.741 37.292 348.311 37.292H350.081Z" fill="#3A312D"/>
<path d="M339.376 39.122C339.616 39.332 339.766 39.602 339.766 39.932C339.736 40.262 339.466 40.532 339.136 40.532H334.636C334.306 40.532 334.006 40.382 333.826 40.112L325.066 27.842C324.916 27.632 324.586 27.752 324.586 27.992V37.232C324.586 37.832 324.886 38.432 325.366 38.792L325.786 39.122C326.026 39.332 326.176 39.602 326.176 39.932C326.146 40.262 325.876 40.532 325.516 40.532H319.936C319.606 40.532 319.306 40.262 319.306 39.932C319.306 39.602 319.426 39.332 319.666 39.122L320.116 38.792C320.596 38.432 320.866 37.832 320.866 37.232V24.542C320.866 23.942 320.596 23.372 320.116 22.982L319.666 22.652C319.426 22.472 319.306 22.172 319.306 21.872C319.306 21.542 319.606 21.272 319.936 21.272H324.436C324.736 21.272 325.036 21.422 325.246 21.662L334.006 33.962C334.156 34.142 334.456 34.052 334.456 33.812V24.542C334.456 23.942 334.186 23.372 333.706 22.982L333.286 22.652C333.046 22.472 332.896 22.172 332.896 21.872C332.926 21.542 333.196 21.272 333.526 21.272H339.136C339.466 21.272 339.736 21.542 339.766 21.872C339.766 22.172 339.616 22.472 339.376 22.652L338.956 22.982C338.476 23.372 338.206 23.942 338.206 24.542V37.232C338.206 37.832 338.476 38.432 338.956 38.792L339.376 39.122Z" fill="#3A312D"/>
<path d="M316.888 35.792C317.218 35.882 317.398 36.242 317.338 36.572L316.528 39.782C316.408 40.232 316.018 40.532 315.538 40.532H301.948C301.618 40.532 301.318 40.262 301.318 39.932C301.318 39.602 301.438 39.332 301.678 39.122L302.128 38.792C302.608 38.432 302.878 37.832 302.878 37.232V24.542C302.878 23.942 302.608 23.372 302.128 22.982L301.678 22.652C301.438 22.472 301.318 22.172 301.318 21.872C301.318 21.542 301.618 21.272 301.948 21.272H315.148C315.628 21.272 316.018 21.572 316.138 22.052L316.828 25.292C316.918 25.622 316.708 25.952 316.378 26.042C316.078 26.102 315.778 26.042 315.538 25.832L314.458 24.962C314.098 24.662 313.648 24.482 313.198 24.482H307.618C307.048 24.482 306.628 24.932 306.628 25.472V29.732C306.628 29.942 306.868 30.062 307.018 29.912C308.398 28.772 310.228 27.872 311.878 27.872C315.028 27.872 312.778 32.372 311.338 32.372C310.768 32.372 311.068 31.292 309.658 31.292C308.638 31.292 306.628 32.732 306.628 33.962V36.302C306.628 36.842 307.078 37.292 307.618 37.292H313.678C314.098 37.292 314.548 37.142 314.908 36.872L316.048 35.972C316.288 35.792 316.588 35.732 316.888 35.792Z" fill="#3A312D"/>
<path d="M299.173 30.932C299.503 30.932 299.803 31.202 299.803 31.532C299.803 31.832 299.683 32.132 299.443 32.312L298.993 32.672C298.513 33.032 298.243 33.602 298.243 34.232V36.812C298.243 37.352 298.003 37.892 297.583 38.282C295.813 39.932 293.443 40.832 290.743 40.832C285.193 40.832 280.693 36.482 280.693 31.142V30.632C280.693 25.292 285.193 20.942 290.743 20.942C290.833 20.942 290.923 20.942 290.983 20.942H290.953C292.543 20.972 294.013 21.302 295.303 21.962C295.423 22.022 295.573 21.962 295.633 21.842L295.753 21.572C295.873 21.332 296.113 21.152 296.383 21.092C296.683 21.032 296.983 21.242 297.043 21.542L298.153 26.552C298.213 26.852 298.063 27.152 297.763 27.242C297.493 27.302 297.163 27.272 296.953 27.062C295.753 25.892 294.433 24.242 290.953 24.182C287.353 24.182 284.533 27.032 284.533 30.632V31.142C284.533 34.442 287.143 37.592 290.743 37.592C291.973 37.592 294.493 37.172 294.493 35.522V34.232C294.493 33.632 294.223 33.032 293.743 32.672L293.323 32.312C293.083 32.132 292.933 31.832 292.933 31.532C292.963 31.202 293.233 30.932 293.593 30.932H299.173Z" fill="#3A312D"/>
<path d="M278.714 35.792C279.044 35.882 279.224 36.242 279.164 36.572L278.354 39.782C278.234 40.232 277.844 40.532 277.364 40.532H263.774C263.444 40.532 263.144 40.262 263.144 39.932C263.144 39.602 263.264 39.332 263.504 39.122L263.954 38.792C264.434 38.432 264.704 37.832 264.704 37.232V24.542C264.704 23.942 264.434 23.372 263.954 22.982L263.504 22.652C263.264 22.472 263.144 22.172 263.144 21.872C263.144 21.542 263.444 21.272 263.774 21.272H276.974C277.454 21.272 277.844 21.572 277.964 22.052L278.654 25.292C278.744 25.622 278.534 25.952 278.204 26.042C277.904 26.102 277.604 26.042 277.364 25.832L276.284 24.962C275.924 24.662 275.474 24.482 275.024 24.482H269.444C268.874 24.482 268.454 24.932 268.454 25.472V29.732C268.454 29.942 268.694 30.062 268.844 29.912C270.224 28.772 272.054 27.872 273.704 27.872C276.854 27.872 274.604 32.372 273.164 32.372C272.594 32.372 272.894 31.292 271.484 31.292C270.464 31.292 268.454 32.732 268.454 33.962V36.302C268.454 36.842 268.904 37.292 269.444 37.292H275.504C275.924 37.292 276.374 37.142 276.734 36.872L277.874 35.972C278.114 35.792 278.414 35.732 278.714 35.792Z" fill="#3A312D"/>
<path d="M261.169 35.372C261.529 35.462 261.739 35.852 261.649 36.212L260.749 39.722C260.629 40.202 260.209 40.532 259.699 40.532H244.879C244.519 40.532 244.189 40.232 244.189 39.872C244.189 39.542 244.339 39.212 244.609 39.002L245.059 38.642C245.599 38.222 245.899 37.592 245.899 36.932V23.132C245.899 22.442 245.599 21.842 245.059 21.422L244.609 21.062C244.339 20.852 244.189 20.522 244.189 20.192C244.189 19.832 244.519 19.532 244.879 19.532H250.969C251.329 19.532 251.659 19.832 251.659 20.192C251.659 20.522 251.509 20.852 251.269 21.062L250.789 21.422C250.279 21.842 249.949 22.442 249.949 23.132C249.949 23.132 249.949 35.402 249.949 35.942C249.979 36.512 250.459 36.992 251.059 36.992H257.659C258.139 36.992 258.589 36.842 258.979 36.542L260.239 35.552C260.479 35.372 260.839 35.282 261.169 35.372Z" fill="#3A312D"/>
<path d="M233.216 35.792C233.546 35.882 233.756 36.242 233.666 36.572L232.856 39.782C232.736 40.232 232.346 40.532 231.866 40.532H218.276C217.946 40.532 217.646 40.262 217.646 39.932C217.646 39.602 217.766 39.332 218.006 39.122L218.456 38.792C218.936 38.432 219.206 37.832 219.206 37.232V24.542C219.206 23.942 218.936 23.372 218.456 22.982L218.006 22.652C217.766 22.472 217.646 22.172 217.646 21.872C217.646 21.542 217.946 21.272 218.276 21.272H223.856C224.216 21.272 224.486 21.542 224.516 21.872C224.516 22.172 224.366 22.472 224.126 22.652L223.706 22.982C223.226 23.372 222.956 23.942 222.956 24.542V36.302C222.956 36.842 223.406 37.292 223.946 37.292H230.006C230.426 37.292 230.876 37.142 231.236 36.872L232.376 35.972C232.616 35.792 232.916 35.732 233.216 35.792Z" fill="#3A312D"/>
<path d="M215.315 39.122C215.555 39.332 215.675 39.602 215.675 39.932C215.675 40.262 215.375 40.532 215.045 40.532H209.465C209.105 40.532 208.835 40.262 208.835 39.932C208.805 39.602 208.955 39.332 209.195 39.122L209.525 38.882C209.855 38.612 210.005 38.132 209.825 37.712C209.825 37.712 209.585 37.082 209.345 36.542C209.165 36.062 208.775 35.732 208.265 35.612C207.275 35.402 206.255 35.282 205.235 35.282C204.215 35.282 203.195 35.402 202.175 35.612C201.695 35.732 201.305 36.062 201.125 36.542C201.065 36.632 201.035 36.692 201.035 36.722L200.645 37.712C200.465 38.132 200.615 38.612 200.945 38.882L201.275 39.122C201.515 39.332 201.665 39.602 201.665 39.932C201.635 40.262 201.365 40.532 201.005 40.532H195.425C195.095 40.532 194.795 40.262 194.795 39.932C194.795 39.602 194.915 39.332 195.155 39.122L196.055 38.432C196.325 38.222 196.535 37.922 196.685 37.622L203.045 21.872C203.195 21.512 203.555 21.272 203.975 21.272H206.495C206.915 21.272 207.275 21.512 207.425 21.872L213.785 37.622C213.935 37.922 214.145 38.222 214.415 38.432L215.315 39.122ZM207.365 32.432C207.575 32.462 207.695 32.252 207.635 32.072C206.675 29.702 205.475 26.762 205.475 26.762C205.385 26.552 205.085 26.552 204.995 26.762C204.995 26.762 203.795 29.642 202.835 32.072C202.775 32.252 202.895 32.462 203.105 32.432C203.885 32.282 204.575 32.222 205.235 32.222C205.925 32.222 206.585 32.282 207.365 32.432Z" fill="#3A312D"/>
<path d="M193.617 35.762C194.847 35.762 193.287 41.162 186.387 41.162C180.837 41.162 176.337 36.812 176.337 31.442V30.962C176.337 25.622 180.837 21.272 186.387 21.272C188.067 21.272 189.597 21.602 190.947 22.262C191.067 22.322 191.217 22.262 191.277 22.142L191.397 21.872C191.517 21.632 191.757 21.452 192.027 21.392C192.327 21.332 192.627 21.542 192.687 21.842L193.797 26.852C193.857 27.152 193.707 27.482 193.407 27.542C193.137 27.632 192.807 27.572 192.597 27.362C191.367 26.192 190.047 24.482 186.387 24.482C182.757 24.482 180.177 27.662 180.177 30.962V31.442C180.177 35.012 183.147 37.922 186.537 37.922C191.847 37.922 192.237 35.762 193.617 35.762Z" fill="#3A312D"/>
<path d="M164.32 20.942C169.72 20.942 174.1 25.292 174.1 30.632V31.142C174.1 36.482 169.72 40.832 164.32 40.832C158.95 40.832 154.57 36.482 154.57 31.142V30.632C154.57 25.292 158.95 20.942 164.32 20.942ZM170.35 31.142V30.632C170.35 27.362 167.92 24.182 164.32 24.182C160.75 24.182 158.29 27.362 158.29 30.632V31.142C158.29 34.442 160.75 37.592 164.32 37.592C167.95 37.592 170.35 34.442 170.35 31.142Z" fill="#3A312D"/>
<path d="M153.063 35.372C153.423 35.462 153.633 35.852 153.543 36.212L152.643 39.722C152.523 40.202 152.103 40.532 151.593 40.532H136.773C136.413 40.532 136.083 40.232 136.083 39.872C136.083 39.542 136.233 39.212 136.503 39.002L136.953 38.642C137.493 38.222 137.793 37.592 137.793 36.932V23.132C137.793 22.442 137.493 21.842 136.953 21.422L136.503 21.062C136.233 20.852 136.083 20.522 136.083 20.192C136.083 19.832 136.413 19.532 136.773 19.532H142.863C143.223 19.532 143.553 19.832 143.553 20.192C143.553 20.522 143.403 20.852 143.163 21.062L142.683 21.422C142.173 21.842 141.843 22.442 141.843 23.132C141.843 23.132 141.843 35.402 141.843 35.942C141.873 36.512 142.353 36.992 142.953 36.992H149.553C150.033 36.992 150.483 36.842 150.873 36.542L152.133 35.552C152.373 35.372 152.733 35.282 153.063 35.372Z" fill="#3A312D"/>
<path d="M115.804 20.942C121.204 20.942 125.584 25.292 125.584 30.632V31.142C125.584 36.482 121.204 40.832 115.804 40.832C110.434 40.832 106.054 36.482 106.054 31.142V30.632C106.054 25.292 110.434 20.942 115.804 20.942ZM121.834 31.142V30.632C121.834 27.362 119.404 24.182 115.804 24.182C112.234 24.182 109.774 27.362 109.774 30.632V31.142C109.774 34.442 112.234 37.592 115.804 37.592C119.434 37.592 121.834 34.442 121.834 31.142Z" fill="#3A312D"/>
<path d="M104.624 39.122C104.864 39.332 105.014 39.602 104.984 39.932C104.984 40.262 104.714 40.532 104.354 40.532H98.7738C98.4438 40.532 98.1438 40.262 98.1438 39.932C98.1438 39.602 98.2638 39.332 98.5038 39.122L98.9538 38.792C99.4338 38.432 99.7038 37.832 99.7038 37.232V24.542C99.7038 23.942 99.4338 23.372 98.9538 22.982L98.5038 22.652C98.2638 22.472 98.1438 22.172 98.1438 21.872C98.1438 21.542 98.4438 21.272 98.7738 21.272H104.354C104.714 21.272 104.984 21.542 104.984 21.872C105.014 22.172 104.864 22.472 104.624 22.652L104.204 22.982C103.724 23.372 103.424 23.942 103.424 24.542V37.232C103.424 37.832 103.724 38.432 104.204 38.792L104.624 39.122Z" fill="#3A312D"/>
<path d="M95.5233 39.122C95.7633 39.332 95.9133 39.602 95.8833 39.932C95.8833 40.262 95.5833 40.532 95.2533 40.532H89.6733C89.3433 40.532 89.0433 40.262 89.0433 39.932C89.0433 39.602 89.1633 39.332 89.4033 39.122L89.8232 38.792C90.3033 38.432 90.6033 37.832 90.6033 37.232V33.782C90.6033 33.092 90.1232 32.492 89.4333 32.312C88.2932 32.042 87.1533 31.892 86.0133 31.892C84.8733 31.892 83.7332 32.042 82.5332 32.342C81.8432 32.522 81.3633 33.092 81.3633 33.782V37.232C81.3633 37.832 81.6632 38.432 82.1432 38.792L82.5633 39.122C82.8033 39.332 82.9533 39.602 82.9533 39.932C82.9233 40.262 82.6533 40.532 82.2933 40.532H76.7132C76.3832 40.532 76.0833 40.262 76.0833 39.932C76.0833 39.602 76.2033 39.332 76.4433 39.122L76.8932 38.792C77.3732 38.432 77.6432 37.832 77.6432 37.232V24.542C77.6432 23.942 77.3732 23.372 76.8932 22.982L76.4433 22.652C76.2033 22.472 76.0833 22.172 76.0833 21.872C76.0833 21.542 76.3832 21.272 76.7132 21.272H82.2933C82.6533 21.272 82.9233 21.542 82.9533 21.872C82.9533 22.172 82.8033 22.472 82.5633 22.652L82.1432 22.982C81.6632 23.372 81.3932 23.942 81.3932 24.542V28.412C81.3932 28.712 81.6633 28.952 81.9933 28.892C83.3733 28.562 84.6933 28.412 86.0433 28.412C87.3333 28.412 88.6533 28.562 90.0033 28.862C90.3033 28.952 90.6033 28.712 90.6033 28.382V24.542C90.6033 23.942 90.3033 23.372 89.8232 22.982L89.4033 22.652C89.1633 22.472 89.0433 22.172 89.0433 21.872C89.0433 21.542 89.3433 21.272 89.6733 21.272H95.2533C95.5833 21.272 95.8833 21.542 95.8833 21.872C95.9133 22.172 95.7633 22.472 95.5233 22.652L95.1033 22.982C94.6233 23.372 94.3232 23.942 94.3232 24.542V37.232C94.3232 37.832 94.6233 38.432 95.1033 38.792L95.5233 39.122Z" fill="#3A312D"/>
<path d="M64.4383 19.202C70.2883 19.202 75.0583 23.942 75.0583 29.762V30.302C75.0583 36.122 70.2883 40.862 64.4383 40.862C58.5583 40.862 53.7883 36.122 53.7883 30.302V29.762C53.7883 23.942 58.5583 19.202 64.4383 19.202ZM70.9783 30.302V29.762C70.9783 26.162 68.3383 22.712 64.4383 22.712C60.5083 22.712 57.8683 26.162 57.8683 29.762V30.302C57.8683 33.872 60.5083 37.352 64.4383 37.352C68.3683 37.352 70.9783 33.872 70.9783 30.302Z" fill="#3A312D"/>
<path d="M42.8915 39.122C43.1315 39.332 43.2815 39.602 43.2815 39.932C43.2515 40.262 42.9815 40.532 42.6515 40.532H38.1515C37.8215 40.532 37.5215 40.382 37.3415 40.112L28.5815 27.842C28.4315 27.632 28.1015 27.752 28.1015 27.992V37.232C28.1015 37.832 28.4015 38.432 28.8815 38.792L29.3015 39.122C29.5415 39.332 29.6915 39.602 29.6915 39.932C29.6615 40.262 29.3915 40.532 29.0315 40.532H23.4515C23.1215 40.532 22.8215 40.262 22.8215 39.932C22.8215 39.602 22.9415 39.332 23.1815 39.122L23.6315 38.792C24.1115 38.432 24.3815 37.832 24.3815 37.232V24.542C24.3815 23.942 24.1115 23.372 23.6315 22.982L23.1815 22.652C22.9415 22.472 22.8215 22.172 22.8215 21.872C22.8215 21.542 23.1215 21.272 23.4515 21.272H27.9515C28.2515 21.272 28.5515 21.422 28.7615 21.662L37.5215 33.962C37.6715 34.142 37.9715 34.052 37.9715 33.812V24.542C37.9715 23.942 37.7015 23.372 37.2215 22.982L36.8015 22.652C36.5615 22.472 36.4115 22.172 36.4115 21.872C36.4415 21.542 36.7115 21.272 37.0415 21.272H42.6515C42.9815 21.272 43.2515 21.542 43.2815 21.872C43.2815 22.172 43.1315 22.472 42.8915 22.652L42.4715 22.982C41.9915 23.372 41.7215 23.942 41.7215 24.542V37.232C41.7215 37.832 41.9915 38.432 42.4715 38.792L42.8915 39.122Z" fill="#3A312D"/>
<path d="M20.52 39.122C20.76 39.332 20.88 39.602 20.88 39.932C20.88 40.262 20.58 40.532 20.25 40.532H14.67C14.31 40.532 14.04 40.262 14.04 39.932C14.01 39.602 14.16 39.332 14.4 39.122L14.73 38.882C15.06 38.612 15.21 38.132 15.03 37.712C15.03 37.712 14.79 37.082 14.55 36.542C14.37 36.062 13.98 35.732 13.47 35.612C12.48 35.402 11.46 35.282 10.44 35.282C9.42 35.282 8.4 35.402 7.38 35.612C6.9 35.732 6.51 36.062 6.33 36.542C6.27 36.632 6.24 36.692 6.24 36.722L5.85 37.712C5.67 38.132 5.82 38.612 6.15 38.882L6.48 39.122C6.72 39.332 6.87 39.602 6.87 39.932C6.84 40.262 6.57 40.532 6.21 40.532H0.63C0.3 40.532 0 40.262 0 39.932C0 39.602 0.12 39.332 0.36 39.122L1.26 38.432C1.53 38.222 1.74 37.922 1.89 37.622L8.25 21.872C8.4 21.512 8.76 21.272 9.18 21.272H11.7C12.12 21.272 12.48 21.512 12.63 21.872L18.99 37.622C19.14 37.922 19.35 38.222 19.62 38.432L20.52 39.122ZM12.57 32.432C12.78 32.462 12.9 32.252 12.84 32.072C11.88 29.702 10.68 26.762 10.68 26.762C10.59 26.552 10.29 26.552 10.2 26.762C10.2 26.762 9 29.642 8.04 32.072C7.98 32.252 8.1 32.462 8.31 32.432C9.09 32.282 9.78 32.222 10.44 32.222C11.13 32.222 11.79 32.282 12.57 32.432Z" fill="#3A312D"/>
</svg>
