<svg width="126" height="101" viewBox="0 0 126 101" fill="none" xmlns="http://www.w3.org/2000/svg">
<path d="M109.891 2.95201C109.891 3.13601 110.003 3.28801 110.227 3.40801C110.451 3.52801 110.731 3.64401 111.067 3.75601C111.411 3.86001 111.779 3.97201 112.171 4.09201C112.563 4.20401 112.927 4.35201 113.263 4.53601C113.607 4.71201 113.891 4.93201 114.115 5.19601C114.339 5.46001 114.451 5.78801 114.451 6.18001C114.451 6.61201 114.367 6.98401 114.199 7.29601C114.039 7.60802 113.811 7.86401 113.515 8.06401C113.219 8.26401 112.871 8.41201 112.471 8.50801C112.071 8.60401 111.631 8.65201 111.151 8.65201C110.679 8.65201 110.271 8.60001 109.927 8.49601C109.591 8.39201 109.307 8.26001 109.075 8.10001C108.843 7.94001 108.663 7.76401 108.535 7.57201C108.407 7.38001 108.319 7.19601 108.271 7.02001C108.223 6.84401 108.203 6.69201 108.211 6.56401C108.227 6.42801 108.267 6.33601 108.331 6.28801C108.371 6.26401 108.407 6.25202 108.439 6.25202C108.527 6.25202 108.623 6.31201 108.727 6.43201C108.839 6.54401 108.991 6.66802 109.183 6.80402C109.383 6.94002 109.639 7.06802 109.951 7.18801C110.263 7.30001 110.663 7.35602 111.151 7.35602C111.375 7.35602 111.591 7.34402 111.799 7.32001C112.007 7.29601 112.191 7.24801 112.351 7.17601C112.519 7.10401 112.651 7.00001 112.747 6.86401C112.843 6.72001 112.891 6.53201 112.891 6.30001C112.891 6.10001 112.779 5.93602 112.555 5.80801C112.331 5.67201 112.051 5.54801 111.715 5.43601C111.379 5.32401 111.011 5.20801 110.611 5.08801C110.219 4.96801 109.855 4.82001 109.519 4.64401C109.183 4.46001 108.903 4.23601 108.679 3.97201C108.455 3.70001 108.343 3.36001 108.343 2.95201C108.343 2.68801 108.407 2.42401 108.535 2.16001C108.663 1.88801 108.855 1.64401 109.111 1.42801C109.375 1.21201 109.699 1.03601 110.083 0.900014C110.475 0.764014 110.931 0.696014 111.451 0.696014C111.835 0.696014 112.155 0.732014 112.411 0.804014C112.675 0.868014 112.935 0.968014 113.191 1.10401C113.247 1.13601 113.291 1.12001 113.323 1.05601L113.371 0.948014C113.435 0.844014 113.523 0.780015 113.635 0.756015C113.699 0.740015 113.755 0.752014 113.803 0.792014C113.851 0.824014 113.883 0.872015 113.899 0.936015L114.343 2.94001C114.359 3.00401 114.351 3.06401 114.319 3.12001C114.287 3.16801 114.239 3.20001 114.175 3.21601C114.047 3.24801 113.943 3.22401 113.863 3.14401C113.743 3.02401 113.611 2.90001 113.467 2.77201C113.323 2.63601 113.159 2.51201 112.975 2.40001C112.791 2.28001 112.575 2.18401 112.327 2.11201C112.079 2.03201 111.787 1.99201 111.451 1.99201C111.003 1.99201 110.631 2.08401 110.335 2.26801C110.039 2.44402 109.891 2.67201 109.891 2.95201Z" fill="#3A312D"/>
<path d="M106.076 7.968C106.18 8.064 106.228 8.172 106.22 8.292C106.22 8.356 106.196 8.412 106.148 8.46C106.1 8.508 106.04 8.532 105.968 8.532H103.736C103.672 8.532 103.612 8.508 103.556 8.46C103.508 8.412 103.484 8.356 103.484 8.292C103.484 8.156 103.532 8.048 103.628 7.968L103.808 7.836C103.904 7.764 103.976 7.672 104.024 7.56C104.08 7.448 104.108 7.332 104.108 7.212V2.136C104.108 1.88 104.008 1.672 103.808 1.512L103.628 1.38C103.532 1.308 103.484 1.204 103.484 1.068C103.484 1.004 103.508 0.948003 103.556 0.900003C103.612 0.852003 103.672 0.828003 103.736 0.828003H105.968C106.04 0.828003 106.1 0.852003 106.148 0.900003C106.196 0.948003 106.22 1.004 106.22 1.068C106.236 1.196 106.188 1.3 106.076 1.38L105.908 1.512C105.7 1.68 105.596 1.888 105.596 2.136V7.212C105.596 7.332 105.624 7.448 105.68 7.56C105.736 7.672 105.812 7.764 105.908 7.836L106.076 7.968Z" fill="#3A312D"/>
<path d="M96.7386 7.968C96.8426 8.064 96.8906 8.172 96.8826 8.292C96.8826 8.356 96.8586 8.412 96.8106 8.46C96.7626 8.508 96.7026 8.532 96.6306 8.532H95.2026C95.0906 8.532 94.9906 8.48 94.9026 8.376C94.8226 8.264 94.7466 8.128 94.6746 7.968C94.6106 7.8 94.5466 7.612 94.4826 7.404C94.4266 7.196 94.3706 6.996 94.3146 6.804C94.2586 6.604 94.1986 6.42 94.1346 6.252C94.0706 6.084 94.0026 5.952 93.9306 5.856C93.8346 5.736 93.7146 5.652 93.5706 5.604C93.4266 5.548 93.2786 5.536 93.1266 5.568C92.7986 5.648 92.4706 5.692 92.1426 5.7C92.0306 5.708 91.9386 5.752 91.8666 5.832C91.7946 5.904 91.7586 5.992 91.7586 6.096V7.212C91.7586 7.332 91.7866 7.448 91.8426 7.56C91.8986 7.672 91.9746 7.764 92.0706 7.836L92.2386 7.968C92.3426 8.056 92.3946 8.164 92.3946 8.292C92.3866 8.356 92.3586 8.412 92.3106 8.46C92.2626 8.508 92.2026 8.532 92.1306 8.532H89.8986C89.8346 8.532 89.7746 8.508 89.7186 8.46C89.6706 8.412 89.6466 8.356 89.6466 8.292C89.6466 8.156 89.6946 8.048 89.7906 7.968L89.9706 7.836C90.0666 7.764 90.1386 7.672 90.1866 7.56C90.2426 7.448 90.2706 7.332 90.2706 7.212V2.136C90.2706 1.88 90.1706 1.672 89.9706 1.512L89.7906 1.38C89.6946 1.308 89.6466 1.204 89.6466 1.068C89.6466 1.004 89.6706 0.948003 89.7186 0.900003C89.7746 0.852003 89.8346 0.828003 89.8986 0.828003H93.6306C94.3666 0.828003 94.9626 1.012 95.4186 1.38C95.8746 1.74 96.1106 2.272 96.1266 2.976C96.1266 3.2 96.0946 3.4 96.0306 3.576C95.9746 3.744 95.8906 3.904 95.7786 4.056C95.6666 4.208 95.5306 4.352 95.3706 4.488C95.2186 4.624 95.0506 4.772 94.8666 4.932C94.8426 4.956 94.8466 4.968 94.8786 4.968C95.0146 5.016 95.1346 5.112 95.2386 5.256C95.3426 5.392 95.4386 5.556 95.5266 5.748C95.6226 5.94 95.7066 6.144 95.7786 6.36C95.8586 6.568 95.9346 6.768 96.0066 6.96C96.0786 7.144 96.1466 7.308 96.2106 7.452C96.2826 7.596 96.3546 7.688 96.4266 7.728L96.7386 7.968ZM92.2026 4.608C92.4666 4.584 92.7466 4.544 93.0426 4.488C93.3386 4.432 93.6106 4.348 93.8586 4.236C94.1146 4.124 94.3226 3.976 94.4826 3.792C94.6506 3.6 94.7346 3.36 94.7346 3.072C94.7346 2.864 94.6946 2.7 94.6146 2.58C94.5426 2.452 94.4426 2.356 94.3146 2.292C94.1946 2.22 94.0546 2.172 93.8946 2.148C93.7426 2.124 93.5866 2.112 93.4266 2.112H92.1666C92.0546 2.112 91.9586 2.152 91.8786 2.232C91.7986 2.312 91.7586 2.408 91.7586 2.52V4.212C91.7586 4.332 91.8026 4.432 91.8906 4.512C91.9786 4.592 92.0826 4.624 92.2026 4.608Z" fill="#3A312D"/>
<path d="M87.4792 6.636C87.5432 6.652 87.5912 6.692 87.6232 6.756C87.6632 6.82 87.6752 6.884 87.6592 6.948L87.3352 8.232C87.2792 8.432 87.1472 8.532 86.9392 8.532H81.5032C81.4392 8.532 81.3792 8.508 81.3232 8.46C81.2752 8.412 81.2512 8.356 81.2512 8.292C81.2512 8.156 81.2992 8.048 81.3952 7.968L81.5752 7.836C81.6712 7.764 81.7432 7.672 81.7912 7.56C81.8472 7.448 81.8752 7.332 81.8752 7.212V2.136C81.8752 1.88 81.7752 1.672 81.5752 1.512L81.3952 1.38C81.2992 1.308 81.2512 1.204 81.2512 1.068C81.2512 1.004 81.2752 0.948003 81.3232 0.900003C81.3792 0.852003 81.4392 0.828003 81.5032 0.828003H86.7832C86.8792 0.828003 86.9632 0.856003 87.0352 0.912003C87.1072 0.968003 87.1552 1.044 87.1792 1.14L87.4552 2.436C87.4712 2.5 87.4592 2.564 87.4192 2.628C87.3872 2.684 87.3392 2.72 87.2752 2.736C87.1472 2.76 87.0352 2.732 86.9392 2.652L86.5072 2.304C86.3552 2.176 86.1872 2.112 86.0032 2.112H83.7712C83.6592 2.112 83.5632 2.152 83.4832 2.232C83.4112 2.304 83.3752 2.396 83.3752 2.508V4.212C83.3752 4.252 83.3912 4.284 83.4232 4.308C83.4632 4.324 83.4992 4.316 83.5312 4.284C83.8112 4.052 84.1192 3.86 84.4552 3.708C84.7992 3.548 85.1392 3.468 85.4752 3.468C85.6832 3.468 85.8352 3.512 85.9312 3.6C86.0352 3.688 86.0952 3.8 86.1112 3.936C86.1272 4.072 86.1072 4.216 86.0512 4.368C86.0032 4.52 85.9352 4.664 85.8472 4.8C85.7672 4.936 85.6712 5.048 85.5592 5.136C85.4552 5.224 85.3552 5.268 85.2592 5.268C85.2032 5.268 85.1632 5.248 85.1392 5.208C85.1152 5.16 85.0832 5.108 85.0432 5.052C85.0112 4.996 84.9632 4.948 84.8992 4.908C84.8352 4.86 84.7312 4.836 84.5872 4.836C84.4832 4.836 84.3632 4.868 84.2272 4.932C84.0912 4.996 83.9592 5.08 83.8312 5.184C83.7032 5.288 83.5952 5.404 83.5072 5.532C83.4192 5.66 83.3752 5.784 83.3752 5.904V6.84C83.3752 6.952 83.4112 7.048 83.4832 7.128C83.5632 7.2 83.6592 7.236 83.7712 7.236H86.1952C86.3712 7.236 86.5352 7.18 86.6872 7.068L87.1432 6.708C87.2392 6.636 87.3512 6.612 87.4792 6.636Z" fill="#3A312D"/>
<path d="M78.9384 0.828003C79.0024 0.828003 79.0544 0.852003 79.0944 0.900003C79.1344 0.948003 79.1544 1.004 79.1544 1.068C79.1544 1.204 79.1104 1.308 79.0224 1.38L78.7344 1.656C78.6384 1.752 78.5664 1.864 78.5184 1.992L76.5024 8.28C76.4784 8.36 76.4344 8.424 76.3704 8.472C76.3144 8.512 76.2544 8.532 76.1904 8.532H74.9544C74.8104 8.532 74.7064 8.448 74.6424 8.28L73.6344 4.44C73.6184 4.392 73.5864 4.368 73.5384 4.368C73.4904 4.368 73.4584 4.392 73.4424 4.44L72.4224 8.28C72.3744 8.448 72.2744 8.532 72.1224 8.532H70.8864C70.7264 8.532 70.6224 8.448 70.5744 8.28L68.5464 1.992C68.5144 1.872 68.4464 1.76 68.3424 1.656L68.0424 1.38C67.9624 1.3 67.9224 1.196 67.9224 1.068C67.9224 1.004 67.9424 0.948003 67.9824 0.900003C68.0224 0.852003 68.0744 0.828003 68.1384 0.828003H70.1904C70.2544 0.828003 70.3064 0.852003 70.3464 0.900003C70.3864 0.948003 70.4064 1.004 70.4064 1.068C70.4064 1.196 70.3664 1.3 70.2864 1.38L70.1784 1.488C70.0424 1.608 70.0064 1.76 70.0704 1.944L71.4264 6.324C71.4424 6.364 71.4664 6.384 71.4984 6.384C71.5384 6.384 71.5664 6.364 71.5824 6.324L72.6144 2.928C72.6704 2.744 72.7984 2.652 72.9984 2.652H74.0784C74.2784 2.652 74.4064 2.744 74.4624 2.928L75.4944 6.324C75.5104 6.364 75.5344 6.384 75.5664 6.384C75.6064 6.384 75.6344 6.364 75.6504 6.324L77.0064 1.944C77.0304 1.856 77.0344 1.772 77.0184 1.692C77.0024 1.612 76.9624 1.544 76.8984 1.488L76.7904 1.38C76.7104 1.308 76.6704 1.204 76.6704 1.068C76.6704 1.004 76.6904 0.948003 76.7304 0.900003C76.7704 0.852003 76.8184 0.828003 76.8744 0.828003H78.9384Z" fill="#3A312D"/>
<path d="M62.8059 0.696014C63.3499 0.696014 63.8579 0.800014 64.3299 1.00801C64.8019 1.20801 65.2139 1.48401 65.5659 1.83601C65.9259 2.18801 66.2059 2.60001 66.4059 3.07201C66.6139 3.53601 66.7179 4.03601 66.7179 4.57201V4.77601C66.7179 5.31201 66.6139 5.81601 66.4059 6.28801C66.2059 6.75201 65.9259 7.16001 65.5659 7.51201C65.2139 7.86401 64.8019 8.14401 64.3299 8.35201C63.8579 8.55201 63.3499 8.65201 62.8059 8.65201C62.2699 8.65201 61.7659 8.55201 61.2939 8.35201C60.8219 8.14401 60.4059 7.86401 60.0459 7.51201C59.6939 7.16001 59.4139 6.75201 59.2059 6.28801C59.0059 5.81601 58.9059 5.31201 58.9059 4.77601V4.57201C58.9059 4.03601 59.0059 3.53601 59.2059 3.07201C59.4139 2.60001 59.6939 2.18801 60.0459 1.83601C60.4059 1.48401 60.8219 1.20801 61.2939 1.00801C61.7659 0.800014 62.2699 0.696014 62.8059 0.696014ZM65.2179 4.57201C65.2179 4.24401 65.1579 3.92801 65.0379 3.62401C64.9259 3.31201 64.7619 3.03601 64.5459 2.79601C64.3379 2.55601 64.0859 2.36401 63.7899 2.22001C63.4939 2.06801 63.1659 1.99201 62.8059 1.99201C62.4459 1.99201 62.1179 2.06801 61.8219 2.22001C61.5259 2.36401 61.2699 2.55601 61.0539 2.79601C60.8459 3.03601 60.6819 3.31201 60.5619 3.62401C60.4499 3.92801 60.3939 4.24401 60.3939 4.57201V4.77601C60.3939 5.10401 60.4499 5.42401 60.5619 5.73601C60.6819 6.04801 60.8459 6.32401 61.0539 6.56401C61.2699 6.80401 61.5259 6.99601 61.8219 7.14001C62.1179 7.28401 62.4459 7.35602 62.8059 7.35602C63.1659 7.35602 63.4939 7.28401 63.7899 7.14001C64.0939 6.99601 64.3499 6.80401 64.5579 6.56401C64.7659 6.32401 64.9259 6.04801 65.0379 5.73601C65.1579 5.42401 65.2179 5.10401 65.2179 4.77601V4.57201Z" fill="#3A312D"/>
<path d="M57.1021 6.636C57.1661 6.652 57.2141 6.692 57.2461 6.756C57.2861 6.82 57.2981 6.884 57.2821 6.948L56.9581 8.232C56.9021 8.432 56.7701 8.532 56.5621 8.532H51.1261C51.0621 8.532 51.0021 8.508 50.9461 8.46C50.8981 8.412 50.8741 8.356 50.8741 8.292C50.8741 8.156 50.9221 8.048 51.0181 7.968L51.1981 7.836C51.2941 7.764 51.3661 7.672 51.4141 7.56C51.4701 7.448 51.4981 7.332 51.4981 7.212V2.136C51.4981 1.88 51.3981 1.672 51.1981 1.512L51.0181 1.38C50.9221 1.308 50.8741 1.204 50.8741 1.068C50.8741 1.004 50.8981 0.948003 50.9461 0.900003C51.0021 0.852003 51.0621 0.828003 51.1261 0.828003H53.3581C53.4301 0.828003 53.4901 0.852003 53.5381 0.900003C53.5861 0.948003 53.6141 1.004 53.6221 1.068C53.6221 1.196 53.5701 1.3 53.4661 1.38L53.2981 1.512C53.0981 1.672 52.9981 1.88 52.9981 2.136V6.84C52.9981 6.952 53.0341 7.048 53.1061 7.128C53.1861 7.2 53.2821 7.236 53.3941 7.236H55.8181C55.9941 7.236 56.1581 7.18 56.3101 7.068L56.7661 6.708C56.8621 6.636 56.9741 6.612 57.1021 6.636Z" fill="#3A312D"/>
<path d="M48.7547 1.88402C48.7707 1.95602 48.7587 2.02802 48.7187 2.10002C48.6787 2.16402 48.6227 2.20402 48.5507 2.22002C48.4067 2.24402 48.2827 2.21202 48.1787 2.12402L47.7107 1.74002C47.5507 1.60402 47.3667 1.53602 47.1587 1.53602H44.7347C44.6147 1.53602 44.5107 1.58002 44.4227 1.66802C44.3347 1.75602 44.2907 1.86002 44.2907 1.98002V3.82802C44.2907 3.86802 44.3107 3.89202 44.3507 3.90002C44.3987 3.90802 44.4387 3.90002 44.4707 3.87602C44.7747 3.62802 45.1107 3.41602 45.4787 3.24002C45.8547 3.06402 46.2267 2.97602 46.5947 2.97602C46.8267 2.97602 46.9947 3.02402 47.0987 3.12002C47.2027 3.21602 47.2627 3.34002 47.2787 3.49202C47.2947 3.63602 47.2747 3.79602 47.2187 3.97202C47.1627 4.14002 47.0867 4.30002 46.9907 4.45202C46.9027 4.59602 46.7987 4.71602 46.6787 4.81202C46.5667 4.90802 46.4587 4.95602 46.3547 4.95602C46.2987 4.95602 46.2547 4.93202 46.2227 4.88402C46.1987 4.83602 46.1667 4.78402 46.1267 4.72802C46.0867 4.66402 46.0307 4.60802 45.9587 4.56002C45.8867 4.51202 45.7747 4.48802 45.6227 4.48802C45.5187 4.48802 45.3907 4.52402 45.2387 4.59602C45.0867 4.66002 44.9387 4.74802 44.7947 4.86002C44.6587 4.96402 44.5387 5.08402 44.4347 5.22002C44.3387 5.34802 44.2907 5.47202 44.2907 5.59202V7.09202C44.2907 7.22802 44.3187 7.35602 44.3747 7.47602C44.4387 7.58802 44.5227 7.68802 44.6267 7.77602L44.8187 7.92002C44.9227 8.00802 44.9747 8.12402 44.9747 8.26802C44.9747 8.34002 44.9467 8.40402 44.8907 8.46002C44.8347 8.50802 44.7707 8.53202 44.6987 8.53202H42.2627C42.1907 8.53202 42.1267 8.50802 42.0707 8.46002C42.0147 8.40402 41.9867 8.34002 41.9867 8.26802C41.9867 8.12402 42.0427 8.00802 42.1547 7.92002L42.3347 7.77602C42.5587 7.60002 42.6707 7.37202 42.6707 7.09202V1.57202C42.6707 1.29202 42.5587 1.06402 42.3347 0.88802L42.1547 0.744019C42.0427 0.656019 41.9867 0.540019 41.9867 0.396019C41.9867 0.324019 42.0147 0.264019 42.0707 0.216019C42.1267 0.160019 42.1907 0.132019 42.2627 0.132019H48.0227C48.1267 0.132019 48.2147 0.164019 48.2867 0.228019C48.3667 0.292019 48.4187 0.372019 48.4427 0.468019L48.7547 1.88402Z" fill="#3A312D"/>
<path d="M35.2292 7.968C35.3332 8.064 35.3812 8.172 35.3732 8.292C35.3732 8.356 35.3492 8.412 35.3012 8.46C35.2532 8.508 35.1932 8.532 35.1212 8.532H33.6932C33.5812 8.532 33.4812 8.48 33.3932 8.376C33.3132 8.264 33.2372 8.128 33.1652 7.968C33.1012 7.8 33.0372 7.612 32.9732 7.404C32.9172 7.196 32.8612 6.996 32.8052 6.804C32.7492 6.604 32.6892 6.42 32.6252 6.252C32.5612 6.084 32.4932 5.952 32.4212 5.856C32.3252 5.736 32.2052 5.652 32.0612 5.604C31.9172 5.548 31.7692 5.536 31.6172 5.568C31.2892 5.648 30.9612 5.692 30.6332 5.7C30.5212 5.708 30.4292 5.752 30.3572 5.832C30.2852 5.904 30.2492 5.992 30.2492 6.096V7.212C30.2492 7.332 30.2772 7.448 30.3332 7.56C30.3892 7.672 30.4652 7.764 30.5612 7.836L30.7292 7.968C30.8332 8.056 30.8852 8.164 30.8852 8.292C30.8772 8.356 30.8492 8.412 30.8012 8.46C30.7532 8.508 30.6932 8.532 30.6212 8.532H28.3892C28.3252 8.532 28.2652 8.508 28.2092 8.46C28.1612 8.412 28.1372 8.356 28.1372 8.292C28.1372 8.156 28.1852 8.048 28.2812 7.968L28.4612 7.836C28.5572 7.764 28.6292 7.672 28.6772 7.56C28.7332 7.448 28.7612 7.332 28.7612 7.212V2.136C28.7612 1.88 28.6612 1.672 28.4612 1.512L28.2812 1.38C28.1852 1.308 28.1372 1.204 28.1372 1.068C28.1372 1.004 28.1612 0.948003 28.2092 0.900003C28.2652 0.852003 28.3252 0.828003 28.3892 0.828003H32.1212C32.8572 0.828003 33.4532 1.012 33.9092 1.38C34.3652 1.74 34.6012 2.272 34.6172 2.976C34.6172 3.2 34.5852 3.4 34.5212 3.576C34.4652 3.744 34.3812 3.904 34.2692 4.056C34.1572 4.208 34.0212 4.352 33.8612 4.488C33.7092 4.624 33.5412 4.772 33.3572 4.932C33.3332 4.956 33.3372 4.968 33.3692 4.968C33.5052 5.016 33.6252 5.112 33.7292 5.256C33.8332 5.392 33.9292 5.556 34.0172 5.748C34.1132 5.94 34.1972 6.144 34.2692 6.36C34.3492 6.568 34.4252 6.768 34.4972 6.96C34.5692 7.144 34.6372 7.308 34.7012 7.452C34.7732 7.596 34.8452 7.688 34.9172 7.728L35.2292 7.968ZM30.6932 4.608C30.9572 4.584 31.2372 4.544 31.5332 4.488C31.8292 4.432 32.1012 4.348 32.3492 4.236C32.6052 4.124 32.8132 3.976 32.9732 3.792C33.1412 3.6 33.2252 3.36 33.2252 3.072C33.2252 2.864 33.1852 2.7 33.1052 2.58C33.0332 2.452 32.9332 2.356 32.8052 2.292C32.6852 2.22 32.5452 2.172 32.3852 2.148C32.2332 2.124 32.0772 2.112 31.9172 2.112H30.6572C30.5452 2.112 30.4492 2.152 30.3692 2.232C30.2892 2.312 30.2492 2.408 30.2492 2.52V4.212C30.2492 4.332 30.2932 4.432 30.3812 4.512C30.4692 4.592 30.5732 4.624 30.6932 4.608Z" fill="#3A312D"/>
<path d="M25.7905 0.828003C25.8545 0.828003 25.9105 0.852003 25.9585 0.900003C26.0065 0.948003 26.0345 1.004 26.0425 1.068C26.0425 1.196 25.9905 1.3 25.8865 1.38L25.7185 1.512C25.5185 1.672 25.4185 1.88 25.4185 2.136V5.784C25.4185 6.176 25.3425 6.548 25.1905 6.9C25.0385 7.252 24.8305 7.556 24.5665 7.812C24.3105 8.068 24.0065 8.272 23.6545 8.424C23.3105 8.576 22.9425 8.652 22.5505 8.652H21.7225C21.3305 8.652 20.9585 8.576 20.6065 8.424C20.2625 8.272 19.9585 8.068 19.6945 7.812C19.4385 7.556 19.2345 7.252 19.0825 6.9C18.9305 6.548 18.8545 6.176 18.8545 5.784V2.136C18.8545 1.88 18.7545 1.672 18.5545 1.512L18.3745 1.38C18.2785 1.308 18.2305 1.204 18.2305 1.068C18.2305 1.004 18.2545 0.948003 18.3025 0.900003C18.3585 0.852003 18.4185 0.828003 18.4825 0.828003H20.7145C20.7865 0.828003 20.8465 0.852003 20.8945 0.900003C20.9425 0.948003 20.9705 1.004 20.9785 1.068C20.9785 1.196 20.9265 1.3 20.8225 1.38L20.6545 1.512C20.4465 1.68 20.3425 1.888 20.3425 2.136V5.556C20.3425 5.804 20.3905 6.04 20.4865 6.264C20.5825 6.48 20.7105 6.668 20.8705 6.828C21.0305 6.988 21.2185 7.116 21.4345 7.212C21.6505 7.308 21.8825 7.356 22.1305 7.356C22.3785 7.356 22.6105 7.308 22.8265 7.212C23.0425 7.116 23.2305 6.988 23.3905 6.828C23.5585 6.668 23.6865 6.48 23.7745 6.264C23.8705 6.04 23.9185 5.804 23.9185 5.556V2.136C23.9185 1.88 23.8185 1.672 23.6185 1.512L23.4505 1.38C23.3465 1.3 23.2945 1.196 23.2945 1.068C23.2945 1.004 23.3185 0.948003 23.3665 0.900003C23.4225 0.852003 23.4825 0.828003 23.5465 0.828003H25.7905Z" fill="#3A312D"/>
<path d="M12.3605 0C12.9445 0 13.4925 0.112 14.0045 0.336C14.5245 0.552 14.9765 0.852 15.3605 1.236C15.7445 1.62 16.0485 2.068 16.2725 2.58C16.4965 3.092 16.6085 3.64 16.6085 4.224V4.44C16.6085 5.024 16.4965 5.572 16.2725 6.084C16.0485 6.596 15.7445 7.044 15.3605 7.428C14.9765 7.812 14.5245 8.116 14.0045 8.34C13.4925 8.556 12.9445 8.664 12.3605 8.664C11.7765 8.664 11.2245 8.556 10.7045 8.34C10.1845 8.116 9.73246 7.812 9.34846 7.428C8.96446 7.044 8.66046 6.596 8.43646 6.084C8.21246 5.572 8.10046 5.024 8.10046 4.44V4.224C8.10046 3.64 8.21246 3.092 8.43646 2.58C8.66046 2.068 8.96446 1.62 9.34846 1.236C9.73246 0.852 10.1845 0.552 10.7045 0.336C11.2245 0.112 11.7765 0 12.3605 0ZM14.9765 4.224C14.9765 3.864 14.9125 3.516 14.7845 3.18C14.6565 2.836 14.4765 2.536 14.2445 2.28C14.0205 2.016 13.7485 1.804 13.4285 1.644C13.1085 1.484 12.7525 1.404 12.3605 1.404C11.9685 1.404 11.6085 1.484 11.2805 1.644C10.9605 1.804 10.6845 2.016 10.4525 2.28C10.2285 2.536 10.0525 2.836 9.92446 3.18C9.79646 3.516 9.73246 3.864 9.73246 4.224V4.44C9.73246 4.8 9.79646 5.148 9.92446 5.484C10.0525 5.82 10.2285 6.12 10.4525 6.384C10.6845 6.648 10.9605 6.86 11.2805 7.02C11.6085 7.18 11.9685 7.26 12.3605 7.26C12.7525 7.26 13.1085 7.18 13.4285 7.02C13.7565 6.86 14.0325 6.648 14.2565 6.384C14.4885 6.12 14.6645 5.82 14.7845 5.484C14.9125 5.148 14.9765 4.8 14.9765 4.44V4.224Z" fill="#3A312D"/>
<path d="M111.566 81.272C113.026 81.272 114.326 81.502 115.466 81.962C116.606 82.402 117.566 83.042 118.346 83.882C119.126 84.702 119.716 85.712 120.116 86.912C120.536 88.092 120.746 89.422 120.746 90.902C120.746 92.342 120.536 93.652 120.116 94.832C119.716 96.012 119.126 97.022 118.346 97.862C117.566 98.702 116.596 99.362 115.436 99.842C114.276 100.302 112.946 100.532 111.446 100.532H103.256C103.096 100.532 102.946 100.472 102.806 100.352C102.686 100.232 102.626 100.092 102.626 99.932C102.626 99.592 102.746 99.322 102.986 99.122L103.436 98.792C103.676 98.612 103.856 98.382 103.976 98.102C104.116 97.822 104.186 97.532 104.186 97.232V84.542C104.186 83.902 103.936 83.382 103.436 82.982L102.986 82.652C102.746 82.472 102.626 82.212 102.626 81.872C102.626 81.712 102.686 81.572 102.806 81.452C102.946 81.332 103.096 81.272 103.256 81.272H111.566ZM110.696 97.292C112.756 97.292 114.316 96.772 115.376 95.732C116.456 94.692 116.996 93.082 116.996 90.902C116.996 90.022 116.876 89.192 116.636 88.412C116.416 87.632 116.066 86.952 115.586 86.372C115.106 85.792 114.486 85.332 113.726 84.992C112.986 84.652 112.106 84.482 111.086 84.482H108.926C108.646 84.482 108.406 84.582 108.206 84.782C108.026 84.982 107.936 85.222 107.936 85.502V96.302C107.936 96.582 108.026 96.822 108.206 97.022C108.406 97.202 108.646 97.292 108.926 97.292H110.696Z" fill="#3A312D"/>
<path d="M99.9911 99.122C100.251 99.342 100.381 99.612 100.381 99.932C100.361 100.092 100.291 100.232 100.171 100.352C100.051 100.472 99.9111 100.532 99.7511 100.532H95.2511C94.8911 100.532 94.6211 100.392 94.4411 100.112L85.6811 87.842C85.6011 87.742 85.5011 87.712 85.3811 87.752C85.2611 87.792 85.2011 87.872 85.2011 87.992V97.232C85.2011 97.532 85.2711 97.822 85.4111 98.102C85.5511 98.382 85.7411 98.612 85.9811 98.792L86.4011 99.122C86.6611 99.342 86.7911 99.612 86.7911 99.932C86.7711 100.092 86.7011 100.232 86.5811 100.352C86.4611 100.472 86.3111 100.532 86.1311 100.532H80.5511C80.3911 100.532 80.2411 100.472 80.1011 100.352C79.9811 100.232 79.9211 100.092 79.9211 99.932C79.9211 99.592 80.0411 99.322 80.2811 99.122L80.7311 98.792C80.9711 98.612 81.1511 98.382 81.2711 98.102C81.4111 97.822 81.4811 97.532 81.4811 97.232V84.542C81.4811 83.902 81.2311 83.382 80.7311 82.982L80.2811 82.652C80.0411 82.472 79.9211 82.212 79.9211 81.872C79.9211 81.712 79.9811 81.572 80.1011 81.452C80.2411 81.332 80.3911 81.272 80.5511 81.272H85.0511C85.3711 81.272 85.6411 81.402 85.8611 81.662L94.6211 93.962C94.7011 94.062 94.7911 94.092 94.8911 94.052C95.0111 94.012 95.0711 93.932 95.0711 93.812V84.542C95.0711 83.902 94.8211 83.382 94.3211 82.982L93.9011 82.652C93.6411 82.452 93.5111 82.192 93.5111 81.872C93.5311 81.712 93.6011 81.572 93.7211 81.452C93.8411 81.332 93.9811 81.272 94.1411 81.272H99.7511C99.9111 81.272 100.051 81.332 100.171 81.452C100.291 81.572 100.361 81.712 100.381 81.872C100.381 82.192 100.251 82.452 99.9911 82.652L99.5711 82.982C99.0711 83.382 98.8211 83.902 98.8211 84.542V97.232C98.8211 97.532 98.8811 97.822 99.0011 98.102C99.1411 98.382 99.3311 98.612 99.5711 98.792L99.9911 99.122Z" fill="#3A312D"/>
<path d="M77.5029 95.792C77.6629 95.832 77.7829 95.932 77.8629 96.092C77.9629 96.252 77.9929 96.412 77.9529 96.572L77.1429 99.782C77.0029 100.282 76.6729 100.532 76.1529 100.532H62.5629C62.4029 100.532 62.2529 100.472 62.1129 100.352C61.9929 100.232 61.9329 100.092 61.9329 99.932C61.9329 99.592 62.0529 99.322 62.2929 99.122L62.7429 98.792C62.9829 98.612 63.1629 98.382 63.2829 98.102C63.4229 97.822 63.4929 97.532 63.4929 97.232V84.542C63.4929 83.902 63.2429 83.382 62.7429 82.982L62.2929 82.652C62.0529 82.472 61.9329 82.212 61.9329 81.872C61.9329 81.712 61.9929 81.572 62.1129 81.452C62.2529 81.332 62.4029 81.272 62.5629 81.272H75.7629C76.0029 81.272 76.2129 81.342 76.3929 81.482C76.5729 81.622 76.6929 81.812 76.7529 82.052L77.4429 85.292C77.4829 85.452 77.4529 85.612 77.3529 85.772C77.2729 85.912 77.1529 86.002 76.9929 86.042C76.6729 86.102 76.3929 86.032 76.1529 85.832L75.0729 84.962C74.6929 84.642 74.2729 84.482 73.8129 84.482H68.2329C67.9529 84.482 67.7129 84.582 67.5129 84.782C67.3329 84.962 67.2429 85.192 67.2429 85.472V89.732C67.2429 89.832 67.2829 89.912 67.3629 89.972C67.4629 90.012 67.5529 89.992 67.6329 89.912C68.3329 89.332 69.1029 88.852 69.9429 88.472C70.8029 88.072 71.6529 87.872 72.4929 87.872C73.0129 87.872 73.3929 87.982 73.6329 88.202C73.8929 88.422 74.0429 88.702 74.0829 89.042C74.1229 89.382 74.0729 89.742 73.9329 90.122C73.8129 90.502 73.6429 90.862 73.4229 91.202C73.2229 91.542 72.9829 91.822 72.7029 92.042C72.4429 92.262 72.1929 92.372 71.9529 92.372C71.8129 92.372 71.7129 92.322 71.6529 92.222C71.5929 92.102 71.5129 91.972 71.4129 91.832C71.3329 91.692 71.2129 91.572 71.0529 91.472C70.8929 91.352 70.6329 91.292 70.2729 91.292C70.0129 91.292 69.7129 91.372 69.3729 91.532C69.0329 91.692 68.7029 91.902 68.3829 92.162C68.0629 92.422 67.7929 92.712 67.5729 93.032C67.3529 93.352 67.2429 93.662 67.2429 93.962V96.302C67.2429 96.582 67.3329 96.822 67.5129 97.022C67.7129 97.202 67.9529 97.292 68.2329 97.292H74.2929C74.7329 97.292 75.1429 97.152 75.5229 96.872L76.6629 95.972C76.9029 95.792 77.1829 95.732 77.5029 95.792Z" fill="#3A312D"/>
<path d="M59.7879 90.932C59.9479 90.932 60.0879 90.992 60.2079 91.112C60.3479 91.232 60.4179 91.372 60.4179 91.532C60.4179 91.872 60.2979 92.132 60.0579 92.312L59.6079 92.672C59.1079 93.052 58.8579 93.572 58.8579 94.232V96.812C58.8579 97.392 58.6379 97.882 58.1979 98.282C57.2979 99.122 56.2679 99.762 55.1079 100.202C53.9679 100.622 52.7179 100.832 51.3579 100.832C49.9779 100.832 48.6779 100.582 47.4579 100.082C46.2379 99.562 45.1679 98.862 44.2479 97.982C43.3479 97.102 42.6279 96.082 42.0879 94.922C41.5679 93.742 41.3079 92.482 41.3079 91.142V90.632C41.3079 89.292 41.5679 88.042 42.0879 86.882C42.6279 85.702 43.3479 84.672 44.2479 83.792C45.1679 82.912 46.2379 82.222 47.4579 81.722C48.6779 81.202 49.9779 80.942 51.3579 80.942H51.5979H51.5679C53.2079 80.982 54.6579 81.322 55.9179 81.962C56.0579 82.042 56.1679 82.002 56.2479 81.842L56.3679 81.572C56.4879 81.312 56.6979 81.152 56.9979 81.092C57.1579 81.052 57.2979 81.082 57.4179 81.182C57.5379 81.262 57.6179 81.382 57.6579 81.542L58.7679 86.552C58.8079 86.712 58.7879 86.862 58.7079 87.002C58.6479 87.122 58.5379 87.202 58.3779 87.242C58.2379 87.282 58.0879 87.292 57.9279 87.272C57.7879 87.232 57.6679 87.162 57.5679 87.062C57.0679 86.582 56.5979 86.162 56.1579 85.802C55.7379 85.442 55.2979 85.142 54.8379 84.902C54.3779 84.662 53.8679 84.482 53.3079 84.362C52.7679 84.242 52.1179 84.182 51.3579 84.182C50.4579 84.182 49.6279 84.372 48.8679 84.752C48.1079 85.112 47.4479 85.592 46.8879 86.192C46.3479 86.792 45.9179 87.482 45.5979 88.262C45.2979 89.022 45.1479 89.812 45.1479 90.632V91.142C45.1479 91.962 45.2979 92.762 45.5979 93.542C45.9179 94.322 46.3479 95.012 46.8879 95.612C47.4479 96.212 48.1079 96.692 48.8679 97.052C49.6279 97.412 50.4579 97.592 51.3579 97.592C51.6579 97.592 52.0179 97.562 52.4379 97.502C52.8779 97.442 53.2879 97.332 53.6679 97.172C54.0679 97.012 54.4079 96.802 54.6879 96.542C54.9679 96.282 55.1079 95.942 55.1079 95.522V94.232C55.1079 93.932 55.0379 93.642 54.8979 93.362C54.7779 93.082 54.5979 92.852 54.3579 92.672L53.9379 92.312C53.6779 92.112 53.5479 91.852 53.5479 91.532C53.5679 91.372 53.6379 91.232 53.7579 91.112C53.8779 90.992 54.0279 90.932 54.2079 90.932H59.7879Z" fill="#3A312D"/>
<path d="M39.329 95.792C39.489 95.832 39.609 95.932 39.689 96.092C39.789 96.252 39.819 96.412 39.779 96.572L38.969 99.782C38.829 100.282 38.499 100.532 37.979 100.532H24.389C24.229 100.532 24.079 100.472 23.939 100.352C23.819 100.232 23.759 100.092 23.759 99.932C23.759 99.592 23.879 99.322 24.119 99.122L24.569 98.792C24.809 98.612 24.989 98.382 25.109 98.102C25.249 97.822 25.319 97.532 25.319 97.232V84.542C25.319 83.902 25.069 83.382 24.569 82.982L24.119 82.652C23.879 82.472 23.759 82.212 23.759 81.872C23.759 81.712 23.819 81.572 23.939 81.452C24.079 81.332 24.229 81.272 24.389 81.272H37.589C37.829 81.272 38.039 81.342 38.219 81.482C38.399 81.622 38.519 81.812 38.579 82.052L39.269 85.292C39.309 85.452 39.279 85.612 39.179 85.772C39.099 85.912 38.979 86.002 38.819 86.042C38.499 86.102 38.219 86.032 37.979 85.832L36.899 84.962C36.519 84.642 36.099 84.482 35.639 84.482H30.059C29.779 84.482 29.539 84.582 29.339 84.782C29.159 84.962 29.069 85.192 29.069 85.472V89.732C29.069 89.832 29.109 89.912 29.189 89.972C29.289 90.012 29.379 89.992 29.459 89.912C30.159 89.332 30.929 88.852 31.769 88.472C32.629 88.072 33.479 87.872 34.319 87.872C34.839 87.872 35.219 87.982 35.459 88.202C35.719 88.422 35.869 88.702 35.909 89.042C35.949 89.382 35.899 89.742 35.759 90.122C35.639 90.502 35.469 90.862 35.249 91.202C35.049 91.542 34.809 91.822 34.529 92.042C34.269 92.262 34.019 92.372 33.779 92.372C33.639 92.372 33.539 92.322 33.479 92.222C33.419 92.102 33.339 91.972 33.239 91.832C33.159 91.692 33.039 91.572 32.879 91.472C32.719 91.352 32.459 91.292 32.099 91.292C31.839 91.292 31.539 91.372 31.199 91.532C30.859 91.692 30.529 91.902 30.209 92.162C29.889 92.422 29.619 92.712 29.399 93.032C29.179 93.352 29.069 93.662 29.069 93.962V96.302C29.069 96.582 29.159 96.822 29.339 97.022C29.539 97.202 29.779 97.292 30.059 97.292H36.119C36.559 97.292 36.969 97.152 37.349 96.872L38.489 95.972C38.729 95.792 39.009 95.732 39.329 95.792Z" fill="#3A312D"/>
<path d="M21.784 95.372C21.964 95.412 22.094 95.522 22.174 95.702C22.274 95.862 22.304 96.032 22.264 96.212L21.364 99.722C21.304 99.962 21.174 100.162 20.974 100.322C20.794 100.462 20.574 100.532 20.314 100.532H5.49396C5.31396 100.532 5.15396 100.472 5.01396 100.352C4.87396 100.212 4.80396 100.052 4.80396 99.872C4.80396 99.512 4.94396 99.222 5.22396 99.002L5.67395 98.642C6.23396 98.202 6.51396 97.632 6.51396 96.932V83.132C6.51396 82.432 6.23396 81.862 5.67395 81.422L5.22396 81.062C4.94396 80.842 4.80396 80.552 4.80396 80.192C4.80396 80.012 4.87396 79.862 5.01396 79.742C5.15396 79.602 5.31396 79.532 5.49396 79.532H11.584C11.764 79.532 11.924 79.602 12.064 79.742C12.204 79.862 12.274 80.012 12.274 80.192C12.274 80.552 12.144 80.842 11.884 81.062L11.404 81.422C11.144 81.642 10.934 81.902 10.774 82.202C10.634 82.482 10.564 82.792 10.564 83.132V95.942C10.584 96.222 10.694 96.472 10.894 96.692C11.114 96.892 11.374 96.992 11.674 96.992H18.274C18.774 96.992 19.214 96.842 19.594 96.542L20.854 95.552C21.134 95.332 21.444 95.272 21.784 95.372Z" fill="#3A312D"/>
<path d="M111.107 65.792C111.267 65.832 111.387 65.932 111.467 66.092C111.567 66.252 111.597 66.412 111.557 66.572L110.747 69.782C110.607 70.282 110.277 70.532 109.757 70.532H96.1671C96.0071 70.532 95.8571 70.472 95.7171 70.352C95.5971 70.232 95.5371 70.092 95.5371 69.932C95.5371 69.592 95.6571 69.322 95.8971 69.122L96.3471 68.792C96.5871 68.612 96.7671 68.382 96.8871 68.102C97.0271 67.822 97.0971 67.532 97.0971 67.232V54.542C97.0971 53.902 96.8471 53.382 96.3471 52.982L95.8971 52.652C95.6571 52.472 95.5371 52.212 95.5371 51.872C95.5371 51.712 95.5971 51.572 95.7171 51.452C95.8571 51.332 96.0071 51.272 96.1671 51.272H101.747C101.927 51.272 102.077 51.332 102.197 51.452C102.317 51.572 102.387 51.712 102.407 51.872C102.407 52.192 102.277 52.452 102.017 52.652L101.597 52.982C101.097 53.382 100.847 53.902 100.847 54.542V66.302C100.847 66.582 100.937 66.822 101.117 67.022C101.317 67.202 101.557 67.292 101.837 67.292H107.897C108.337 67.292 108.747 67.152 109.127 66.872L110.267 65.972C110.507 65.792 110.787 65.732 111.107 65.792Z" fill="#3A312D"/>
<path d="M93.2056 69.122C93.4456 69.322 93.5656 69.592 93.5656 69.932C93.5656 70.092 93.4955 70.232 93.3555 70.352C93.2355 70.472 93.0955 70.532 92.9355 70.532H87.3555C87.1755 70.532 87.0255 70.472 86.9055 70.352C86.7855 70.232 86.7255 70.092 86.7255 69.932C86.7055 69.632 86.8255 69.362 87.0855 69.122L87.4156 68.882C87.5755 68.742 87.6856 68.572 87.7456 68.372C87.8256 68.152 87.8155 67.932 87.7155 67.712C87.6755 67.592 87.6256 67.462 87.5656 67.322C87.5256 67.222 87.4755 67.102 87.4156 66.962C87.3555 66.822 87.2956 66.682 87.2355 66.542C87.0555 66.042 86.6955 65.732 86.1555 65.612C85.1155 65.392 84.1055 65.282 83.1255 65.282C82.1455 65.282 81.1256 65.392 80.0656 65.612C79.5456 65.732 79.1955 66.042 79.0155 66.542C78.9555 66.622 78.9255 66.682 78.9255 66.722L78.5355 67.712C78.4355 67.932 78.4155 68.152 78.4755 68.372C78.5555 68.572 78.6755 68.742 78.8355 68.882L79.1656 69.122C79.4255 69.342 79.5555 69.612 79.5555 69.932C79.5356 70.092 79.4656 70.232 79.3456 70.352C79.2256 70.472 79.0755 70.532 78.8955 70.532H73.3156C73.1556 70.532 73.0055 70.472 72.8655 70.352C72.7455 70.232 72.6855 70.092 72.6855 69.932C72.6855 69.592 72.8055 69.322 73.0455 69.122L73.9455 68.432C74.1855 68.232 74.3955 67.962 74.5755 67.622L80.9355 51.872C81.0955 51.472 81.4055 51.272 81.8655 51.272H84.3856C84.8456 51.272 85.1556 51.472 85.3156 51.872L91.6756 67.622C91.8556 67.962 92.0655 68.232 92.3055 68.432L93.2056 69.122ZM85.2555 62.432C85.3555 62.452 85.4356 62.422 85.4956 62.342C85.5556 62.262 85.5656 62.172 85.5256 62.072C85.2856 61.472 85.0356 60.862 84.7756 60.242C84.5356 59.622 84.3055 59.052 84.0855 58.532C83.8455 57.932 83.6055 57.342 83.3655 56.762C83.3255 56.662 83.2455 56.612 83.1255 56.612C83.0055 56.612 82.9256 56.662 82.8856 56.762C82.6456 57.322 82.4056 57.902 82.1656 58.502C81.9455 59.022 81.7055 59.592 81.4455 60.212C81.2055 60.832 80.9655 61.452 80.7255 62.072C80.6855 62.172 80.6955 62.262 80.7555 62.342C80.8155 62.422 80.8956 62.452 80.9956 62.432C81.3956 62.352 81.7655 62.302 82.1055 62.282C82.4455 62.242 82.7855 62.222 83.1255 62.222C83.4655 62.222 83.8055 62.242 84.1455 62.282C84.4855 62.302 84.8555 62.352 85.2555 62.432Z" fill="#3A312D"/>
<path d="M71.5078 65.762C71.7078 65.762 71.8278 65.902 71.8678 66.182C71.9078 66.442 71.8478 66.772 71.6878 67.172C71.5478 67.572 71.2978 68.002 70.9378 68.462C70.5778 68.922 70.0978 69.352 69.4978 69.752C68.8978 70.152 68.1578 70.482 67.2778 70.742C66.4178 71.022 65.4178 71.162 64.2778 71.162C62.8978 71.162 61.5978 70.912 60.3778 70.412C59.1578 69.892 58.0878 69.192 57.1678 68.312C56.2678 67.432 55.5478 66.402 55.0078 65.222C54.4878 64.042 54.2278 62.782 54.2278 61.442V60.962C54.2278 59.622 54.4878 58.372 55.0078 57.212C55.5478 56.032 56.2678 55.002 57.1678 54.122C58.0878 53.242 59.1578 52.552 60.3778 52.052C61.5978 51.532 62.8978 51.272 64.2778 51.272C65.9778 51.272 67.4978 51.602 68.8378 52.262C68.9778 52.342 69.0878 52.302 69.1678 52.142L69.2878 51.872C69.4078 51.612 69.6178 51.452 69.9178 51.392C70.0778 51.352 70.2178 51.382 70.3378 51.482C70.4578 51.562 70.5378 51.682 70.5778 51.842L71.6878 56.852C71.7278 57.012 71.7078 57.162 71.6278 57.302C71.5678 57.422 71.4578 57.502 71.2978 57.542C70.9778 57.642 70.7078 57.582 70.4878 57.362C70.1878 57.062 69.8578 56.752 69.4978 56.432C69.1578 56.092 68.7478 55.782 68.2678 55.502C67.8078 55.202 67.2578 54.962 66.6178 54.782C65.9778 54.582 65.1978 54.482 64.2778 54.482C63.3778 54.482 62.5478 54.672 61.7878 55.052C61.0278 55.412 60.3678 55.892 59.8078 56.492C59.2678 57.092 58.8378 57.782 58.5178 58.562C58.2178 59.342 58.0678 60.142 58.0678 60.962V61.442C58.0678 62.342 58.2378 63.182 58.5778 63.962C58.9178 64.742 59.3778 65.432 59.9578 66.032C60.5578 66.612 61.2378 67.072 61.9978 67.412C62.7778 67.752 63.5878 67.922 64.4278 67.922C65.7478 67.922 66.7978 67.812 67.5778 67.592C68.3578 67.352 68.9778 67.102 69.4378 66.842C69.8978 66.562 70.2678 66.312 70.5478 66.092C70.8478 65.872 71.1678 65.762 71.5078 65.762Z" fill="#3A312D"/>
<path d="M42.2102 50.942C43.5702 50.942 44.8402 51.202 46.0202 51.722C47.2002 52.222 48.2302 52.912 49.1102 53.792C50.0102 54.672 50.7102 55.702 51.2102 56.882C51.7302 58.042 51.9902 59.292 51.9902 60.632V61.142C51.9902 62.482 51.7302 63.742 51.2102 64.922C50.7102 66.082 50.0102 67.102 49.1102 67.982C48.2302 68.862 47.2002 69.562 46.0202 70.082C44.8402 70.582 43.5702 70.832 42.2102 70.832C40.8702 70.832 39.6102 70.582 38.4302 70.082C37.2502 69.562 36.2102 68.862 35.3102 67.982C34.4302 67.102 33.7302 66.082 33.2102 64.922C32.7102 63.742 32.4602 62.482 32.4602 61.142V60.632C32.4602 59.292 32.7102 58.042 33.2102 56.882C33.7302 55.702 34.4302 54.672 35.3102 53.792C36.2102 52.912 37.2502 52.222 38.4302 51.722C39.6102 51.202 40.8702 50.942 42.2102 50.942ZM48.2402 60.632C48.2402 59.812 48.0902 59.022 47.7902 58.262C47.5102 57.482 47.1002 56.792 46.5602 56.192C46.0402 55.592 45.4102 55.112 44.6702 54.752C43.9302 54.372 43.1102 54.182 42.2102 54.182C41.3102 54.182 40.4902 54.372 39.7502 54.752C39.0102 55.112 38.3702 55.592 37.8302 56.192C37.3102 56.792 36.9002 57.482 36.6002 58.262C36.3202 59.022 36.1802 59.812 36.1802 60.632V61.142C36.1802 61.962 36.3202 62.762 36.6002 63.542C36.9002 64.322 37.3102 65.012 37.8302 65.612C38.3702 66.212 39.0102 66.692 39.7502 67.052C40.4902 67.412 41.3102 67.592 42.2102 67.592C43.1102 67.592 43.9302 67.412 44.6702 67.052C45.4302 66.692 46.0702 66.212 46.5902 65.612C47.1102 65.012 47.5102 64.322 47.7902 63.542C48.0902 62.762 48.2402 61.962 48.2402 61.142V60.632Z" fill="#3A312D"/>
<path d="M30.9539 65.372C31.1339 65.412 31.2639 65.522 31.3439 65.702C31.4439 65.862 31.4739 66.032 31.4339 66.212L30.5339 69.722C30.4739 69.962 30.3439 70.162 30.1439 70.322C29.9639 70.462 29.7439 70.532 29.4839 70.532H14.6639C14.4839 70.532 14.3239 70.472 14.1839 70.352C14.0439 70.212 13.9739 70.052 13.9739 69.872C13.9739 69.512 14.1139 69.222 14.3939 69.002L14.8439 68.642C15.4039 68.202 15.6839 67.632 15.6839 66.932V53.132C15.6839 52.432 15.4039 51.862 14.8439 51.422L14.3939 51.062C14.1139 50.842 13.9739 50.552 13.9739 50.192C13.9739 50.012 14.0439 49.862 14.1839 49.742C14.3239 49.602 14.4839 49.532 14.6639 49.532H20.7539C20.9339 49.532 21.0939 49.602 21.2339 49.742C21.3739 49.862 21.4439 50.012 21.4439 50.192C21.4439 50.552 21.3139 50.842 21.0539 51.062L20.5739 51.422C20.3139 51.642 20.1039 51.902 19.9439 52.202C19.8039 52.482 19.7339 52.792 19.7339 53.132V65.942C19.7539 66.222 19.8639 66.472 20.0639 66.692C20.2839 66.892 20.5439 66.992 20.8439 66.992H27.4439C27.9439 66.992 28.3839 66.842 28.7639 66.542L30.0239 65.552C30.3039 65.332 30.6139 65.272 30.9539 65.372Z" fill="#3A312D"/>
<path d="M115.804 20.942C117.164 20.942 118.434 21.202 119.614 21.722C120.794 22.222 121.824 22.912 122.704 23.792C123.604 24.672 124.304 25.702 124.804 26.882C125.324 28.042 125.584 29.292 125.584 30.632V31.142C125.584 32.482 125.324 33.742 124.804 34.922C124.304 36.082 123.604 37.102 122.704 37.982C121.824 38.862 120.794 39.562 119.614 40.082C118.434 40.582 117.164 40.832 115.804 40.832C114.464 40.832 113.204 40.582 112.024 40.082C110.844 39.562 109.804 38.862 108.904 37.982C108.024 37.102 107.324 36.082 106.804 34.922C106.304 33.742 106.054 32.482 106.054 31.142V30.632C106.054 29.292 106.304 28.042 106.804 26.882C107.324 25.702 108.024 24.672 108.904 23.792C109.804 22.912 110.844 22.222 112.024 21.722C113.204 21.202 114.464 20.942 115.804 20.942ZM121.834 30.632C121.834 29.812 121.684 29.022 121.384 28.262C121.104 27.482 120.694 26.792 120.154 26.192C119.634 25.592 119.004 25.112 118.264 24.752C117.524 24.372 116.704 24.182 115.804 24.182C114.904 24.182 114.084 24.372 113.344 24.752C112.604 25.112 111.964 25.592 111.424 26.192C110.904 26.792 110.494 27.482 110.194 28.262C109.914 29.022 109.774 29.812 109.774 30.632V31.142C109.774 31.962 109.914 32.762 110.194 33.542C110.494 34.322 110.904 35.012 111.424 35.612C111.964 36.212 112.604 36.692 113.344 37.052C114.084 37.412 114.904 37.592 115.804 37.592C116.704 37.592 117.524 37.412 118.264 37.052C119.024 36.692 119.664 36.212 120.184 35.612C120.704 35.012 121.104 34.322 121.384 33.542C121.684 32.762 121.834 31.962 121.834 31.142V30.632Z" fill="#3A312D"/>
<path d="M104.624 39.122C104.884 39.362 105.004 39.632 104.984 39.932C104.984 40.092 104.924 40.232 104.804 40.352C104.684 40.472 104.534 40.532 104.354 40.532H98.7738C98.6138 40.532 98.4638 40.472 98.3238 40.352C98.2038 40.232 98.1438 40.092 98.1438 39.932C98.1438 39.592 98.2638 39.322 98.5038 39.122L98.9538 38.792C99.1938 38.612 99.3738 38.382 99.4938 38.102C99.6338 37.822 99.7038 37.532 99.7038 37.232V24.542C99.7038 23.902 99.4538 23.382 98.9538 22.982L98.5038 22.652C98.2638 22.472 98.1438 22.212 98.1438 21.872C98.1438 21.712 98.2038 21.572 98.3238 21.452C98.4638 21.332 98.6138 21.272 98.7738 21.272H104.354C104.534 21.272 104.684 21.332 104.804 21.452C104.924 21.572 104.984 21.712 104.984 21.872C105.024 22.192 104.904 22.452 104.624 22.652L104.204 22.982C103.684 23.402 103.424 23.922 103.424 24.542V37.232C103.424 37.532 103.494 37.822 103.634 38.102C103.774 38.382 103.964 38.612 104.204 38.792L104.624 39.122Z" fill="#3A312D"/>
<path d="M95.5233 39.122C95.7833 39.362 95.9033 39.632 95.8833 39.932C95.8833 40.092 95.8133 40.232 95.6733 40.352C95.5533 40.472 95.4132 40.532 95.2533 40.532H89.6733C89.5133 40.532 89.3633 40.472 89.2233 40.352C89.1033 40.232 89.0433 40.092 89.0433 39.932C89.0433 39.592 89.1633 39.322 89.4033 39.122L89.8232 38.792C90.3433 38.392 90.6033 37.872 90.6033 37.232V33.782C90.6033 33.442 90.4933 33.142 90.2733 32.882C90.0533 32.602 89.7733 32.412 89.4333 32.312C88.2533 32.032 87.1133 31.892 86.0133 31.892C84.8933 31.892 83.7332 32.042 82.5332 32.342C82.1932 32.442 81.9133 32.622 81.6933 32.882C81.4733 33.142 81.3633 33.442 81.3633 33.782V37.232C81.3633 37.532 81.4332 37.822 81.5732 38.102C81.7132 38.382 81.9032 38.612 82.1432 38.792L82.5633 39.122C82.8233 39.342 82.9533 39.612 82.9533 39.932C82.9333 40.092 82.8633 40.232 82.7433 40.352C82.6233 40.472 82.4733 40.532 82.2933 40.532H76.7132C76.5532 40.532 76.4033 40.472 76.2633 40.352C76.1433 40.232 76.0833 40.092 76.0833 39.932C76.0833 39.592 76.2033 39.322 76.4433 39.122L76.8932 38.792C77.1332 38.612 77.3133 38.382 77.4333 38.102C77.5733 37.822 77.6432 37.532 77.6432 37.232V24.542C77.6432 23.902 77.3932 23.382 76.8932 22.982L76.4433 22.652C76.2033 22.472 76.0833 22.212 76.0833 21.872C76.0833 21.712 76.1433 21.572 76.2633 21.452C76.4033 21.332 76.5532 21.272 76.7132 21.272H82.2933C82.4733 21.272 82.6233 21.332 82.7433 21.452C82.8633 21.572 82.9333 21.712 82.9533 21.872C82.9533 22.192 82.8233 22.452 82.5633 22.652L82.1432 22.982C81.6432 23.382 81.3932 23.902 81.3932 24.542V28.412C81.3932 28.572 81.4532 28.702 81.5732 28.802C81.6932 28.902 81.8333 28.932 81.9933 28.892C83.3333 28.572 84.6833 28.412 86.0433 28.412C87.3433 28.412 88.6633 28.562 90.0033 28.862C90.1632 28.902 90.3032 28.872 90.4232 28.772C90.5432 28.672 90.6033 28.542 90.6033 28.382V24.542C90.6033 23.922 90.3433 23.402 89.8232 22.982L89.4033 22.652C89.1633 22.472 89.0433 22.212 89.0433 21.872C89.0433 21.712 89.1033 21.572 89.2233 21.452C89.3633 21.332 89.5133 21.272 89.6733 21.272H95.2533C95.4132 21.272 95.5533 21.332 95.6733 21.452C95.8133 21.572 95.8833 21.712 95.8833 21.872C95.9233 22.192 95.8033 22.452 95.5233 22.652L95.1033 22.982C94.5833 23.402 94.3232 23.922 94.3232 24.542V37.232C94.3232 37.532 94.3932 37.822 94.5332 38.102C94.6733 38.382 94.8633 38.612 95.1033 38.792L95.5233 39.122Z" fill="#3A312D"/>
<path d="M64.4383 19.202C65.8983 19.202 67.2683 19.482 68.5483 20.042C69.8483 20.582 70.9783 21.332 71.9383 22.292C72.8983 23.252 73.6583 24.372 74.2183 25.652C74.7783 26.932 75.0583 28.302 75.0583 29.762V30.302C75.0583 31.762 74.7783 33.132 74.2183 34.412C73.6583 35.692 72.8983 36.812 71.9383 37.772C70.9783 38.732 69.8483 39.492 68.5483 40.052C67.2683 40.592 65.8983 40.862 64.4383 40.862C62.9783 40.862 61.5983 40.592 60.2983 40.052C58.9983 39.492 57.8683 38.732 56.9083 37.772C55.9483 36.812 55.1883 35.692 54.6283 34.412C54.0683 33.132 53.7883 31.762 53.7883 30.302V29.762C53.7883 28.302 54.0683 26.932 54.6283 25.652C55.1883 24.372 55.9483 23.252 56.9083 22.292C57.8683 21.332 58.9983 20.582 60.2983 20.042C61.5983 19.482 62.9783 19.202 64.4383 19.202ZM70.9783 29.762C70.9783 28.862 70.8183 27.992 70.4983 27.152C70.1783 26.292 69.7283 25.542 69.1483 24.902C68.5883 24.242 67.9083 23.712 67.1083 23.312C66.3083 22.912 65.4183 22.712 64.4383 22.712C63.4583 22.712 62.5583 22.912 61.7383 23.312C60.9383 23.712 60.2483 24.242 59.6683 24.902C59.1083 25.542 58.6683 26.292 58.3483 27.152C58.0283 27.992 57.8683 28.862 57.8683 29.762V30.302C57.8683 31.202 58.0283 32.072 58.3483 32.912C58.6683 33.752 59.1083 34.502 59.6683 35.162C60.2483 35.822 60.9383 36.352 61.7383 36.752C62.5583 37.152 63.4583 37.352 64.4383 37.352C65.4183 37.352 66.3083 37.152 67.1083 36.752C67.9283 36.352 68.6183 35.822 69.1783 35.162C69.7583 34.502 70.1983 33.752 70.4983 32.912C70.8183 32.072 70.9783 31.202 70.9783 30.302V29.762Z" fill="#3A312D"/>
<path d="M42.8915 39.122C43.1515 39.342 43.2815 39.612 43.2815 39.932C43.2615 40.092 43.1915 40.232 43.0715 40.352C42.9515 40.472 42.8115 40.532 42.6515 40.532H38.1515C37.7915 40.532 37.5215 40.392 37.3415 40.112L28.5815 27.842C28.5015 27.742 28.4015 27.712 28.2815 27.752C28.1615 27.792 28.1015 27.872 28.1015 27.992V37.232C28.1015 37.532 28.1715 37.822 28.3115 38.102C28.4515 38.382 28.6415 38.612 28.8815 38.792L29.3015 39.122C29.5615 39.342 29.6915 39.612 29.6915 39.932C29.6715 40.092 29.6015 40.232 29.4815 40.352C29.3615 40.472 29.2115 40.532 29.0315 40.532H23.4515C23.2915 40.532 23.1415 40.472 23.0015 40.352C22.8815 40.232 22.8215 40.092 22.8215 39.932C22.8215 39.592 22.9415 39.322 23.1815 39.122L23.6315 38.792C23.8715 38.612 24.0515 38.382 24.1715 38.102C24.3115 37.822 24.3815 37.532 24.3815 37.232V24.542C24.3815 23.902 24.1315 23.382 23.6315 22.982L23.1815 22.652C22.9415 22.472 22.8215 22.212 22.8215 21.872C22.8215 21.712 22.8815 21.572 23.0015 21.452C23.1415 21.332 23.2915 21.272 23.4515 21.272H27.9515C28.2715 21.272 28.5415 21.402 28.7615 21.662L37.5215 33.962C37.6015 34.062 37.6915 34.092 37.7915 34.052C37.9115 34.012 37.9715 33.932 37.9715 33.812V24.542C37.9715 23.902 37.7215 23.382 37.2215 22.982L36.8015 22.652C36.5415 22.452 36.4115 22.192 36.4115 21.872C36.4315 21.712 36.5015 21.572 36.6215 21.452C36.7415 21.332 36.8815 21.272 37.0415 21.272H42.6515C42.8115 21.272 42.9515 21.332 43.0715 21.452C43.1915 21.572 43.2615 21.712 43.2815 21.872C43.2815 22.192 43.1515 22.452 42.8915 22.652L42.4715 22.982C41.9715 23.382 41.7215 23.902 41.7215 24.542V37.232C41.7215 37.532 41.7815 37.822 41.9015 38.102C42.0415 38.382 42.2315 38.612 42.4715 38.792L42.8915 39.122Z" fill="#3A312D"/>
<path d="M20.52 39.122C20.76 39.322 20.88 39.592 20.88 39.932C20.88 40.092 20.81 40.232 20.67 40.352C20.55 40.472 20.41 40.532 20.25 40.532H14.67C14.49 40.532 14.34 40.472 14.22 40.352C14.1 40.232 14.04 40.092 14.04 39.932C14.02 39.632 14.14 39.362 14.4 39.122L14.73 38.882C14.89 38.742 15 38.572 15.06 38.372C15.14 38.152 15.13 37.932 15.03 37.712C14.99 37.592 14.94 37.462 14.88 37.322C14.84 37.222 14.79 37.102 14.73 36.962C14.67 36.822 14.61 36.682 14.55 36.542C14.37 36.042 14.01 35.732 13.47 35.612C12.43 35.392 11.42 35.282 10.44 35.282C9.46 35.282 8.44 35.392 7.38 35.612C6.86 35.732 6.51 36.042 6.33 36.542C6.27 36.622 6.24 36.682 6.24 36.722L5.85 37.712C5.75 37.932 5.73 38.152 5.79 38.372C5.87 38.572 5.99 38.742 6.15 38.882L6.48 39.122C6.74 39.342 6.87 39.612 6.87 39.932C6.85 40.092 6.78 40.232 6.66 40.352C6.54 40.472 6.39 40.532 6.21 40.532H0.63C0.47 40.532 0.32 40.472 0.18 40.352C0.06 40.232 0 40.092 0 39.932C0 39.592 0.12 39.322 0.36 39.122L1.26 38.432C1.5 38.232 1.71 37.962 1.89 37.622L8.25 21.872C8.41 21.472 8.72 21.272 9.18 21.272H11.7C12.16 21.272 12.47 21.472 12.63 21.872L18.99 37.622C19.17 37.962 19.38 38.232 19.62 38.432L20.52 39.122ZM12.57 32.432C12.67 32.452 12.75 32.422 12.81 32.342C12.87 32.262 12.88 32.172 12.84 32.072C12.6 31.472 12.35 30.862 12.09 30.242C11.85 29.622 11.62 29.052 11.4 28.532C11.16 27.932 10.92 27.342 10.68 26.762C10.64 26.662 10.56 26.612 10.44 26.612C10.32 26.612 10.24 26.662 10.2 26.762C9.96 27.322 9.72 27.902 9.48 28.502C9.26 29.022 9.02 29.592 8.76 30.212C8.52 30.832 8.28 31.452 8.04 32.072C8 32.172 8.01 32.262 8.07 32.342C8.13 32.422 8.21 32.452 8.31 32.432C8.71 32.352 9.08 32.302 9.42 32.282C9.76 32.242 10.1 32.222 10.44 32.222C10.78 32.222 11.12 32.242 11.46 32.282C11.8 32.302 12.17 32.352 12.57 32.432Z" fill="#3A312D"/>
</svg>
