<svg width="288" height="41" viewBox="0 0 288 41" fill="none" xmlns="http://www.w3.org/2000/svg">
<path d="M190.941 2.952C190.941 3.136 191.053 3.288 191.277 3.408C191.501 3.528 191.781 3.644 192.117 3.756C192.461 3.86 192.829 3.972 193.221 4.092C193.613 4.204 193.977 4.352 194.313 4.536C194.657 4.712 194.941 4.932 195.165 5.196C195.389 5.46 195.501 5.788 195.501 6.18C195.501 6.612 195.417 6.984 195.249 7.296C195.089 7.608 194.861 7.864 194.565 8.064C194.269 8.264 193.921 8.412 193.521 8.508C193.121 8.604 192.681 8.652 192.201 8.652C191.729 8.652 191.321 8.6 190.977 8.496C190.641 8.392 190.357 8.26 190.125 8.1C189.893 7.94 189.713 7.764 189.585 7.572C189.457 7.38 189.369 7.196 189.321 7.02C189.273 6.844 189.253 6.692 189.261 6.564C189.277 6.428 189.317 6.336 189.381 6.288C189.421 6.264 189.457 6.252 189.489 6.252C189.577 6.252 189.673 6.312 189.777 6.432C189.889 6.544 190.041 6.668 190.233 6.804C190.433 6.94 190.689 7.068 191.001 7.188C191.313 7.3 191.713 7.356 192.201 7.356C192.425 7.356 192.641 7.344 192.849 7.32C193.057 7.296 193.241 7.248 193.401 7.176C193.569 7.104 193.701 7 193.797 6.864C193.893 6.72 193.941 6.532 193.941 6.3C193.941 6.1 193.829 5.936 193.605 5.808C193.381 5.672 193.101 5.548 192.765 5.436C192.429 5.324 192.061 5.208 191.661 5.088C191.269 4.968 190.905 4.82 190.569 4.644C190.233 4.46 189.953 4.236 189.729 3.972C189.505 3.7 189.393 3.36 189.393 2.952C189.393 2.688 189.457 2.424 189.585 2.16C189.713 1.888 189.905 1.644 190.161 1.428C190.425 1.212 190.749 1.036 191.133 0.899999C191.525 0.763999 191.981 0.695999 192.501 0.695999C192.885 0.695999 193.205 0.731999 193.461 0.803999C193.725 0.867999 193.985 0.967999 194.241 1.104C194.297 1.136 194.341 1.12 194.373 1.056L194.421 0.947999C194.485 0.843999 194.573 0.779999 194.685 0.756C194.749 0.739999 194.805 0.751999 194.853 0.791999C194.901 0.823999 194.933 0.871999 194.949 0.935999L195.393 2.94C195.409 3.004 195.401 3.064 195.369 3.12C195.337 3.168 195.289 3.2 195.225 3.216C195.097 3.248 194.993 3.224 194.913 3.144C194.793 3.024 194.661 2.9 194.517 2.772C194.373 2.636 194.209 2.512 194.025 2.4C193.841 2.28 193.625 2.184 193.377 2.112C193.129 2.032 192.837 1.992 192.501 1.992C192.053 1.992 191.681 2.084 191.385 2.268C191.089 2.444 190.941 2.672 190.941 2.952Z" fill="#3A312D"/>
<path d="M187.126 7.968C187.23 8.064 187.278 8.172 187.27 8.292C187.27 8.356 187.246 8.412 187.198 8.46C187.15 8.508 187.09 8.532 187.018 8.532H184.786C184.722 8.532 184.662 8.508 184.606 8.46C184.558 8.412 184.534 8.356 184.534 8.292C184.534 8.156 184.582 8.048 184.678 7.968L184.858 7.836C184.954 7.764 185.026 7.672 185.074 7.56C185.13 7.448 185.158 7.332 185.158 7.212V2.136C185.158 1.88 185.058 1.672 184.858 1.512L184.678 1.38C184.582 1.308 184.534 1.204 184.534 1.068C184.534 1.004 184.558 0.948003 184.606 0.900003C184.662 0.852003 184.722 0.828003 184.786 0.828003H187.018C187.09 0.828003 187.15 0.852003 187.198 0.900003C187.246 0.948003 187.27 1.004 187.27 1.068C187.286 1.196 187.238 1.3 187.126 1.38L186.958 1.512C186.75 1.68 186.646 1.888 186.646 2.136V7.212C186.646 7.332 186.674 7.448 186.73 7.56C186.786 7.672 186.862 7.764 186.958 7.836L187.126 7.968Z" fill="#3A312D"/>
<path d="M177.788 7.968C177.892 8.064 177.94 8.172 177.932 8.292C177.932 8.356 177.908 8.412 177.86 8.46C177.812 8.508 177.752 8.532 177.68 8.532H176.252C176.14 8.532 176.04 8.48 175.952 8.376C175.872 8.264 175.796 8.128 175.724 7.968C175.66 7.8 175.596 7.612 175.532 7.404C175.476 7.196 175.42 6.996 175.364 6.804C175.308 6.604 175.248 6.42 175.184 6.252C175.12 6.084 175.052 5.952 174.98 5.856C174.884 5.736 174.764 5.652 174.62 5.604C174.476 5.548 174.328 5.536 174.176 5.568C173.848 5.648 173.52 5.692 173.192 5.7C173.08 5.708 172.988 5.752 172.916 5.832C172.844 5.904 172.808 5.992 172.808 6.096V7.212C172.808 7.332 172.836 7.448 172.892 7.56C172.948 7.672 173.024 7.764 173.12 7.836L173.288 7.968C173.392 8.056 173.444 8.164 173.444 8.292C173.436 8.356 173.408 8.412 173.36 8.46C173.312 8.508 173.252 8.532 173.18 8.532H170.948C170.884 8.532 170.824 8.508 170.768 8.46C170.72 8.412 170.696 8.356 170.696 8.292C170.696 8.156 170.744 8.048 170.84 7.968L171.02 7.836C171.116 7.764 171.188 7.672 171.236 7.56C171.292 7.448 171.32 7.332 171.32 7.212V2.136C171.32 1.88 171.22 1.672 171.02 1.512L170.84 1.38C170.744 1.308 170.696 1.204 170.696 1.068C170.696 1.004 170.72 0.948003 170.768 0.900003C170.824 0.852003 170.884 0.828003 170.948 0.828003H174.68C175.416 0.828003 176.012 1.012 176.468 1.38C176.924 1.74 177.16 2.272 177.176 2.976C177.176 3.2 177.144 3.4 177.08 3.576C177.024 3.744 176.94 3.904 176.828 4.056C176.716 4.208 176.58 4.352 176.42 4.488C176.268 4.624 176.1 4.772 175.916 4.932C175.892 4.956 175.896 4.968 175.928 4.968C176.064 5.016 176.184 5.112 176.288 5.256C176.392 5.392 176.488 5.556 176.576 5.748C176.672 5.94 176.756 6.144 176.828 6.36C176.908 6.568 176.984 6.768 177.056 6.96C177.128 7.144 177.196 7.308 177.26 7.452C177.332 7.596 177.404 7.688 177.476 7.728L177.788 7.968ZM173.252 4.608C173.516 4.584 173.796 4.544 174.092 4.488C174.388 4.432 174.66 4.348 174.908 4.236C175.164 4.124 175.372 3.976 175.532 3.792C175.7 3.6 175.784 3.36 175.784 3.072C175.784 2.864 175.744 2.7 175.664 2.58C175.592 2.452 175.492 2.356 175.364 2.292C175.244 2.22 175.104 2.172 174.944 2.148C174.792 2.124 174.636 2.112 174.476 2.112H173.216C173.104 2.112 173.008 2.152 172.928 2.232C172.848 2.312 172.808 2.408 172.808 2.52V4.212C172.808 4.332 172.852 4.432 172.94 4.512C173.028 4.592 173.132 4.624 173.252 4.608Z" fill="#3A312D"/>
<path d="M168.529 6.636C168.593 6.652 168.641 6.692 168.673 6.756C168.713 6.82 168.725 6.884 168.709 6.948L168.385 8.232C168.329 8.432 168.197 8.532 167.989 8.532H162.553C162.489 8.532 162.429 8.508 162.373 8.46C162.325 8.412 162.301 8.356 162.301 8.292C162.301 8.156 162.349 8.048 162.445 7.968L162.625 7.836C162.721 7.764 162.793 7.672 162.841 7.56C162.897 7.448 162.925 7.332 162.925 7.212V2.136C162.925 1.88 162.825 1.672 162.625 1.512L162.445 1.38C162.349 1.308 162.301 1.204 162.301 1.068C162.301 1.004 162.325 0.948003 162.373 0.900003C162.429 0.852003 162.489 0.828003 162.553 0.828003H167.833C167.929 0.828003 168.013 0.856003 168.085 0.912003C168.157 0.968003 168.205 1.044 168.229 1.14L168.505 2.436C168.521 2.5 168.509 2.564 168.469 2.628C168.437 2.684 168.389 2.72 168.325 2.736C168.197 2.76 168.085 2.732 167.989 2.652L167.557 2.304C167.405 2.176 167.237 2.112 167.053 2.112H164.821C164.709 2.112 164.613 2.152 164.533 2.232C164.461 2.304 164.425 2.396 164.425 2.508V4.212C164.425 4.252 164.441 4.284 164.473 4.308C164.513 4.324 164.549 4.316 164.581 4.284C164.861 4.052 165.169 3.86 165.505 3.708C165.849 3.548 166.189 3.468 166.525 3.468C166.733 3.468 166.885 3.512 166.981 3.6C167.085 3.688 167.145 3.8 167.161 3.936C167.177 4.072 167.157 4.216 167.101 4.368C167.053 4.52 166.985 4.664 166.897 4.8C166.817 4.936 166.721 5.048 166.609 5.136C166.505 5.224 166.405 5.268 166.309 5.268C166.253 5.268 166.213 5.248 166.189 5.208C166.165 5.16 166.133 5.108 166.093 5.052C166.061 4.996 166.013 4.948 165.949 4.908C165.885 4.86 165.781 4.836 165.637 4.836C165.533 4.836 165.413 4.868 165.277 4.932C165.141 4.996 165.009 5.08 164.881 5.184C164.753 5.288 164.645 5.404 164.557 5.532C164.469 5.66 164.425 5.784 164.425 5.904V6.84C164.425 6.952 164.461 7.048 164.533 7.128C164.613 7.2 164.709 7.236 164.821 7.236H167.245C167.421 7.236 167.585 7.18 167.737 7.068L168.193 6.708C168.289 6.636 168.401 6.612 168.529 6.636Z" fill="#3A312D"/>
<path d="M159.988 0.828003C160.052 0.828003 160.104 0.852003 160.144 0.900003C160.184 0.948003 160.204 1.004 160.204 1.068C160.204 1.204 160.16 1.308 160.072 1.38L159.784 1.656C159.688 1.752 159.616 1.864 159.568 1.992L157.552 8.28C157.528 8.36 157.484 8.424 157.42 8.472C157.364 8.512 157.304 8.532 157.24 8.532H156.004C155.86 8.532 155.756 8.448 155.692 8.28L154.684 4.44C154.668 4.392 154.636 4.368 154.588 4.368C154.54 4.368 154.508 4.392 154.492 4.44L153.472 8.28C153.424 8.448 153.324 8.532 153.172 8.532H151.936C151.776 8.532 151.672 8.448 151.624 8.28L149.596 1.992C149.564 1.872 149.496 1.76 149.392 1.656L149.092 1.38C149.012 1.3 148.972 1.196 148.972 1.068C148.972 1.004 148.992 0.948003 149.032 0.900003C149.072 0.852003 149.124 0.828003 149.188 0.828003H151.24C151.304 0.828003 151.356 0.852003 151.396 0.900003C151.436 0.948003 151.456 1.004 151.456 1.068C151.456 1.196 151.416 1.3 151.336 1.38L151.228 1.488C151.092 1.608 151.056 1.76 151.12 1.944L152.476 6.324C152.492 6.364 152.516 6.384 152.548 6.384C152.588 6.384 152.616 6.364 152.632 6.324L153.664 2.928C153.72 2.744 153.848 2.652 154.048 2.652H155.128C155.328 2.652 155.456 2.744 155.512 2.928L156.544 6.324C156.56 6.364 156.584 6.384 156.616 6.384C156.656 6.384 156.684 6.364 156.7 6.324L158.056 1.944C158.08 1.856 158.084 1.772 158.068 1.692C158.052 1.612 158.012 1.544 157.948 1.488L157.84 1.38C157.76 1.308 157.72 1.204 157.72 1.068C157.72 1.004 157.74 0.948003 157.78 0.900003C157.82 0.852003 157.868 0.828003 157.924 0.828003H159.988Z" fill="#3A312D"/>
<path d="M143.856 0.695999C144.4 0.695999 144.908 0.799999 145.38 1.008C145.852 1.208 146.264 1.484 146.616 1.836C146.976 2.188 147.256 2.6 147.456 3.072C147.664 3.536 147.768 4.036 147.768 4.572V4.776C147.768 5.312 147.664 5.816 147.456 6.288C147.256 6.752 146.976 7.16 146.616 7.512C146.264 7.864 145.852 8.144 145.38 8.352C144.908 8.552 144.4 8.652 143.856 8.652C143.32 8.652 142.816 8.552 142.344 8.352C141.872 8.144 141.456 7.864 141.096 7.512C140.744 7.16 140.464 6.752 140.256 6.288C140.056 5.816 139.956 5.312 139.956 4.776V4.572C139.956 4.036 140.056 3.536 140.256 3.072C140.464 2.6 140.744 2.188 141.096 1.836C141.456 1.484 141.872 1.208 142.344 1.008C142.816 0.799999 143.32 0.695999 143.856 0.695999ZM146.268 4.572C146.268 4.244 146.208 3.928 146.088 3.624C145.976 3.312 145.812 3.036 145.596 2.796C145.388 2.556 145.136 2.364 144.84 2.22C144.544 2.068 144.216 1.992 143.856 1.992C143.496 1.992 143.168 2.068 142.872 2.22C142.576 2.364 142.32 2.556 142.104 2.796C141.896 3.036 141.732 3.312 141.612 3.624C141.5 3.928 141.444 4.244 141.444 4.572V4.776C141.444 5.104 141.5 5.424 141.612 5.736C141.732 6.048 141.896 6.324 142.104 6.564C142.32 6.804 142.576 6.996 142.872 7.14C143.168 7.284 143.496 7.356 143.856 7.356C144.216 7.356 144.544 7.284 144.84 7.14C145.144 6.996 145.4 6.804 145.608 6.564C145.816 6.324 145.976 6.048 146.088 5.736C146.208 5.424 146.268 5.104 146.268 4.776V4.572Z" fill="#3A312D"/>
<path d="M138.152 6.636C138.216 6.652 138.264 6.692 138.296 6.756C138.336 6.82 138.348 6.884 138.332 6.948L138.008 8.232C137.952 8.432 137.82 8.532 137.612 8.532H132.176C132.112 8.532 132.052 8.508 131.996 8.46C131.948 8.412 131.924 8.356 131.924 8.292C131.924 8.156 131.972 8.048 132.068 7.968L132.248 7.836C132.344 7.764 132.416 7.672 132.464 7.56C132.52 7.448 132.548 7.332 132.548 7.212V2.136C132.548 1.88 132.448 1.672 132.248 1.512L132.068 1.38C131.972 1.308 131.924 1.204 131.924 1.068C131.924 1.004 131.948 0.948003 131.996 0.900003C132.052 0.852003 132.112 0.828003 132.176 0.828003H134.408C134.48 0.828003 134.54 0.852003 134.588 0.900003C134.636 0.948003 134.664 1.004 134.672 1.068C134.672 1.196 134.62 1.3 134.516 1.38L134.348 1.512C134.148 1.672 134.048 1.88 134.048 2.136V6.84C134.048 6.952 134.084 7.048 134.156 7.128C134.236 7.2 134.332 7.236 134.444 7.236H136.868C137.044 7.236 137.208 7.18 137.36 7.068L137.816 6.708C137.912 6.636 138.024 6.612 138.152 6.636Z" fill="#3A312D"/>
<path d="M129.805 1.884C129.821 1.956 129.809 2.028 129.769 2.1C129.729 2.164 129.673 2.204 129.601 2.22C129.457 2.244 129.333 2.212 129.229 2.124L128.76 1.74C128.6 1.604 128.416 1.536 128.208 1.536H125.785C125.665 1.536 125.56 1.58 125.472 1.668C125.384 1.756 125.34 1.86 125.34 1.98V3.828C125.34 3.868 125.361 3.892 125.401 3.9C125.449 3.908 125.489 3.9 125.521 3.876C125.825 3.628 126.16 3.416 126.528 3.24C126.904 3.064 127.277 2.976 127.645 2.976C127.877 2.976 128.044 3.024 128.148 3.12C128.252 3.216 128.312 3.34 128.328 3.492C128.344 3.636 128.325 3.796 128.269 3.972C128.213 4.14 128.137 4.3 128.041 4.452C127.953 4.596 127.849 4.716 127.729 4.812C127.617 4.908 127.508 4.956 127.404 4.956C127.348 4.956 127.304 4.932 127.272 4.884C127.248 4.836 127.216 4.784 127.176 4.728C127.136 4.664 127.08 4.608 127.008 4.56C126.936 4.512 126.825 4.488 126.673 4.488C126.569 4.488 126.44 4.524 126.288 4.596C126.136 4.66 125.989 4.748 125.845 4.86C125.709 4.964 125.589 5.084 125.485 5.22C125.389 5.348 125.34 5.472 125.34 5.592V7.092C125.34 7.228 125.368 7.356 125.424 7.476C125.488 7.588 125.572 7.688 125.676 7.776L125.868 7.92C125.972 8.008 126.024 8.124 126.024 8.268C126.024 8.34 125.996 8.404 125.94 8.46C125.884 8.508 125.821 8.532 125.749 8.532H123.312C123.241 8.532 123.176 8.508 123.12 8.46C123.064 8.404 123.036 8.34 123.036 8.268C123.036 8.124 123.092 8.008 123.204 7.92L123.384 7.776C123.608 7.6 123.721 7.372 123.721 7.092V1.572C123.721 1.292 123.608 1.064 123.384 0.888004L123.204 0.744004C123.092 0.656004 123.036 0.540004 123.036 0.396004C123.036 0.324004 123.064 0.264004 123.12 0.216004C123.176 0.160004 123.241 0.132004 123.312 0.132004H129.072C129.176 0.132004 129.264 0.164004 129.336 0.228004C129.416 0.292004 129.469 0.372004 129.493 0.468004L129.805 1.884Z" fill="#3A312D"/>
<path d="M116.279 7.968C116.383 8.064 116.431 8.172 116.423 8.292C116.423 8.356 116.399 8.412 116.351 8.46C116.303 8.508 116.243 8.532 116.171 8.532H114.743C114.631 8.532 114.531 8.48 114.443 8.376C114.363 8.264 114.287 8.128 114.215 7.968C114.151 7.8 114.087 7.612 114.023 7.404C113.967 7.196 113.911 6.996 113.855 6.804C113.799 6.604 113.739 6.42 113.675 6.252C113.611 6.084 113.543 5.952 113.471 5.856C113.375 5.736 113.255 5.652 113.111 5.604C112.967 5.548 112.819 5.536 112.667 5.568C112.339 5.648 112.011 5.692 111.683 5.7C111.571 5.708 111.479 5.752 111.407 5.832C111.335 5.904 111.299 5.992 111.299 6.096V7.212C111.299 7.332 111.327 7.448 111.383 7.56C111.439 7.672 111.515 7.764 111.611 7.836L111.779 7.968C111.883 8.056 111.935 8.164 111.935 8.292C111.927 8.356 111.899 8.412 111.851 8.46C111.803 8.508 111.743 8.532 111.671 8.532H109.439C109.375 8.532 109.315 8.508 109.259 8.46C109.211 8.412 109.187 8.356 109.187 8.292C109.187 8.156 109.235 8.048 109.331 7.968L109.511 7.836C109.607 7.764 109.679 7.672 109.727 7.56C109.783 7.448 109.811 7.332 109.811 7.212V2.136C109.811 1.88 109.711 1.672 109.511 1.512L109.331 1.38C109.235 1.308 109.187 1.204 109.187 1.068C109.187 1.004 109.211 0.948003 109.259 0.900003C109.315 0.852003 109.375 0.828003 109.439 0.828003H113.171C113.907 0.828003 114.503 1.012 114.959 1.38C115.415 1.74 115.651 2.272 115.667 2.976C115.667 3.2 115.635 3.4 115.571 3.576C115.515 3.744 115.431 3.904 115.319 4.056C115.207 4.208 115.071 4.352 114.911 4.488C114.759 4.624 114.591 4.772 114.407 4.932C114.383 4.956 114.387 4.968 114.419 4.968C114.555 5.016 114.675 5.112 114.779 5.256C114.883 5.392 114.979 5.556 115.067 5.748C115.163 5.94 115.247 6.144 115.319 6.36C115.399 6.568 115.475 6.768 115.547 6.96C115.619 7.144 115.687 7.308 115.751 7.452C115.823 7.596 115.895 7.688 115.967 7.728L116.279 7.968ZM111.743 4.608C112.007 4.584 112.287 4.544 112.583 4.488C112.879 4.432 113.151 4.348 113.399 4.236C113.655 4.124 113.863 3.976 114.023 3.792C114.191 3.6 114.275 3.36 114.275 3.072C114.275 2.864 114.235 2.7 114.155 2.58C114.083 2.452 113.983 2.356 113.855 2.292C113.735 2.22 113.595 2.172 113.435 2.148C113.283 2.124 113.127 2.112 112.967 2.112H111.707C111.595 2.112 111.499 2.152 111.419 2.232C111.339 2.312 111.299 2.408 111.299 2.52V4.212C111.299 4.332 111.343 4.432 111.431 4.512C111.519 4.592 111.623 4.624 111.743 4.608Z" fill="#3A312D"/>
<path d="M106.84 0.828003C106.904 0.828003 106.96 0.852003 107.008 0.900003C107.056 0.948003 107.084 1.004 107.092 1.068C107.092 1.196 107.04 1.3 106.936 1.38L106.768 1.512C106.568 1.672 106.468 1.88 106.468 2.136V5.784C106.468 6.176 106.392 6.548 106.24 6.9C106.088 7.252 105.88 7.556 105.616 7.812C105.36 8.068 105.056 8.272 104.704 8.424C104.36 8.576 103.992 8.652 103.6 8.652H102.772C102.38 8.652 102.008 8.576 101.656 8.424C101.312 8.272 101.008 8.068 100.744 7.812C100.488 7.556 100.284 7.252 100.132 6.9C99.9803 6.548 99.9043 6.176 99.9043 5.784V2.136C99.9043 1.88 99.8043 1.672 99.6043 1.512L99.4243 1.38C99.3283 1.308 99.2803 1.204 99.2803 1.068C99.2803 1.004 99.3043 0.948003 99.3523 0.900003C99.4083 0.852003 99.4683 0.828003 99.5323 0.828003H101.764C101.836 0.828003 101.896 0.852003 101.944 0.900003C101.992 0.948003 102.02 1.004 102.028 1.068C102.028 1.196 101.976 1.3 101.872 1.38L101.704 1.512C101.496 1.68 101.392 1.888 101.392 2.136V5.556C101.392 5.804 101.44 6.04 101.536 6.264C101.632 6.48 101.76 6.668 101.92 6.828C102.08 6.988 102.268 7.116 102.484 7.212C102.7 7.308 102.932 7.356 103.18 7.356C103.428 7.356 103.66 7.308 103.876 7.212C104.092 7.116 104.28 6.988 104.44 6.828C104.608 6.668 104.736 6.48 104.824 6.264C104.92 6.04 104.968 5.804 104.968 5.556V2.136C104.968 1.88 104.868 1.672 104.668 1.512L104.5 1.38C104.396 1.3 104.344 1.196 104.344 1.068C104.344 1.004 104.368 0.948003 104.416 0.900003C104.472 0.852003 104.532 0.828003 104.596 0.828003H106.84Z" fill="#3A312D"/>
<path d="M93.4103 0C93.9943 0 94.5423 0.112 95.0543 0.336C95.5743 0.552 96.0263 0.852 96.4103 1.236C96.7943 1.62 97.0983 2.068 97.3223 2.58C97.5463 3.092 97.6583 3.64 97.6583 4.224V4.44C97.6583 5.024 97.5463 5.572 97.3223 6.084C97.0983 6.596 96.7943 7.044 96.4103 7.428C96.0263 7.812 95.5743 8.116 95.0543 8.34C94.5423 8.556 93.9943 8.664 93.4103 8.664C92.8263 8.664 92.2743 8.556 91.7543 8.34C91.2343 8.116 90.7823 7.812 90.3983 7.428C90.0143 7.044 89.7103 6.596 89.4863 6.084C89.2623 5.572 89.1503 5.024 89.1503 4.44V4.224C89.1503 3.64 89.2623 3.092 89.4863 2.58C89.7103 2.068 90.0143 1.62 90.3983 1.236C90.7823 0.852 91.2343 0.552 91.7543 0.336C92.2743 0.112 92.8263 0 93.4103 0ZM96.0263 4.224C96.0263 3.864 95.9623 3.516 95.8343 3.18C95.7063 2.836 95.5263 2.536 95.2943 2.28C95.0703 2.016 94.7983 1.804 94.4783 1.644C94.1583 1.484 93.8023 1.404 93.4103 1.404C93.0183 1.404 92.6583 1.484 92.3303 1.644C92.0103 1.804 91.7343 2.016 91.5023 2.28C91.2783 2.536 91.1023 2.836 90.9743 3.18C90.8463 3.516 90.7823 3.864 90.7823 4.224V4.44C90.7823 4.8 90.8463 5.148 90.9743 5.484C91.1023 5.82 91.2783 6.12 91.5023 6.384C91.7343 6.648 92.0103 6.86 92.3303 7.02C92.6583 7.18 93.0183 7.26 93.4103 7.26C93.8023 7.26 94.1583 7.18 94.4783 7.02C94.8063 6.86 95.0823 6.648 95.3063 6.384C95.5383 6.12 95.7143 5.82 95.8343 5.484C95.9623 5.148 96.0263 4.8 96.0263 4.44V4.224Z" fill="#3A312D"/>
<path d="M277.699 19.532C284.059 19.532 287.689 23.552 287.689 30.032C287.689 36.272 284.089 40.532 277.549 40.532H268.639C268.279 40.532 267.949 40.232 267.949 39.872C267.949 39.542 268.099 39.212 268.369 39.002L268.819 38.642C269.359 38.222 269.659 37.592 269.659 36.932V23.132C269.659 22.442 269.359 21.842 268.819 21.422L268.369 21.062C268.099 20.852 267.949 20.522 267.949 20.192C267.949 19.832 268.279 19.532 268.639 19.532H277.699ZM276.739 36.992C281.209 36.992 283.609 34.742 283.609 30.032C283.609 26.192 281.629 23.042 277.159 23.042H274.819C274.219 23.042 273.709 23.552 273.709 24.152V35.912C273.709 36.512 274.219 36.992 274.819 36.992H276.739Z" fill="#3A312D"/>
<path d="M265.944 35.372C266.304 35.462 266.514 35.852 266.424 36.212L265.524 39.722C265.404 40.202 264.984 40.532 264.474 40.532H249.654C249.294 40.532 248.964 40.232 248.964 39.872C248.964 39.542 249.114 39.212 249.384 39.002L249.834 38.642C250.374 38.222 250.674 37.592 250.674 36.932V23.132C250.674 22.442 250.374 21.842 249.834 21.422L249.384 21.062C249.114 20.852 248.964 20.522 248.964 20.192C248.964 19.832 249.294 19.532 249.654 19.532H255.744C256.104 19.532 256.434 19.832 256.434 20.192C256.434 20.522 256.284 20.852 256.044 21.062L255.564 21.422C255.054 21.842 254.724 22.442 254.724 23.132C254.724 23.132 254.724 35.402 254.724 35.942C254.754 36.512 255.234 36.992 255.834 36.992H262.434C262.914 36.992 263.364 36.842 263.754 36.542L265.014 35.552C265.254 35.372 265.614 35.282 265.944 35.372Z" fill="#3A312D"/>
<path d="M236.118 19.202C241.968 19.202 246.738 23.942 246.738 29.762V30.302C246.738 36.122 241.968 40.862 236.118 40.862C230.238 40.862 225.468 36.122 225.468 30.302V29.762C225.468 23.942 230.238 19.202 236.118 19.202ZM242.658 30.302V29.762C242.658 26.162 240.018 22.712 236.118 22.712C232.188 22.712 229.548 26.162 229.548 29.762V30.302C229.548 33.872 232.188 37.352 236.118 37.352C240.048 37.352 242.658 33.872 242.658 30.302Z" fill="#3A312D"/>
<path d="M222.834 30.062C223.194 30.062 223.524 30.362 223.524 30.722C223.524 31.082 223.374 31.382 223.134 31.592L222.654 31.952C222.144 32.372 221.814 33.002 221.814 33.662V36.452C221.814 37.082 221.574 37.652 221.124 38.072C219.174 39.872 216.624 40.862 213.654 40.862C207.624 40.862 202.704 36.122 202.704 30.302V29.762C202.704 23.942 207.624 19.202 213.654 19.202C213.744 19.202 213.834 19.202 213.924 19.202H213.864C215.634 19.232 217.194 19.592 218.604 20.282C218.754 20.342 218.904 20.312 218.964 20.162L219.114 19.862C219.234 19.592 219.504 19.412 219.804 19.352C220.134 19.262 220.464 19.502 220.524 19.832L221.754 25.292C221.814 25.622 221.634 25.952 221.304 26.042C221.004 26.132 220.644 26.072 220.434 25.862C219.114 24.602 217.674 22.802 213.864 22.712C209.934 22.712 206.904 25.832 206.904 29.762V30.302C206.904 33.872 209.724 37.352 213.654 37.352C215.004 37.352 217.764 36.842 217.764 35.042V33.662C217.764 33.002 217.464 32.372 216.924 31.952L216.474 31.592C216.204 31.382 216.054 31.082 216.054 30.722C216.054 30.362 216.384 30.062 216.744 30.062H222.834Z" fill="#3A312D"/>
<path d="M179.785 25.322C179.785 28.322 192.175 27.632 192.175 34.112C192.175 38.822 188.395 40.862 183.205 40.862C175.465 40.862 174.535 35.162 175.525 34.412C175.615 34.352 175.735 34.292 175.825 34.292C176.755 34.292 177.895 37.352 183.205 37.352C185.635 37.352 187.945 36.962 187.945 34.442C187.945 31.172 175.555 32.012 175.555 25.322C175.555 22.412 178.375 19.202 184.015 19.202C186.115 19.202 187.345 19.592 188.755 20.282C188.905 20.342 189.055 20.312 189.115 20.162L189.265 19.862C189.385 19.592 189.655 19.412 189.955 19.352C190.285 19.262 190.615 19.502 190.675 19.832L191.905 25.292C191.965 25.622 191.785 25.952 191.455 26.042C191.155 26.132 190.795 26.072 190.585 25.862C189.265 24.602 187.705 22.712 184.015 22.712C181.585 22.712 179.785 23.822 179.785 25.322Z" fill="#3A312D"/>
<path d="M173.727 39.002C173.997 39.212 174.147 39.542 174.117 39.872C174.117 40.232 173.817 40.532 173.427 40.532H167.337C166.977 40.532 166.677 40.232 166.647 39.872C166.647 39.542 166.797 39.212 167.067 39.002L167.427 38.732C167.787 38.432 167.937 37.922 167.757 37.472C167.757 37.472 167.487 36.752 167.247 36.182C167.037 35.672 166.617 35.282 166.077 35.192C164.997 34.952 163.917 34.832 162.807 34.832C161.697 34.832 160.557 34.952 159.447 35.192C158.907 35.282 158.457 35.672 158.277 36.182C158.217 36.272 158.187 36.362 158.187 36.392L157.737 37.472C157.557 37.922 157.707 38.432 158.097 38.732L158.457 39.002C158.697 39.212 158.847 39.542 158.847 39.872C158.847 40.232 158.517 40.532 158.157 40.532H152.067C151.707 40.532 151.377 40.232 151.377 39.872C151.377 39.542 151.527 39.212 151.797 39.002L152.757 38.252C153.057 38.012 153.297 37.712 153.417 37.352L160.377 20.222C160.527 19.802 160.947 19.532 161.367 19.532H164.127C164.577 19.532 164.967 19.802 165.147 20.222L172.077 37.352C172.227 37.712 172.437 38.012 172.737 38.252L173.727 39.002ZM165.087 31.682C165.297 31.712 165.447 31.502 165.357 31.322C164.337 28.742 163.017 25.532 163.017 25.532C162.927 25.292 162.597 25.292 162.507 25.532C162.507 25.532 161.187 28.682 160.137 31.322C160.077 31.502 160.227 31.712 160.407 31.682C161.277 31.532 161.997 31.472 162.747 31.472C163.497 31.472 164.247 31.532 165.087 31.682Z" fill="#3A312D"/>
<path d="M130.863 19.532C137.223 19.532 140.853 23.552 140.853 30.032C140.853 36.272 137.253 40.532 130.713 40.532H121.803C121.443 40.532 121.113 40.232 121.113 39.872C121.113 39.542 121.263 39.212 121.533 39.002L121.983 38.642C122.523 38.222 122.823 37.592 122.823 36.932V23.132C122.823 22.442 122.523 21.842 121.983 21.422L121.533 21.062C121.263 20.852 121.113 20.522 121.113 20.192C121.113 19.832 121.443 19.532 121.803 19.532H130.863ZM129.903 36.992C134.373 36.992 136.773 34.742 136.773 30.032C136.773 26.192 134.793 23.042 130.323 23.042H127.983C127.383 23.042 126.873 23.552 126.873 24.152V35.912C126.873 36.512 127.383 36.992 127.983 36.992H129.903Z" fill="#3A312D"/>
<path d="M108.237 19.202C114.087 19.202 118.857 23.942 118.857 29.762V30.302C118.857 36.122 114.087 40.862 108.237 40.862C102.357 40.862 97.5872 36.122 97.5872 30.302V29.762C97.5872 23.942 102.357 19.202 108.237 19.202ZM114.777 30.302V29.762C114.777 26.162 112.137 22.712 108.237 22.712C104.307 22.712 101.667 26.162 101.667 29.762V30.302C101.667 33.872 104.307 37.352 108.237 37.352C112.167 37.352 114.777 33.872 114.777 30.302Z" fill="#3A312D"/>
<path d="M84.7411 19.202C90.5911 19.202 95.3611 23.942 95.3611 29.762V30.302C95.3611 36.122 90.5911 40.862 84.7411 40.862C78.8611 40.862 74.0911 36.122 74.0911 30.302V29.762C74.0911 23.942 78.8611 19.202 84.7411 19.202ZM91.2811 30.302V29.762C91.2811 26.162 88.6411 22.712 84.7411 22.712C80.8111 22.712 78.1711 26.162 78.1711 29.762V30.302C78.1711 33.872 80.8111 37.352 84.7411 37.352C88.6711 37.352 91.2811 33.872 91.2811 30.302Z" fill="#3A312D"/>
<path d="M71.4574 30.062C71.8174 30.062 72.1474 30.362 72.1474 30.722C72.1474 31.082 71.9974 31.382 71.7574 31.592L71.2774 31.952C70.7674 32.372 70.4374 33.002 70.4374 33.662V36.452C70.4374 37.082 70.1974 37.652 69.7474 38.072C67.7974 39.872 65.2474 40.862 62.2774 40.862C56.2474 40.862 51.3274 36.122 51.3274 30.302V29.762C51.3274 23.942 56.2474 19.202 62.2774 19.202C62.3674 19.202 62.4574 19.202 62.5474 19.202H62.4874C64.2574 19.232 65.8174 19.592 67.2274 20.282C67.3774 20.342 67.5274 20.312 67.5874 20.162L67.7374 19.862C67.8574 19.592 68.1274 19.412 68.4274 19.352C68.7574 19.262 69.0874 19.502 69.1474 19.832L70.3774 25.292C70.4374 25.622 70.2574 25.952 69.9274 26.042C69.6274 26.132 69.2674 26.072 69.0574 25.862C67.7374 24.602 66.2974 22.802 62.4874 22.712C58.5574 22.712 55.5274 25.832 55.5274 29.762V30.302C55.5274 33.872 58.3474 37.352 62.2774 37.352C63.6274 37.352 66.3874 36.842 66.3874 35.042V33.662C66.3874 33.002 66.0874 32.372 65.5474 31.952L65.0974 31.592C64.8274 31.382 64.6774 31.082 64.6774 30.722C64.6774 30.362 65.0074 30.062 65.3674 30.062H71.4574Z" fill="#3A312D"/>
<path d="M28.4077 25.322C28.4077 28.322 40.7977 27.632 40.7977 34.112C40.7977 38.822 37.0177 40.862 31.8277 40.862C24.0877 40.862 23.1577 35.162 24.1477 34.412C24.2377 34.352 24.3577 34.292 24.4477 34.292C25.3777 34.292 26.5177 37.352 31.8277 37.352C34.2577 37.352 36.5677 36.962 36.5677 34.442C36.5677 31.172 24.1777 32.012 24.1777 25.322C24.1777 22.412 26.9977 19.202 32.6377 19.202C34.7377 19.202 35.9677 19.592 37.3777 20.282C37.5277 20.342 37.6777 20.312 37.7377 20.162L37.8877 19.862C38.0077 19.592 38.2777 19.412 38.5777 19.352C38.9077 19.262 39.2377 19.502 39.2977 19.832L40.5277 25.292C40.5877 25.622 40.4077 25.952 40.0777 26.042C39.7777 26.132 39.4177 26.072 39.2077 25.862C37.8877 24.602 36.3277 22.712 32.6377 22.712C30.2077 22.712 28.4077 23.822 28.4077 25.322Z" fill="#3A312D"/>
<path d="M22.35 39.002C22.62 39.212 22.77 39.542 22.74 39.872C22.74 40.232 22.44 40.532 22.05 40.532H15.96C15.6 40.532 15.3 40.232 15.27 39.872C15.27 39.542 15.42 39.212 15.69 39.002L16.05 38.732C16.41 38.432 16.56 37.922 16.38 37.472C16.38 37.472 16.11 36.752 15.87 36.182C15.66 35.672 15.24 35.282 14.7 35.192C13.62 34.952 12.54 34.832 11.43 34.832C10.32 34.832 9.18 34.952 8.07 35.192C7.53 35.282 7.08 35.672 6.9 36.182C6.84 36.272 6.81 36.362 6.81 36.392L6.36 37.472C6.18 37.922 6.33 38.432 6.72 38.732L7.08 39.002C7.32 39.212 7.47 39.542 7.47 39.872C7.47 40.232 7.14 40.532 6.78 40.532H0.69C0.33 40.532 0 40.232 0 39.872C0 39.542 0.15 39.212 0.42 39.002L1.38 38.252C1.68 38.012 1.92 37.712 2.04 37.352L9 20.222C9.15 19.802 9.57 19.532 9.99 19.532H12.75C13.2 19.532 13.59 19.802 13.77 20.222L20.7 37.352C20.85 37.712 21.06 38.012 21.36 38.252L22.35 39.002ZM13.71 31.682C13.92 31.712 14.07 31.502 13.98 31.322C12.96 28.742 11.64 25.532 11.64 25.532C11.55 25.292 11.22 25.292 11.13 25.532C11.13 25.532 9.81 28.682 8.76 31.322C8.7 31.502 8.85 31.712 9.03 31.682C9.9 31.532 10.62 31.472 11.37 31.472C12.12 31.472 12.87 31.532 13.71 31.682Z" fill="#3A312D"/>
</svg>
