<svg width="133" height="71" viewBox="0 0 133 71" fill="none" xmlns="http://www.w3.org/2000/svg">
<path d="M113.819 2.952C113.819 4.044 118.379 3.804 118.379 6.18C118.379 7.908 116.987 8.652 115.079 8.652C112.235 8.652 111.899 6.564 112.259 6.288C112.295 6.264 112.331 6.252 112.367 6.252C112.715 6.252 113.123 7.356 115.079 7.356C115.979 7.356 116.819 7.224 116.819 6.3C116.819 5.088 112.271 5.4 112.271 2.952C112.271 1.884 113.303 0.695999 115.379 0.695999C116.147 0.695999 116.603 0.839999 117.119 1.104C117.167 1.128 117.227 1.104 117.251 1.056L117.299 0.947999C117.359 0.851999 117.443 0.779999 117.563 0.756C117.683 0.731999 117.803 0.803999 117.827 0.936L118.271 2.94C118.295 3.06 118.223 3.18 118.103 3.216C117.995 3.24 117.875 3.228 117.791 3.144C117.299 2.676 116.723 1.992 115.379 1.992C114.491 1.992 113.819 2.4 113.819 2.952Z" fill="#3A312D"/>
<path d="M110.004 7.968C110.1 8.052 110.16 8.16 110.148 8.292C110.148 8.424 110.04 8.532 109.896 8.532H107.664C107.532 8.532 107.412 8.424 107.412 8.292C107.412 8.16 107.46 8.052 107.556 7.968L107.736 7.836C107.928 7.692 108.036 7.452 108.036 7.212V2.136C108.036 1.896 107.928 1.668 107.736 1.512L107.556 1.38C107.46 1.308 107.412 1.188 107.412 1.068C107.412 0.936003 107.532 0.828003 107.664 0.828003H109.896C110.04 0.828003 110.148 0.936003 110.148 1.068C110.16 1.188 110.1 1.308 110.004 1.38L109.836 1.512C109.644 1.668 109.524 1.896 109.524 2.136V7.212C109.524 7.452 109.644 7.692 109.836 7.836L110.004 7.968Z" fill="#3A312D"/>
<path d="M100.666 7.968C100.762 8.052 100.822 8.16 100.81 8.292C100.81 8.424 100.702 8.532 100.558 8.532H99.1303C98.4703 8.532 98.3023 6.42 97.8583 5.856C97.6663 5.616 97.3543 5.508 97.0543 5.568C96.7423 5.64 96.4063 5.688 96.0703 5.7C95.8543 5.712 95.6863 5.892 95.6863 6.096V7.212C95.6863 7.452 95.8063 7.692 95.9983 7.836L96.1663 7.968C96.2623 8.052 96.3223 8.16 96.3223 8.292C96.3103 8.424 96.2023 8.532 96.0583 8.532H93.8263C93.6943 8.532 93.5743 8.424 93.5743 8.292C93.5743 8.16 93.6223 8.052 93.7183 7.968L93.8983 7.836C94.0903 7.692 94.1983 7.452 94.1983 7.212V2.136C94.1983 1.896 94.0903 1.668 93.8983 1.512L93.7183 1.38C93.6223 1.308 93.5743 1.188 93.5743 1.068C93.5743 0.936003 93.6943 0.828003 93.8263 0.828003H97.5583C99.0223 0.828003 100.03 1.572 100.054 2.976C100.054 3.876 99.5383 4.308 98.7943 4.932C98.7823 4.944 98.7823 4.968 98.8063 4.968C99.5983 5.244 99.9103 7.464 100.354 7.728L100.666 7.968ZM96.1303 4.608C97.1863 4.512 98.6623 4.224 98.6623 3.072C98.6623 2.244 97.9903 2.112 97.3543 2.112H96.0943C95.8663 2.112 95.6863 2.292 95.6863 2.52V4.212C95.6863 4.452 95.8903 4.632 96.1303 4.608Z" fill="#3A312D"/>
<path d="M91.407 6.636C91.539 6.672 91.611 6.816 91.587 6.948L91.263 8.232C91.215 8.412 91.059 8.532 90.867 8.532H85.431C85.299 8.532 85.179 8.424 85.179 8.292C85.179 8.16 85.227 8.052 85.323 7.968L85.503 7.836C85.695 7.692 85.803 7.452 85.803 7.212V2.136C85.803 1.896 85.695 1.668 85.503 1.512L85.323 1.38C85.227 1.308 85.179 1.188 85.179 1.068C85.179 0.936003 85.299 0.828003 85.431 0.828003H90.711C90.903 0.828003 91.059 0.948003 91.107 1.14L91.383 2.436C91.419 2.568 91.335 2.7 91.203 2.736C91.083 2.76 90.963 2.736 90.867 2.652L90.435 2.304C90.291 2.184 90.111 2.112 89.931 2.112H87.699C87.471 2.112 87.303 2.292 87.303 2.508V4.212C87.303 4.296 87.399 4.344 87.459 4.284C88.011 3.828 88.743 3.468 89.403 3.468C90.663 3.468 89.763 5.268 89.187 5.268C88.959 5.268 89.079 4.836 88.515 4.836C88.107 4.836 87.303 5.412 87.303 5.904V6.84C87.303 7.056 87.483 7.236 87.699 7.236H90.123C90.291 7.236 90.471 7.176 90.615 7.068L91.071 6.708C91.167 6.636 91.287 6.612 91.407 6.636Z" fill="#3A312D"/>
<path d="M82.8661 0.828003C82.9861 0.828003 83.0821 0.936003 83.0821 1.068C83.0821 1.188 83.0341 1.308 82.9501 1.38L82.6621 1.656C82.5661 1.752 82.4941 1.86 82.4461 1.992L80.4301 8.28C80.3821 8.436 80.2501 8.532 80.1181 8.532H78.8821C78.7501 8.532 78.6301 8.436 78.5701 8.28L77.5621 4.44C77.5381 4.344 77.3941 4.344 77.3701 4.44L76.3501 8.28C76.3021 8.436 76.1821 8.532 76.0501 8.532H74.8141C74.6701 8.532 74.5501 8.436 74.5021 8.28L72.4741 1.992C72.4381 1.86 72.3661 1.752 72.2701 1.656L71.9701 1.38C71.8981 1.308 71.8501 1.188 71.8501 1.068C71.8501 0.936003 71.9461 0.828003 72.0661 0.828003H74.1181C74.2381 0.828003 74.3341 0.936003 74.3341 1.068C74.3341 1.188 74.2861 1.308 74.2141 1.38L74.1061 1.488C73.9861 1.596 73.9381 1.776 73.9981 1.944L75.3541 6.324C75.3781 6.408 75.4741 6.408 75.5101 6.324L76.5421 2.928C76.5901 2.76 76.7461 2.652 76.9261 2.652H78.0061C78.1861 2.652 78.3421 2.76 78.3901 2.928L79.4221 6.324C79.4461 6.408 79.5541 6.408 79.5781 6.324L80.9341 1.944C80.9821 1.776 80.9461 1.596 80.8261 1.488L80.7181 1.38C80.6341 1.308 80.5981 1.188 80.5981 1.068C80.5981 0.936003 80.6941 0.828003 80.8021 0.828003H82.8661Z" fill="#3A312D"/>
<path d="M66.7336 0.695999C68.8936 0.695999 70.6456 2.436 70.6456 4.572V4.776C70.6456 6.912 68.8936 8.652 66.7336 8.652C64.5856 8.652 62.8336 6.912 62.8336 4.776V4.572C62.8336 2.436 64.5856 0.695999 66.7336 0.695999ZM69.1456 4.776V4.572C69.1456 3.264 68.1736 1.992 66.7336 1.992C65.3056 1.992 64.3216 3.264 64.3216 4.572V4.776C64.3216 6.096 65.3056 7.356 66.7336 7.356C68.1856 7.356 69.1456 6.096 69.1456 4.776Z" fill="#3A312D"/>
<path d="M61.0299 6.636C61.1619 6.672 61.2459 6.816 61.2099 6.948L60.8859 8.232C60.8379 8.412 60.6819 8.532 60.4899 8.532H55.0539C54.9219 8.532 54.8019 8.424 54.8019 8.292C54.8019 8.16 54.8499 8.052 54.9459 7.968L55.1259 7.836C55.3179 7.692 55.4259 7.452 55.4259 7.212V2.136C55.4259 1.896 55.3179 1.668 55.1259 1.512L54.9459 1.38C54.8499 1.308 54.8019 1.188 54.8019 1.068C54.8019 0.936003 54.9219 0.828003 55.0539 0.828003H57.2859C57.4299 0.828003 57.5379 0.936003 57.5499 1.068C57.5499 1.188 57.4899 1.308 57.3939 1.38L57.2259 1.512C57.0339 1.668 56.9259 1.896 56.9259 2.136V6.84C56.9259 7.056 57.1059 7.236 57.3219 7.236H59.7459C59.9139 7.236 60.0939 7.176 60.2379 7.068L60.6939 6.708C60.7899 6.636 60.9099 6.612 61.0299 6.636Z" fill="#3A312D"/>
<path d="M52.6824 1.884C52.7064 2.028 52.6224 2.184 52.4784 2.22C52.3464 2.244 52.2144 2.22 52.1064 2.124L51.6384 1.74C51.4824 1.608 51.2904 1.536 51.0864 1.536H48.6624C48.4224 1.536 48.2184 1.74 48.2184 1.98C48.2184 2.088 48.2184 3.828 48.2184 3.828C48.2184 3.9 48.3384 3.924 48.3984 3.876C48.9984 3.384 49.7904 2.976 50.5224 2.976C51.8904 2.976 50.9064 4.956 50.2824 4.956C50.0424 4.956 50.1624 4.488 49.5504 4.488C49.1304 4.488 48.2184 5.1 48.2184 5.592V7.092C48.2184 7.356 48.3504 7.608 48.5544 7.776L48.7464 7.92C48.8424 8.004 48.9024 8.136 48.9024 8.268C48.9024 8.412 48.7704 8.532 48.6264 8.532H46.1904C46.0464 8.532 45.9144 8.412 45.9144 8.268C45.9144 8.136 45.9744 8.004 46.0824 7.92L46.2624 7.776C46.4784 7.608 46.5984 7.356 46.5984 7.092V1.572C46.5984 1.296 46.4784 1.056 46.2624 0.888004L46.0824 0.744004C45.9744 0.660004 45.9144 0.528004 45.9144 0.396004C45.9144 0.252004 46.0464 0.132004 46.1904 0.132004H51.9504C52.1544 0.132004 52.3224 0.276004 52.3704 0.468004L52.6824 1.884Z" fill="#3A312D"/>
<path d="M39.1569 7.968C39.2529 8.052 39.3129 8.16 39.3009 8.292C39.3009 8.424 39.1929 8.532 39.0489 8.532H37.6209C36.9609 8.532 36.7929 6.42 36.3489 5.856C36.1569 5.616 35.8449 5.508 35.5449 5.568C35.2329 5.64 34.8969 5.688 34.5609 5.7C34.3449 5.712 34.1769 5.892 34.1769 6.096V7.212C34.1769 7.452 34.2969 7.692 34.4889 7.836L34.6569 7.968C34.7529 8.052 34.8129 8.16 34.8129 8.292C34.8009 8.424 34.6929 8.532 34.5489 8.532H32.3169C32.1849 8.532 32.0649 8.424 32.0649 8.292C32.0649 8.16 32.1129 8.052 32.2089 7.968L32.3889 7.836C32.5809 7.692 32.6889 7.452 32.6889 7.212V2.136C32.6889 1.896 32.5809 1.668 32.3889 1.512L32.2089 1.38C32.1129 1.308 32.0649 1.188 32.0649 1.068C32.0649 0.936003 32.1849 0.828003 32.3169 0.828003H36.0489C37.5129 0.828003 38.5209 1.572 38.5449 2.976C38.5449 3.876 38.0289 4.308 37.2849 4.932C37.2729 4.944 37.2729 4.968 37.2969 4.968C38.0889 5.244 38.4009 7.464 38.8449 7.728L39.1569 7.968ZM34.6209 4.608C35.6769 4.512 37.1529 4.224 37.1529 3.072C37.1529 2.244 36.4809 2.112 35.8449 2.112H34.5849C34.3569 2.112 34.1769 2.292 34.1769 2.52V4.212C34.1769 4.452 34.3809 4.632 34.6209 4.608Z" fill="#3A312D"/>
<path d="M29.7182 0.828003C29.8502 0.828003 29.9582 0.936003 29.9702 1.068C29.9702 1.188 29.9102 1.308 29.8142 1.38L29.6462 1.512C29.4542 1.668 29.3462 1.896 29.3462 2.136V5.784C29.3462 7.368 28.0502 8.652 26.4782 8.652H25.6502C24.0782 8.652 22.7822 7.368 22.7822 5.784V2.136C22.7822 1.896 22.6742 1.668 22.4822 1.512L22.3022 1.38C22.2062 1.308 22.1582 1.188 22.1582 1.068C22.1582 0.936003 22.2782 0.828003 22.4102 0.828003H24.6422C24.7862 0.828003 24.8942 0.936003 24.9062 1.068C24.9062 1.188 24.8462 1.308 24.7502 1.38L24.5822 1.512C24.3902 1.668 24.2702 1.896 24.2702 2.136V5.556C24.2702 6.552 25.0742 7.356 26.0582 7.356C27.0542 7.356 27.8462 6.552 27.8462 5.556V2.136C27.8462 1.896 27.7382 1.668 27.5462 1.512L27.3782 1.38C27.2822 1.308 27.2222 1.188 27.2222 1.068C27.2222 0.936003 27.3422 0.828003 27.4742 0.828003H29.7182Z" fill="#3A312D"/>
<path d="M16.2882 0C18.6282 0 20.5362 1.896 20.5362 4.224V4.44C20.5362 6.768 18.6282 8.664 16.2882 8.664C13.9362 8.664 12.0282 6.768 12.0282 4.44V4.224C12.0282 1.896 13.9362 0 16.2882 0ZM18.9042 4.44V4.224C18.9042 2.784 17.8482 1.404 16.2882 1.404C14.7162 1.404 13.6602 2.784 13.6602 4.224V4.44C13.6602 5.868 14.7162 7.26 16.2882 7.26C17.8602 7.26 18.9042 5.868 18.9042 4.44Z" fill="#3A312D"/>
<path d="M121.161 51.272C127.011 51.272 130.341 54.962 130.341 60.902C130.341 66.632 127.041 70.532 121.041 70.532H112.851C112.521 70.532 112.221 70.262 112.221 69.932C112.221 69.602 112.341 69.332 112.581 69.122L113.031 68.792C113.511 68.432 113.781 67.832 113.781 67.232V54.542C113.781 53.942 113.511 53.372 113.031 52.982L112.581 52.652C112.341 52.472 112.221 52.172 112.221 51.872C112.221 51.542 112.521 51.272 112.851 51.272H121.161ZM120.291 67.292C124.401 67.292 126.591 65.222 126.591 60.902C126.591 57.362 124.791 54.482 120.681 54.482H118.521C117.951 54.482 117.531 54.932 117.531 55.502V66.302C117.531 66.842 117.951 67.292 118.521 67.292H120.291Z" fill="#3A312D"/>
<path d="M110.243 65.792C110.573 65.882 110.783 66.242 110.693 66.572L109.883 69.782C109.763 70.232 109.373 70.532 108.893 70.532H95.3029C94.9729 70.532 94.6729 70.262 94.6729 69.932C94.6729 69.602 94.7929 69.332 95.0329 69.122L95.4828 68.792C95.9628 68.432 96.2329 67.832 96.2329 67.232V54.542C96.2329 53.942 95.9628 53.372 95.4828 52.982L95.0329 52.652C94.7929 52.472 94.6729 52.172 94.6729 51.872C94.6729 51.542 94.9729 51.272 95.3029 51.272H100.883C101.243 51.272 101.513 51.542 101.543 51.872C101.543 52.172 101.393 52.472 101.153 52.652L100.733 52.982C100.253 53.372 99.9829 53.942 99.9829 54.542V66.302C99.9829 66.842 100.433 67.292 100.973 67.292H107.033C107.453 67.292 107.903 67.142 108.263 66.872L109.403 65.972C109.643 65.792 109.943 65.732 110.243 65.792Z" fill="#3A312D"/>
<path d="M82.6252 50.942C88.0252 50.942 92.4052 55.292 92.4052 60.632V61.142C92.4052 66.482 88.0252 70.832 82.6252 70.832C77.2552 70.832 72.8752 66.482 72.8752 61.142V60.632C72.8752 55.292 77.2552 50.942 82.6252 50.942ZM88.6552 61.142V60.632C88.6552 57.362 86.2252 54.182 82.6252 54.182C79.0552 54.182 76.5952 57.362 76.5952 60.632V61.142C76.5952 64.442 79.0552 67.592 82.6252 67.592C86.2552 67.592 88.6552 64.442 88.6552 61.142Z" fill="#3A312D"/>
<path d="M70.2416 60.062C70.6016 60.062 70.9316 60.362 70.9316 60.722C70.9316 61.082 70.7816 61.382 70.5416 61.592L70.0616 61.952C69.5516 62.372 69.2216 63.002 69.2216 63.662V66.452C69.2216 67.082 68.9816 67.652 68.5316 68.072C66.5816 69.872 64.0316 70.862 61.0616 70.862C55.0316 70.862 50.1116 66.122 50.1116 60.302V59.762C50.1116 53.942 55.0316 49.202 61.0616 49.202C61.1516 49.202 61.2416 49.202 61.3316 49.202H61.2716C63.0416 49.232 64.6016 49.592 66.0116 50.282C66.1616 50.342 66.3116 50.312 66.3716 50.162L66.5216 49.862C66.6416 49.592 66.9116 49.412 67.2116 49.352C67.5416 49.262 67.8716 49.502 67.9316 49.832L69.1616 55.292C69.2216 55.622 69.0416 55.952 68.7116 56.042C68.4116 56.132 68.0516 56.072 67.8416 55.862C66.5216 54.602 65.0816 52.802 61.2716 52.712C57.3416 52.712 54.3116 55.832 54.3116 59.762V60.302C54.3116 63.872 57.1316 67.352 61.0616 67.352C62.4116 67.352 65.1716 66.842 65.1716 65.042V63.662C65.1716 63.002 64.8716 62.372 64.3316 61.952L63.8816 61.592C63.6116 61.382 63.4616 61.082 63.4616 60.722C63.4616 60.362 63.7916 60.062 64.1516 60.062H70.2416Z" fill="#3A312D"/>
<path d="M28.208 56.582C28.208 59.312 39.608 58.712 39.608 64.652C39.608 68.972 36.128 70.832 31.358 70.832C24.248 70.832 23.408 65.612 24.308 64.922C24.398 64.862 24.488 64.832 24.578 64.832C25.448 64.832 26.468 67.592 31.358 67.592C33.608 67.592 35.708 67.262 35.708 64.952C35.708 61.922 24.338 62.702 24.338 56.582C24.338 53.912 26.918 50.942 32.108 50.942C34.028 50.942 35.168 51.302 36.458 51.962C36.578 52.022 36.728 51.962 36.788 51.842L36.908 51.572C37.058 51.332 37.268 51.152 37.568 51.092C37.868 51.032 38.168 51.212 38.228 51.542L39.338 56.552C39.398 56.852 39.218 57.152 38.918 57.242C38.648 57.302 38.348 57.272 38.138 57.062C36.908 55.892 35.468 54.182 32.108 54.182C29.888 54.182 28.208 55.202 28.208 56.582Z" fill="#3A312D"/>
<path d="M22.6147 69.122C22.8547 69.332 22.9747 69.602 22.9747 69.932C22.9747 70.262 22.6747 70.532 22.3447 70.532H16.7647C16.4047 70.532 16.1347 70.262 16.1347 69.932C16.1047 69.602 16.2547 69.332 16.4947 69.122L16.8247 68.882C17.1547 68.612 17.3047 68.132 17.1247 67.712C17.1247 67.712 16.8847 67.082 16.6447 66.542C16.4647 66.062 16.0747 65.732 15.5647 65.612C14.5747 65.402 13.5547 65.282 12.5347 65.282C11.5147 65.282 10.4947 65.402 9.47473 65.612C8.99473 65.732 8.60473 66.062 8.42473 66.542C8.36473 66.632 8.33473 66.692 8.33473 66.722L7.94473 67.712C7.76473 68.132 7.91473 68.612 8.24473 68.882L8.57473 69.122C8.81473 69.332 8.96473 69.602 8.96473 69.932C8.93473 70.262 8.66473 70.532 8.30473 70.532H2.72473C2.39473 70.532 2.09473 70.262 2.09473 69.932C2.09473 69.602 2.21473 69.332 2.45473 69.122L3.35473 68.432C3.62473 68.222 3.83473 67.922 3.98473 67.622L10.3447 51.872C10.4947 51.512 10.8547 51.272 11.2747 51.272H13.7947C14.2147 51.272 14.5747 51.512 14.7247 51.872L21.0847 67.622C21.2347 67.922 21.4447 68.222 21.7147 68.432L22.6147 69.122ZM14.6647 62.432C14.8747 62.462 14.9947 62.252 14.9347 62.072C13.9747 59.702 12.7747 56.762 12.7747 56.762C12.6847 56.552 12.3847 56.552 12.2947 56.762C12.2947 56.762 11.0947 59.642 10.1347 62.072C10.0747 62.252 10.1947 62.462 10.4047 62.432C11.1847 62.282 11.8747 62.222 12.5347 62.222C13.2247 62.222 13.8847 62.282 14.6647 62.432Z" fill="#3A312D"/>
<path d="M123.256 21.272C129.106 21.272 132.436 24.962 132.436 30.902C132.436 36.632 129.136 40.532 123.136 40.532H114.946C114.616 40.532 114.316 40.262 114.316 39.932C114.316 39.602 114.436 39.332 114.676 39.122L115.126 38.792C115.606 38.432 115.876 37.832 115.876 37.232V24.542C115.876 23.942 115.606 23.372 115.126 22.982L114.676 22.652C114.436 22.472 114.316 22.172 114.316 21.872C114.316 21.542 114.616 21.272 114.946 21.272H123.256ZM122.386 37.292C126.496 37.292 128.686 35.222 128.686 30.902C128.686 27.362 126.886 24.482 122.776 24.482H120.616C120.046 24.482 119.626 24.932 119.626 25.502V36.302C119.626 36.842 120.046 37.292 120.616 37.292H122.386Z" fill="#3A312D"/>
<path d="M102.298 20.942C107.698 20.942 112.078 25.292 112.078 30.632V31.142C112.078 36.482 107.698 40.832 102.298 40.832C96.9281 40.832 92.5481 36.482 92.5481 31.142V30.632C92.5481 25.292 96.9281 20.942 102.298 20.942ZM108.328 31.142V30.632C108.328 27.362 105.898 24.182 102.298 24.182C98.7281 24.182 96.2681 27.362 96.2681 30.632V31.142C96.2681 34.442 98.7281 37.592 102.298 37.592C105.928 37.592 108.328 34.442 108.328 31.142Z" fill="#3A312D"/>
<path d="M80.5305 20.942C85.9305 20.942 90.3105 25.292 90.3105 30.632V31.142C90.3105 36.482 85.9305 40.832 80.5305 40.832C75.1605 40.832 70.7805 36.482 70.7805 31.142V30.632C70.7805 25.292 75.1605 20.942 80.5305 20.942ZM86.5605 31.142V30.632C86.5605 27.362 84.1305 24.182 80.5305 24.182C76.9605 24.182 74.5005 27.362 74.5005 30.632V31.142C74.5005 34.442 76.9605 37.592 80.5305 37.592C84.1605 37.592 86.5605 34.442 86.5605 31.142Z" fill="#3A312D"/>
<path d="M68.1468 30.062C68.5068 30.062 68.8368 30.362 68.8368 30.722C68.8368 31.082 68.6868 31.382 68.4468 31.592L67.9669 31.952C67.4568 32.372 67.1268 33.002 67.1268 33.662V36.452C67.1268 37.082 66.8868 37.652 66.4368 38.072C64.4868 39.872 61.9368 40.862 58.9668 40.862C52.9368 40.862 48.0168 36.122 48.0168 30.302V29.762C48.0168 23.942 52.9368 19.202 58.9668 19.202C59.0568 19.202 59.1468 19.202 59.2368 19.202H59.1768C60.9468 19.232 62.5068 19.592 63.9168 20.282C64.0668 20.342 64.2168 20.312 64.2768 20.162L64.4268 19.862C64.5468 19.592 64.8168 19.412 65.1168 19.352C65.4468 19.262 65.7768 19.502 65.8368 19.832L67.0668 25.292C67.1268 25.622 66.9468 25.952 66.6168 26.042C66.3168 26.132 65.9568 26.072 65.7468 25.862C64.4268 24.602 62.9868 22.802 59.1768 22.712C55.2468 22.712 52.2168 25.832 52.2168 29.762V30.302C52.2168 33.872 55.0368 37.352 58.9668 37.352C60.3168 37.352 63.0768 36.842 63.0768 35.042V33.662C63.0768 33.002 62.7768 32.372 62.2368 31.952L61.7868 31.592C61.5168 31.382 61.3668 31.082 61.3668 30.722C61.3668 30.362 61.6968 30.062 62.0568 30.062H68.1468Z" fill="#3A312D"/>
<path d="M26.1133 26.582C26.1133 29.312 37.5133 28.712 37.5133 34.652C37.5133 38.972 34.0333 40.832 29.2633 40.832C22.1533 40.832 21.3133 35.612 22.2133 34.922C22.3033 34.862 22.3933 34.832 22.4833 34.832C23.3533 34.832 24.3733 37.592 29.2633 37.592C31.5133 37.592 33.6133 37.262 33.6133 34.952C33.6133 31.922 22.2433 32.702 22.2433 26.582C22.2433 23.912 24.8233 20.942 30.0133 20.942C31.9333 20.942 33.0733 21.302 34.3633 21.962C34.4833 22.022 34.6333 21.962 34.6933 21.842L34.8133 21.572C34.9633 21.332 35.1733 21.152 35.4733 21.092C35.7733 21.032 36.0733 21.212 36.1333 21.542L37.2433 26.552C37.3033 26.852 37.1233 27.152 36.8233 27.242C36.5533 27.302 36.2533 27.272 36.0433 27.062C34.8133 25.892 33.3733 24.182 30.0133 24.182C27.7933 24.182 26.1133 25.202 26.1133 26.582Z" fill="#3A312D"/>
<path d="M20.52 39.122C20.76 39.332 20.88 39.602 20.88 39.932C20.88 40.262 20.58 40.532 20.25 40.532H14.67C14.31 40.532 14.04 40.262 14.04 39.932C14.01 39.602 14.16 39.332 14.4 39.122L14.73 38.882C15.06 38.612 15.21 38.132 15.03 37.712C15.03 37.712 14.79 37.082 14.55 36.542C14.37 36.062 13.98 35.732 13.47 35.612C12.48 35.402 11.46 35.282 10.44 35.282C9.42 35.282 8.4 35.402 7.38 35.612C6.9 35.732 6.51 36.062 6.33 36.542C6.27 36.632 6.24 36.692 6.24 36.722L5.85 37.712C5.67 38.132 5.82 38.612 6.15 38.882L6.48 39.122C6.72 39.332 6.87 39.602 6.87 39.932C6.84 40.262 6.57 40.532 6.21 40.532H0.63C0.3 40.532 0 40.262 0 39.932C0 39.602 0.12 39.332 0.36 39.122L1.26 38.432C1.53 38.222 1.74 37.922 1.89 37.622L8.25 21.872C8.4 21.512 8.76 21.272 9.18 21.272H11.7C12.12 21.272 12.48 21.512 12.63 21.872L18.99 37.622C19.14 37.922 19.35 38.222 19.62 38.432L20.52 39.122ZM12.57 32.432C12.78 32.462 12.9 32.252 12.84 32.072C11.88 29.702 10.68 26.762 10.68 26.762C10.59 26.552 10.29 26.552 10.2 26.762C10.2 26.762 9 29.642 8.04 32.072C7.98 32.252 8.1 32.462 8.31 32.432C9.09 32.282 9.78 32.222 10.44 32.222C11.13 32.222 11.79 32.282 12.57 32.432Z" fill="#3A312D"/>
</svg>
