<svg class="logo" viewBox="0 0 56 47" fill="none" xmlns="http://www.w3.org/2000/svg">
  <g clip-path="url(#clip0_34_487)">
    <g clip-path="url(#clip1_34_487)">
      <path
        d="M31.0343 36.5795C29.5508 36.5795 27.6736 38.4567 27.143 40.1269C26.8976 40.3366 26.597 40.496 26.3376 40.496C25.9964 40.496 25.8985 40.2108 26.0614 39.7186C26.3215 38.9733 27.0206 38.2595 27.2646 37.5778C27.4275 37.0703 27.1024 37.0864 26.4522 37.1178C25.8999 37.1493 25.8999 36.8801 25.8838 36.6578C25.8838 36.4201 25.7377 36.3089 25.5427 36.3089C25.3148 36.3089 25.0064 36.4676 24.8764 36.7529C24.1451 38.3231 22.6979 40.8288 21.9016 40.8288C21.6415 40.8288 21.1864 42.0816 21.8848 42.0816C22.2421 42.0816 22.7462 41.7167 23.2174 40.9239C24.1276 39.3536 24.3388 38.8943 25.249 37.3401C25.005 37.8953 25.249 38.1176 25.5252 38.1176C25.8014 38.1176 26.1754 38.0225 26.4026 37.8638C25.3945 39.2753 24.6799 39.9731 24.4192 40.782C24.1752 41.4482 24.2731 42.146 25.1833 42.146C25.7832 42.146 26.4201 41.7691 27.0004 41.128C27.0458 41.7607 27.4128 42.1467 28.0763 42.1467C29.5389 42.1467 31.5545 40.3394 32.0585 38.2141C32.2697 37.3255 31.9614 36.5802 31.035 36.5802L31.0343 36.5795ZM31.2944 37.9917C31.0665 38.9432 29.8801 40.4974 28.8076 40.4967C28.3846 40.4967 28.2714 40.1793 28.3853 39.7361C28.5965 38.8321 29.8808 37.1507 30.84 37.1507C31.279 37.1507 31.3923 37.5471 31.2951 37.9917H31.2944ZM38.6234 37.5002C38.071 39.6095 36.4127 42.1467 34.7551 42.1467C34.1699 42.1467 33.9749 41.7027 33.9909 41.1476C32.4466 42.8758 31.0329 42.1306 31.3741 40.8777C31.6342 39.9262 33.0807 38.5937 33.5197 37.1353C33.7637 36.3579 34.9501 36.6753 34.5439 37.1989C33.4708 38.6105 32.4633 40.3072 33.2925 40.3072C34.1217 40.3072 35.3081 38.3888 35.5192 37.4688C35.6982 36.6284 37.3558 36.7557 36.8685 37.3576C35.9093 38.5629 34.9991 40.3862 35.6493 40.3862C36.3316 40.3862 37.3558 39.3557 37.811 37.8652C38.055 37.0563 37.8599 36.5173 37.4537 36.2159C37.2258 36.0572 37.5187 35.5336 38.185 35.5343C39.1442 35.5343 38.7863 36.8983 38.6234 37.5009V37.5002ZM43.597 40.5939C43.0607 41.3552 42.1665 42.1481 41.2891 42.1481C40.769 42.1481 40.5089 41.7041 40.6389 41.1175C41.0291 39.4837 43.2075 37.438 41.9072 37.438C41.5492 37.438 41.0291 37.6443 40.6068 38.1518C39.8755 39.4047 39.1764 40.324 38.7863 41.6566C38.5583 42.4501 36.9496 42.2431 37.4209 41.4979C38.315 40.1185 39.5504 38.6909 40.3628 37.1689C40.6229 36.662 41.4353 36.6145 41.1913 37.0899V37.1059C42.8817 36.1705 43.9381 37.0109 42.6699 38.5811C41.5485 39.9605 42.0197 40.4841 42.4909 40.4841C42.7999 40.4841 43.0922 40.2779 43.3523 40.0241C43.9046 39.4851 44.0185 39.9605 43.5963 40.5953L43.597 40.5939ZM21.9093 39.7242C21.6255 40.0744 21.3074 40.445 20.9648 40.8141C19.4176 42.4822 18.1361 44.8942 17.1378 46.3554C16.4253 47.3978 14.6188 47.0846 15.2851 46.0695C15.952 45.0543 16.97 44.1944 17.8327 43.3317C17.0853 43.7442 16.1674 43.9504 15.4522 43.9504C12.9982 43.9504 11.8656 41.7391 12.5165 38.9635C13.5897 34.4122 18.0431 30.1147 22.2687 30.1154C24.0892 30.1154 24.9337 31.4479 24.4786 33.3509C24.1046 34.9365 22.3491 37.5695 20.2524 37.5688C18.4808 37.5688 18.1396 36.2048 18.3675 35.2057C18.6926 33.8417 19.749 33.0174 19.8301 33.9529C19.863 34.4604 20.2852 35.047 21.1626 35.047C23.3558 35.0295 25.1791 30.6998 22.0729 30.7012C19.375 30.7012 15.3927 33.381 14.4664 37.3143C13.9134 39.6773 15.1809 41.4692 17.4405 41.4699C19.0869 41.4699 20.5062 40.2506 21.4465 39.0523C20.3412 39.4124 18.5843 39.8563 17.6957 39.7479C16.7749 39.6221 16.7966 38.4133 17.6887 38.0679C18.2046 39.16 21.0333 38.2574 22.2861 38.0022C22.7552 37.9106 22.8811 38.3539 22.6937 38.6783C22.6 38.8398 22.04 39.5725 21.9093 39.7235V39.7242Z"
        fill="#BF6A15" />
      <path
        d="M8.2609 31.16L8.65101 33.1595C7.99593 33.5811 7.0542 34.0027 4.95122 34.0027C2.36865 34.002 0 32.2807 0 28.9962C0 26.1228 2.15541 24.2177 5.11133 24.2177C6.44666 24.2177 8.39653 24.6735 8.39583 26.5136C8.39583 28.237 6.21245 28.7865 5.52801 27.3484C6.15862 27.3484 6.56411 26.9401 6.56411 26.3647C6.56411 25.8676 5.94469 25.402 5.2924 25.4013C3.50822 25.4013 2.19316 27.0513 2.19316 28.9969C2.19316 30.9419 3.26143 32.8191 5.07357 32.8191C6.40052 32.8191 6.94584 32.071 7.26674 31.1593H8.2616L8.2609 31.16ZM35.0697 24.3575L34.8746 25.1601C35.3906 25.1601 35.5157 25.323 35.5157 25.7991V30.3057C35.5157 30.6322 35.5709 31.1628 35.5709 31.1628C35.5709 31.1628 35.3206 30.6867 35.0829 30.3742L31.0881 24.3568H28.6999L28.5048 25.1587C29.0208 25.1587 29.1599 25.3223 29.1599 25.7984V32.4268C29.1592 32.889 29.0201 33.0659 28.5042 33.0659L28.6992 33.8685H31.3195L31.5006 33.0666C30.9854 33.0666 30.8735 32.8897 30.8735 32.4275V27.6672C30.8735 27.3812 30.8183 26.8506 30.8183 26.8506C30.8183 26.8506 31.0832 27.3407 31.3063 27.6127L35.3759 33.9244H37.1139L37.1146 25.7998C37.1146 25.3237 37.2405 25.1608 37.7557 25.1608L37.5607 24.3582H35.0704L35.0697 24.3575ZM38.5905 24.3575L38.3954 26.2256L39.0785 26.4025C39.1763 25.8313 39.3294 25.5593 40.1656 25.5593H41.5457V32.4282C41.5457 32.8911 41.4198 33.0673 40.9046 33.0673L41.0857 33.8699H43.8829L44.0639 33.068C43.548 33.068 43.4228 32.8911 43.4228 32.4289V25.56H44.8036C45.6398 25.56 45.7929 25.832 45.8768 26.4032L46.5738 26.2263L46.3788 24.3582H38.5919L38.5905 24.3575ZM56.2497 24.3589H53.5183L53.3232 25.1608C53.8392 25.1608 54.2104 25.2971 53.8762 25.746L51.9242 28.525L49.987 25.7453C49.6661 25.3104 49.9821 25.1608 50.512 25.1608L50.3169 24.3582H47.2785L47.0835 25.1601C47.5435 25.1601 47.6966 25.2825 48.0455 25.7453L50.8189 29.6268V32.4289C50.8189 32.8911 50.6791 33.068 50.1638 33.068L50.3589 33.8705H53.1561L53.3512 33.0686C52.8359 33.0686 52.6961 32.8918 52.6961 32.4296V29.6282L55.4842 25.7474C55.8051 25.3125 55.9862 25.1629 56.4322 25.1629L56.2511 24.3603L56.2497 24.3589ZM18.0186 21.2037V14.5753C18.0193 14.0992 18.1592 13.9363 18.6744 13.9363L18.4794 13.1337H15.8171L13.2562 18.7687L10.8414 13.133H7.97495L7.7799 13.9349C8.29585 13.9349 8.43498 14.0978 8.43498 14.5739V21.2023C8.43428 21.6652 8.29446 21.8414 7.7792 21.8414L7.97425 22.644H10.6505L10.8456 21.8421C10.3296 21.8421 10.2045 21.6652 10.2045 21.203V16.2204C10.2045 15.8393 10.1492 15.2681 10.1492 15.2681L12.5046 20.9451H13.7127L16.2827 15.1871C16.2827 15.1871 16.2268 15.731 16.2268 16.112V21.2037C16.2268 21.6659 16.1009 21.8428 15.571 21.8428L15.766 22.6454H18.4794L18.6744 21.8434C18.1585 21.8434 18.0193 21.6666 18.0193 21.2044L18.0186 21.2037ZM19.584 21.8434L19.779 22.646H26.6417L26.8367 20.8919L25.9076 20.729C25.7817 21.3548 25.6426 21.5722 24.8344 21.5722H22.1162V20.5053C22.1162 19.2693 22.7433 18.2415 23.3977 18.1576C24.0521 18.0738 24.4345 18.582 24.1654 19.1826C24.5275 19.1826 25.4175 18.9693 25.4175 18.0045C25.4175 17.1677 24.7303 16.7594 24.115 16.7587C23.4012 16.7587 22.5294 17.2145 22.1162 18.3254V14.195H24.1521C25.1553 14.195 25.3224 14.3579 25.3644 15.0116L26.2795 14.8487V13.1344H19.7797L19.5847 13.937C20.1006 13.937 20.2398 14.0999 20.2398 14.576V21.2044C20.2391 21.6673 20.0999 21.8434 19.584 21.8434ZM30.8987 21.8441C30.3827 21.8441 30.2576 21.6673 30.2576 21.2051V14.5767C30.2583 14.1006 30.3841 13.9377 30.8994 13.9377L30.7043 13.1351H27.9211L27.74 13.937C28.256 13.937 28.3811 14.1006 28.3811 14.5767V21.2051C28.3804 21.6673 28.2553 21.8441 27.7393 21.8441L27.9204 22.6467H30.7036L30.8987 21.8448V21.8441ZM36.2575 22.7698C38.2926 22.7698 39.0218 22.2119 40.1649 22.1168C40.1649 22.1168 39.9559 21.5002 39.9559 20.743V19.2378C39.9559 18.789 40.0817 18.6254 40.6249 18.6254H40.8619L40.6809 17.7955H36.7685L36.5693 18.6435C36.5693 18.6435 36.7727 18.6247 36.8902 18.6247C37.0076 18.6247 38.1913 18.5331 38.1906 19.2371V21.2457C37.7718 21.4631 37.1587 21.6267 36.5595 21.6267C34.5943 21.6267 33.7071 19.7356 33.7071 17.8046C33.7071 15.8596 34.6509 14.1684 36.5882 14.1684C37.5774 14.1684 38.4793 14.5355 38.7583 15.5149H39.6224L40.0272 13.8965C39.6511 13.6923 37.9738 13.0121 36.2589 13.0121C33.5407 13.0121 31.5146 15.0158 31.5146 17.7906C31.5146 20.8101 33.4568 22.7691 36.2575 22.7691V22.7698ZM44.3233 18.3772C45.9131 18.833 46.6626 19.4993 46.6626 20.3312C46.6626 21.1632 45.9061 21.6232 45.0861 21.6232C44.266 21.6232 43.0502 21.1443 42.6923 20.0362H41.8002L41.424 21.9539C41.8002 22.1713 43.3334 22.7705 45.0064 22.7705C46.8605 22.7705 48.6537 21.647 48.6537 19.946C48.6537 18.1283 46.4235 17.5445 45.0441 17.0936C43.6207 16.6294 43.2879 16.0666 43.2879 15.4429C43.2879 14.7599 43.843 14.0195 44.9274 14.0195C45.9837 14.0195 46.5207 14.5704 46.5207 14.9759C46.5207 15.3157 46.0823 15.6415 45.6167 15.422C45.5475 16.047 46.0208 16.3532 46.6025 16.4259C47.1849 16.4979 48.1972 16.1211 48.1972 15.1136C48.1972 13.8923 47.0527 12.9995 45.1252 12.9988C42.8789 12.9988 41.3926 14.1775 41.3926 15.7009C41.3926 17.2376 42.7342 17.9206 44.324 18.3765L44.3233 18.3772ZM18.1242 29.1116C18.1242 29.9792 17.9417 30.7594 17.6222 31.4285C16.6553 32.0563 15.7528 32.8561 14.9676 33.7692C14.5216 33.9125 14.0476 33.9894 13.5568 33.9887C11.0665 33.9887 8.99009 32.0479 8.99009 29.1102C8.99009 26.1718 11.0679 24.2317 13.5582 24.2317C16.0485 24.2317 18.1249 26.1732 18.1249 29.1109L18.1242 29.1116ZM16.0471 29.1109C16.0471 26.975 14.9606 25.402 13.5568 25.402C12.1536 25.402 11.0665 26.975 11.0665 29.1109C11.0665 31.26 12.0711 32.8198 13.5568 32.8198C15.0417 32.8198 16.0471 31.26 16.0471 29.1109ZM24.9274 24.3561L24.7463 25.1587C25.2623 25.1587 25.3874 25.3216 25.3874 25.7977V31.0118C25.3874 31.6277 25.1106 32.1423 24.5897 32.4548C24.5848 32.7394 24.5485 33.0414 24.4723 33.3616C24.4331 33.5287 24.3772 33.707 24.3087 33.8922C26.0083 33.5797 27.1527 32.5247 27.1527 30.9978V25.7977C27.1527 25.3216 27.2646 25.1587 27.7806 25.1587L27.5995 24.3561H24.9274ZM21.6856 32.2933C21.6772 32.2863 21.6688 32.2793 21.6611 32.2723C21.624 32.2388 21.5891 32.2038 21.5555 32.1675C21.5471 32.1577 21.538 32.1486 21.5296 32.1388C21.4961 32.1004 21.4639 32.0612 21.4346 32.02C21.4339 32.0193 21.4332 32.0179 21.4325 32.0172C21.3353 31.8794 21.2619 31.7263 21.2122 31.5613C21.2108 31.5571 21.2094 31.5529 21.208 31.5487C21.1927 31.4963 21.1801 31.4425 21.1696 31.3872C21.1682 31.381 21.1675 31.374 21.1661 31.3677C21.1451 31.253 21.1346 31.1342 21.1346 31.0111V30.6189C21.1346 30.6189 21.1332 30.6189 21.1325 30.6189L21.1388 25.7977C21.1395 25.3216 21.2514 25.1587 21.7813 25.1594L21.587 24.3568L18.7625 24.3533L18.566 25.1552C19.0813 25.1552 19.2071 25.3195 19.2064 25.7956L19.1995 30.9957C19.1981 32.1703 19.8755 33.0652 20.9787 33.5601C20.9794 33.5587 20.9808 33.5573 20.9815 33.5559C21.4751 33.7776 22.0533 33.9195 22.6965 33.9684C23.023 33.6028 23.274 33.1749 23.4012 32.7743C23.3523 32.7764 23.304 32.7792 23.2537 32.7792C22.5616 32.7792 22.0386 32.5981 21.6849 32.2926L21.6856 32.2933Z"
        fill="#3A312D" />
    </g>
  </g>
  <defs>
    <clipPath id="clip0_34_487">
      <rect width="56" height="47" fill="white" />
    </clipPath>
    <clipPath id="clip1_34_487">
      <rect width="56.4308" height="34" fill="white" transform="translate(0 13)" />
    </clipPath>
  </defs>
</svg>