<svg viewBox="0 0 900 174" fill="none" xmlns="http://www.w3.org/2000/svg">
  <path d="M900 149.26V170.603H819V98.0383H849.49V149.26H900Z" fill="#A4E6E4"/>
  <path d="M816.896 170.603H784.272L780.105 161.456H743.721L739.555 170.603H706.931L741.892 98.0383H781.935L816.896 170.603ZM761.609 121.617L752.157 142.553H771.67L762.218 121.617H761.609Z" fill="#A4E6E4"/>
  <path d="M705.203 116.535H653.473V125.682H702.561V142.451H653.473V152.411H705.813V170.603H622.984V98.0383H705.203V116.535Z" fill="#A4E6E4"/>
  <path d="M574.698 98.0383C584.657 98.0383 592.72 99.224 598.886 101.595C605.119 103.967 609.726 107.829 612.707 113.181C615.689 118.466 617.179 125.513 617.179 134.32C617.179 143.128 615.689 150.209 612.707 155.561C609.726 160.846 605.119 164.674 598.886 167.046C592.72 169.417 584.657 170.603 574.698 170.603H521.85V98.0383H574.698ZM552.339 119.381V149.26H566.364C572.462 149.26 576.9 148.108 579.677 145.805C582.455 143.501 583.844 139.673 583.844 134.32C583.844 128.968 582.455 125.14 579.677 122.836C576.9 120.533 572.462 119.381 566.364 119.381H552.339Z" fill="#A4E6E4"/>
  <path d="M466.659 143.975L483.123 170.603H449.483L437.694 150.073H417.063V170.603H386.574V98.0383H449.178C460.967 98.0383 469.301 100.139 474.179 104.339C479.058 108.472 481.497 114.706 481.497 123.039C481.497 128.799 480.243 133.236 477.736 136.353C475.23 139.47 471.537 141.672 466.659 142.959V143.975ZM439.828 132.288C442.606 132.288 444.571 131.814 445.723 130.865C446.942 129.849 447.552 128.29 447.552 126.19C447.552 124.022 446.976 122.43 445.824 121.413C444.673 120.397 442.674 119.889 439.828 119.889H417.063V132.288H439.828Z" fill="#A4E6E4"/>
  <path d="M348.956 98.0383H379.445V138.894C379.445 147.499 377.582 154.342 373.856 159.423C370.197 164.437 364.946 167.994 358.103 170.094C351.26 172.195 342.723 173.245 332.492 173.245C322.261 173.245 313.724 172.195 306.881 170.094C300.038 167.994 294.753 164.437 291.027 159.423C287.368 154.342 285.539 147.499 285.539 138.894V98.0383H316.028V138.792C316.028 143.264 317.383 146.415 320.093 148.244C322.871 150.005 327.004 150.886 332.492 150.886C337.98 150.886 342.079 150.005 344.789 148.244C347.567 146.415 348.956 143.264 348.956 138.792V98.0383Z" fill="#A4E6E4"/>
  <path d="M226.512 95.2941C244.534 95.2941 257.916 98.4785 266.656 104.847C275.396 111.216 279.766 121.041 279.766 134.32C279.766 147.6 275.396 157.424 266.656 163.793C257.916 170.162 244.534 173.346 226.512 173.346C208.489 173.346 195.108 170.162 186.368 163.793C177.627 157.424 173.257 147.6 173.257 134.32C173.257 121.041 177.627 111.216 186.368 104.847C195.108 98.4785 208.489 95.2941 226.512 95.2941ZM226.512 150.988C239.792 150.988 246.431 145.432 246.431 134.32C246.431 123.209 239.792 117.653 226.512 117.653C213.232 117.653 206.592 123.209 206.592 134.32C206.592 145.432 213.232 150.988 226.512 150.988Z" fill="#A4E6E4"/>
  <path d="M96.7643 119.787C96.561 117.822 95.3415 116.298 93.1056 115.214C90.9375 114.13 87.7192 113.588 83.4507 113.588C78.8434 113.588 75.659 113.96 73.8974 114.706C72.2035 115.383 71.3566 116.399 71.3566 117.754C71.3566 119.11 71.9664 120.126 73.186 120.803C74.4055 121.413 76.743 121.854 80.1985 122.125L105.403 124.462C114.55 125.343 121.596 127.646 126.542 131.373C131.488 135.032 133.961 140.52 133.961 147.837C133.961 154.816 132.132 160.168 128.473 163.895C124.814 167.553 119.462 170.026 112.415 171.314C105.437 172.669 96.1545 173.346 84.5686 173.346C73.3215 173.346 64.2086 172.601 57.23 171.111C50.2513 169.62 44.8649 166.944 41.0707 163.082C37.3442 159.22 35.3455 153.766 35.0745 146.719H69.6289C69.8999 149.768 71.2211 151.835 73.5925 152.919C76.0316 153.935 79.8258 154.443 84.9751 154.443C90.0567 154.443 93.546 154.104 95.4431 153.427C97.3402 152.749 98.2887 151.699 98.2887 150.276C98.2887 148.786 97.6451 147.668 96.3578 146.922C95.0704 146.109 92.6313 145.5 89.0404 145.093L65.462 142.451C56.383 141.434 49.3366 139.3 44.3229 136.048C39.3768 132.728 36.9038 127.308 36.9038 119.787C36.9038 110.64 40.9352 104.271 48.9979 100.68C57.1283 97.0895 68.7481 95.2941 83.8572 95.2941C98.763 95.2941 110.18 97.0895 118.107 100.68C126.102 104.204 130.302 110.573 130.709 119.787H96.7643Z" fill="#A4E6E4"/>
  <path d="M30.4892 98.0383V170.603H0V98.0383H30.4892Z" fill="#A4E6E4"/>
  <path d="M900 47.221V65.8958H829.124V2.40125H855.803V47.221H900Z" fill="#A4E6E4"/>
  <path d="M827.283 65.8958H798.737L795.091 57.8923H763.254L759.608 65.8958H731.062L761.654 2.40125H796.691L827.283 65.8958ZM778.906 23.0325L770.635 41.3517H787.71L779.439 23.0325H778.906Z" fill="#A4E6E4"/>
  <path d="M729.551 18.5861H684.286V26.5897H727.239V41.2628H684.286V49.9777H730.084V65.8958H657.608V2.40125H729.551V18.5861Z" fill="#A4E6E4"/>
  <path d="M625.085 2.40125C632.14 2.40125 637.712 3.23124 641.803 4.89123C645.953 6.55122 648.917 9.07084 650.696 12.4501C652.474 15.7701 653.364 20.1276 653.364 25.5225C653.364 30.7396 652.445 34.9785 650.607 38.2392C648.828 41.4999 645.864 43.9306 641.714 45.5313C637.623 47.132 632.08 47.9324 625.085 47.9324H598.05V65.8958H571.372V2.40125H625.085ZM616.903 31.3918C619.571 31.3918 621.439 30.9471 622.506 30.0579C623.632 29.1093 624.195 27.6272 624.195 25.6115C624.195 23.5365 623.632 22.0247 622.506 21.0761C621.439 20.1276 619.571 19.6533 616.903 19.6533H598.05V31.3918H616.903Z" fill="#A4E6E4"/>
  <path d="M538.849 2.40125C545.904 2.40125 551.477 3.23124 555.567 4.89123C559.717 6.55122 562.681 9.07084 564.46 12.4501C566.239 15.7701 567.128 20.1276 567.128 25.5225C567.128 30.7396 566.209 34.9785 564.371 38.2392C562.592 41.4999 559.628 43.9306 555.478 45.5313C551.388 47.132 545.844 47.9324 538.849 47.9324H511.815V65.8958H485.136V2.40125H538.849ZM530.667 31.3918C533.335 31.3918 535.203 30.9471 536.27 30.0579C537.396 29.1093 537.959 27.6272 537.959 25.6115C537.959 23.5365 537.396 22.0247 536.27 21.0761C535.203 20.1276 533.335 19.6533 530.667 19.6533H511.815V31.3918H530.667Z" fill="#A4E6E4"/>
  <path d="M483.294 65.8958H454.748L451.102 57.8923H419.266L415.62 65.8958H387.074L417.665 2.40125H452.703L483.294 65.8958ZM434.917 23.0325L426.647 41.3517H443.721L435.451 23.0325H434.917Z" fill="#A4E6E4"/>
  <path d="M342.711 31.9253C346.743 32.696 349.885 34.2078 352.138 36.4607C354.45 38.7135 355.606 42.2113 355.606 46.9542C355.606 51.3413 354.835 54.9281 353.294 57.7145C351.752 60.4416 349.233 62.4869 345.735 63.8505C342.237 65.2141 337.494 65.8958 331.506 65.8958H272.369V2.40125H329.728C345.379 2.40125 353.205 7.88514 353.205 18.8529C353.205 22.2322 352.315 24.9297 350.537 26.9454C348.818 28.9018 346.209 30.3246 342.711 31.2139V31.9253ZM319.323 27.1232C321.339 27.1232 322.762 26.7675 323.592 26.0561C324.481 25.3447 324.926 24.2479 324.926 22.7658C324.926 21.1651 324.511 20.009 323.681 19.2976C322.851 18.5861 321.398 18.2304 319.323 18.2304H299.048V27.1232H319.323ZM319.946 50.5113C322.317 50.5113 323.977 50.1259 324.926 49.3552C325.933 48.5252 326.437 47.221 326.437 45.4424C326.437 43.6046 325.963 42.2706 325.015 41.4406C324.066 40.6106 322.376 40.1956 319.946 40.1956H299.048V50.5113H319.946Z" fill="#A4E6E4"/>
  <path d="M254.819 42.5967L269.225 65.8958H239.79L229.475 47.9324H211.422V65.8958H184.744V2.40125H239.524C249.839 2.40125 257.131 4.23909 261.4 7.91478C265.668 11.5312 267.803 16.9854 267.803 24.2775C267.803 29.3168 266.706 33.2 264.512 35.9271C262.319 38.6542 259.088 40.581 254.819 41.7074V42.5967ZM231.342 32.37C233.773 32.37 235.492 31.955 236.5 31.125C237.567 30.2357 238.101 28.8721 238.101 27.0343C238.101 25.1372 237.597 23.744 236.589 22.8547C235.581 21.9654 233.832 21.5208 231.342 21.5208H211.422V32.37H231.342Z" fill="#A4E6E4"/>
  <path d="M151.828 2.40125H178.506V38.1503C178.506 45.6795 176.876 51.6674 173.615 56.1138C170.414 60.5009 165.819 63.6133 159.831 65.4512C153.844 67.289 146.374 68.208 137.422 68.208C128.47 68.208 121 67.289 115.012 65.4512C109.024 63.6133 104.4 60.5009 101.139 56.1138C97.9376 51.6674 96.3369 45.6795 96.3369 38.1503V2.40125H123.015V38.0614C123.015 41.9742 124.201 44.731 126.572 46.3317C129.003 47.8731 132.62 48.6438 137.422 48.6438C142.224 48.6438 145.811 47.8731 148.182 46.3317C150.613 44.731 151.828 41.9742 151.828 38.0614V2.40125Z" fill="#A4E6E4"/>
  <path d="M60.2932 28.0123C59.7003 22.3802 54.8686 19.5642 45.7979 19.5642C40.2251 19.5642 36.0455 20.8092 33.2591 23.2991C30.5319 25.7891 29.1684 29.4055 29.1684 34.1483C29.1684 38.8912 30.5319 42.5076 33.2591 44.9976C36.0455 47.4876 40.2251 48.7325 45.7979 48.7325C51.015 48.7325 54.6907 47.8729 56.825 46.1536C58.9593 44.3751 60.1746 41.9147 60.471 38.7726H91.2401C91.003 48.614 87.1791 55.995 79.7684 60.9157C72.3577 65.8364 61.0342 68.2967 45.7979 68.2967C30.3837 68.2967 18.8824 65.5103 11.2939 59.9375C3.76462 54.3054 0 45.709 0 34.1483C0 22.5877 3.76462 14.021 11.2939 8.44816C18.8824 2.81605 30.3837 0 45.7979 0C75.4999 0 90.588 9.33744 91.0623 28.0123H60.2932Z" fill="#A4E6E4"/>
</svg>
