<svg viewBox="0 0 600 132" fill="none" xmlns="http://www.w3.org/2000/svg">
  <path d="M600 111.346V128.966H533.127V69.057H558.299V111.346H600Z" fill="#A4E6E4"/>
  <path d="M531.389 128.966H504.455L501.015 121.415H470.976L467.536 128.966H440.602L469.466 69.057H502.525L531.389 128.966ZM485.744 88.5233L477.94 105.808H494.05L486.247 88.5233H485.744Z" fill="#A4E6E4"/>
  <path d="M439.176 84.328H396.467V91.8796H436.994V105.724H396.467V113.947H439.679V128.966H371.295V69.057H439.176V84.328Z" fill="#A4E6E4"/>
  <path d="M331.43 69.057C339.653 69.057 346.309 70.0359 351.399 71.9937C356.546 73.9515 360.349 77.14 362.811 81.5591C365.272 85.9222 366.503 91.7397 366.503 99.0116C366.503 106.284 365.272 112.129 362.811 116.548C360.349 120.911 356.546 124.072 351.399 126.029C346.309 127.987 339.653 128.966 331.43 128.966H287.798V69.057H331.43ZM312.97 86.6774V111.346H324.549C329.584 111.346 333.248 110.395 335.541 108.493C337.835 106.591 338.981 103.431 338.981 99.0116C338.981 94.5925 337.835 91.4321 335.541 89.5302C333.248 87.6283 329.584 86.6774 324.549 86.6774H312.97Z" fill="#A4E6E4"/>
  <path d="M242.233 106.983L255.825 128.966H228.052L218.319 112.017H201.286V128.966H176.114V69.057H227.801C237.534 69.057 244.414 70.7911 248.442 74.2592C252.469 77.6714 254.483 82.8177 254.483 89.698C254.483 94.4527 253.448 98.1166 251.378 100.69C249.309 103.263 246.26 105.081 242.233 106.144V106.983ZM220.081 97.3335C222.375 97.3335 223.997 96.9419 224.948 96.1588C225.955 95.3197 226.458 94.0332 226.458 92.2991C226.458 90.5091 225.983 89.1946 225.032 88.3555C224.081 87.5164 222.431 87.0969 220.081 87.0969H201.286V97.3335H220.081Z" fill="#A4E6E4"/>
  <path d="M145.057 69.057H170.229V102.787C170.229 109.891 168.691 115.541 165.614 119.737C162.594 123.876 158.258 126.813 152.609 128.547C146.959 130.281 139.911 131.148 131.464 131.148C123.018 131.148 115.97 130.281 110.32 128.547C104.67 126.813 100.307 123.876 97.2304 119.737C94.2098 115.541 92.6995 109.891 92.6995 102.787V69.057H117.871V102.704C117.871 106.395 118.99 108.996 121.228 110.507C123.521 111.961 126.933 112.688 131.464 112.688C135.995 112.688 139.379 111.961 141.617 110.507C143.91 108.996 145.057 106.395 145.057 102.704V69.057Z" fill="#A4E6E4"/>
  <path d="M43.967 66.7914C58.8464 66.7914 69.8941 69.4205 77.1101 74.6786C84.326 79.9367 87.934 88.0477 87.934 99.0115C87.934 109.975 84.326 118.086 77.1101 123.344C69.8941 128.602 58.8464 131.232 43.967 131.232C29.0876 131.232 18.0399 128.602 10.8239 123.344C3.60799 118.086 0 109.975 0 99.0115C0 88.0477 3.60799 79.9367 10.8239 74.6786C18.0399 69.4205 29.0876 66.7914 43.967 66.7914ZM43.967 112.772C54.9308 112.772 60.4127 108.185 60.4127 99.0115C60.4127 89.8377 54.9308 85.2508 43.967 85.2508C33.0032 85.2508 27.5213 89.8377 27.5213 99.0115C27.5213 108.185 33.0032 112.772 43.967 112.772Z" fill="#A4E6E4"/>
  <path d="M581.422 13.3746C581.321 12.3933 580.711 11.6319 579.595 11.0904C578.512 10.549 576.905 10.2783 574.773 10.2783C572.472 10.2783 570.881 10.4644 570.001 10.8366C569.155 11.175 568.732 11.6826 568.732 12.3594C568.732 13.0362 569.037 13.5438 569.646 13.8822C570.255 14.1867 571.423 14.4067 573.148 14.5421L585.737 15.7095C590.305 16.1494 593.824 17.3 596.295 19.1612C598.765 20.9885 600 23.7295 600 27.3842C600 30.8696 599.086 33.543 597.259 35.4041C595.432 37.2315 592.758 38.4666 589.239 39.1096C585.754 39.7864 581.118 40.1248 575.331 40.1248C569.714 40.1248 565.162 39.7525 561.677 39.0081C558.191 38.2636 555.501 36.9269 553.606 34.9981C551.745 33.0692 550.747 30.3451 550.611 26.8258H567.869C568.005 28.3486 568.665 29.3807 569.849 29.9221C571.067 30.4297 572.962 30.6835 575.534 30.6835C578.072 30.6835 579.815 30.5143 580.762 30.1759C581.71 29.8375 582.184 29.313 582.184 28.6024C582.184 27.8579 581.862 27.2996 581.219 26.9273C580.576 26.5213 579.358 26.2167 577.564 26.0137L565.788 24.6939C561.254 24.1863 557.734 23.1204 555.23 21.4961C552.76 19.838 551.525 17.1308 551.525 13.3746C551.525 8.80626 553.538 5.62534 557.565 3.83185C561.626 2.03835 567.429 1.1416 574.976 1.1416C582.42 1.1416 588.122 2.03835 592.082 3.83185C596.075 5.5915 598.173 8.77242 598.376 13.3746H581.422Z" fill="#A4E6E4"/>
  <path d="M548.321 2.51221V38.7544H533.093V2.51221H548.321Z" fill="#A4E6E4"/>
  <path d="M513.687 26.9521V37.611H473.234V1.37061H488.461V26.9521H513.687Z" fill="#A4E6E4"/>
  <path d="M472.183 37.611H455.89L453.809 33.0429H435.638L433.557 37.611H417.264L434.724 1.37061H454.723L472.183 37.611ZM444.571 13.1462L439.851 23.6021H449.596L444.876 13.1462H444.571Z" fill="#A4E6E4"/>
  <path d="M416.401 10.6084H390.566V15.1765H415.081V23.5514H390.566V28.5255H416.706V37.611H375.339V1.37061H416.401V10.6084Z" fill="#A4E6E4"/>
  <path d="M356.776 1.37061C360.802 1.37061 363.983 1.84434 366.318 2.7918C368.687 3.73926 370.379 5.17737 371.394 7.10613C372.409 9.00106 372.916 11.4881 372.916 14.5674C372.916 17.5451 372.392 19.9645 371.343 21.8256C370.328 23.6867 368.636 25.0741 366.267 25.9877C363.932 26.9013 360.769 27.3581 356.776 27.3581H341.346V37.611H326.119V1.37061H356.776ZM352.106 17.9173C353.629 17.9173 354.695 17.6636 355.304 17.156C355.947 16.6146 356.268 15.7686 356.268 14.6182C356.268 13.4338 355.947 12.571 355.304 12.0296C354.695 11.4881 353.629 11.2174 352.106 11.2174H341.346V17.9173H352.106Z" fill="#A4E6E4"/>
  <path d="M307.555 1.37061C311.582 1.37061 314.763 1.84434 317.098 2.7918C319.466 3.73926 321.158 5.17737 322.173 7.10613C323.188 9.00106 323.696 11.4881 323.696 14.5674C323.696 17.5451 323.171 19.9645 322.122 21.8256C321.107 23.6867 319.415 25.0741 317.047 25.9877C314.712 26.9013 311.548 27.3581 307.555 27.3581H292.125V37.611H276.898V1.37061H307.555ZM302.886 17.9173C304.408 17.9173 305.474 17.6636 306.083 17.156C306.726 16.6146 307.048 15.7686 307.048 14.6182C307.048 13.4338 306.726 12.571 306.083 12.0296C305.474 11.4881 304.408 11.2174 302.886 11.2174H292.125V17.9173H302.886Z" fill="#A4E6E4"/>
  <path d="M275.847 37.611H259.554L257.473 33.0429H239.302L237.221 37.611H220.928L238.388 1.37061H258.387L275.847 37.611ZM248.235 13.1462L243.515 23.6021H253.26L248.54 13.1462H248.235Z" fill="#A4E6E4"/>
  <path d="M195.607 18.2219C197.908 18.6618 199.701 19.5246 200.987 20.8105C202.307 22.0963 202.967 24.0928 202.967 26.7998C202.967 29.3038 202.527 31.351 201.647 32.9414C200.767 34.4979 199.329 35.6653 197.333 36.4436C195.336 37.2219 192.629 37.611 189.212 37.611H155.458V1.37061H188.196C197.13 1.37061 201.596 4.50061 201.596 10.7606C201.596 12.6894 201.089 14.229 200.074 15.3795C199.092 16.4962 197.603 17.3083 195.607 17.8158V18.2219ZM182.258 15.481C183.408 15.481 184.22 15.278 184.694 14.8719C185.202 14.4659 185.456 13.8399 185.456 12.9939C185.456 12.0803 185.219 11.4205 184.745 11.0144C184.271 10.6084 183.442 10.4053 182.258 10.4053H170.685V15.481H182.258ZM182.613 28.8301C183.967 28.8301 184.914 28.6101 185.456 28.1702C186.031 27.6965 186.318 26.9521 186.318 25.9369C186.318 24.888 186.048 24.1266 185.506 23.6529C184.965 23.1791 184.001 22.9423 182.613 22.9423H170.685V28.8301H182.613Z" fill="#A4E6E4"/>
  <path d="M145.441 24.3127L153.664 37.611H136.864L130.976 27.3581H120.672V37.611H105.445V1.37061H136.711C142.599 1.37061 146.761 2.41958 149.197 4.51753C151.634 6.58165 152.852 9.69473 152.852 13.8568C152.852 16.733 152.226 18.9494 150.974 20.5059C149.722 22.0625 147.878 23.1622 145.441 23.8051V24.3127ZM132.042 18.4757C133.429 18.4757 134.41 18.2388 134.986 17.7651C135.595 17.2575 135.899 16.4792 135.899 15.4303C135.899 14.3474 135.612 13.5523 135.036 13.0447C134.461 12.5371 133.463 12.2833 132.042 12.2833H120.672V18.4757H132.042Z" fill="#A4E6E4"/>
  <path d="M86.6579 1.37061H101.885V21.7749C101.885 26.0723 100.954 29.4899 99.0933 32.0278C97.2661 34.5318 94.6436 36.3083 91.226 37.3572C87.8084 38.4062 83.5448 38.9307 78.4353 38.9307C73.3257 38.9307 69.0622 38.4062 65.6445 37.3572C62.2269 36.3083 59.5876 34.5318 57.7265 32.0278C55.8992 29.4899 54.9856 26.0723 54.9856 21.7749V1.37061H70.2127V21.7241C70.2127 23.9574 70.8894 25.5309 72.2429 26.4445C73.6303 27.3243 75.6944 27.7642 78.4353 27.7642C81.1761 27.7642 83.2233 27.3243 84.5769 26.4445C85.9642 25.5309 86.6579 23.9574 86.6579 21.7241V1.37061Z" fill="#A4E6E4"/>
  <path d="M34.4132 15.9884C34.0748 12.7738 31.317 11.1665 26.1398 11.1665C22.959 11.1665 20.5735 11.8771 18.9831 13.2983C17.4265 14.7195 16.6483 16.7836 16.6483 19.4906C16.6483 22.1977 17.4265 24.2618 18.9831 25.683C20.5735 27.1042 22.959 27.8148 26.1398 27.8148C29.1175 27.8148 31.2155 27.3241 32.4336 26.3428C33.6518 25.3277 34.3455 23.9234 34.5147 22.13H52.0766C51.9412 27.7471 49.7587 31.9599 45.5289 34.7685C41.2992 37.577 34.8361 38.9813 26.1398 38.9813C17.3419 38.9813 10.7774 37.3909 6.44612 34.2101C2.14871 30.9955 0 26.089 0 19.4906C0 12.8922 2.14871 8.00267 6.44612 4.8219C10.7774 1.6073 17.3419 0 26.1398 0C43.0926 0 51.7043 5.32947 51.975 15.9884H34.4132Z" fill="#A4E6E4"/>
</svg>
