<svg viewBox="0 0 900 140" fill="none" xmlns="http://www.w3.org/2000/svg">
  <path d="M900 1.07458V9.11356H879.663V13.5708H898.885V21.2118H879.663V29.4896H867.724V1.07458H900Z" fill="#A4E6E4"/>
  <path d="M844.611 0C851.668 0 856.908 1.24697 860.331 3.74091C863.753 6.23485 865.464 10.0819 865.464 15.282C865.464 20.4821 863.753 24.3292 860.331 26.8231C856.908 29.3171 851.668 30.564 844.611 30.564C837.553 30.564 832.314 29.3171 828.891 26.8231C825.468 24.3292 823.757 20.4821 823.757 15.282C823.757 10.0819 825.468 6.23485 828.891 3.74091C832.314 1.24697 837.553 0 844.611 0ZM844.611 21.8087C849.811 21.8087 852.411 19.6331 852.411 15.282C852.411 10.9309 849.811 8.75532 844.611 8.75532C839.411 8.75532 836.811 10.9309 836.811 15.282C836.811 19.6331 839.411 21.8087 844.611 21.8087Z" fill="#A4E6E4"/>
  <path d="M791.608 1.07458C795.508 1.07458 798.666 1.53888 801.08 2.46748C803.521 3.39607 805.325 4.90835 806.492 7.00433C807.66 9.07376 808.244 11.833 808.244 15.2821C808.244 18.7311 807.66 21.5037 806.492 23.5996C805.325 25.6691 803.521 27.1681 801.08 28.0967C798.666 29.0253 795.508 29.4896 791.608 29.4896H770.914V1.07458H791.608ZM782.853 9.43194V21.1322H788.345C790.733 21.1322 792.471 20.6812 793.558 19.7791C794.646 18.8771 795.19 17.3781 795.19 15.2821C795.19 13.1861 794.646 11.6871 793.558 10.785C792.471 9.88297 790.733 9.43194 788.345 9.43194H782.853Z" fill="#A4E6E4"/>
  <path d="M756.905 15.9586V1.07458H768.128V29.4896H754.557L742.578 14.4463H742.34V29.4896H731.117V1.07458H744.847L756.666 15.9586H756.905Z" fill="#A4E6E4"/>
  <path d="M728.327 1.07458V29.4896H716.388V1.07458H728.327Z" fill="#A4E6E4"/>
  <path d="M713.596 1.07458L701.816 11.2228L715.546 29.4896H701.219L693.419 18.5056L688.763 22.4853V29.4896H676.824V1.07458H688.763V11.1432L700.025 1.07458H713.596Z" fill="#A4E6E4"/>
  <path d="M646.353 9.59106C646.273 8.82165 645.796 8.2247 644.92 7.8002C644.071 7.37569 642.811 7.16344 641.14 7.16344C639.335 7.16344 638.089 7.30937 637.399 7.60121C636.735 7.86652 636.404 8.26449 636.404 8.79512C636.404 9.32574 636.643 9.72371 637.12 9.98903C637.598 10.2278 638.513 10.4003 639.866 10.5064L649.736 11.4217C653.317 11.7666 656.077 12.6687 658.014 14.1279C659.95 15.5606 660.919 17.7096 660.919 20.575C660.919 23.3077 660.202 25.4037 658.77 26.8629C657.337 28.2956 655.241 29.264 652.482 29.7681C649.749 30.2987 646.114 30.564 641.577 30.564C637.173 30.564 633.605 30.2722 630.872 29.6885C628.139 29.1048 626.03 28.0568 624.544 26.5445C623.085 25.0323 622.302 22.8965 622.196 20.1372H635.727C635.833 21.3311 636.351 22.1403 637.279 22.5648C638.234 22.9628 639.72 23.1618 641.737 23.1618C643.726 23.1618 645.093 23.0291 645.836 22.7638C646.579 22.4985 646.95 22.0873 646.95 21.5301C646.95 20.9464 646.698 20.5087 646.194 20.2168C645.69 19.8985 644.735 19.6597 643.328 19.5005L634.096 18.4658C630.54 18.0678 627.781 17.2321 625.818 15.9586C623.881 14.6585 622.913 12.536 622.913 9.59106C622.913 6.00933 624.491 3.51539 627.648 2.10924C630.832 0.703079 635.382 0 641.299 0C647.136 0 651.606 0.703079 654.71 2.10924C657.841 3.48886 659.486 5.9828 659.645 9.59106H646.353Z" fill="#A4E6E4"/>
  <path d="M620.401 1.07458V29.4896H608.462V1.07458H620.401Z" fill="#A4E6E4"/>
  <path d="M592.077 8.31762H571.821V11.8993H591.043V18.4658H571.821V22.3659H592.316V29.4896H559.882V1.07458H592.077V8.31762Z" fill="#A4E6E4"/>
  <path d="M543.751 12.536C543.486 10.0156 541.324 8.75532 537.264 8.75532C534.77 8.75532 532.9 9.31248 531.653 10.4268C530.432 11.5411 529.822 13.1595 529.822 15.282C529.822 17.4045 530.432 19.0229 531.653 20.1372C532.9 21.2515 534.77 21.8087 537.264 21.8087C539.599 21.8087 541.244 21.424 542.199 20.6546C543.154 19.8587 543.698 18.7576 543.831 17.3515H557.601C557.494 21.7556 555.783 25.0588 552.467 27.2609C549.15 29.463 544.083 30.564 537.264 30.564C530.366 30.564 525.219 29.3171 521.823 26.8231C518.454 24.3026 516.769 20.4556 516.769 15.282C516.769 10.1084 518.454 6.27465 521.823 3.78071C525.219 1.26024 530.366 0 537.264 0C550.556 0 557.309 4.17868 557.521 12.536H543.751Z" fill="#A4E6E4"/>
  <path d="M503.278 15.9586V1.07458H514.501V29.4896H500.93L488.951 14.4463H488.712V29.4896H477.49V1.07458H491.219L503.039 15.9586H503.278Z" fill="#A4E6E4"/>
  <path d="M476.665 29.4896H463.89L462.259 25.9079H448.011L446.38 29.4896H433.605L447.295 1.07458H462.975L476.665 29.4896ZM455.016 10.3075L451.315 18.5056H458.956L455.254 10.3075H455.016Z" fill="#A4E6E4"/>
  <path d="M421.546 15.9586V1.07458H432.769V29.4896H419.198L407.22 14.4463H406.981V29.4896H395.758V1.07458H409.488L421.308 15.9586H421.546Z" fill="#A4E6E4"/>
  <path d="M393.132 8.31762H372.875V11.8993H392.097V18.4658H372.875V22.3659H393.37V29.4896H360.936V1.07458H393.132V8.31762Z" fill="#A4E6E4"/>
  <path d="M324.774 1.07458H358.92V9.59113H347.817V29.4896H335.878V9.59113H324.774V1.07458Z" fill="#A4E6E4"/>
  <path d="M311.522 15.9586V1.07458H322.745V29.4896H309.174L297.195 14.4463H296.956V29.4896H285.734V1.07458H299.464L311.283 15.9586H311.522Z" fill="#A4E6E4"/>
  <path d="M282.943 1.07458V29.4896H271.004V1.07458H282.943Z" fill="#A4E6E4"/>
  <path d="M270.18 29.4896H257.405L255.774 25.9079H241.526L239.895 29.4896H227.12L240.81 1.07458H256.49L270.18 29.4896ZM248.531 10.3075L244.829 18.5056H252.47L248.769 10.3075H248.531Z" fill="#A4E6E4"/>
  <path d="M207.662 1.07458H226.286V29.4896H214.347V11.581H214.109L207.662 29.4896H198.866L192.34 11.4616H192.101V29.4896H180.878V1.07458H198.827L203.125 15.2025H203.363L207.662 1.07458Z" fill="#A4E6E4"/>
  <path d="M164.494 8.31762H144.237V11.8993H163.459V18.4658H144.237V22.3659H164.732V29.4896H132.298V1.07458H164.494V8.31762Z" fill="#A4E6E4"/>
  <path d="M110.89 1.07458H129.515V29.4896H117.576V11.581H117.337L110.89 29.4896H102.095L95.5681 11.4616H95.3293V29.4896H84.1066V1.07458H102.055L106.353 15.2025H106.592L110.89 1.07458Z" fill="#A4E6E4"/>
  <path d="M60.9925 0C68.0498 0 73.2897 1.24697 76.7123 3.74091C80.1348 6.23485 81.8461 10.0819 81.8461 15.282C81.8461 20.4821 80.1348 24.3292 76.7123 26.8231C73.2897 29.3171 68.0498 30.564 60.9925 30.564C53.9352 30.564 48.6953 29.3171 45.2727 26.8231C41.8502 24.3292 40.1389 20.4821 40.1389 15.282C40.1389 10.0819 41.8502 6.23485 45.2727 3.74091C48.6953 1.24697 53.9352 0 60.9925 0ZM60.9925 21.8087C66.1926 21.8087 68.7927 19.6331 68.7927 15.282C68.7927 10.9309 66.1926 8.75532 60.9925 8.75532C55.7924 8.75532 53.1923 10.9309 53.1923 15.282C53.1923 19.6331 55.7924 21.8087 60.9925 21.8087Z" fill="#A4E6E4"/>
  <path d="M25.9314 10.984V1.07458H37.8705V29.4896H25.9314V19.2618H12.7984V29.4896H0.859375V1.07458H12.7984V10.984H25.9314Z" fill="#A4E6E4"/>
  <path d="M843.394 108.791V89.8982H899.14V136.664H874.649V129.317C866.641 136.314 855.134 139.813 840.129 139.813C819.214 139.813 803.742 136.159 793.713 128.85C783.683 121.464 778.668 110.152 778.668 94.913C778.668 79.7519 783.644 68.5171 793.596 61.2087C803.626 53.9003 818.903 50.2461 839.429 50.2461C859.488 50.2461 874.261 53.1617 883.746 58.9929C893.309 64.7463 898.324 72.8322 898.791 83.2506H858.555C856.456 78.3524 850.158 75.9033 839.662 75.9033C824.501 75.9033 816.921 82.2787 816.921 95.0296C816.921 102.183 818.787 107.469 822.519 110.89C826.251 114.311 832.198 116.022 840.362 116.022C844.871 116.022 848.72 115.555 851.908 114.622C855.095 113.689 857.467 112.64 859.022 111.474C860.655 110.307 861.471 109.413 861.471 108.791H843.394Z" fill="#A4E6E4"/>
  <path d="M739.133 97.0124V53.3951H772.021V136.664H732.252L697.148 92.5807H696.449V136.664H663.561V53.3951H703.796L738.433 97.0124H739.133Z" fill="#A4E6E4"/>
  <path d="M655.383 53.3951V136.664H620.396V53.3951H655.383Z" fill="#A4E6E4"/>
  <path d="M577.245 82.4344V53.3951H612.232V136.664H577.245V106.692H538.76V136.664H503.772V53.3951H538.76V82.4344H577.245Z" fill="#A4E6E4"/>
  <path d="M397.803 53.3951H497.866V78.3526H465.328V136.664H430.341V78.3526H397.803V53.3951Z" fill="#A4E6E4"/>
  <path d="M336.685 106.109L355.579 136.664H316.976L303.448 113.106H279.773V136.664H244.786V53.3951H316.626C330.155 53.3951 339.718 55.8054 345.316 60.6258C350.914 65.3685 353.713 72.5214 353.713 82.0846C353.713 88.6933 352.274 93.7858 349.397 97.3623C346.521 100.939 342.283 103.466 336.685 104.943V106.109ZM305.897 92.6973C309.085 92.6973 311.339 92.1531 312.661 91.0646C314.061 89.8984 314.76 88.1101 314.76 85.6999C314.76 83.2119 314.099 81.3848 312.778 80.2186C311.456 79.0524 309.162 78.4692 305.897 78.4692H279.773V92.6973H305.897Z" fill="#A4E6E4"/>
  <path d="M201.619 53.3951H236.606V100.278C236.606 110.152 234.468 118.005 230.192 123.836C225.993 129.589 219.968 133.671 212.115 136.081C204.262 138.492 194.466 139.697 182.726 139.697C170.986 139.697 161.189 138.492 153.337 136.081C145.484 133.671 139.42 129.589 135.143 123.836C130.945 118.005 128.846 110.152 128.846 100.278V53.3951H163.833V100.161C163.833 105.293 165.388 108.908 168.498 111.007C171.685 113.029 176.428 114.039 182.726 114.039C189.023 114.039 193.727 113.029 196.837 111.007C200.025 108.908 201.619 105.293 201.619 100.161V53.3951Z" fill="#A4E6E4"/>
  <path d="M61.1108 50.2461C81.7921 50.2461 97.1476 53.9003 107.177 61.2087C117.207 68.5171 122.222 79.7908 122.222 95.0296C122.222 110.268 117.207 121.542 107.177 128.85C97.1476 136.159 81.7921 139.813 61.1108 139.813C40.4296 139.813 25.0741 136.159 15.0445 128.85C5.01482 121.542 0 110.268 0 95.0296C0 79.7908 5.01482 68.5171 15.0445 61.2087C25.0741 53.9003 40.4296 50.2461 61.1108 50.2461ZM61.1108 114.156C76.3497 114.156 83.9691 107.78 83.9691 95.0296C83.9691 82.2787 76.3497 75.9033 61.1108 75.9033C45.872 75.9033 38.2526 82.2787 38.2526 95.0296C38.2526 107.78 45.872 114.156 61.1108 114.156Z" fill="#A4E6E4"/>
</svg>
