<svg viewBox="0 0 900 173" fill="none" xmlns="http://www.w3.org/2000/svg">
  <path d="M882.556 1.36941H900L882.049 26.1155V37.5758H866.836V26.1155L848.885 1.36941H866.38L874.443 14.0974L882.556 1.36941Z" fill="#A4E6E4"/>
  <path d="M834.142 15.9734C833.804 12.7618 831.048 11.156 825.876 11.156C822.698 11.156 820.315 11.866 818.726 13.2858C817.171 14.7057 816.393 16.7679 816.393 19.4724C816.393 22.1769 817.171 24.239 818.726 25.6589C820.315 27.0788 822.698 27.7887 825.876 27.7887C828.851 27.7887 830.947 27.2985 832.164 26.3181C833.381 25.3039 834.074 23.901 834.243 22.1092H851.788C851.653 27.7211 849.473 31.9299 845.247 34.7359C841.021 37.5418 834.564 38.9447 825.876 38.9447C817.086 38.9447 810.528 37.3558 806.201 34.1781C801.907 30.9665 799.761 26.0646 799.761 19.4724C799.761 12.8802 801.907 7.99516 806.201 4.81738C810.528 1.60579 817.086 0 825.876 0C842.813 0 851.417 5.32447 851.687 15.9734H834.142Z" fill="#A4E6E4"/>
  <path d="M782.57 20.3347V1.36941H796.87V37.5758H779.579L764.315 18.4077H764.011V37.5758H749.711V1.36941H767.206L782.266 20.3347H782.57Z" fill="#A4E6E4"/>
  <path d="M746.364 10.5985H720.553V15.1623H745.046V23.5294H720.553V28.4989H746.668V37.5758H705.34V1.36941H746.364V10.5985Z" fill="#A4E6E4"/>
  <path d="M677.807 25.4561V17.2412H702.046V37.5756H691.397V34.3809C687.915 37.4234 682.912 38.9447 676.387 38.9447C667.293 38.9447 660.566 37.3558 656.205 34.1781C651.844 30.9665 649.663 26.0477 649.663 19.4217C649.663 12.8294 651.827 7.94445 656.154 4.76667C660.515 1.58889 667.158 0 676.083 0C684.805 0 691.228 1.26773 695.352 3.8032C699.51 6.30485 701.691 9.8207 701.894 14.3507H684.399C683.486 12.2209 680.748 11.156 676.184 11.156C669.592 11.156 666.296 13.9281 666.296 19.4724C666.296 22.5825 667.107 24.8814 668.73 26.3688C670.353 27.8563 672.939 28.6 676.488 28.6C678.449 28.6 680.123 28.3972 681.509 27.9915C682.895 27.5858 683.926 27.1295 684.602 26.6224C685.312 26.1153 685.667 25.7265 685.667 25.4561H677.807Z" fill="#A4E6E4"/>
  <path d="M640.315 24.29L648.53 37.5758H631.745L625.863 27.3326H615.569V37.5758H600.356V1.36941H631.593C637.475 1.36941 641.634 2.4174 644.068 4.51338C646.502 6.57556 647.719 9.68573 647.719 13.8439C647.719 16.7174 647.093 18.9317 645.842 20.4868C644.592 22.0419 642.749 23.1406 640.315 23.7829V24.29ZM626.928 18.4584C628.314 18.4584 629.294 18.2218 629.869 17.7485C630.477 17.2414 630.782 16.4639 630.782 15.4159C630.782 14.3341 630.494 13.5396 629.92 13.0325C629.345 12.5254 628.348 12.2719 626.928 12.2719H615.569V18.4584H626.928Z" fill="#A4E6E4"/>
  <path d="M597.009 10.5985H571.198V15.1623H595.691V23.5294H571.198V28.4989H597.313V37.5758H555.985V1.36941H597.009V10.5985Z" fill="#A4E6E4"/>
  <path d="M528.707 1.36941H552.439V37.5758H537.226V14.7567H536.922L528.707 37.5758H517.5L509.184 14.6045H508.88V37.5758H494.58V1.36941H517.45L522.926 19.3712H523.231L528.707 1.36941Z" fill="#A4E6E4"/>
  <path d="M491.233 10.5985H465.422V15.1623H489.914V23.5294H465.422V28.4989H491.537V37.5758H450.209V1.36941H491.233V10.5985Z" fill="#A4E6E4"/>
  <path d="M429.332 10.5985H403.521V15.1623H428.013V23.5294H403.521V28.4989H429.636V37.5758H388.308V1.36941H429.332V10.5985Z" fill="#A4E6E4"/>
  <path d="M361.03 1.36941H384.762V37.5758H369.549V14.7567H369.245L361.03 37.5758H349.823L341.507 14.6045H341.202V37.5758H326.902V1.36941H349.772L355.249 19.3712H355.553L361.03 1.36941Z" fill="#A4E6E4"/>
  <path d="M297.451 0C306.443 0 313.12 1.58889 317.481 4.76667C321.842 7.94445 324.022 12.8463 324.022 19.4724C324.022 26.0984 321.842 31.0003 317.481 34.1781C313.12 37.3558 306.443 38.9447 297.451 38.9447C288.458 38.9447 281.782 37.3558 277.421 34.1781C273.06 31.0003 270.879 26.0984 270.879 19.4724C270.879 12.8463 273.06 7.94445 277.421 4.76667C281.782 1.58889 288.458 0 297.451 0ZM297.451 27.7887C304.077 27.7887 307.39 25.0166 307.39 19.4724C307.39 13.9281 304.077 11.156 297.451 11.156C290.825 11.156 287.512 13.9281 287.512 19.4724C287.512 25.0166 290.825 27.7887 297.451 27.7887Z" fill="#A4E6E4"/>
  <path d="M252.776 13.996V1.36941H267.988V37.5758H252.776V24.5435H236.041V37.5758H220.829V1.36941H236.041V13.996H252.776Z" fill="#A4E6E4"/>
  <path d="M193.291 24.29L201.506 37.5758H184.721L178.839 27.3326H168.545V37.5758H153.332V1.36941H184.569C190.451 1.36941 194.61 2.4174 197.044 4.51338C199.478 6.57556 200.695 9.68573 200.695 13.8439C200.695 16.7174 200.069 18.9317 198.818 20.4868C197.568 22.0419 195.725 23.1406 193.291 23.7829V24.29ZM179.904 18.4584C181.29 18.4584 182.27 18.2218 182.845 17.7485C183.454 17.2414 183.758 16.4639 183.758 15.4159C183.758 14.3341 183.47 13.5396 182.896 13.0325C182.321 12.5254 181.324 12.2719 179.904 12.2719H168.545V18.4584H179.904Z" fill="#A4E6E4"/>
  <path d="M134.562 1.36941H149.775V21.7545C149.775 26.0479 148.846 29.4624 146.986 31.9978C145.161 34.4995 142.541 36.2743 139.126 37.3223C135.712 38.3703 131.452 38.8943 126.348 38.8943C121.243 38.8943 116.983 38.3703 113.569 37.3223C110.154 36.2743 107.517 34.4995 105.658 31.9978C103.833 29.4624 102.92 26.0479 102.92 21.7545V1.36941H118.133V21.7038C118.133 23.935 118.809 25.507 120.161 26.4198C121.547 27.2988 123.609 27.7382 126.348 27.7382C129.086 27.7382 131.131 27.2988 132.483 26.4198C133.869 25.507 134.562 23.935 134.562 21.7038V1.36941Z" fill="#A4E6E4"/>
  <path d="M73.4684 0C82.4608 0 89.1376 1.58889 93.4985 4.76667C97.8595 7.94445 100.04 12.8463 100.04 19.4724C100.04 26.0984 97.8595 31.0003 93.4985 34.1781C89.1376 37.3558 82.4608 38.9447 73.4684 38.9447C64.4759 38.9447 57.7992 37.3558 53.4382 34.1781C49.0772 31.0003 46.8967 26.0984 46.8967 19.4724C46.8967 12.8463 49.0772 7.94445 53.4382 4.76667C57.7992 1.58889 64.4759 0 73.4684 0ZM73.4684 27.7887C80.0944 27.7887 83.4074 25.0166 83.4074 19.4724C83.4074 13.9281 80.0944 11.156 73.4684 11.156C66.8424 11.156 63.5294 13.9281 63.5294 19.4724C63.5294 25.0166 66.8424 27.7887 73.4684 27.7887Z" fill="#A4E6E4"/>
  <path d="M33.6708 1.36941H51.1148L33.1637 26.1155V37.5758H17.951V26.1155L-0.00012207 1.36941H17.4946L25.5574 14.0974L33.6708 1.36941Z" fill="#A4E6E4"/>
  <path d="M842.962 90.6485C842.651 87.6356 840.78 85.298 837.352 83.6357C834.027 81.9734 829.092 81.1422 822.547 81.1422C815.482 81.1422 810.599 81.7136 807.898 82.8565C805.301 83.8954 804.002 85.4538 804.002 87.5317C804.002 89.6095 804.937 91.1679 806.807 92.2069C808.677 93.1419 812.262 93.8172 817.56 94.2328L856.209 97.8171C870.234 99.1677 881.039 102.7 888.623 108.414C896.208 114.025 900 122.44 900 133.66C900 144.361 897.195 152.569 891.584 158.283C885.974 163.893 877.767 167.685 866.962 169.659C856.261 171.737 842.027 172.776 824.261 172.776C807.015 172.776 793.041 171.633 782.34 169.348C771.639 167.062 763.38 162.958 757.562 157.036C751.848 151.114 748.783 142.751 748.367 131.946H801.353C801.769 136.621 803.794 139.79 807.431 141.452C811.171 143.011 816.989 143.79 824.885 143.79C832.677 143.79 838.027 143.271 840.936 142.232C843.845 141.193 845.3 139.582 845.3 137.401C845.3 135.115 844.313 133.401 842.339 132.258C840.365 131.011 836.625 130.076 831.118 129.453L794.964 125.401C781.042 123.842 770.237 120.57 762.549 115.583C754.965 110.492 751.172 102.181 751.172 90.6485C751.172 76.6229 757.354 66.8569 769.717 61.3505C782.185 55.8442 800.002 53.091 823.171 53.091C846.027 53.091 863.533 55.8442 875.689 61.3505C887.948 66.753 894.389 76.519 895.013 90.6485H842.962Z" fill="#A4E6E4"/>
  <path d="M741.978 85.662H662.656V99.6876H737.926V125.401H662.656V140.674H742.913V168.569H615.904V57.2991H741.978V85.662Z" fill="#A4E6E4"/>
  <path d="M525.392 53.091C553.027 53.091 573.546 57.974 586.949 67.74C600.351 77.506 607.052 92.5705 607.052 112.934C607.052 133.297 600.351 148.361 586.949 158.127C573.546 167.893 553.027 172.776 525.392 172.776C497.756 172.776 477.237 167.893 463.835 158.127C450.433 148.361 443.732 133.297 443.732 112.934C443.732 92.5705 450.433 77.506 463.835 67.74C477.237 57.974 497.756 53.091 525.392 53.091ZM525.392 138.491C545.755 138.491 555.936 129.972 555.936 112.934C555.936 95.8951 545.755 87.3758 525.392 87.3758C505.029 87.3758 494.847 95.8951 494.847 112.934C494.847 129.972 505.029 138.491 525.392 138.491Z" fill="#A4E6E4"/>
  <path d="M415.002 127.739L440.248 168.569H388.665L370.588 137.089H338.952V168.569H292.2V57.2991H388.198C406.275 57.2991 419.054 60.5198 426.534 66.9612C434.015 73.2987 437.755 82.8569 437.755 95.6358C437.755 104.467 435.833 111.272 431.989 116.051C428.145 120.83 422.482 124.206 415.002 126.18V127.739ZM373.86 109.817C378.12 109.817 381.133 109.09 382.899 107.635C384.769 106.077 385.704 103.688 385.704 100.467C385.704 97.1422 384.821 94.7007 383.055 93.1423C381.289 91.5839 378.224 90.8047 373.86 90.8047H338.952V109.817H373.86Z" fill="#A4E6E4"/>
  <path d="M281.915 85.662H202.592V99.6876H277.863V125.401H202.592V140.674H282.85V168.569H155.84V57.2991H281.915V85.662Z" fill="#A4E6E4"/>
  <path d="M98.1792 96.1033V57.2991H144.931V168.569H98.1792V128.518H46.7519V168.569H-0.00012207V57.2991H46.7519V96.1033H98.1792Z" fill="#A4E6E4"/>
</svg>
